G04 (created by PCBNEW (2013-may-18)-stable) date Sun 14 Jun 2015 08:39:56 PM EDT*
%MOIN*%
G04 Gerber Fmt 3.4, Leading zero omitted, Abs format*
%FSLAX34Y34*%
G01*
G70*
G90*
G04 APERTURE LIST*
%ADD10C,0.00590551*%
%ADD11C,0.02*%
%ADD12C,0.0039*%
%ADD13C,0.0001*%
%ADD14C,0.0043*%
G04 APERTURE END LIST*
G54D10*
G54D11*
X62564Y-29709D02*
X62088Y-31709D01*
X61707Y-30280D01*
X61326Y-31709D01*
X60850Y-29709D01*
X60088Y-31709D02*
X60088Y-30376D01*
X60088Y-29709D02*
X60183Y-29804D01*
X60088Y-29900D01*
X59992Y-29804D01*
X60088Y-29709D01*
X60088Y-29900D01*
X59135Y-31709D02*
X59135Y-30376D01*
X59135Y-30757D02*
X59040Y-30566D01*
X58945Y-30471D01*
X58754Y-30376D01*
X58564Y-30376D01*
X57135Y-31614D02*
X57326Y-31709D01*
X57707Y-31709D01*
X57897Y-31614D01*
X57992Y-31423D01*
X57992Y-30661D01*
X57897Y-30471D01*
X57707Y-30376D01*
X57326Y-30376D01*
X57135Y-30471D01*
X57040Y-30661D01*
X57040Y-30852D01*
X57992Y-31042D01*
X55897Y-31709D02*
X56088Y-31614D01*
X56183Y-31423D01*
X56183Y-29709D01*
X54373Y-31614D02*
X54564Y-31709D01*
X54945Y-31709D01*
X55135Y-31614D01*
X55230Y-31423D01*
X55230Y-30661D01*
X55135Y-30471D01*
X54945Y-30376D01*
X54564Y-30376D01*
X54373Y-30471D01*
X54278Y-30661D01*
X54278Y-30852D01*
X55230Y-31042D01*
X53516Y-31614D02*
X53326Y-31709D01*
X52945Y-31709D01*
X52754Y-31614D01*
X52659Y-31423D01*
X52659Y-31328D01*
X52754Y-31138D01*
X52945Y-31042D01*
X53230Y-31042D01*
X53421Y-30947D01*
X53516Y-30757D01*
X53516Y-30661D01*
X53421Y-30471D01*
X53230Y-30376D01*
X52945Y-30376D01*
X52754Y-30471D01*
X51897Y-31614D02*
X51707Y-31709D01*
X51326Y-31709D01*
X51135Y-31614D01*
X51040Y-31423D01*
X51040Y-31328D01*
X51135Y-31138D01*
X51326Y-31042D01*
X51611Y-31042D01*
X51802Y-30947D01*
X51897Y-30757D01*
X51897Y-30661D01*
X51802Y-30471D01*
X51611Y-30376D01*
X51326Y-30376D01*
X51135Y-30471D01*
X48659Y-31709D02*
X48659Y-29709D01*
X48659Y-30661D02*
X47516Y-30661D01*
X47516Y-31709D02*
X47516Y-29709D01*
X46278Y-31709D02*
X46469Y-31614D01*
X46564Y-31519D01*
X46659Y-31328D01*
X46659Y-30757D01*
X46564Y-30566D01*
X46469Y-30471D01*
X46278Y-30376D01*
X45992Y-30376D01*
X45802Y-30471D01*
X45707Y-30566D01*
X45611Y-30757D01*
X45611Y-31328D01*
X45707Y-31519D01*
X45802Y-31614D01*
X45992Y-31709D01*
X46278Y-31709D01*
X44754Y-31709D02*
X44754Y-30376D01*
X44754Y-30566D02*
X44659Y-30471D01*
X44469Y-30376D01*
X44183Y-30376D01*
X43992Y-30471D01*
X43897Y-30661D01*
X43897Y-31709D01*
X43897Y-30661D02*
X43802Y-30471D01*
X43611Y-30376D01*
X43326Y-30376D01*
X43135Y-30471D01*
X43040Y-30661D01*
X43040Y-31709D01*
X41326Y-31614D02*
X41516Y-31709D01*
X41897Y-31709D01*
X42088Y-31614D01*
X42183Y-31423D01*
X42183Y-30661D01*
X42088Y-30471D01*
X41897Y-30376D01*
X41516Y-30376D01*
X41326Y-30471D01*
X41230Y-30661D01*
X41230Y-30852D01*
X42183Y-31042D01*
X61707Y-34519D02*
X61802Y-34614D01*
X62088Y-34709D01*
X62278Y-34709D01*
X62564Y-34614D01*
X62754Y-34423D01*
X62849Y-34233D01*
X62945Y-33852D01*
X62945Y-33566D01*
X62849Y-33185D01*
X62754Y-32995D01*
X62564Y-32804D01*
X62278Y-32709D01*
X62088Y-32709D01*
X61802Y-32804D01*
X61707Y-32900D01*
X60564Y-34709D02*
X60754Y-34614D01*
X60849Y-34519D01*
X60945Y-34328D01*
X60945Y-33757D01*
X60849Y-33566D01*
X60754Y-33471D01*
X60564Y-33376D01*
X60278Y-33376D01*
X60088Y-33471D01*
X59992Y-33566D01*
X59897Y-33757D01*
X59897Y-34328D01*
X59992Y-34519D01*
X60088Y-34614D01*
X60278Y-34709D01*
X60564Y-34709D01*
X59040Y-33376D02*
X59040Y-34709D01*
X59040Y-33566D02*
X58945Y-33471D01*
X58754Y-33376D01*
X58469Y-33376D01*
X58278Y-33471D01*
X58183Y-33661D01*
X58183Y-34709D01*
X57516Y-33376D02*
X56754Y-33376D01*
X57230Y-32709D02*
X57230Y-34423D01*
X57135Y-34614D01*
X56945Y-34709D01*
X56754Y-34709D01*
X56088Y-34709D02*
X56088Y-33376D01*
X56088Y-33757D02*
X55992Y-33566D01*
X55897Y-33471D01*
X55707Y-33376D01*
X55516Y-33376D01*
X54564Y-34709D02*
X54754Y-34614D01*
X54849Y-34519D01*
X54945Y-34328D01*
X54945Y-33757D01*
X54849Y-33566D01*
X54754Y-33471D01*
X54564Y-33376D01*
X54278Y-33376D01*
X54088Y-33471D01*
X53992Y-33566D01*
X53897Y-33757D01*
X53897Y-34328D01*
X53992Y-34519D01*
X54088Y-34614D01*
X54278Y-34709D01*
X54564Y-34709D01*
X52754Y-34709D02*
X52945Y-34614D01*
X53040Y-34423D01*
X53040Y-32709D01*
X50564Y-34614D02*
X50278Y-34709D01*
X49802Y-34709D01*
X49611Y-34614D01*
X49516Y-34519D01*
X49421Y-34328D01*
X49421Y-34138D01*
X49516Y-33947D01*
X49611Y-33852D01*
X49802Y-33757D01*
X50183Y-33661D01*
X50373Y-33566D01*
X50469Y-33471D01*
X50564Y-33280D01*
X50564Y-33090D01*
X50469Y-32900D01*
X50373Y-32804D01*
X50183Y-32709D01*
X49707Y-32709D01*
X49421Y-32804D01*
X48754Y-33376D02*
X48278Y-34709D01*
X47802Y-33376D02*
X48278Y-34709D01*
X48469Y-35185D01*
X48564Y-35280D01*
X48754Y-35376D01*
X47135Y-34614D02*
X46945Y-34709D01*
X46564Y-34709D01*
X46373Y-34614D01*
X46278Y-34423D01*
X46278Y-34328D01*
X46373Y-34138D01*
X46564Y-34042D01*
X46850Y-34042D01*
X47040Y-33947D01*
X47135Y-33757D01*
X47135Y-33661D01*
X47040Y-33471D01*
X46850Y-33376D01*
X46564Y-33376D01*
X46373Y-33471D01*
X45707Y-33376D02*
X44945Y-33376D01*
X45421Y-32709D02*
X45421Y-34423D01*
X45326Y-34614D01*
X45135Y-34709D01*
X44945Y-34709D01*
X43516Y-34614D02*
X43707Y-34709D01*
X44088Y-34709D01*
X44278Y-34614D01*
X44373Y-34423D01*
X44373Y-33661D01*
X44278Y-33471D01*
X44088Y-33376D01*
X43707Y-33376D01*
X43516Y-33471D01*
X43421Y-33661D01*
X43421Y-33852D01*
X44373Y-34042D01*
X42564Y-34709D02*
X42564Y-33376D01*
X42564Y-33566D02*
X42469Y-33471D01*
X42278Y-33376D01*
X41992Y-33376D01*
X41802Y-33471D01*
X41707Y-33661D01*
X41707Y-34709D01*
X41707Y-33661D02*
X41611Y-33471D01*
X41421Y-33376D01*
X41135Y-33376D01*
X40945Y-33471D01*
X40850Y-33661D01*
X40850Y-34709D01*
G54D12*
X55747Y-38971D02*
G75*
G03X55747Y-38971I-49J0D01*
G74*
G01*
X55379Y-38653D02*
X55662Y-38936D01*
X55662Y-38936D02*
X56086Y-38512D01*
X56086Y-38512D02*
X55803Y-38229D01*
X55520Y-37946D02*
X55237Y-37663D01*
X55237Y-37663D02*
X54813Y-38087D01*
X54813Y-38087D02*
X55096Y-38370D01*
X49828Y-37897D02*
G75*
G03X49828Y-37897I-49J0D01*
G74*
G01*
X50096Y-37579D02*
X49813Y-37862D01*
X49813Y-37862D02*
X50237Y-38286D01*
X50237Y-38286D02*
X50520Y-38003D01*
X50803Y-37720D02*
X51086Y-37437D01*
X51086Y-37437D02*
X50662Y-37013D01*
X50662Y-37013D02*
X50379Y-37296D01*
X49597Y-44771D02*
G75*
G03X49597Y-44771I-49J0D01*
G74*
G01*
X49229Y-44453D02*
X49512Y-44736D01*
X49512Y-44736D02*
X49936Y-44312D01*
X49936Y-44312D02*
X49653Y-44029D01*
X49370Y-43746D02*
X49087Y-43463D01*
X49087Y-43463D02*
X48663Y-43887D01*
X48663Y-43887D02*
X48946Y-44170D01*
X57371Y-44402D02*
G75*
G03X57371Y-44402I-49J0D01*
G74*
G01*
X57003Y-44720D02*
X57286Y-44437D01*
X57286Y-44437D02*
X56862Y-44013D01*
X56862Y-44013D02*
X56579Y-44296D01*
X56296Y-44579D02*
X56013Y-44862D01*
X56013Y-44862D02*
X56437Y-45286D01*
X56437Y-45286D02*
X56720Y-45003D01*
X51047Y-46271D02*
G75*
G03X51047Y-46271I-49J0D01*
G74*
G01*
X50679Y-45953D02*
X50962Y-46236D01*
X50962Y-46236D02*
X51386Y-45812D01*
X51386Y-45812D02*
X51103Y-45529D01*
X50820Y-45246D02*
X50537Y-44963D01*
X50537Y-44963D02*
X50113Y-45387D01*
X50113Y-45387D02*
X50396Y-45670D01*
G54D13*
G36*
X36571Y-61486D02*
X36572Y-61545D01*
X36731Y-61423D01*
X36844Y-61420D01*
X36954Y-61460D01*
X37001Y-61498D01*
X37070Y-61606D01*
X37087Y-61723D01*
X37057Y-61835D01*
X36986Y-61925D01*
X36881Y-61976D01*
X36820Y-61983D01*
X36714Y-61970D01*
X36629Y-61937D01*
X36585Y-61893D01*
X36583Y-61881D01*
X36606Y-61865D01*
X36648Y-61882D01*
X36724Y-61911D01*
X36764Y-61917D01*
X36836Y-61889D01*
X36904Y-61823D01*
X36946Y-61744D01*
X36950Y-61717D01*
X36942Y-61679D01*
X36933Y-61673D01*
X36933Y-61567D01*
X36920Y-61538D01*
X36915Y-61531D01*
X36855Y-61497D01*
X36777Y-61492D01*
X36712Y-61515D01*
X36691Y-61542D01*
X36707Y-61570D01*
X36781Y-61582D01*
X36818Y-61583D01*
X36903Y-61580D01*
X36933Y-61567D01*
X36933Y-61673D01*
X36910Y-61659D01*
X36838Y-61651D01*
X36751Y-61650D01*
X36552Y-61650D01*
X36571Y-61486D01*
G37*
G36*
X40916Y-61457D02*
X40880Y-61490D01*
X40867Y-61495D01*
X40843Y-61518D01*
X40828Y-61571D01*
X40819Y-61665D01*
X40817Y-61813D01*
X40817Y-61850D01*
X40818Y-62010D01*
X40826Y-62114D01*
X40839Y-62174D01*
X40861Y-62202D01*
X40867Y-62204D01*
X40915Y-62235D01*
X40903Y-62262D01*
X40838Y-62279D01*
X40767Y-62283D01*
X40677Y-62277D01*
X40623Y-62262D01*
X40617Y-62253D01*
X40643Y-62217D01*
X40667Y-62204D01*
X40704Y-62158D01*
X40717Y-62084D01*
X40710Y-62017D01*
X40710Y-61755D01*
X40700Y-61632D01*
X40658Y-61541D01*
X40594Y-61490D01*
X40521Y-61488D01*
X40447Y-61541D01*
X40435Y-61557D01*
X40390Y-61665D01*
X40394Y-61770D01*
X40442Y-61855D01*
X40525Y-61905D01*
X40595Y-61910D01*
X40661Y-61898D01*
X40693Y-61866D01*
X40707Y-61795D01*
X40710Y-61755D01*
X40710Y-62017D01*
X40678Y-61989D01*
X40600Y-61983D01*
X40598Y-61983D01*
X40456Y-61964D01*
X40358Y-61900D01*
X40298Y-61800D01*
X40274Y-61679D01*
X40294Y-61562D01*
X40352Y-61472D01*
X40384Y-61449D01*
X40486Y-61419D01*
X40588Y-61427D01*
X40647Y-61458D01*
X40687Y-61483D01*
X40707Y-61458D01*
X40748Y-61428D01*
X40819Y-61417D01*
X40893Y-61428D01*
X40916Y-61457D01*
X40916Y-61457D01*
X40916Y-61457D01*
G37*
G36*
X49816Y-61457D02*
X49780Y-61490D01*
X49767Y-61495D01*
X49743Y-61518D01*
X49728Y-61571D01*
X49719Y-61665D01*
X49717Y-61813D01*
X49717Y-61850D01*
X49718Y-62010D01*
X49726Y-62114D01*
X49739Y-62174D01*
X49761Y-62202D01*
X49767Y-62204D01*
X49815Y-62235D01*
X49803Y-62262D01*
X49738Y-62279D01*
X49667Y-62283D01*
X49577Y-62277D01*
X49523Y-62262D01*
X49517Y-62253D01*
X49543Y-62217D01*
X49567Y-62204D01*
X49604Y-62158D01*
X49617Y-62084D01*
X49610Y-62017D01*
X49610Y-61755D01*
X49600Y-61632D01*
X49558Y-61541D01*
X49494Y-61490D01*
X49421Y-61488D01*
X49347Y-61541D01*
X49335Y-61557D01*
X49290Y-61665D01*
X49294Y-61770D01*
X49342Y-61855D01*
X49425Y-61905D01*
X49495Y-61910D01*
X49561Y-61898D01*
X49593Y-61866D01*
X49607Y-61795D01*
X49610Y-61755D01*
X49610Y-62017D01*
X49578Y-61989D01*
X49500Y-61983D01*
X49498Y-61983D01*
X49356Y-61964D01*
X49258Y-61900D01*
X49198Y-61800D01*
X49174Y-61679D01*
X49194Y-61562D01*
X49252Y-61472D01*
X49284Y-61449D01*
X49386Y-61419D01*
X49488Y-61427D01*
X49547Y-61458D01*
X49587Y-61483D01*
X49607Y-61458D01*
X49648Y-61428D01*
X49719Y-61417D01*
X49793Y-61428D01*
X49816Y-61457D01*
X49816Y-61457D01*
X49816Y-61457D01*
G37*
G36*
X53368Y-61430D02*
X53356Y-61451D01*
X53342Y-61462D01*
X53302Y-61513D01*
X53248Y-61607D01*
X53191Y-61726D01*
X53181Y-61750D01*
X53122Y-61911D01*
X53104Y-62028D01*
X53128Y-62110D01*
X53195Y-62166D01*
X53235Y-62184D01*
X53290Y-62218D01*
X53300Y-62250D01*
X53248Y-62282D01*
X53180Y-62259D01*
X53141Y-62225D01*
X53106Y-62171D01*
X53054Y-62071D01*
X52992Y-61941D01*
X52947Y-61838D01*
X52885Y-61702D01*
X52828Y-61590D01*
X52783Y-61516D01*
X52761Y-61493D01*
X52717Y-61463D01*
X52732Y-61435D01*
X52797Y-61418D01*
X52833Y-61417D01*
X52909Y-61421D01*
X52930Y-61439D01*
X52914Y-61475D01*
X52898Y-61531D01*
X52915Y-61612D01*
X52942Y-61683D01*
X53006Y-61833D01*
X53082Y-61685D01*
X53127Y-61586D01*
X53136Y-61520D01*
X53120Y-61477D01*
X53104Y-61441D01*
X53123Y-61423D01*
X53189Y-61418D01*
X53241Y-61418D01*
X53333Y-61420D01*
X53368Y-61430D01*
X53368Y-61430D01*
X53368Y-61430D01*
G37*
G36*
X43217Y-62150D02*
X43193Y-62204D01*
X43132Y-62220D01*
X43049Y-62199D01*
X42961Y-62143D01*
X42931Y-62114D01*
X42890Y-62069D01*
X42862Y-62024D01*
X42844Y-61967D01*
X42833Y-61884D01*
X42826Y-61760D01*
X42821Y-61607D01*
X42814Y-61428D01*
X42805Y-61304D01*
X42791Y-61224D01*
X42771Y-61178D01*
X42754Y-61160D01*
X42734Y-61137D01*
X42755Y-61124D01*
X42829Y-61118D01*
X42892Y-61118D01*
X43003Y-61123D01*
X43069Y-61139D01*
X43083Y-61162D01*
X43038Y-61186D01*
X43017Y-61193D01*
X42988Y-61205D01*
X42969Y-61232D01*
X42957Y-61285D01*
X42952Y-61376D01*
X42950Y-61517D01*
X42950Y-61595D01*
X42954Y-61816D01*
X42968Y-61976D01*
X42992Y-62081D01*
X43028Y-62137D01*
X43066Y-62150D01*
X43111Y-62132D01*
X43117Y-62117D01*
X43143Y-62087D01*
X43167Y-62083D01*
X43207Y-62111D01*
X43217Y-62150D01*
X43217Y-62150D01*
X43217Y-62150D01*
G37*
G36*
X56383Y-62150D02*
X56359Y-62204D01*
X56298Y-62220D01*
X56216Y-62199D01*
X56128Y-62143D01*
X56098Y-62114D01*
X56057Y-62069D01*
X56028Y-62024D01*
X56010Y-61967D01*
X56000Y-61884D01*
X55993Y-61760D01*
X55988Y-61607D01*
X55981Y-61428D01*
X55971Y-61304D01*
X55957Y-61224D01*
X55938Y-61178D01*
X55921Y-61160D01*
X55900Y-61137D01*
X55922Y-61124D01*
X55996Y-61118D01*
X56058Y-61118D01*
X56170Y-61123D01*
X56236Y-61139D01*
X56250Y-61162D01*
X56205Y-61186D01*
X56183Y-61193D01*
X56154Y-61205D01*
X56135Y-61232D01*
X56124Y-61285D01*
X56118Y-61376D01*
X56117Y-61517D01*
X56117Y-61595D01*
X56121Y-61816D01*
X56135Y-61976D01*
X56159Y-62081D01*
X56195Y-62137D01*
X56232Y-62150D01*
X56277Y-62132D01*
X56283Y-62117D01*
X56310Y-62087D01*
X56333Y-62083D01*
X56374Y-62111D01*
X56383Y-62150D01*
X56383Y-62150D01*
X56383Y-62150D01*
G37*
G36*
X37783Y-61450D02*
X37757Y-61480D01*
X37739Y-61483D01*
X37707Y-61512D01*
X37660Y-61588D01*
X37608Y-61696D01*
X37596Y-61723D01*
X37545Y-61837D01*
X37499Y-61926D01*
X37467Y-61971D01*
X37463Y-61973D01*
X37435Y-61950D01*
X37390Y-61879D01*
X37337Y-61773D01*
X37319Y-61734D01*
X37263Y-61618D01*
X37210Y-61530D01*
X37171Y-61486D01*
X37163Y-61483D01*
X37121Y-61464D01*
X37117Y-61450D01*
X37146Y-61428D01*
X37218Y-61417D01*
X37233Y-61417D01*
X37312Y-61427D01*
X37350Y-61450D01*
X37338Y-61479D01*
X37312Y-61490D01*
X37302Y-61526D01*
X37332Y-61611D01*
X37357Y-61664D01*
X37439Y-61826D01*
X37496Y-61684D01*
X37526Y-61584D01*
X37535Y-61501D01*
X37532Y-61480D01*
X37528Y-61439D01*
X37560Y-61421D01*
X37642Y-61417D01*
X37648Y-61417D01*
X37732Y-61424D01*
X37779Y-61442D01*
X37783Y-61450D01*
X37783Y-61450D01*
X37783Y-61450D01*
G37*
G36*
X38379Y-61744D02*
X38336Y-61864D01*
X38314Y-61895D01*
X38245Y-61947D01*
X38245Y-61668D01*
X38243Y-61640D01*
X38231Y-61548D01*
X38203Y-61504D01*
X38156Y-61489D01*
X38075Y-61496D01*
X38032Y-61517D01*
X37986Y-61591D01*
X37962Y-61696D01*
X37966Y-61801D01*
X37981Y-61846D01*
X38043Y-61903D01*
X38124Y-61914D01*
X38196Y-61877D01*
X38217Y-61849D01*
X38238Y-61772D01*
X38245Y-61668D01*
X38245Y-61947D01*
X38221Y-61966D01*
X38105Y-61987D01*
X37991Y-61958D01*
X37926Y-61908D01*
X37847Y-61788D01*
X37833Y-61666D01*
X37850Y-61599D01*
X37920Y-61485D01*
X38024Y-61428D01*
X38110Y-61418D01*
X38230Y-61445D01*
X38320Y-61518D01*
X38372Y-61623D01*
X38379Y-61744D01*
X38379Y-61744D01*
X38379Y-61744D01*
G37*
G36*
X39117Y-61934D02*
X39104Y-61957D01*
X39029Y-61973D01*
X38896Y-61982D01*
X38800Y-61983D01*
X38483Y-61983D01*
X38484Y-61858D01*
X38485Y-61733D01*
X38554Y-61825D01*
X38619Y-61890D01*
X38703Y-61915D01*
X38753Y-61917D01*
X38883Y-61917D01*
X38883Y-61562D01*
X38882Y-61399D01*
X38875Y-61289D01*
X38863Y-61220D01*
X38842Y-61179D01*
X38825Y-61163D01*
X38799Y-61137D01*
X38815Y-61124D01*
X38882Y-61118D01*
X38942Y-61118D01*
X39049Y-61124D01*
X39109Y-61142D01*
X39113Y-61169D01*
X39067Y-61195D01*
X39043Y-61218D01*
X39028Y-61271D01*
X39019Y-61365D01*
X39017Y-61513D01*
X39017Y-61550D01*
X39018Y-61710D01*
X39026Y-61814D01*
X39039Y-61874D01*
X39061Y-61902D01*
X39067Y-61904D01*
X39117Y-61934D01*
X39117Y-61934D01*
X39117Y-61934D01*
G37*
G36*
X40179Y-61105D02*
X40164Y-61124D01*
X40142Y-61133D01*
X40116Y-61151D01*
X40099Y-61189D01*
X40089Y-61258D01*
X40084Y-61370D01*
X40083Y-61536D01*
X40083Y-61537D01*
X40086Y-61706D01*
X40094Y-61831D01*
X40106Y-61902D01*
X40117Y-61917D01*
X40149Y-61942D01*
X40150Y-61950D01*
X40120Y-61970D01*
X40046Y-61982D01*
X40011Y-61983D01*
X39926Y-61981D01*
X39897Y-61970D01*
X39912Y-61940D01*
X39928Y-61922D01*
X39967Y-61842D01*
X39983Y-61728D01*
X39983Y-61723D01*
X39974Y-61622D01*
X39938Y-61560D01*
X39900Y-61530D01*
X39816Y-61496D01*
X39759Y-61522D01*
X39726Y-61608D01*
X39717Y-61737D01*
X39722Y-61836D01*
X39737Y-61901D01*
X39750Y-61917D01*
X39782Y-61942D01*
X39783Y-61950D01*
X39754Y-61972D01*
X39682Y-61983D01*
X39667Y-61983D01*
X39589Y-61975D01*
X39551Y-61956D01*
X39550Y-61952D01*
X39574Y-61907D01*
X39583Y-61900D01*
X39601Y-61858D01*
X39613Y-61770D01*
X39617Y-61688D01*
X39623Y-61576D01*
X39640Y-61490D01*
X39657Y-61457D01*
X39736Y-61420D01*
X39838Y-61432D01*
X39909Y-61468D01*
X39983Y-61520D01*
X39983Y-61285D01*
X39986Y-61155D01*
X40000Y-61082D01*
X40031Y-61055D01*
X40088Y-61065D01*
X40133Y-61082D01*
X40179Y-61105D01*
X40179Y-61105D01*
X40179Y-61105D01*
G37*
G36*
X41487Y-61740D02*
X41453Y-61852D01*
X41406Y-61911D01*
X41305Y-61966D01*
X41180Y-61982D01*
X41061Y-61957D01*
X41042Y-61947D01*
X40992Y-61905D01*
X40985Y-61873D01*
X41021Y-61870D01*
X41048Y-61882D01*
X41124Y-61911D01*
X41164Y-61917D01*
X41236Y-61889D01*
X41304Y-61823D01*
X41346Y-61744D01*
X41350Y-61717D01*
X41343Y-61679D01*
X41333Y-61672D01*
X41333Y-61567D01*
X41320Y-61538D01*
X41315Y-61531D01*
X41255Y-61497D01*
X41177Y-61492D01*
X41112Y-61515D01*
X41091Y-61542D01*
X41107Y-61570D01*
X41181Y-61582D01*
X41218Y-61583D01*
X41303Y-61580D01*
X41333Y-61567D01*
X41333Y-61672D01*
X41311Y-61659D01*
X41239Y-61651D01*
X41148Y-61650D01*
X41037Y-61648D01*
X40979Y-61640D01*
X40960Y-61619D01*
X40966Y-61580D01*
X40968Y-61575D01*
X41027Y-61475D01*
X41130Y-61424D01*
X41208Y-61417D01*
X41327Y-61445D01*
X41418Y-61520D01*
X41473Y-61623D01*
X41487Y-61740D01*
X41487Y-61740D01*
X41487Y-61740D01*
G37*
G36*
X41982Y-61875D02*
X41980Y-61940D01*
X41958Y-61972D01*
X41901Y-61982D01*
X41825Y-61982D01*
X41717Y-61975D01*
X41631Y-61957D01*
X41608Y-61947D01*
X41551Y-61886D01*
X41551Y-61809D01*
X41602Y-61728D01*
X41700Y-61653D01*
X41761Y-61622D01*
X41823Y-61583D01*
X41842Y-61542D01*
X41842Y-61541D01*
X41799Y-61500D01*
X41728Y-61489D01*
X41663Y-61509D01*
X41642Y-61531D01*
X41601Y-61567D01*
X41565Y-61547D01*
X41550Y-61481D01*
X41561Y-61440D01*
X41605Y-61421D01*
X41693Y-61417D01*
X41831Y-61435D01*
X41918Y-61484D01*
X41951Y-61553D01*
X41927Y-61632D01*
X41842Y-61711D01*
X41800Y-61735D01*
X41706Y-61797D01*
X41670Y-61851D01*
X41694Y-61892D01*
X41764Y-61911D01*
X41858Y-61900D01*
X41922Y-61844D01*
X41982Y-61767D01*
X41982Y-61875D01*
X41982Y-61875D01*
X41982Y-61875D01*
G37*
G36*
X42646Y-61744D02*
X42602Y-61864D01*
X42581Y-61895D01*
X42511Y-61947D01*
X42511Y-61668D01*
X42510Y-61640D01*
X42497Y-61548D01*
X42470Y-61504D01*
X42423Y-61489D01*
X42342Y-61496D01*
X42299Y-61517D01*
X42252Y-61591D01*
X42229Y-61696D01*
X42232Y-61801D01*
X42248Y-61846D01*
X42310Y-61903D01*
X42391Y-61914D01*
X42463Y-61877D01*
X42484Y-61849D01*
X42505Y-61772D01*
X42511Y-61668D01*
X42511Y-61947D01*
X42487Y-61966D01*
X42372Y-61987D01*
X42258Y-61958D01*
X42193Y-61908D01*
X42114Y-61788D01*
X42099Y-61666D01*
X42117Y-61599D01*
X42186Y-61485D01*
X42291Y-61428D01*
X42376Y-61418D01*
X42497Y-61445D01*
X42586Y-61518D01*
X42638Y-61623D01*
X42646Y-61744D01*
X42646Y-61744D01*
X42646Y-61744D01*
G37*
G36*
X47481Y-61935D02*
X47470Y-61962D01*
X47405Y-61979D01*
X47333Y-61983D01*
X47244Y-61977D01*
X47190Y-61962D01*
X47183Y-61953D01*
X47210Y-61917D01*
X47233Y-61904D01*
X47255Y-61885D01*
X47269Y-61838D01*
X47278Y-61754D01*
X47282Y-61622D01*
X47283Y-61468D01*
X47284Y-61288D01*
X47289Y-61166D01*
X47301Y-61093D01*
X47324Y-61060D01*
X47362Y-61057D01*
X47418Y-61076D01*
X47433Y-61082D01*
X47479Y-61105D01*
X47464Y-61124D01*
X47442Y-61133D01*
X47415Y-61152D01*
X47398Y-61190D01*
X47389Y-61261D01*
X47384Y-61376D01*
X47383Y-61521D01*
X47385Y-61688D01*
X47391Y-61799D01*
X47403Y-61866D01*
X47422Y-61898D01*
X47433Y-61904D01*
X47481Y-61935D01*
X47481Y-61935D01*
X47481Y-61935D01*
G37*
G36*
X47848Y-61935D02*
X47836Y-61962D01*
X47771Y-61979D01*
X47700Y-61983D01*
X47610Y-61977D01*
X47557Y-61962D01*
X47550Y-61953D01*
X47576Y-61917D01*
X47600Y-61904D01*
X47621Y-61885D01*
X47636Y-61838D01*
X47645Y-61754D01*
X47649Y-61622D01*
X47650Y-61468D01*
X47651Y-61288D01*
X47655Y-61166D01*
X47668Y-61093D01*
X47691Y-61060D01*
X47729Y-61057D01*
X47785Y-61076D01*
X47800Y-61082D01*
X47845Y-61105D01*
X47830Y-61124D01*
X47808Y-61133D01*
X47782Y-61152D01*
X47765Y-61190D01*
X47755Y-61261D01*
X47751Y-61376D01*
X47750Y-61521D01*
X47752Y-61688D01*
X47758Y-61799D01*
X47770Y-61866D01*
X47789Y-61898D01*
X47800Y-61904D01*
X47848Y-61935D01*
X47848Y-61935D01*
X47848Y-61935D01*
G37*
G36*
X48454Y-61740D02*
X48419Y-61852D01*
X48373Y-61911D01*
X48272Y-61966D01*
X48146Y-61982D01*
X48028Y-61957D01*
X48008Y-61947D01*
X47959Y-61905D01*
X47952Y-61873D01*
X47987Y-61870D01*
X48014Y-61882D01*
X48091Y-61911D01*
X48131Y-61917D01*
X48203Y-61889D01*
X48271Y-61823D01*
X48313Y-61744D01*
X48317Y-61717D01*
X48309Y-61679D01*
X48300Y-61673D01*
X48300Y-61567D01*
X48287Y-61538D01*
X48282Y-61531D01*
X48222Y-61497D01*
X48144Y-61492D01*
X48079Y-61515D01*
X48058Y-61542D01*
X48073Y-61570D01*
X48147Y-61582D01*
X48184Y-61583D01*
X48270Y-61580D01*
X48300Y-61567D01*
X48300Y-61673D01*
X48278Y-61659D01*
X48206Y-61651D01*
X48114Y-61650D01*
X48003Y-61648D01*
X47945Y-61640D01*
X47926Y-61619D01*
X47933Y-61580D01*
X47934Y-61575D01*
X47993Y-61475D01*
X48097Y-61424D01*
X48174Y-61417D01*
X48293Y-61445D01*
X48384Y-61520D01*
X48440Y-61623D01*
X48454Y-61740D01*
X48454Y-61740D01*
X48454Y-61740D01*
G37*
G36*
X49145Y-61105D02*
X49130Y-61124D01*
X49108Y-61133D01*
X49083Y-61151D01*
X49067Y-61187D01*
X49057Y-61253D01*
X49051Y-61361D01*
X49050Y-61522D01*
X49050Y-61562D01*
X49050Y-61967D01*
X48943Y-61972D01*
X48943Y-61739D01*
X48935Y-61610D01*
X48898Y-61521D01*
X48840Y-61479D01*
X48771Y-61490D01*
X48702Y-61557D01*
X48659Y-61660D01*
X48662Y-61764D01*
X48703Y-61850D01*
X48776Y-61903D01*
X48845Y-61910D01*
X48899Y-61897D01*
X48927Y-61863D01*
X48940Y-61788D01*
X48943Y-61739D01*
X48943Y-61972D01*
X48891Y-61975D01*
X48754Y-61967D01*
X48660Y-61925D01*
X48659Y-61925D01*
X48577Y-61826D01*
X48536Y-61703D01*
X48544Y-61584D01*
X48547Y-61574D01*
X48616Y-61476D01*
X48725Y-61427D01*
X48838Y-61427D01*
X48950Y-61446D01*
X48950Y-61248D01*
X48954Y-61130D01*
X48972Y-61069D01*
X49013Y-61055D01*
X49086Y-61077D01*
X49100Y-61082D01*
X49145Y-61105D01*
X49145Y-61105D01*
X49145Y-61105D01*
G37*
G36*
X50846Y-61477D02*
X50814Y-61499D01*
X50807Y-61502D01*
X50773Y-61529D01*
X50756Y-61590D01*
X50750Y-61699D01*
X50750Y-61720D01*
X50755Y-61825D01*
X50768Y-61896D01*
X50783Y-61917D01*
X50816Y-61942D01*
X50817Y-61950D01*
X50787Y-61972D01*
X50715Y-61983D01*
X50700Y-61983D01*
X50616Y-61972D01*
X50583Y-61944D01*
X50608Y-61906D01*
X50617Y-61900D01*
X50637Y-61857D01*
X50649Y-61772D01*
X50650Y-61732D01*
X50642Y-61630D01*
X50612Y-61567D01*
X50566Y-61530D01*
X50483Y-61496D01*
X50425Y-61522D01*
X50392Y-61608D01*
X50383Y-61737D01*
X50389Y-61836D01*
X50403Y-61901D01*
X50417Y-61917D01*
X50449Y-61942D01*
X50450Y-61950D01*
X50421Y-61972D01*
X50348Y-61983D01*
X50333Y-61983D01*
X50249Y-61972D01*
X50216Y-61944D01*
X50241Y-61906D01*
X50250Y-61900D01*
X50269Y-61857D01*
X50281Y-61772D01*
X50283Y-61720D01*
X50278Y-61619D01*
X50257Y-61563D01*
X50211Y-61528D01*
X50197Y-61521D01*
X50125Y-61499D01*
X50081Y-61501D01*
X50063Y-61542D01*
X50053Y-61623D01*
X50050Y-61722D01*
X50055Y-61819D01*
X50066Y-61890D01*
X50083Y-61917D01*
X50116Y-61942D01*
X50117Y-61950D01*
X50087Y-61972D01*
X50015Y-61983D01*
X50000Y-61983D01*
X49923Y-61975D01*
X49884Y-61956D01*
X49883Y-61952D01*
X49907Y-61907D01*
X49917Y-61900D01*
X49935Y-61857D01*
X49947Y-61771D01*
X49950Y-61701D01*
X49953Y-61589D01*
X49963Y-61500D01*
X49970Y-61469D01*
X50017Y-61428D01*
X50101Y-61418D01*
X50197Y-61441D01*
X50222Y-61453D01*
X50291Y-61472D01*
X50327Y-61453D01*
X50403Y-61419D01*
X50502Y-61431D01*
X50576Y-61468D01*
X50629Y-61502D01*
X50648Y-61494D01*
X50650Y-61468D01*
X50676Y-61427D01*
X50738Y-61419D01*
X50815Y-61448D01*
X50816Y-61449D01*
X50846Y-61477D01*
X50846Y-61477D01*
X50846Y-61477D01*
G37*
G36*
X51482Y-61843D02*
X51468Y-61911D01*
X51408Y-61962D01*
X51350Y-61973D01*
X51350Y-61854D01*
X51322Y-61775D01*
X51235Y-61717D01*
X51192Y-61702D01*
X51135Y-61695D01*
X51117Y-61734D01*
X51117Y-61758D01*
X51143Y-61856D01*
X51216Y-61909D01*
X51273Y-61917D01*
X51336Y-61897D01*
X51350Y-61854D01*
X51350Y-61973D01*
X51299Y-61983D01*
X51295Y-61983D01*
X51214Y-61973D01*
X51166Y-61948D01*
X51165Y-61947D01*
X51131Y-61929D01*
X51106Y-61947D01*
X51053Y-61974D01*
X50985Y-61982D01*
X50931Y-61973D01*
X50917Y-61953D01*
X50943Y-61917D01*
X50967Y-61904D01*
X50999Y-61868D01*
X51014Y-61784D01*
X51017Y-61703D01*
X51029Y-61559D01*
X51072Y-61469D01*
X51151Y-61424D01*
X51229Y-61417D01*
X51338Y-61433D01*
X51414Y-61476D01*
X51444Y-61536D01*
X51439Y-61564D01*
X51404Y-61600D01*
X51366Y-61585D01*
X51350Y-61531D01*
X51323Y-61495D01*
X51262Y-61483D01*
X51193Y-61493D01*
X51143Y-61525D01*
X51137Y-61536D01*
X51128Y-61598D01*
X51166Y-61637D01*
X51255Y-61663D01*
X51373Y-61705D01*
X51449Y-61770D01*
X51482Y-61843D01*
X51482Y-61843D01*
X51482Y-61843D01*
G37*
G36*
X52312Y-61603D02*
X52291Y-61731D01*
X52271Y-61777D01*
X52175Y-61888D01*
X52041Y-61958D01*
X51891Y-61985D01*
X51741Y-61963D01*
X51618Y-61896D01*
X51557Y-61838D01*
X51530Y-61797D01*
X51532Y-61790D01*
X51566Y-61796D01*
X51615Y-61832D01*
X51689Y-61872D01*
X51794Y-61902D01*
X51830Y-61908D01*
X51931Y-61913D01*
X52000Y-61892D01*
X52070Y-61835D01*
X52082Y-61823D01*
X52146Y-61747D01*
X52176Y-61670D01*
X52183Y-61559D01*
X52183Y-61555D01*
X52160Y-61391D01*
X52092Y-61272D01*
X51985Y-61201D01*
X51877Y-61183D01*
X51771Y-61196D01*
X51689Y-61245D01*
X51647Y-61287D01*
X51550Y-61390D01*
X51550Y-61286D01*
X51564Y-61203D01*
X51617Y-61157D01*
X51635Y-61149D01*
X51798Y-61116D01*
X51963Y-61132D01*
X52113Y-61190D01*
X52230Y-61286D01*
X52274Y-61351D01*
X52307Y-61466D01*
X52312Y-61603D01*
X52312Y-61603D01*
X52312Y-61603D01*
G37*
G36*
X54412Y-61477D02*
X54381Y-61499D01*
X54374Y-61502D01*
X54340Y-61529D01*
X54322Y-61590D01*
X54317Y-61699D01*
X54317Y-61720D01*
X54322Y-61825D01*
X54335Y-61896D01*
X54350Y-61917D01*
X54382Y-61942D01*
X54383Y-61950D01*
X54354Y-61972D01*
X54282Y-61983D01*
X54267Y-61983D01*
X54182Y-61972D01*
X54149Y-61944D01*
X54174Y-61906D01*
X54183Y-61900D01*
X54203Y-61857D01*
X54215Y-61772D01*
X54217Y-61732D01*
X54209Y-61630D01*
X54178Y-61567D01*
X54133Y-61530D01*
X54050Y-61496D01*
X53992Y-61522D01*
X53959Y-61608D01*
X53950Y-61737D01*
X53955Y-61836D01*
X53970Y-61901D01*
X53983Y-61917D01*
X54016Y-61942D01*
X54017Y-61950D01*
X53987Y-61972D01*
X53915Y-61983D01*
X53900Y-61983D01*
X53816Y-61972D01*
X53783Y-61944D01*
X53808Y-61906D01*
X53817Y-61900D01*
X53836Y-61857D01*
X53848Y-61772D01*
X53850Y-61720D01*
X53845Y-61619D01*
X53824Y-61563D01*
X53777Y-61528D01*
X53764Y-61521D01*
X53691Y-61499D01*
X53647Y-61501D01*
X53630Y-61542D01*
X53620Y-61623D01*
X53617Y-61722D01*
X53622Y-61819D01*
X53633Y-61890D01*
X53650Y-61917D01*
X53682Y-61942D01*
X53683Y-61950D01*
X53654Y-61972D01*
X53582Y-61983D01*
X53567Y-61983D01*
X53489Y-61975D01*
X53451Y-61956D01*
X53450Y-61952D01*
X53474Y-61907D01*
X53483Y-61900D01*
X53502Y-61857D01*
X53514Y-61771D01*
X53517Y-61701D01*
X53520Y-61589D01*
X53529Y-61500D01*
X53537Y-61469D01*
X53584Y-61428D01*
X53668Y-61418D01*
X53764Y-61441D01*
X53789Y-61453D01*
X53857Y-61472D01*
X53893Y-61453D01*
X53970Y-61419D01*
X54069Y-61431D01*
X54142Y-61468D01*
X54196Y-61502D01*
X54215Y-61494D01*
X54217Y-61468D01*
X54242Y-61427D01*
X54305Y-61419D01*
X54381Y-61448D01*
X54382Y-61449D01*
X54412Y-61477D01*
X54412Y-61477D01*
X54412Y-61477D01*
G37*
G36*
X55479Y-61477D02*
X55448Y-61499D01*
X55441Y-61502D01*
X55407Y-61529D01*
X55389Y-61590D01*
X55383Y-61699D01*
X55383Y-61720D01*
X55388Y-61825D01*
X55402Y-61896D01*
X55417Y-61917D01*
X55449Y-61942D01*
X55450Y-61950D01*
X55421Y-61972D01*
X55348Y-61983D01*
X55333Y-61983D01*
X55249Y-61972D01*
X55216Y-61944D01*
X55241Y-61906D01*
X55250Y-61900D01*
X55270Y-61857D01*
X55282Y-61772D01*
X55283Y-61732D01*
X55275Y-61630D01*
X55245Y-61567D01*
X55200Y-61530D01*
X55116Y-61496D01*
X55059Y-61522D01*
X55026Y-61608D01*
X55017Y-61737D01*
X55022Y-61836D01*
X55037Y-61901D01*
X55050Y-61917D01*
X55082Y-61942D01*
X55083Y-61950D01*
X55054Y-61972D01*
X54982Y-61983D01*
X54967Y-61983D01*
X54882Y-61972D01*
X54849Y-61944D01*
X54874Y-61906D01*
X54883Y-61900D01*
X54903Y-61857D01*
X54915Y-61772D01*
X54917Y-61720D01*
X54912Y-61619D01*
X54891Y-61563D01*
X54844Y-61528D01*
X54831Y-61521D01*
X54758Y-61499D01*
X54714Y-61501D01*
X54697Y-61542D01*
X54687Y-61623D01*
X54684Y-61722D01*
X54688Y-61819D01*
X54700Y-61890D01*
X54717Y-61917D01*
X54749Y-61942D01*
X54750Y-61950D01*
X54721Y-61972D01*
X54648Y-61983D01*
X54633Y-61983D01*
X54556Y-61975D01*
X54518Y-61956D01*
X54517Y-61952D01*
X54541Y-61907D01*
X54550Y-61900D01*
X54568Y-61857D01*
X54581Y-61771D01*
X54583Y-61701D01*
X54587Y-61589D01*
X54596Y-61500D01*
X54603Y-61469D01*
X54651Y-61428D01*
X54734Y-61418D01*
X54831Y-61441D01*
X54856Y-61453D01*
X54924Y-61472D01*
X54960Y-61453D01*
X55037Y-61419D01*
X55136Y-61431D01*
X55209Y-61468D01*
X55263Y-61502D01*
X55281Y-61494D01*
X55283Y-61468D01*
X55309Y-61427D01*
X55371Y-61419D01*
X55448Y-61448D01*
X55449Y-61449D01*
X55479Y-61477D01*
X55479Y-61477D01*
X55479Y-61477D01*
G37*
G36*
X55848Y-61935D02*
X55836Y-61962D01*
X55771Y-61979D01*
X55700Y-61983D01*
X55610Y-61977D01*
X55557Y-61962D01*
X55550Y-61953D01*
X55576Y-61917D01*
X55603Y-61903D01*
X55631Y-61880D01*
X55645Y-61827D01*
X55647Y-61730D01*
X55644Y-61650D01*
X55640Y-61528D01*
X55644Y-61457D01*
X55660Y-61425D01*
X55691Y-61417D01*
X55700Y-61417D01*
X55781Y-61433D01*
X55816Y-61449D01*
X55846Y-61477D01*
X55814Y-61499D01*
X55807Y-61502D01*
X55772Y-61546D01*
X55751Y-61632D01*
X55746Y-61734D01*
X55757Y-61829D01*
X55784Y-61893D01*
X55800Y-61904D01*
X55848Y-61935D01*
X55848Y-61935D01*
X55848Y-61935D01*
G37*
G36*
X59185Y-61983D02*
X58956Y-61983D01*
X58839Y-61980D01*
X58748Y-61972D01*
X58706Y-61961D01*
X58705Y-61961D01*
X58689Y-61914D01*
X58685Y-61853D01*
X58687Y-61767D01*
X58739Y-61842D01*
X58810Y-61901D01*
X58908Y-61917D01*
X59024Y-61917D01*
X58942Y-61808D01*
X58872Y-61710D01*
X58795Y-61596D01*
X58771Y-61558D01*
X58682Y-61417D01*
X58916Y-61417D01*
X59038Y-61418D01*
X59108Y-61425D01*
X59140Y-61443D01*
X59149Y-61477D01*
X59150Y-61500D01*
X59140Y-61569D01*
X59110Y-61575D01*
X59069Y-61530D01*
X59003Y-61492D01*
X58942Y-61489D01*
X58854Y-61500D01*
X59019Y-61742D01*
X59185Y-61983D01*
X59185Y-61983D01*
X59185Y-61983D01*
G37*
G36*
X59787Y-61740D02*
X59753Y-61852D01*
X59706Y-61911D01*
X59605Y-61966D01*
X59480Y-61982D01*
X59361Y-61957D01*
X59342Y-61947D01*
X59292Y-61905D01*
X59285Y-61873D01*
X59321Y-61870D01*
X59348Y-61882D01*
X59424Y-61911D01*
X59464Y-61917D01*
X59536Y-61889D01*
X59604Y-61823D01*
X59646Y-61744D01*
X59650Y-61717D01*
X59643Y-61679D01*
X59633Y-61672D01*
X59633Y-61567D01*
X59620Y-61538D01*
X59615Y-61531D01*
X59555Y-61497D01*
X59477Y-61492D01*
X59412Y-61515D01*
X59391Y-61542D01*
X59407Y-61570D01*
X59481Y-61582D01*
X59518Y-61583D01*
X59603Y-61580D01*
X59633Y-61567D01*
X59633Y-61672D01*
X59611Y-61659D01*
X59539Y-61651D01*
X59448Y-61650D01*
X59337Y-61648D01*
X59279Y-61640D01*
X59260Y-61619D01*
X59266Y-61580D01*
X59268Y-61575D01*
X59327Y-61475D01*
X59430Y-61424D01*
X59508Y-61417D01*
X59627Y-61445D01*
X59718Y-61520D01*
X59773Y-61623D01*
X59787Y-61740D01*
X59787Y-61740D01*
X59787Y-61740D01*
G37*
G36*
X60417Y-61715D02*
X60394Y-61834D01*
X60336Y-61925D01*
X60282Y-61960D01*
X60282Y-61713D01*
X60274Y-61611D01*
X60249Y-61534D01*
X60235Y-61518D01*
X60165Y-61490D01*
X60110Y-61489D01*
X60063Y-61504D01*
X60038Y-61545D01*
X60025Y-61630D01*
X60023Y-61665D01*
X60022Y-61777D01*
X60042Y-61843D01*
X60071Y-61874D01*
X60155Y-61914D01*
X60224Y-61893D01*
X60243Y-61877D01*
X60272Y-61812D01*
X60282Y-61713D01*
X60282Y-61960D01*
X60255Y-61978D01*
X60165Y-61985D01*
X60086Y-61942D01*
X60046Y-61917D01*
X60026Y-61942D01*
X60007Y-61974D01*
X59969Y-61976D01*
X59893Y-61949D01*
X59887Y-61947D01*
X59832Y-61919D01*
X59835Y-61888D01*
X59862Y-61855D01*
X59887Y-61814D01*
X59903Y-61748D01*
X59913Y-61646D01*
X59916Y-61494D01*
X59917Y-61422D01*
X59918Y-61254D01*
X59924Y-61143D01*
X59939Y-61080D01*
X59967Y-61056D01*
X60012Y-61061D01*
X60067Y-61082D01*
X60112Y-61105D01*
X60097Y-61124D01*
X60075Y-61133D01*
X60032Y-61177D01*
X60017Y-61269D01*
X60017Y-61287D01*
X60020Y-61371D01*
X60043Y-61407D01*
X60104Y-61416D01*
X60135Y-61417D01*
X60266Y-61445D01*
X60361Y-61526D01*
X60411Y-61649D01*
X60417Y-61715D01*
X60417Y-61715D01*
X60417Y-61715D01*
G37*
G36*
X61179Y-61477D02*
X61148Y-61499D01*
X61141Y-61502D01*
X61107Y-61529D01*
X61089Y-61590D01*
X61083Y-61699D01*
X61083Y-61720D01*
X61088Y-61825D01*
X61102Y-61896D01*
X61117Y-61917D01*
X61149Y-61942D01*
X61150Y-61950D01*
X61120Y-61971D01*
X61046Y-61982D01*
X61017Y-61983D01*
X60926Y-61974D01*
X60885Y-61951D01*
X60899Y-61921D01*
X60933Y-61904D01*
X60969Y-61859D01*
X60983Y-61757D01*
X60983Y-61735D01*
X60976Y-61632D01*
X60947Y-61569D01*
X60900Y-61530D01*
X60816Y-61496D01*
X60759Y-61522D01*
X60726Y-61608D01*
X60717Y-61737D01*
X60722Y-61836D01*
X60737Y-61901D01*
X60750Y-61917D01*
X60782Y-61942D01*
X60783Y-61950D01*
X60754Y-61972D01*
X60682Y-61983D01*
X60667Y-61983D01*
X60589Y-61975D01*
X60551Y-61956D01*
X60550Y-61952D01*
X60574Y-61907D01*
X60583Y-61900D01*
X60601Y-61858D01*
X60613Y-61770D01*
X60617Y-61688D01*
X60623Y-61576D01*
X60640Y-61490D01*
X60657Y-61457D01*
X60736Y-61420D01*
X60838Y-61432D01*
X60909Y-61468D01*
X60963Y-61502D01*
X60981Y-61494D01*
X60983Y-61468D01*
X61009Y-61427D01*
X61071Y-61419D01*
X61148Y-61448D01*
X61149Y-61449D01*
X61179Y-61477D01*
X61179Y-61477D01*
X61179Y-61477D01*
G37*
G36*
X61782Y-61843D02*
X61768Y-61911D01*
X61708Y-61962D01*
X61650Y-61973D01*
X61650Y-61854D01*
X61622Y-61775D01*
X61535Y-61717D01*
X61492Y-61702D01*
X61435Y-61695D01*
X61417Y-61734D01*
X61417Y-61758D01*
X61443Y-61856D01*
X61516Y-61909D01*
X61573Y-61917D01*
X61636Y-61897D01*
X61650Y-61854D01*
X61650Y-61973D01*
X61599Y-61983D01*
X61595Y-61983D01*
X61514Y-61973D01*
X61466Y-61948D01*
X61465Y-61947D01*
X61431Y-61929D01*
X61406Y-61947D01*
X61353Y-61974D01*
X61285Y-61982D01*
X61231Y-61973D01*
X61217Y-61953D01*
X61243Y-61917D01*
X61267Y-61904D01*
X61299Y-61868D01*
X61314Y-61784D01*
X61317Y-61703D01*
X61329Y-61559D01*
X61372Y-61469D01*
X61451Y-61424D01*
X61529Y-61417D01*
X61638Y-61433D01*
X61714Y-61476D01*
X61744Y-61536D01*
X61739Y-61564D01*
X61704Y-61600D01*
X61666Y-61585D01*
X61650Y-61531D01*
X61623Y-61495D01*
X61562Y-61483D01*
X61493Y-61493D01*
X61443Y-61525D01*
X61437Y-61536D01*
X61428Y-61598D01*
X61466Y-61637D01*
X61555Y-61663D01*
X61673Y-61705D01*
X61749Y-61770D01*
X61782Y-61843D01*
X61782Y-61843D01*
X61782Y-61843D01*
G37*
G36*
X62512Y-61477D02*
X62481Y-61499D01*
X62474Y-61502D01*
X62440Y-61529D01*
X62422Y-61590D01*
X62417Y-61699D01*
X62417Y-61720D01*
X62422Y-61825D01*
X62435Y-61896D01*
X62450Y-61917D01*
X62482Y-61942D01*
X62483Y-61950D01*
X62454Y-61971D01*
X62380Y-61982D01*
X62350Y-61983D01*
X62259Y-61974D01*
X62218Y-61951D01*
X62233Y-61921D01*
X62267Y-61904D01*
X62302Y-61859D01*
X62316Y-61757D01*
X62317Y-61735D01*
X62309Y-61632D01*
X62280Y-61569D01*
X62233Y-61530D01*
X62150Y-61496D01*
X62092Y-61522D01*
X62059Y-61608D01*
X62050Y-61737D01*
X62055Y-61836D01*
X62070Y-61901D01*
X62083Y-61917D01*
X62116Y-61942D01*
X62117Y-61950D01*
X62087Y-61972D01*
X62015Y-61983D01*
X62000Y-61983D01*
X61923Y-61975D01*
X61884Y-61956D01*
X61883Y-61952D01*
X61907Y-61907D01*
X61917Y-61900D01*
X61935Y-61858D01*
X61947Y-61770D01*
X61950Y-61688D01*
X61956Y-61576D01*
X61973Y-61490D01*
X61990Y-61457D01*
X62070Y-61420D01*
X62171Y-61432D01*
X62242Y-61468D01*
X62296Y-61502D01*
X62315Y-61494D01*
X62317Y-61468D01*
X62342Y-61427D01*
X62405Y-61419D01*
X62481Y-61448D01*
X62482Y-61449D01*
X62512Y-61477D01*
X62512Y-61477D01*
X62512Y-61477D01*
G37*
G36*
X63015Y-61935D02*
X63003Y-61962D01*
X62938Y-61979D01*
X62867Y-61983D01*
X62777Y-61977D01*
X62723Y-61962D01*
X62717Y-61953D01*
X62743Y-61917D01*
X62767Y-61904D01*
X62804Y-61856D01*
X62817Y-61765D01*
X62801Y-61632D01*
X62756Y-61549D01*
X62685Y-61522D01*
X62674Y-61523D01*
X62609Y-61510D01*
X62590Y-61475D01*
X62603Y-61429D01*
X62654Y-61416D01*
X62721Y-61437D01*
X62764Y-61469D01*
X62804Y-61504D01*
X62816Y-61489D01*
X62817Y-61469D01*
X62845Y-61426D01*
X62898Y-61417D01*
X62969Y-61429D01*
X63001Y-61457D01*
X62982Y-61488D01*
X62966Y-61495D01*
X62935Y-61539D01*
X62917Y-61624D01*
X62914Y-61726D01*
X62924Y-61823D01*
X62949Y-61890D01*
X62967Y-61904D01*
X63015Y-61935D01*
X63015Y-61935D01*
X63015Y-61935D01*
G37*
G36*
X63620Y-61740D02*
X63586Y-61852D01*
X63539Y-61911D01*
X63438Y-61966D01*
X63313Y-61982D01*
X63195Y-61957D01*
X63175Y-61947D01*
X63125Y-61905D01*
X63119Y-61873D01*
X63154Y-61870D01*
X63181Y-61882D01*
X63258Y-61911D01*
X63298Y-61917D01*
X63369Y-61889D01*
X63438Y-61823D01*
X63479Y-61744D01*
X63483Y-61717D01*
X63476Y-61679D01*
X63467Y-61673D01*
X63467Y-61567D01*
X63454Y-61538D01*
X63448Y-61531D01*
X63388Y-61497D01*
X63311Y-61492D01*
X63245Y-61515D01*
X63225Y-61542D01*
X63240Y-61570D01*
X63314Y-61582D01*
X63351Y-61583D01*
X63436Y-61580D01*
X63467Y-61567D01*
X63467Y-61673D01*
X63444Y-61659D01*
X63373Y-61651D01*
X63281Y-61650D01*
X63170Y-61648D01*
X63112Y-61640D01*
X63093Y-61619D01*
X63099Y-61580D01*
X63101Y-61575D01*
X63160Y-61475D01*
X63264Y-61424D01*
X63341Y-61417D01*
X63460Y-61445D01*
X63551Y-61520D01*
X63607Y-61623D01*
X63620Y-61740D01*
X63620Y-61740D01*
X63620Y-61740D01*
G37*
G36*
X64615Y-61935D02*
X64604Y-61961D01*
X64538Y-61978D01*
X64450Y-61983D01*
X64355Y-61977D01*
X64294Y-61962D01*
X64283Y-61950D01*
X64310Y-61920D01*
X64333Y-61917D01*
X64363Y-61900D01*
X64379Y-61842D01*
X64383Y-61733D01*
X64383Y-61550D01*
X64167Y-61550D01*
X63950Y-61550D01*
X63950Y-61718D01*
X63958Y-61833D01*
X63983Y-61894D01*
X64000Y-61904D01*
X64049Y-61935D01*
X64037Y-61960D01*
X63972Y-61977D01*
X63875Y-61982D01*
X63776Y-61980D01*
X63735Y-61971D01*
X63740Y-61952D01*
X63758Y-61937D01*
X63785Y-61906D01*
X63803Y-61855D01*
X63812Y-61769D01*
X63816Y-61637D01*
X63817Y-61550D01*
X63815Y-61389D01*
X63808Y-61282D01*
X63795Y-61216D01*
X63773Y-61176D01*
X63758Y-61163D01*
X63732Y-61137D01*
X63748Y-61124D01*
X63816Y-61118D01*
X63875Y-61118D01*
X63983Y-61124D01*
X64042Y-61142D01*
X64046Y-61169D01*
X64000Y-61195D01*
X63962Y-61245D01*
X63950Y-61349D01*
X63950Y-61483D01*
X64167Y-61483D01*
X64383Y-61483D01*
X64383Y-61333D01*
X64377Y-61234D01*
X64354Y-61189D01*
X64333Y-61183D01*
X64289Y-61165D01*
X64283Y-61150D01*
X64313Y-61131D01*
X64390Y-61119D01*
X64450Y-61117D01*
X64554Y-61124D01*
X64610Y-61143D01*
X64611Y-61171D01*
X64567Y-61195D01*
X64543Y-61218D01*
X64528Y-61271D01*
X64519Y-61365D01*
X64517Y-61513D01*
X64517Y-61550D01*
X64518Y-61710D01*
X64526Y-61814D01*
X64539Y-61874D01*
X64561Y-61902D01*
X64567Y-61904D01*
X64615Y-61935D01*
X64615Y-61935D01*
X64615Y-61935D01*
G37*
G36*
X65315Y-61455D02*
X65293Y-61476D01*
X65271Y-61522D01*
X65253Y-61617D01*
X65243Y-61734D01*
X65236Y-61856D01*
X65225Y-61926D01*
X65204Y-61960D01*
X65167Y-61971D01*
X65150Y-61973D01*
X65069Y-61971D01*
X65025Y-61962D01*
X64984Y-61927D01*
X64999Y-61896D01*
X65058Y-61889D01*
X65099Y-61890D01*
X65123Y-61868D01*
X65135Y-61808D01*
X65143Y-61697D01*
X65143Y-61692D01*
X65147Y-61578D01*
X65142Y-61516D01*
X65122Y-61489D01*
X65081Y-61483D01*
X65068Y-61483D01*
X65005Y-61472D01*
X64983Y-61450D01*
X65012Y-61425D01*
X65067Y-61417D01*
X65125Y-61406D01*
X65148Y-61362D01*
X65150Y-61314D01*
X65164Y-61241D01*
X65197Y-61225D01*
X65230Y-61264D01*
X65245Y-61319D01*
X65268Y-61392D01*
X65295Y-61425D01*
X65315Y-61455D01*
X65315Y-61455D01*
X65315Y-61455D01*
G37*
G36*
X66079Y-61477D02*
X66048Y-61499D01*
X66041Y-61502D01*
X66007Y-61529D01*
X65989Y-61590D01*
X65983Y-61699D01*
X65983Y-61720D01*
X65988Y-61825D01*
X66002Y-61896D01*
X66017Y-61917D01*
X66049Y-61942D01*
X66050Y-61950D01*
X66020Y-61971D01*
X65946Y-61982D01*
X65917Y-61983D01*
X65826Y-61974D01*
X65785Y-61951D01*
X65799Y-61921D01*
X65833Y-61904D01*
X65869Y-61859D01*
X65883Y-61757D01*
X65883Y-61735D01*
X65876Y-61632D01*
X65847Y-61569D01*
X65800Y-61530D01*
X65716Y-61496D01*
X65659Y-61522D01*
X65626Y-61608D01*
X65617Y-61737D01*
X65622Y-61836D01*
X65637Y-61901D01*
X65650Y-61917D01*
X65682Y-61942D01*
X65683Y-61950D01*
X65654Y-61972D01*
X65582Y-61983D01*
X65567Y-61983D01*
X65489Y-61975D01*
X65451Y-61956D01*
X65450Y-61952D01*
X65474Y-61907D01*
X65483Y-61900D01*
X65501Y-61858D01*
X65513Y-61770D01*
X65517Y-61688D01*
X65523Y-61576D01*
X65540Y-61490D01*
X65557Y-61457D01*
X65636Y-61420D01*
X65738Y-61432D01*
X65809Y-61468D01*
X65863Y-61502D01*
X65881Y-61494D01*
X65883Y-61468D01*
X65909Y-61427D01*
X65971Y-61419D01*
X66048Y-61448D01*
X66049Y-61449D01*
X66079Y-61477D01*
X66079Y-61477D01*
X66079Y-61477D01*
G37*
G36*
X66715Y-61843D02*
X66702Y-61911D01*
X66641Y-61962D01*
X66583Y-61973D01*
X66583Y-61854D01*
X66555Y-61775D01*
X66468Y-61717D01*
X66425Y-61702D01*
X66368Y-61695D01*
X66351Y-61734D01*
X66350Y-61758D01*
X66376Y-61856D01*
X66450Y-61909D01*
X66507Y-61917D01*
X66569Y-61897D01*
X66583Y-61854D01*
X66583Y-61973D01*
X66532Y-61983D01*
X66528Y-61983D01*
X66447Y-61973D01*
X66399Y-61948D01*
X66398Y-61947D01*
X66365Y-61929D01*
X66339Y-61947D01*
X66287Y-61974D01*
X66219Y-61982D01*
X66164Y-61973D01*
X66150Y-61953D01*
X66176Y-61917D01*
X66200Y-61904D01*
X66232Y-61868D01*
X66247Y-61784D01*
X66250Y-61703D01*
X66263Y-61559D01*
X66306Y-61469D01*
X66385Y-61424D01*
X66463Y-61417D01*
X66571Y-61433D01*
X66648Y-61476D01*
X66677Y-61536D01*
X66672Y-61564D01*
X66637Y-61600D01*
X66600Y-61585D01*
X66583Y-61531D01*
X66557Y-61495D01*
X66495Y-61483D01*
X66426Y-61493D01*
X66376Y-61525D01*
X66370Y-61536D01*
X66361Y-61598D01*
X66399Y-61637D01*
X66489Y-61663D01*
X66607Y-61705D01*
X66683Y-61770D01*
X66715Y-61843D01*
X66715Y-61843D01*
X66715Y-61843D01*
G37*
G36*
X67181Y-61935D02*
X67170Y-61962D01*
X67105Y-61979D01*
X67033Y-61983D01*
X66944Y-61977D01*
X66890Y-61962D01*
X66883Y-61953D01*
X66910Y-61917D01*
X66933Y-61904D01*
X66971Y-61856D01*
X66983Y-61765D01*
X66967Y-61632D01*
X66922Y-61549D01*
X66852Y-61522D01*
X66840Y-61523D01*
X66775Y-61510D01*
X66757Y-61475D01*
X66770Y-61429D01*
X66821Y-61416D01*
X66888Y-61437D01*
X66931Y-61469D01*
X66971Y-61504D01*
X66983Y-61489D01*
X66983Y-61469D01*
X67012Y-61426D01*
X67065Y-61417D01*
X67136Y-61429D01*
X67168Y-61457D01*
X67148Y-61488D01*
X67133Y-61495D01*
X67101Y-61539D01*
X67084Y-61624D01*
X67081Y-61726D01*
X67091Y-61823D01*
X67116Y-61890D01*
X67133Y-61904D01*
X67181Y-61935D01*
X67181Y-61935D01*
X67181Y-61935D01*
G37*
G36*
X68117Y-61579D02*
X68105Y-61684D01*
X68061Y-61772D01*
X68005Y-61840D01*
X67933Y-61910D01*
X67866Y-61949D01*
X67777Y-61967D01*
X67696Y-61973D01*
X67528Y-61969D01*
X67398Y-61938D01*
X67392Y-61935D01*
X67316Y-61890D01*
X67287Y-61830D01*
X67283Y-61775D01*
X67272Y-61686D01*
X67245Y-61625D01*
X67243Y-61623D01*
X67233Y-61599D01*
X67271Y-61586D01*
X67360Y-61583D01*
X67452Y-61590D01*
X67508Y-61606D01*
X67517Y-61617D01*
X67490Y-61646D01*
X67467Y-61650D01*
X67430Y-61677D01*
X67415Y-61742D01*
X67421Y-61817D01*
X67446Y-61878D01*
X67469Y-61896D01*
X67590Y-61916D01*
X67727Y-61900D01*
X67812Y-61869D01*
X67913Y-61780D01*
X67970Y-61643D01*
X67983Y-61512D01*
X67955Y-61374D01*
X67881Y-61269D01*
X67775Y-61202D01*
X67651Y-61179D01*
X67525Y-61206D01*
X67413Y-61287D01*
X67317Y-61390D01*
X67317Y-61289D01*
X67322Y-61218D01*
X67350Y-61174D01*
X67412Y-61148D01*
X67523Y-61131D01*
X67562Y-61127D01*
X67751Y-61134D01*
X67908Y-61193D01*
X68026Y-61297D01*
X68098Y-61441D01*
X68117Y-61579D01*
X68117Y-61579D01*
X68117Y-61579D01*
G37*
G36*
X55750Y-61183D02*
X55726Y-61237D01*
X55676Y-61249D01*
X55633Y-61217D01*
X55629Y-61161D01*
X55672Y-61122D01*
X55702Y-61117D01*
X55741Y-61144D01*
X55750Y-61183D01*
X55750Y-61183D01*
X55750Y-61183D01*
G37*
G36*
X57964Y-57294D02*
X57950Y-57350D01*
X57892Y-57450D01*
X57830Y-57539D01*
X57650Y-57770D01*
X57650Y-57604D01*
X57647Y-57593D01*
X57597Y-57614D01*
X57511Y-57664D01*
X57453Y-57700D01*
X57286Y-57800D01*
X57074Y-57914D01*
X56833Y-58035D01*
X56581Y-58154D01*
X56333Y-58264D01*
X56108Y-58356D01*
X56040Y-58382D01*
X55384Y-58596D01*
X54743Y-58754D01*
X54103Y-58858D01*
X53449Y-58909D01*
X53100Y-58917D01*
X52823Y-58923D01*
X52555Y-58939D01*
X52309Y-58965D01*
X52101Y-58997D01*
X51944Y-59035D01*
X51939Y-59037D01*
X51767Y-59120D01*
X51633Y-59239D01*
X51543Y-59381D01*
X51506Y-59536D01*
X51520Y-59663D01*
X51576Y-59797D01*
X51669Y-59907D01*
X51812Y-60006D01*
X51897Y-60051D01*
X52170Y-60155D01*
X52489Y-60219D01*
X52854Y-60244D01*
X53270Y-60230D01*
X53457Y-60213D01*
X54029Y-60119D01*
X54587Y-59959D01*
X55131Y-59736D01*
X55658Y-59450D01*
X56169Y-59101D01*
X56661Y-58690D01*
X57134Y-58219D01*
X57585Y-57688D01*
X57650Y-57604D01*
X57650Y-57770D01*
X57420Y-58066D01*
X56976Y-58545D01*
X56501Y-58975D01*
X56001Y-59353D01*
X55478Y-59675D01*
X54937Y-59938D01*
X54383Y-60141D01*
X53955Y-60252D01*
X53791Y-60280D01*
X53584Y-60303D01*
X53350Y-60321D01*
X53104Y-60333D01*
X52863Y-60340D01*
X52642Y-60339D01*
X52457Y-60331D01*
X52336Y-60317D01*
X52041Y-60240D01*
X51796Y-60123D01*
X51594Y-59964D01*
X51461Y-59798D01*
X51395Y-59631D01*
X51396Y-59463D01*
X51463Y-59293D01*
X51569Y-59152D01*
X51651Y-59072D01*
X51745Y-59006D01*
X51858Y-58952D01*
X51997Y-58909D01*
X52169Y-58874D01*
X52381Y-58847D01*
X52641Y-58827D01*
X52954Y-58810D01*
X53233Y-58800D01*
X53642Y-58782D01*
X54001Y-58755D01*
X54327Y-58716D01*
X54637Y-58664D01*
X54948Y-58597D01*
X55056Y-58570D01*
X55626Y-58406D01*
X56180Y-58206D01*
X56706Y-57977D01*
X57189Y-57725D01*
X57553Y-57499D01*
X57729Y-57384D01*
X57855Y-57311D01*
X57933Y-57281D01*
X57964Y-57294D01*
X57964Y-57294D01*
X57964Y-57294D01*
G37*
G36*
X58983Y-53614D02*
X58966Y-54036D01*
X58915Y-54472D01*
X58859Y-54777D01*
X58859Y-53546D01*
X58846Y-53167D01*
X58833Y-53010D01*
X58814Y-52831D01*
X58791Y-52642D01*
X58765Y-52457D01*
X58739Y-52287D01*
X58714Y-52145D01*
X58691Y-52044D01*
X58674Y-51996D01*
X58673Y-51996D01*
X58665Y-52020D01*
X58655Y-52097D01*
X58644Y-52212D01*
X58639Y-52274D01*
X58570Y-52816D01*
X58443Y-53343D01*
X58262Y-53850D01*
X58029Y-54327D01*
X57747Y-54769D01*
X57421Y-55167D01*
X57363Y-55227D01*
X56977Y-55581D01*
X56529Y-55913D01*
X56020Y-56223D01*
X55451Y-56510D01*
X54822Y-56774D01*
X54134Y-57014D01*
X53390Y-57230D01*
X53194Y-57281D01*
X52748Y-57399D01*
X52364Y-57515D01*
X52036Y-57632D01*
X51760Y-57751D01*
X51531Y-57877D01*
X51343Y-58010D01*
X51193Y-58154D01*
X51075Y-58311D01*
X51024Y-58400D01*
X50956Y-58594D01*
X50932Y-58815D01*
X50953Y-59042D01*
X51015Y-59243D01*
X51093Y-59419D01*
X51150Y-59249D01*
X51203Y-59129D01*
X51272Y-59017D01*
X51304Y-58978D01*
X51442Y-58858D01*
X51610Y-58761D01*
X51816Y-58683D01*
X52066Y-58623D01*
X52368Y-58579D01*
X52729Y-58549D01*
X52733Y-58548D01*
X53393Y-58498D01*
X53995Y-58430D01*
X54547Y-58344D01*
X55057Y-58237D01*
X55532Y-58108D01*
X55980Y-57956D01*
X56408Y-57778D01*
X56512Y-57730D01*
X56922Y-57514D01*
X57295Y-57270D01*
X57626Y-57005D01*
X57905Y-56727D01*
X58107Y-56467D01*
X58333Y-56075D01*
X58520Y-55636D01*
X58669Y-55155D01*
X58776Y-54642D01*
X58839Y-54103D01*
X58859Y-53546D01*
X58859Y-54777D01*
X58835Y-54909D01*
X58729Y-55332D01*
X58600Y-55730D01*
X58451Y-56089D01*
X58294Y-56380D01*
X58170Y-56555D01*
X58005Y-56753D01*
X57812Y-56957D01*
X57606Y-57155D01*
X57401Y-57331D01*
X57212Y-57471D01*
X57200Y-57480D01*
X56739Y-57748D01*
X56228Y-57983D01*
X55665Y-58183D01*
X55050Y-58349D01*
X54380Y-58482D01*
X53655Y-58582D01*
X52873Y-58650D01*
X52850Y-58651D01*
X52639Y-58667D01*
X52432Y-58686D01*
X52246Y-58706D01*
X52099Y-58727D01*
X52033Y-58740D01*
X51755Y-58823D01*
X51534Y-58938D01*
X51372Y-59081D01*
X51269Y-59254D01*
X51226Y-59456D01*
X51226Y-59546D01*
X51223Y-59638D01*
X51208Y-59696D01*
X51199Y-59705D01*
X51165Y-59685D01*
X51111Y-59621D01*
X51055Y-59537D01*
X50912Y-59253D01*
X50834Y-58980D01*
X50821Y-58721D01*
X50873Y-58475D01*
X50989Y-58245D01*
X51170Y-58029D01*
X51415Y-57829D01*
X51724Y-57645D01*
X51750Y-57633D01*
X51968Y-57535D01*
X52240Y-57436D01*
X52571Y-57333D01*
X52964Y-57226D01*
X53014Y-57213D01*
X53602Y-57055D01*
X54131Y-56897D01*
X54611Y-56736D01*
X55050Y-56568D01*
X55457Y-56390D01*
X55839Y-56198D01*
X56205Y-55989D01*
X56517Y-55791D01*
X56956Y-55460D01*
X57344Y-55088D01*
X57680Y-54675D01*
X57963Y-54226D01*
X58191Y-53741D01*
X58363Y-53224D01*
X58478Y-52676D01*
X58534Y-52099D01*
X58538Y-51983D01*
X58547Y-51753D01*
X58559Y-51588D01*
X58577Y-51487D01*
X58600Y-51449D01*
X58629Y-51472D01*
X58666Y-51555D01*
X58709Y-51690D01*
X58811Y-52102D01*
X58893Y-52549D01*
X58951Y-53004D01*
X58980Y-53440D01*
X58983Y-53614D01*
X58983Y-53614D01*
X58983Y-53614D01*
G37*
G36*
X58340Y-52000D02*
X58320Y-52374D01*
X58235Y-52933D01*
X58217Y-53003D01*
X58217Y-51922D01*
X58178Y-51418D01*
X58082Y-50930D01*
X58013Y-50700D01*
X57826Y-50239D01*
X57582Y-49797D01*
X57277Y-49371D01*
X56908Y-48955D01*
X56875Y-48922D01*
X56705Y-48759D01*
X56510Y-48587D01*
X56304Y-48417D01*
X56101Y-48260D01*
X55915Y-48126D01*
X55760Y-48028D01*
X55743Y-48019D01*
X55600Y-47940D01*
X55720Y-48070D01*
X55999Y-48410D01*
X56250Y-48787D01*
X56462Y-49186D01*
X56628Y-49590D01*
X56705Y-49843D01*
X56761Y-50129D01*
X56797Y-50456D01*
X56812Y-50801D01*
X56804Y-51142D01*
X56773Y-51457D01*
X56770Y-51476D01*
X56660Y-51979D01*
X56483Y-52472D01*
X56242Y-52953D01*
X55935Y-53423D01*
X55564Y-53880D01*
X55129Y-54325D01*
X54630Y-54757D01*
X54533Y-54833D01*
X54379Y-54950D01*
X54226Y-55058D01*
X54066Y-55162D01*
X53891Y-55266D01*
X53694Y-55374D01*
X53465Y-55491D01*
X53198Y-55621D01*
X52885Y-55769D01*
X52550Y-55923D01*
X52132Y-56117D01*
X51775Y-56291D01*
X51476Y-56446D01*
X51233Y-56583D01*
X51042Y-56703D01*
X51000Y-56732D01*
X50720Y-56966D01*
X50501Y-57223D01*
X50343Y-57500D01*
X50249Y-57794D01*
X50218Y-58102D01*
X50251Y-58421D01*
X50350Y-58747D01*
X50387Y-58833D01*
X50462Y-59000D01*
X50484Y-58783D01*
X50502Y-58644D01*
X50528Y-58510D01*
X50548Y-58433D01*
X50676Y-58151D01*
X50865Y-57893D01*
X51114Y-57660D01*
X51422Y-57453D01*
X51789Y-57272D01*
X52213Y-57118D01*
X52583Y-57017D01*
X52995Y-56917D01*
X53351Y-56827D01*
X53662Y-56745D01*
X53937Y-56666D01*
X54185Y-56590D01*
X54417Y-56511D01*
X54643Y-56428D01*
X54873Y-56338D01*
X54889Y-56331D01*
X55417Y-56099D01*
X55887Y-55853D01*
X56306Y-55590D01*
X56683Y-55304D01*
X57024Y-54990D01*
X57068Y-54945D01*
X57291Y-54702D01*
X57471Y-54475D01*
X57624Y-54243D01*
X57763Y-53985D01*
X57802Y-53904D01*
X57990Y-53433D01*
X58122Y-52940D01*
X58198Y-52433D01*
X58217Y-51922D01*
X58217Y-53003D01*
X58103Y-53447D01*
X57919Y-53921D01*
X57682Y-54359D01*
X57390Y-54763D01*
X57040Y-55139D01*
X56630Y-55490D01*
X56283Y-55738D01*
X55846Y-56002D01*
X55352Y-56251D01*
X54811Y-56481D01*
X54231Y-56690D01*
X53623Y-56872D01*
X53250Y-56967D01*
X53030Y-57020D01*
X52793Y-57081D01*
X52564Y-57141D01*
X52368Y-57195D01*
X52333Y-57205D01*
X51913Y-57347D01*
X51548Y-57513D01*
X51241Y-57703D01*
X50992Y-57915D01*
X50802Y-58147D01*
X50674Y-58399D01*
X50607Y-58669D01*
X50604Y-58955D01*
X50617Y-59053D01*
X50639Y-59188D01*
X50650Y-59271D01*
X50649Y-59315D01*
X50637Y-59334D01*
X50611Y-59342D01*
X50610Y-59342D01*
X50570Y-59321D01*
X50511Y-59258D01*
X50455Y-59182D01*
X50288Y-58885D01*
X50180Y-58593D01*
X50127Y-58290D01*
X50124Y-57996D01*
X50159Y-57711D01*
X50234Y-57463D01*
X50359Y-57229D01*
X50445Y-57107D01*
X50535Y-56995D01*
X50634Y-56890D01*
X50746Y-56788D01*
X50877Y-56686D01*
X51034Y-56580D01*
X51220Y-56468D01*
X51443Y-56345D01*
X51706Y-56209D01*
X52016Y-56055D01*
X52379Y-55882D01*
X52667Y-55747D01*
X53023Y-55578D01*
X53327Y-55431D01*
X53586Y-55301D01*
X53808Y-55183D01*
X54001Y-55072D01*
X54173Y-54964D01*
X54333Y-54854D01*
X54489Y-54736D01*
X54649Y-54607D01*
X54700Y-54565D01*
X55161Y-54149D01*
X55557Y-53729D01*
X55893Y-53302D01*
X56170Y-52863D01*
X56391Y-52408D01*
X56559Y-51932D01*
X56638Y-51625D01*
X56670Y-51421D01*
X56691Y-51172D01*
X56699Y-50898D01*
X56695Y-50618D01*
X56679Y-50352D01*
X56651Y-50118D01*
X56625Y-49981D01*
X56479Y-49510D01*
X56280Y-49063D01*
X56023Y-48635D01*
X55706Y-48219D01*
X55482Y-47970D01*
X55366Y-47842D01*
X55300Y-47753D01*
X55279Y-47698D01*
X55282Y-47685D01*
X55325Y-47675D01*
X55412Y-47703D01*
X55535Y-47764D01*
X55688Y-47853D01*
X55862Y-47964D01*
X56050Y-48094D01*
X56246Y-48236D01*
X56441Y-48387D01*
X56628Y-48540D01*
X56801Y-48692D01*
X56862Y-48749D01*
X57246Y-49156D01*
X57576Y-49589D01*
X57848Y-50044D01*
X58063Y-50518D01*
X58218Y-51004D01*
X58311Y-51500D01*
X58340Y-52000D01*
X58340Y-52000D01*
X58340Y-52000D01*
G37*
G36*
X53050Y-52541D02*
X53026Y-52586D01*
X52960Y-52670D01*
X52948Y-52683D01*
X52948Y-52525D01*
X52744Y-52229D01*
X52456Y-51836D01*
X52162Y-51480D01*
X51867Y-51166D01*
X51576Y-50899D01*
X51293Y-50683D01*
X51024Y-50522D01*
X50866Y-50452D01*
X50564Y-50365D01*
X50223Y-50309D01*
X49866Y-50290D01*
X49700Y-50293D01*
X49402Y-50319D01*
X49146Y-50365D01*
X48912Y-50439D01*
X48736Y-50515D01*
X48600Y-50572D01*
X48510Y-50590D01*
X48484Y-50584D01*
X48447Y-50543D01*
X48392Y-50457D01*
X48329Y-50341D01*
X48301Y-50286D01*
X48241Y-50167D01*
X48191Y-50075D01*
X48159Y-50023D01*
X48151Y-50017D01*
X48141Y-50048D01*
X48119Y-50139D01*
X48087Y-50281D01*
X48047Y-50469D01*
X47999Y-50695D01*
X47945Y-50954D01*
X47887Y-51238D01*
X47848Y-51427D01*
X47776Y-51789D01*
X47716Y-52092D01*
X47669Y-52339D01*
X47634Y-52537D01*
X47609Y-52690D01*
X47594Y-52804D01*
X47588Y-52884D01*
X47589Y-52935D01*
X47592Y-52947D01*
X47631Y-53030D01*
X47704Y-53130D01*
X47763Y-53194D01*
X47851Y-53269D01*
X47964Y-53354D01*
X48087Y-53437D01*
X48205Y-53510D01*
X48303Y-53562D01*
X48365Y-53583D01*
X48367Y-53583D01*
X48397Y-53554D01*
X48436Y-53480D01*
X48465Y-53408D01*
X48538Y-53225D01*
X48632Y-53029D01*
X48735Y-52839D01*
X48838Y-52676D01*
X48908Y-52582D01*
X49082Y-52411D01*
X49259Y-52303D01*
X49446Y-52254D01*
X49522Y-52250D01*
X49642Y-52255D01*
X49724Y-52277D01*
X49798Y-52325D01*
X49830Y-52351D01*
X49944Y-52490D01*
X50019Y-52676D01*
X50057Y-52912D01*
X50063Y-53083D01*
X50059Y-53234D01*
X50045Y-53347D01*
X50015Y-53448D01*
X49963Y-53567D01*
X49947Y-53600D01*
X49839Y-53783D01*
X49701Y-53960D01*
X49548Y-54116D01*
X49393Y-54236D01*
X49274Y-54299D01*
X49129Y-54337D01*
X48960Y-54347D01*
X48890Y-54345D01*
X48727Y-54322D01*
X48555Y-54268D01*
X48363Y-54179D01*
X48142Y-54052D01*
X47917Y-53904D01*
X47767Y-53793D01*
X47602Y-53656D01*
X47433Y-53505D01*
X47272Y-53350D01*
X47131Y-53203D01*
X47022Y-53076D01*
X46966Y-52996D01*
X46909Y-52912D01*
X46859Y-52859D01*
X46839Y-52850D01*
X46802Y-52872D01*
X46728Y-52934D01*
X46628Y-53026D01*
X46510Y-53141D01*
X46476Y-53175D01*
X46154Y-53500D01*
X46263Y-55317D01*
X46288Y-55724D01*
X46310Y-56070D01*
X46329Y-56360D01*
X46346Y-56599D01*
X46361Y-56791D01*
X46375Y-56942D01*
X46388Y-57057D01*
X46401Y-57141D01*
X46414Y-57200D01*
X46427Y-57237D01*
X46429Y-57242D01*
X46494Y-57339D01*
X46584Y-57423D01*
X46708Y-57497D01*
X46874Y-57566D01*
X47090Y-57633D01*
X47355Y-57701D01*
X47444Y-57722D01*
X47303Y-57244D01*
X47162Y-56767D01*
X46975Y-56750D01*
X46870Y-56737D01*
X46794Y-56723D01*
X46769Y-56714D01*
X46766Y-56677D01*
X46766Y-56582D01*
X46769Y-56436D01*
X46774Y-56247D01*
X46782Y-56023D01*
X46792Y-55773D01*
X46800Y-55597D01*
X46812Y-55326D01*
X46823Y-55069D01*
X46833Y-54836D01*
X46840Y-54636D01*
X46846Y-54479D01*
X46849Y-54374D01*
X46850Y-54342D01*
X46854Y-54244D01*
X46871Y-54196D01*
X46907Y-54183D01*
X46911Y-54183D01*
X46951Y-54199D01*
X46982Y-54254D01*
X47012Y-54362D01*
X47015Y-54375D01*
X47064Y-54578D01*
X47131Y-54824D01*
X47210Y-55094D01*
X47295Y-55370D01*
X47380Y-55632D01*
X47460Y-55861D01*
X47505Y-55980D01*
X47701Y-56437D01*
X47921Y-56862D01*
X48177Y-57275D01*
X48477Y-57693D01*
X48602Y-57853D01*
X48690Y-57960D01*
X48799Y-58089D01*
X48921Y-58229D01*
X49047Y-58372D01*
X49170Y-58508D01*
X49281Y-58630D01*
X49373Y-58728D01*
X49438Y-58793D01*
X49467Y-58817D01*
X49460Y-58789D01*
X49432Y-58716D01*
X49387Y-58613D01*
X49382Y-58602D01*
X49235Y-58205D01*
X49148Y-57802D01*
X49124Y-57400D01*
X49163Y-57008D01*
X49165Y-57000D01*
X49235Y-56705D01*
X49334Y-56420D01*
X49467Y-56138D01*
X49636Y-55856D01*
X49845Y-55569D01*
X50098Y-55271D01*
X50398Y-54957D01*
X50750Y-54623D01*
X51157Y-54264D01*
X51217Y-54212D01*
X51361Y-54086D01*
X51529Y-53935D01*
X51714Y-53766D01*
X51907Y-53586D01*
X52102Y-53402D01*
X52290Y-53221D01*
X52466Y-53050D01*
X52621Y-52896D01*
X52748Y-52767D01*
X52839Y-52670D01*
X52884Y-52615D01*
X52948Y-52525D01*
X52948Y-52683D01*
X52857Y-52786D01*
X52723Y-52929D01*
X52565Y-53092D01*
X52389Y-53270D01*
X52201Y-53455D01*
X52007Y-53642D01*
X51813Y-53825D01*
X51626Y-53997D01*
X51451Y-54151D01*
X51434Y-54167D01*
X51065Y-54489D01*
X50746Y-54779D01*
X50471Y-55041D01*
X50237Y-55281D01*
X50038Y-55503D01*
X49869Y-55713D01*
X49726Y-55917D01*
X49604Y-56119D01*
X49499Y-56323D01*
X49354Y-56699D01*
X49267Y-57087D01*
X49238Y-57476D01*
X49269Y-57857D01*
X49330Y-58126D01*
X49432Y-58417D01*
X49561Y-58704D01*
X49705Y-58961D01*
X49768Y-59056D01*
X49831Y-59152D01*
X49853Y-59211D01*
X49839Y-59245D01*
X49802Y-59248D01*
X49737Y-59212D01*
X49638Y-59133D01*
X49565Y-59069D01*
X49424Y-58933D01*
X49253Y-58757D01*
X49065Y-58556D01*
X48873Y-58343D01*
X48689Y-58130D01*
X48524Y-57931D01*
X48440Y-57825D01*
X48146Y-57422D01*
X47889Y-57018D01*
X47662Y-56600D01*
X47460Y-56156D01*
X47275Y-55673D01*
X47103Y-55139D01*
X47069Y-55022D01*
X46960Y-54645D01*
X46938Y-55006D01*
X46930Y-55160D01*
X46921Y-55363D01*
X46911Y-55593D01*
X46901Y-55831D01*
X46895Y-56008D01*
X46873Y-56650D01*
X47041Y-56650D01*
X47147Y-56658D01*
X47222Y-56678D01*
X47240Y-56692D01*
X47262Y-56740D01*
X47296Y-56840D01*
X47339Y-56976D01*
X47387Y-57134D01*
X47435Y-57301D01*
X47479Y-57463D01*
X47515Y-57605D01*
X47541Y-57713D01*
X47550Y-57774D01*
X47550Y-57775D01*
X47548Y-57813D01*
X47536Y-57836D01*
X47503Y-57844D01*
X47439Y-57836D01*
X47332Y-57812D01*
X47174Y-57773D01*
X47143Y-57765D01*
X46918Y-57703D01*
X46747Y-57642D01*
X46614Y-57575D01*
X46507Y-57498D01*
X46457Y-57451D01*
X46416Y-57409D01*
X46381Y-57366D01*
X46352Y-57317D01*
X46326Y-57255D01*
X46303Y-57176D01*
X46283Y-57074D01*
X46265Y-56944D01*
X46247Y-56780D01*
X46230Y-56576D01*
X46212Y-56328D01*
X46192Y-56029D01*
X46171Y-55674D01*
X46147Y-55276D01*
X46042Y-53485D01*
X46215Y-53285D01*
X46369Y-53115D01*
X46516Y-52970D01*
X46646Y-52856D01*
X46753Y-52780D01*
X46828Y-52750D01*
X46833Y-52750D01*
X46913Y-52778D01*
X46982Y-52842D01*
X47040Y-52918D01*
X47120Y-53022D01*
X47183Y-53105D01*
X47334Y-53278D01*
X47533Y-53464D01*
X47766Y-53654D01*
X48018Y-53836D01*
X48276Y-54000D01*
X48524Y-54135D01*
X48554Y-54149D01*
X48782Y-54231D01*
X48994Y-54250D01*
X49196Y-54205D01*
X49393Y-54096D01*
X49522Y-53989D01*
X49702Y-53789D01*
X49837Y-53565D01*
X49894Y-53447D01*
X49929Y-53357D01*
X49945Y-53273D01*
X49949Y-53171D01*
X49944Y-53029D01*
X49943Y-53010D01*
X49918Y-52765D01*
X49865Y-52580D01*
X49783Y-52451D01*
X49670Y-52376D01*
X49524Y-52353D01*
X49447Y-52359D01*
X49333Y-52391D01*
X49213Y-52448D01*
X49180Y-52469D01*
X49066Y-52571D01*
X48944Y-52722D01*
X48822Y-52907D01*
X48711Y-53111D01*
X48621Y-53318D01*
X48619Y-53323D01*
X48569Y-53454D01*
X48525Y-53564D01*
X48493Y-53636D01*
X48486Y-53650D01*
X48432Y-53690D01*
X48340Y-53683D01*
X48207Y-53630D01*
X48089Y-53564D01*
X47879Y-53424D01*
X47702Y-53277D01*
X47570Y-53132D01*
X47501Y-53020D01*
X47440Y-52884D01*
X47753Y-51342D01*
X47828Y-50976D01*
X47891Y-50670D01*
X47944Y-50420D01*
X47988Y-50219D01*
X48024Y-50064D01*
X48054Y-49949D01*
X48078Y-49869D01*
X48098Y-49819D01*
X48114Y-49795D01*
X48123Y-49790D01*
X48158Y-49801D01*
X48202Y-49851D01*
X48261Y-49948D01*
X48340Y-50098D01*
X48352Y-50123D01*
X48421Y-50259D01*
X48478Y-50371D01*
X48517Y-50447D01*
X48532Y-50475D01*
X48563Y-50467D01*
X48640Y-50437D01*
X48744Y-50391D01*
X48753Y-50388D01*
X49022Y-50286D01*
X49305Y-50221D01*
X49621Y-50189D01*
X49840Y-50184D01*
X50248Y-50204D01*
X50611Y-50265D01*
X50941Y-50370D01*
X51247Y-50522D01*
X51433Y-50644D01*
X51572Y-50754D01*
X51740Y-50903D01*
X51923Y-51078D01*
X52107Y-51265D01*
X52280Y-51452D01*
X52427Y-51624D01*
X52448Y-51650D01*
X52606Y-51853D01*
X52748Y-52045D01*
X52868Y-52216D01*
X52962Y-52360D01*
X53024Y-52470D01*
X53050Y-52536D01*
X53050Y-52541D01*
X53050Y-52541D01*
X53050Y-52541D01*
G37*
G36*
X56506Y-50775D02*
X56477Y-51259D01*
X56393Y-51725D01*
X56393Y-50566D01*
X56335Y-50066D01*
X56266Y-49753D01*
X56136Y-49363D01*
X55961Y-48998D01*
X55734Y-48648D01*
X55450Y-48307D01*
X55209Y-48062D01*
X54786Y-47706D01*
X54323Y-47401D01*
X53821Y-47149D01*
X53284Y-46951D01*
X52713Y-46808D01*
X52480Y-46768D01*
X52330Y-46748D01*
X52147Y-46730D01*
X51945Y-46715D01*
X51735Y-46702D01*
X51529Y-46692D01*
X51340Y-46686D01*
X51180Y-46684D01*
X51062Y-46688D01*
X50997Y-46697D01*
X50995Y-46698D01*
X50990Y-46715D01*
X51043Y-46741D01*
X51156Y-46776D01*
X51304Y-46816D01*
X51849Y-46984D01*
X52354Y-47201D01*
X52817Y-47466D01*
X53235Y-47776D01*
X53606Y-48130D01*
X53927Y-48526D01*
X54196Y-48962D01*
X54250Y-49067D01*
X54416Y-49471D01*
X54517Y-49877D01*
X54552Y-50285D01*
X54520Y-50692D01*
X54482Y-50883D01*
X54409Y-51122D01*
X54298Y-51392D01*
X54157Y-51677D01*
X53996Y-51958D01*
X53826Y-52215D01*
X53645Y-52447D01*
X53411Y-52714D01*
X53129Y-53011D01*
X52801Y-53335D01*
X52431Y-53682D01*
X52023Y-54051D01*
X51667Y-54361D01*
X51439Y-54558D01*
X51214Y-54755D01*
X51002Y-54943D01*
X50809Y-55116D01*
X50644Y-55266D01*
X50515Y-55387D01*
X50444Y-55456D01*
X50247Y-55671D01*
X50062Y-55903D01*
X49899Y-56136D01*
X49770Y-56354D01*
X49717Y-56466D01*
X49587Y-56850D01*
X49523Y-57242D01*
X49524Y-57636D01*
X49591Y-58030D01*
X49724Y-58420D01*
X49755Y-58490D01*
X49806Y-58597D01*
X49846Y-58675D01*
X49867Y-58708D01*
X49867Y-58674D01*
X49857Y-58592D01*
X49840Y-58484D01*
X49823Y-58228D01*
X49846Y-57942D01*
X49903Y-57646D01*
X49992Y-57359D01*
X50107Y-57100D01*
X50165Y-57000D01*
X50290Y-56834D01*
X50450Y-56670D01*
X50653Y-56505D01*
X50902Y-56335D01*
X51202Y-56157D01*
X51559Y-55968D01*
X51842Y-55827D01*
X52264Y-55623D01*
X52631Y-55445D01*
X52949Y-55288D01*
X53222Y-55151D01*
X53458Y-55029D01*
X53661Y-54921D01*
X53836Y-54822D01*
X53990Y-54730D01*
X54127Y-54641D01*
X54254Y-54552D01*
X54375Y-54461D01*
X54497Y-54364D01*
X54624Y-54258D01*
X54644Y-54241D01*
X55066Y-53846D01*
X55432Y-53425D01*
X55742Y-52983D01*
X55993Y-52522D01*
X56185Y-52046D01*
X56317Y-51559D01*
X56387Y-51065D01*
X56393Y-50566D01*
X56393Y-51725D01*
X56390Y-51742D01*
X56282Y-52117D01*
X56085Y-52597D01*
X55825Y-53062D01*
X55505Y-53509D01*
X55129Y-53932D01*
X54701Y-54330D01*
X54222Y-54698D01*
X53696Y-55034D01*
X53567Y-55107D01*
X53448Y-55171D01*
X53281Y-55255D01*
X53081Y-55353D01*
X52861Y-55460D01*
X52633Y-55567D01*
X52533Y-55614D01*
X52082Y-55827D01*
X51689Y-56021D01*
X51350Y-56199D01*
X51061Y-56366D01*
X50816Y-56524D01*
X50613Y-56678D01*
X50445Y-56831D01*
X50309Y-56987D01*
X50201Y-57149D01*
X50116Y-57321D01*
X50049Y-57507D01*
X49998Y-57703D01*
X49961Y-57947D01*
X49950Y-58211D01*
X49963Y-58475D01*
X50001Y-58717D01*
X50059Y-58914D01*
X50109Y-59048D01*
X50127Y-59132D01*
X50115Y-59174D01*
X50082Y-59183D01*
X50050Y-59158D01*
X49994Y-59090D01*
X49925Y-58995D01*
X49922Y-58992D01*
X49706Y-58635D01*
X49551Y-58288D01*
X49453Y-57939D01*
X49409Y-57579D01*
X49405Y-57433D01*
X49417Y-57144D01*
X49456Y-56891D01*
X49528Y-56645D01*
X49632Y-56396D01*
X49712Y-56234D01*
X49801Y-56078D01*
X49905Y-55922D01*
X50026Y-55764D01*
X50171Y-55596D01*
X50343Y-55414D01*
X50548Y-55213D01*
X50790Y-54988D01*
X51073Y-54735D01*
X51403Y-54448D01*
X51550Y-54321D01*
X52025Y-53906D01*
X52447Y-53525D01*
X52819Y-53171D01*
X53145Y-52843D01*
X53426Y-52535D01*
X53666Y-52244D01*
X53869Y-51967D01*
X54036Y-51700D01*
X54172Y-51438D01*
X54278Y-51178D01*
X54359Y-50916D01*
X54407Y-50701D01*
X54446Y-50321D01*
X54419Y-49936D01*
X54330Y-49549D01*
X54177Y-49163D01*
X53964Y-48781D01*
X53690Y-48407D01*
X53439Y-48126D01*
X53054Y-47775D01*
X52626Y-47474D01*
X52157Y-47225D01*
X51651Y-47027D01*
X51109Y-46883D01*
X50650Y-46807D01*
X50486Y-46785D01*
X50378Y-46764D01*
X50317Y-46741D01*
X50291Y-46715D01*
X50290Y-46710D01*
X50304Y-46678D01*
X50364Y-46653D01*
X50472Y-46633D01*
X50632Y-46618D01*
X50847Y-46608D01*
X51122Y-46602D01*
X51460Y-46601D01*
X51467Y-46601D01*
X51737Y-46603D01*
X51956Y-46607D01*
X52137Y-46616D01*
X52296Y-46630D01*
X52448Y-46649D01*
X52605Y-46675D01*
X53195Y-46811D01*
X53750Y-47000D01*
X54268Y-47241D01*
X54745Y-47533D01*
X55180Y-47874D01*
X55570Y-48263D01*
X55839Y-48595D01*
X56078Y-48974D01*
X56265Y-49389D01*
X56400Y-49832D01*
X56480Y-50297D01*
X56506Y-50775D01*
X56506Y-50775D01*
X56506Y-50775D01*
G37*
G36*
X38808Y-54724D02*
X38793Y-54797D01*
X38724Y-54869D01*
X38638Y-54919D01*
X38483Y-54965D01*
X38308Y-54979D01*
X38143Y-54962D01*
X38067Y-54937D01*
X37956Y-54866D01*
X37846Y-54758D01*
X37756Y-54635D01*
X37702Y-54519D01*
X37698Y-54500D01*
X37682Y-54300D01*
X37706Y-54109D01*
X37766Y-53948D01*
X37798Y-53899D01*
X37918Y-53779D01*
X38063Y-53711D01*
X38244Y-53688D01*
X38343Y-53692D01*
X38554Y-53709D01*
X38532Y-53521D01*
X38516Y-53377D01*
X38497Y-53288D01*
X38463Y-53241D01*
X38402Y-53225D01*
X38302Y-53228D01*
X38222Y-53234D01*
X38033Y-53242D01*
X37899Y-53231D01*
X37812Y-53197D01*
X37762Y-53139D01*
X37747Y-53092D01*
X37726Y-52988D01*
X38180Y-53000D01*
X38633Y-53012D01*
X38689Y-53456D01*
X38708Y-53619D01*
X38724Y-53757D01*
X38734Y-53856D01*
X38737Y-53904D01*
X38737Y-53907D01*
X38703Y-53906D01*
X38622Y-53895D01*
X38512Y-53878D01*
X38319Y-53863D01*
X38172Y-53894D01*
X38066Y-53973D01*
X37997Y-54105D01*
X37964Y-54244D01*
X37963Y-54405D01*
X38002Y-54571D01*
X38074Y-54715D01*
X38109Y-54758D01*
X38213Y-54834D01*
X38324Y-54846D01*
X38444Y-54794D01*
X38521Y-54733D01*
X38607Y-54659D01*
X38664Y-54625D01*
X38709Y-54627D01*
X38761Y-54658D01*
X38764Y-54661D01*
X38808Y-54724D01*
X38808Y-54724D01*
X38808Y-54724D01*
G37*
G36*
X41845Y-53912D02*
X41842Y-54081D01*
X41814Y-54347D01*
X41755Y-54563D01*
X41662Y-54737D01*
X41560Y-54850D01*
X41560Y-54106D01*
X41557Y-53888D01*
X41540Y-53676D01*
X41512Y-53487D01*
X41473Y-53339D01*
X41451Y-53286D01*
X41369Y-53175D01*
X41272Y-53122D01*
X41171Y-53127D01*
X41079Y-53193D01*
X41041Y-53245D01*
X40995Y-53362D01*
X40960Y-53530D01*
X40936Y-53731D01*
X40925Y-53949D01*
X40927Y-54169D01*
X40943Y-54375D01*
X40974Y-54549D01*
X40982Y-54580D01*
X41043Y-54713D01*
X41128Y-54803D01*
X41226Y-54845D01*
X41327Y-54833D01*
X41406Y-54775D01*
X41457Y-54710D01*
X41492Y-54639D01*
X41517Y-54545D01*
X41537Y-54411D01*
X41548Y-54312D01*
X41560Y-54106D01*
X41560Y-54850D01*
X41546Y-54866D01*
X41451Y-54941D01*
X41365Y-54976D01*
X41275Y-54983D01*
X41148Y-54966D01*
X41035Y-54923D01*
X41029Y-54919D01*
X40885Y-54796D01*
X40767Y-54623D01*
X40703Y-54474D01*
X40673Y-54334D01*
X40655Y-54152D01*
X40650Y-53950D01*
X40659Y-53751D01*
X40680Y-53577D01*
X40699Y-53497D01*
X40781Y-53299D01*
X40894Y-53143D01*
X41030Y-53036D01*
X41181Y-52986D01*
X41226Y-52983D01*
X41390Y-53010D01*
X41530Y-53093D01*
X41645Y-53227D01*
X41755Y-53427D01*
X41820Y-53651D01*
X41845Y-53912D01*
X41845Y-53912D01*
X41845Y-53912D01*
G37*
G36*
X64633Y-53917D02*
X64632Y-54080D01*
X64624Y-54196D01*
X64609Y-54284D01*
X64581Y-54361D01*
X64543Y-54437D01*
X64426Y-54610D01*
X64271Y-54764D01*
X64100Y-54882D01*
X63992Y-54931D01*
X63829Y-54967D01*
X63641Y-54980D01*
X63457Y-54969D01*
X63313Y-54937D01*
X63106Y-54830D01*
X62908Y-54659D01*
X62905Y-54656D01*
X62840Y-54573D01*
X62827Y-54525D01*
X62861Y-54517D01*
X62934Y-54552D01*
X62994Y-54595D01*
X63218Y-54744D01*
X63443Y-54827D01*
X63667Y-54843D01*
X63811Y-54818D01*
X63974Y-54741D01*
X64114Y-54611D01*
X64226Y-54439D01*
X64307Y-54235D01*
X64354Y-54010D01*
X64361Y-53775D01*
X64326Y-53540D01*
X64301Y-53454D01*
X64224Y-53295D01*
X64109Y-53148D01*
X63972Y-53028D01*
X63830Y-52954D01*
X63811Y-52948D01*
X63608Y-52926D01*
X63413Y-52964D01*
X63237Y-53057D01*
X63093Y-53199D01*
X63001Y-53358D01*
X62954Y-53441D01*
X62904Y-53482D01*
X62895Y-53483D01*
X62865Y-53474D01*
X62853Y-53437D01*
X62854Y-53358D01*
X62861Y-53282D01*
X62879Y-53127D01*
X62898Y-53025D01*
X62930Y-52960D01*
X62985Y-52919D01*
X63073Y-52888D01*
X63160Y-52864D01*
X63414Y-52816D01*
X63658Y-52803D01*
X63877Y-52828D01*
X64023Y-52874D01*
X64185Y-52973D01*
X64345Y-53114D01*
X64482Y-53276D01*
X64561Y-53410D01*
X64596Y-53498D01*
X64617Y-53590D01*
X64629Y-53708D01*
X64633Y-53868D01*
X64633Y-53917D01*
X64633Y-53917D01*
X64633Y-53917D01*
G37*
G36*
X66883Y-52917D02*
X66859Y-52973D01*
X66825Y-52984D01*
X66775Y-52987D01*
X66737Y-52999D01*
X66709Y-53030D01*
X66688Y-53086D01*
X66674Y-53177D01*
X66664Y-53308D01*
X66657Y-53490D01*
X66651Y-53729D01*
X66650Y-53774D01*
X66644Y-54014D01*
X66638Y-54197D01*
X66631Y-54334D01*
X66622Y-54433D01*
X66609Y-54506D01*
X66592Y-54561D01*
X66570Y-54609D01*
X66556Y-54634D01*
X66430Y-54791D01*
X66260Y-54907D01*
X66147Y-54951D01*
X66022Y-54972D01*
X65866Y-54980D01*
X65706Y-54973D01*
X65573Y-54954D01*
X65533Y-54942D01*
X65365Y-54857D01*
X65238Y-54731D01*
X65155Y-54586D01*
X65125Y-54518D01*
X65102Y-54454D01*
X65086Y-54383D01*
X65075Y-54293D01*
X65067Y-54172D01*
X65061Y-54010D01*
X65056Y-53795D01*
X65055Y-53750D01*
X65050Y-53545D01*
X65042Y-53361D01*
X65033Y-53208D01*
X65023Y-53098D01*
X65013Y-53043D01*
X65012Y-53042D01*
X64957Y-52996D01*
X64899Y-52983D01*
X64834Y-52967D01*
X64817Y-52917D01*
X64821Y-52887D01*
X64842Y-52867D01*
X64891Y-52856D01*
X64981Y-52851D01*
X65123Y-52850D01*
X65167Y-52850D01*
X65323Y-52851D01*
X65424Y-52855D01*
X65482Y-52864D01*
X65509Y-52881D01*
X65516Y-52908D01*
X65517Y-52917D01*
X65497Y-52969D01*
X65433Y-52983D01*
X65348Y-53006D01*
X65280Y-53053D01*
X65256Y-53080D01*
X65239Y-53113D01*
X65227Y-53161D01*
X65220Y-53233D01*
X65218Y-53341D01*
X65219Y-53494D01*
X65222Y-53701D01*
X65223Y-53761D01*
X65229Y-53998D01*
X65237Y-54179D01*
X65247Y-54314D01*
X65260Y-54414D01*
X65278Y-54490D01*
X65296Y-54541D01*
X65390Y-54681D01*
X65524Y-54780D01*
X65686Y-54834D01*
X65860Y-54837D01*
X66032Y-54785D01*
X66048Y-54777D01*
X66150Y-54713D01*
X66234Y-54642D01*
X66258Y-54614D01*
X66307Y-54507D01*
X66344Y-54340D01*
X66368Y-54117D01*
X66379Y-53845D01*
X66378Y-53563D01*
X66370Y-53352D01*
X66359Y-53199D01*
X66340Y-53095D01*
X66310Y-53030D01*
X66267Y-52996D01*
X66207Y-52984D01*
X66179Y-52983D01*
X66108Y-52972D01*
X66084Y-52930D01*
X66083Y-52917D01*
X66087Y-52888D01*
X66106Y-52869D01*
X66152Y-52858D01*
X66234Y-52852D01*
X66365Y-52850D01*
X66483Y-52850D01*
X66652Y-52850D01*
X66765Y-52854D01*
X66834Y-52861D01*
X66869Y-52875D01*
X66882Y-52897D01*
X66883Y-52917D01*
X66883Y-52917D01*
X66883Y-52917D01*
G37*
G36*
X40214Y-53304D02*
X40208Y-53335D01*
X40193Y-53353D01*
X40141Y-53370D01*
X40045Y-53354D01*
X40018Y-53346D01*
X39926Y-53323D01*
X39876Y-53325D01*
X39847Y-53352D01*
X39837Y-53400D01*
X39830Y-53504D01*
X39825Y-53654D01*
X39823Y-53840D01*
X39824Y-54051D01*
X39824Y-54061D01*
X39828Y-54288D01*
X39832Y-54458D01*
X39838Y-54579D01*
X39846Y-54662D01*
X39858Y-54714D01*
X39874Y-54747D01*
X39896Y-54768D01*
X39898Y-54769D01*
X39983Y-54808D01*
X40040Y-54817D01*
X40102Y-54835D01*
X40117Y-54883D01*
X40113Y-54911D01*
X40094Y-54929D01*
X40050Y-54941D01*
X39970Y-54947D01*
X39842Y-54949D01*
X39697Y-54950D01*
X39524Y-54949D01*
X39406Y-54946D01*
X39335Y-54939D01*
X39299Y-54926D01*
X39288Y-54906D01*
X39289Y-54892D01*
X39328Y-54842D01*
X39384Y-54822D01*
X39432Y-54814D01*
X39470Y-54800D01*
X39499Y-54773D01*
X39520Y-54726D01*
X39534Y-54650D01*
X39543Y-54539D01*
X39548Y-54385D01*
X39549Y-54181D01*
X39550Y-53918D01*
X39550Y-53862D01*
X39550Y-53628D01*
X39552Y-53417D01*
X39555Y-53239D01*
X39559Y-53101D01*
X39563Y-53013D01*
X39567Y-52983D01*
X39602Y-52997D01*
X39681Y-53034D01*
X39788Y-53086D01*
X39908Y-53145D01*
X40026Y-53204D01*
X40127Y-53256D01*
X40195Y-53292D01*
X40214Y-53304D01*
X40214Y-53304D01*
X40214Y-53304D01*
G37*
G36*
X43317Y-54882D02*
X43314Y-54907D01*
X43299Y-54925D01*
X43262Y-54937D01*
X43195Y-54944D01*
X43088Y-54948D01*
X42930Y-54950D01*
X42769Y-54950D01*
X42221Y-54950D01*
X42201Y-54808D01*
X42181Y-54639D01*
X42174Y-54526D01*
X42181Y-54461D01*
X42203Y-54435D01*
X42214Y-54433D01*
X42256Y-54462D01*
X42287Y-54527D01*
X42314Y-54611D01*
X42352Y-54665D01*
X42413Y-54697D01*
X42512Y-54712D01*
X42660Y-54716D01*
X42704Y-54717D01*
X42864Y-54714D01*
X42964Y-54703D01*
X43011Y-54677D01*
X43010Y-54633D01*
X42970Y-54565D01*
X42944Y-54529D01*
X42893Y-54469D01*
X42808Y-54374D01*
X42698Y-54256D01*
X42576Y-54129D01*
X42562Y-54114D01*
X42443Y-53988D01*
X42340Y-53870D01*
X42262Y-53773D01*
X42221Y-53710D01*
X42218Y-53704D01*
X42189Y-53570D01*
X42187Y-53416D01*
X42211Y-53275D01*
X42234Y-53215D01*
X42323Y-53111D01*
X42456Y-53035D01*
X42617Y-52992D01*
X42787Y-52987D01*
X42949Y-53024D01*
X42960Y-53028D01*
X43071Y-53096D01*
X43173Y-53194D01*
X43248Y-53303D01*
X43283Y-53404D01*
X43283Y-53416D01*
X43259Y-53513D01*
X43195Y-53562D01*
X43107Y-53557D01*
X43064Y-53535D01*
X43011Y-53489D01*
X42995Y-53432D01*
X43003Y-53353D01*
X43010Y-53263D01*
X42989Y-53208D01*
X42946Y-53171D01*
X42819Y-53116D01*
X42694Y-53121D01*
X42583Y-53178D01*
X42500Y-53281D01*
X42460Y-53410D01*
X42455Y-53541D01*
X42480Y-53668D01*
X42540Y-53802D01*
X42640Y-53951D01*
X42786Y-54125D01*
X42890Y-54239D01*
X43056Y-54421D01*
X43176Y-54567D01*
X43256Y-54686D01*
X43301Y-54786D01*
X43316Y-54874D01*
X43317Y-54882D01*
X43317Y-54882D01*
X43317Y-54882D01*
G37*
G36*
X62717Y-52918D02*
X62698Y-52968D01*
X62633Y-52984D01*
X62625Y-52984D01*
X62568Y-52985D01*
X62524Y-52992D01*
X62491Y-53013D01*
X62467Y-53055D01*
X62450Y-53126D01*
X62441Y-53232D01*
X62435Y-53381D01*
X62433Y-53581D01*
X62433Y-53838D01*
X62433Y-53900D01*
X62433Y-54170D01*
X62435Y-54381D01*
X62439Y-54540D01*
X62448Y-54655D01*
X62462Y-54732D01*
X62483Y-54780D01*
X62513Y-54804D01*
X62552Y-54814D01*
X62603Y-54816D01*
X62608Y-54816D01*
X62669Y-54836D01*
X62683Y-54883D01*
X62679Y-54911D01*
X62661Y-54930D01*
X62616Y-54941D01*
X62535Y-54947D01*
X62407Y-54950D01*
X62270Y-54950D01*
X62098Y-54949D01*
X61982Y-54947D01*
X61913Y-54940D01*
X61879Y-54927D01*
X61869Y-54908D01*
X61874Y-54883D01*
X61918Y-54827D01*
X61966Y-54817D01*
X62028Y-54808D01*
X62073Y-54775D01*
X62105Y-54709D01*
X62125Y-54601D01*
X62138Y-54442D01*
X62144Y-54296D01*
X62158Y-53883D01*
X61939Y-53883D01*
X61760Y-53892D01*
X61638Y-53919D01*
X61563Y-53968D01*
X61530Y-54032D01*
X61499Y-54095D01*
X61463Y-54117D01*
X61440Y-54102D01*
X61426Y-54050D01*
X61418Y-53952D01*
X61417Y-53817D01*
X61419Y-53667D01*
X61427Y-53573D01*
X61443Y-53527D01*
X61462Y-53517D01*
X61500Y-53545D01*
X61535Y-53615D01*
X61538Y-53625D01*
X61569Y-53733D01*
X61859Y-53743D01*
X62150Y-53752D01*
X62150Y-53421D01*
X62148Y-53274D01*
X62143Y-53148D01*
X62135Y-53062D01*
X62130Y-53036D01*
X62104Y-53008D01*
X62046Y-52991D01*
X61941Y-52984D01*
X61861Y-52983D01*
X61667Y-52995D01*
X61526Y-53032D01*
X61428Y-53100D01*
X61363Y-53202D01*
X61362Y-53204D01*
X61318Y-53287D01*
X61281Y-53310D01*
X61256Y-53280D01*
X61243Y-53202D01*
X61246Y-53084D01*
X61265Y-52933D01*
X61283Y-52833D01*
X62000Y-52843D01*
X62236Y-52846D01*
X62413Y-52850D01*
X62541Y-52855D01*
X62627Y-52861D01*
X62679Y-52871D01*
X62706Y-52884D01*
X62715Y-52902D01*
X62717Y-52918D01*
X62717Y-52918D01*
X62717Y-52918D01*
G37*
G36*
X52550Y-48421D02*
X52533Y-48466D01*
X52473Y-48483D01*
X52442Y-48484D01*
X52273Y-48516D01*
X52225Y-48540D01*
X52225Y-48411D01*
X52060Y-48316D01*
X51899Y-48203D01*
X51758Y-48064D01*
X51656Y-47919D01*
X51634Y-47874D01*
X51593Y-47777D01*
X51508Y-47922D01*
X51354Y-48125D01*
X51163Y-48289D01*
X51071Y-48344D01*
X50943Y-48412D01*
X51072Y-48478D01*
X51169Y-48541D01*
X51279Y-48635D01*
X51386Y-48742D01*
X51474Y-48847D01*
X51527Y-48932D01*
X51531Y-48944D01*
X51564Y-49006D01*
X51601Y-49003D01*
X51644Y-48933D01*
X51709Y-48830D01*
X51812Y-48710D01*
X51931Y-48596D01*
X52047Y-48505D01*
X52094Y-48477D01*
X52225Y-48411D01*
X52225Y-48540D01*
X52103Y-48601D01*
X51945Y-48727D01*
X51810Y-48882D01*
X51710Y-49054D01*
X51656Y-49230D01*
X51650Y-49306D01*
X51632Y-49368D01*
X51583Y-49383D01*
X51536Y-49369D01*
X51518Y-49316D01*
X51517Y-49273D01*
X51494Y-49147D01*
X51433Y-48999D01*
X51346Y-48853D01*
X51245Y-48732D01*
X51225Y-48714D01*
X51071Y-48602D01*
X50908Y-48523D01*
X50756Y-48486D01*
X50725Y-48484D01*
X50648Y-48474D01*
X50619Y-48440D01*
X50617Y-48417D01*
X50634Y-48366D01*
X50697Y-48350D01*
X50708Y-48350D01*
X50827Y-48327D01*
X50969Y-48267D01*
X51114Y-48181D01*
X51238Y-48081D01*
X51256Y-48062D01*
X51362Y-47929D01*
X51447Y-47779D01*
X51502Y-47633D01*
X51516Y-47542D01*
X51529Y-47472D01*
X51576Y-47450D01*
X51583Y-47450D01*
X51634Y-47468D01*
X51650Y-47531D01*
X51651Y-47542D01*
X51675Y-47669D01*
X51738Y-47818D01*
X51830Y-47965D01*
X51910Y-48061D01*
X52103Y-48219D01*
X52317Y-48315D01*
X52413Y-48337D01*
X52506Y-48360D01*
X52545Y-48395D01*
X52550Y-48421D01*
X52550Y-48421D01*
X52550Y-48421D01*
G37*
G54D14*
X55830Y-37966D02*
X55830Y-37979D01*
X55843Y-38006D01*
X55856Y-38019D01*
X55883Y-38032D01*
X55909Y-38032D01*
X55929Y-38026D01*
X55962Y-38006D01*
X55982Y-37986D01*
X56002Y-37953D01*
X56009Y-37933D01*
X56009Y-37906D01*
X55995Y-37880D01*
X55982Y-37866D01*
X55956Y-37853D01*
X55942Y-37853D01*
X55909Y-37793D02*
X55816Y-37701D01*
X55737Y-37900D01*
X55209Y-38971D02*
X55288Y-39051D01*
X55249Y-39011D02*
X55388Y-38872D01*
X55381Y-38905D01*
X55381Y-38932D01*
X55388Y-38952D01*
X55262Y-38746D02*
X55249Y-38733D01*
X55229Y-38726D01*
X55215Y-38726D01*
X55195Y-38733D01*
X55162Y-38753D01*
X55129Y-38786D01*
X55109Y-38819D01*
X55103Y-38839D01*
X55103Y-38852D01*
X55109Y-38872D01*
X55122Y-38885D01*
X55142Y-38892D01*
X55156Y-38892D01*
X55176Y-38885D01*
X55209Y-38865D01*
X55242Y-38832D01*
X55262Y-38799D01*
X55268Y-38779D01*
X55268Y-38766D01*
X55262Y-38746D01*
X55129Y-38613D02*
X55116Y-38600D01*
X55096Y-38593D01*
X55083Y-38593D01*
X55063Y-38600D01*
X55030Y-38620D01*
X54996Y-38653D01*
X54977Y-38686D01*
X54970Y-38706D01*
X54970Y-38719D01*
X54977Y-38739D01*
X54990Y-38753D01*
X55010Y-38759D01*
X55023Y-38759D01*
X55043Y-38753D01*
X55076Y-38733D01*
X55109Y-38700D01*
X55129Y-38666D01*
X55136Y-38646D01*
X55136Y-38633D01*
X55129Y-38613D01*
X54977Y-38554D02*
X54884Y-38646D01*
X54963Y-38567D02*
X54963Y-38554D01*
X54957Y-38534D01*
X54937Y-38514D01*
X54917Y-38507D01*
X54897Y-38514D01*
X54824Y-38587D01*
X54784Y-38401D02*
X54831Y-38447D01*
X54758Y-38520D02*
X54897Y-38381D01*
X54831Y-38315D01*
X50916Y-38069D02*
X50929Y-38069D01*
X50956Y-38056D01*
X50969Y-38043D01*
X50982Y-38016D01*
X50982Y-37990D01*
X50976Y-37970D01*
X50956Y-37937D01*
X50936Y-37917D01*
X50903Y-37897D01*
X50883Y-37890D01*
X50856Y-37890D01*
X50830Y-37904D01*
X50816Y-37917D01*
X50803Y-37943D01*
X50803Y-37957D01*
X50717Y-38109D02*
X50810Y-38202D01*
X50697Y-38023D02*
X50830Y-38089D01*
X50743Y-38176D01*
X50371Y-37140D02*
X50451Y-37061D01*
X50411Y-37101D02*
X50272Y-36961D01*
X50305Y-36968D01*
X50332Y-36968D01*
X50352Y-36961D01*
X50146Y-37087D02*
X50133Y-37101D01*
X50126Y-37120D01*
X50126Y-37134D01*
X50133Y-37154D01*
X50153Y-37187D01*
X50186Y-37220D01*
X50219Y-37240D01*
X50239Y-37246D01*
X50252Y-37246D01*
X50272Y-37240D01*
X50285Y-37227D01*
X50292Y-37207D01*
X50292Y-37193D01*
X50285Y-37173D01*
X50265Y-37140D01*
X50232Y-37107D01*
X50199Y-37087D01*
X50179Y-37081D01*
X50166Y-37081D01*
X50146Y-37087D01*
X50013Y-37220D02*
X50000Y-37233D01*
X49993Y-37253D01*
X49993Y-37266D01*
X50000Y-37286D01*
X50020Y-37319D01*
X50053Y-37353D01*
X50086Y-37372D01*
X50106Y-37379D01*
X50119Y-37379D01*
X50139Y-37372D01*
X50153Y-37359D01*
X50159Y-37339D01*
X50159Y-37326D01*
X50153Y-37306D01*
X50133Y-37273D01*
X50100Y-37240D01*
X50066Y-37220D01*
X50046Y-37213D01*
X50033Y-37213D01*
X50013Y-37220D01*
X49954Y-37372D02*
X50046Y-37465D01*
X49967Y-37386D02*
X49954Y-37386D01*
X49934Y-37392D01*
X49914Y-37412D01*
X49907Y-37432D01*
X49914Y-37452D01*
X49987Y-37525D01*
X49801Y-37565D02*
X49847Y-37518D01*
X49920Y-37591D02*
X49781Y-37452D01*
X49715Y-37518D01*
X49630Y-43816D02*
X49630Y-43829D01*
X49643Y-43856D01*
X49656Y-43869D01*
X49683Y-43882D01*
X49709Y-43882D01*
X49729Y-43876D01*
X49762Y-43856D01*
X49782Y-43836D01*
X49802Y-43803D01*
X49809Y-43783D01*
X49809Y-43756D01*
X49795Y-43730D01*
X49782Y-43716D01*
X49756Y-43703D01*
X49742Y-43703D01*
X49630Y-43564D02*
X49696Y-43630D01*
X49636Y-43703D01*
X49636Y-43690D01*
X49630Y-43670D01*
X49596Y-43637D01*
X49577Y-43630D01*
X49563Y-43630D01*
X49543Y-43637D01*
X49510Y-43670D01*
X49504Y-43690D01*
X49504Y-43703D01*
X49510Y-43723D01*
X49543Y-43756D01*
X49563Y-43763D01*
X49577Y-43763D01*
X49059Y-44771D02*
X49138Y-44851D01*
X49099Y-44811D02*
X49238Y-44672D01*
X49231Y-44705D01*
X49231Y-44732D01*
X49238Y-44752D01*
X49112Y-44546D02*
X49099Y-44533D01*
X49079Y-44526D01*
X49065Y-44526D01*
X49045Y-44533D01*
X49012Y-44553D01*
X48979Y-44586D01*
X48959Y-44619D01*
X48953Y-44639D01*
X48953Y-44652D01*
X48959Y-44672D01*
X48972Y-44685D01*
X48992Y-44692D01*
X49006Y-44692D01*
X49026Y-44685D01*
X49059Y-44665D01*
X49092Y-44632D01*
X49112Y-44599D01*
X49118Y-44579D01*
X49118Y-44566D01*
X49112Y-44546D01*
X48979Y-44413D02*
X48966Y-44400D01*
X48946Y-44393D01*
X48933Y-44393D01*
X48913Y-44400D01*
X48880Y-44420D01*
X48846Y-44453D01*
X48827Y-44486D01*
X48820Y-44506D01*
X48820Y-44519D01*
X48827Y-44539D01*
X48840Y-44553D01*
X48860Y-44559D01*
X48873Y-44559D01*
X48893Y-44553D01*
X48926Y-44533D01*
X48959Y-44500D01*
X48979Y-44466D01*
X48986Y-44446D01*
X48986Y-44433D01*
X48979Y-44413D01*
X48827Y-44354D02*
X48734Y-44446D01*
X48813Y-44367D02*
X48813Y-44354D01*
X48807Y-44334D01*
X48787Y-44314D01*
X48767Y-44307D01*
X48747Y-44314D01*
X48674Y-44387D01*
X48634Y-44201D02*
X48681Y-44247D01*
X48608Y-44320D02*
X48747Y-44181D01*
X48681Y-44115D01*
X56366Y-44319D02*
X56379Y-44319D01*
X56406Y-44306D01*
X56419Y-44293D01*
X56432Y-44266D01*
X56432Y-44240D01*
X56426Y-44220D01*
X56406Y-44187D01*
X56386Y-44167D01*
X56353Y-44147D01*
X56333Y-44140D01*
X56306Y-44140D01*
X56280Y-44154D01*
X56266Y-44167D01*
X56253Y-44193D01*
X56253Y-44207D01*
X56120Y-44313D02*
X56147Y-44286D01*
X56167Y-44280D01*
X56180Y-44280D01*
X56213Y-44286D01*
X56246Y-44306D01*
X56300Y-44359D01*
X56306Y-44379D01*
X56306Y-44392D01*
X56300Y-44412D01*
X56273Y-44439D01*
X56253Y-44445D01*
X56240Y-44445D01*
X56220Y-44439D01*
X56187Y-44406D01*
X56180Y-44386D01*
X56180Y-44372D01*
X56187Y-44353D01*
X56213Y-44326D01*
X56233Y-44319D01*
X56246Y-44319D01*
X56266Y-44326D01*
X57321Y-44890D02*
X57401Y-44811D01*
X57361Y-44851D02*
X57222Y-44711D01*
X57255Y-44718D01*
X57282Y-44718D01*
X57302Y-44711D01*
X57096Y-44837D02*
X57083Y-44851D01*
X57076Y-44870D01*
X57076Y-44884D01*
X57083Y-44904D01*
X57103Y-44937D01*
X57136Y-44970D01*
X57169Y-44990D01*
X57189Y-44996D01*
X57202Y-44996D01*
X57222Y-44990D01*
X57235Y-44977D01*
X57242Y-44957D01*
X57242Y-44943D01*
X57235Y-44923D01*
X57215Y-44890D01*
X57182Y-44857D01*
X57149Y-44837D01*
X57129Y-44831D01*
X57116Y-44831D01*
X57096Y-44837D01*
X56963Y-44970D02*
X56950Y-44983D01*
X56943Y-45003D01*
X56943Y-45016D01*
X56950Y-45036D01*
X56970Y-45069D01*
X57003Y-45103D01*
X57036Y-45122D01*
X57056Y-45129D01*
X57069Y-45129D01*
X57089Y-45122D01*
X57103Y-45109D01*
X57109Y-45089D01*
X57109Y-45076D01*
X57103Y-45056D01*
X57083Y-45023D01*
X57050Y-44990D01*
X57016Y-44970D01*
X56996Y-44963D01*
X56983Y-44963D01*
X56963Y-44970D01*
X56904Y-45122D02*
X56996Y-45215D01*
X56917Y-45136D02*
X56904Y-45136D01*
X56884Y-45142D01*
X56864Y-45162D01*
X56857Y-45182D01*
X56864Y-45202D01*
X56937Y-45275D01*
X56751Y-45315D02*
X56797Y-45268D01*
X56870Y-45341D02*
X56731Y-45202D01*
X56665Y-45268D01*
X51130Y-45266D02*
X51130Y-45279D01*
X51143Y-45306D01*
X51156Y-45319D01*
X51183Y-45332D01*
X51209Y-45332D01*
X51229Y-45326D01*
X51262Y-45306D01*
X51282Y-45286D01*
X51302Y-45253D01*
X51309Y-45233D01*
X51309Y-45206D01*
X51295Y-45180D01*
X51282Y-45166D01*
X51256Y-45153D01*
X51242Y-45153D01*
X51209Y-45093D02*
X51123Y-45007D01*
X51116Y-45107D01*
X51096Y-45087D01*
X51077Y-45080D01*
X51063Y-45080D01*
X51043Y-45087D01*
X51010Y-45120D01*
X51004Y-45140D01*
X51004Y-45153D01*
X51010Y-45173D01*
X51050Y-45213D01*
X51070Y-45219D01*
X51083Y-45219D01*
X50459Y-46321D02*
X50538Y-46401D01*
X50499Y-46361D02*
X50638Y-46222D01*
X50631Y-46255D01*
X50631Y-46282D01*
X50638Y-46302D01*
X50512Y-46096D02*
X50499Y-46083D01*
X50479Y-46076D01*
X50465Y-46076D01*
X50445Y-46083D01*
X50412Y-46103D01*
X50379Y-46136D01*
X50359Y-46169D01*
X50353Y-46189D01*
X50353Y-46202D01*
X50359Y-46222D01*
X50372Y-46235D01*
X50392Y-46242D01*
X50406Y-46242D01*
X50426Y-46235D01*
X50459Y-46215D01*
X50492Y-46182D01*
X50512Y-46149D01*
X50518Y-46129D01*
X50518Y-46116D01*
X50512Y-46096D01*
X50379Y-45963D02*
X50366Y-45950D01*
X50346Y-45943D01*
X50333Y-45943D01*
X50313Y-45950D01*
X50280Y-45970D01*
X50246Y-46003D01*
X50227Y-46036D01*
X50220Y-46056D01*
X50220Y-46069D01*
X50227Y-46089D01*
X50240Y-46103D01*
X50260Y-46109D01*
X50273Y-46109D01*
X50293Y-46103D01*
X50326Y-46083D01*
X50359Y-46050D01*
X50379Y-46016D01*
X50386Y-45996D01*
X50386Y-45983D01*
X50379Y-45963D01*
X50227Y-45904D02*
X50134Y-45996D01*
X50213Y-45917D02*
X50213Y-45904D01*
X50207Y-45884D01*
X50187Y-45864D01*
X50167Y-45857D01*
X50147Y-45864D01*
X50074Y-45937D01*
X50034Y-45751D02*
X50081Y-45797D01*
X50008Y-45870D02*
X50147Y-45731D01*
X50081Y-45665D01*
M02*
