G04 (created by PCBNEW (2013-may-18)-stable) date Sun 14 Jun 2015 08:39:56 PM EDT*
%MOIN*%
G04 Gerber Fmt 3.4, Leading zero omitted, Abs format*
%FSLAX34Y34*%
G01*
G70*
G90*
G04 APERTURE LIST*
%ADD10C,0.00590551*%
%ADD11C,0.035*%
%ADD12C,0.055*%
%ADD13R,0.02X0.03*%
%ADD14R,0.0394X0.0236*%
%ADD15R,0.055X0.035*%
%ADD16R,0.035X0.055*%
%ADD17R,0.06X0.06*%
%ADD18C,0.06*%
%ADD19R,0.0472X0.0472*%
%ADD20C,0.0590551*%
%ADD21C,0.18*%
%ADD22C,0.045*%
%ADD23C,0.02*%
%ADD24C,0.03*%
%ADD25C,0.01*%
G04 APERTURE END LIST*
G54D10*
G54D11*
X40100Y-53500D03*
X40250Y-55250D03*
X42400Y-49100D03*
X47300Y-46600D03*
X46300Y-47650D03*
X44650Y-48350D03*
X44300Y-45100D03*
X40850Y-47900D03*
X41850Y-46850D03*
X48650Y-53650D03*
X57950Y-51600D03*
X59500Y-51550D03*
X59550Y-47000D03*
X63750Y-49500D03*
X63150Y-50150D03*
X47350Y-53850D03*
X44750Y-53750D03*
X54275Y-35325D03*
X51650Y-58350D03*
X48800Y-52450D03*
X57950Y-56300D03*
X59650Y-47600D03*
X62850Y-36600D03*
X61500Y-37300D03*
X59400Y-39150D03*
X49575Y-34825D03*
X52925Y-33775D03*
X45775Y-33325D03*
X44275Y-34775D03*
X47075Y-43375D03*
X63250Y-41150D03*
X64600Y-40450D03*
X64550Y-43650D03*
X38150Y-58350D03*
X63200Y-44350D03*
X57550Y-45050D03*
G54D10*
G36*
X53935Y-42522D02*
X54359Y-42946D01*
X54246Y-43059D01*
X53822Y-42635D01*
X53935Y-42522D01*
X53935Y-42522D01*
G37*
G36*
X54158Y-42299D02*
X54582Y-42723D01*
X54469Y-42836D01*
X54045Y-42412D01*
X54158Y-42299D01*
X54158Y-42299D01*
G37*
G36*
X54380Y-42076D02*
X54805Y-42501D01*
X54692Y-42614D01*
X54267Y-42189D01*
X54380Y-42076D01*
X54380Y-42076D01*
G37*
G36*
X54603Y-41854D02*
X55027Y-42278D01*
X54914Y-42391D01*
X54490Y-41967D01*
X54603Y-41854D01*
X54603Y-41854D01*
G37*
G36*
X54826Y-41631D02*
X55250Y-42055D01*
X55137Y-42168D01*
X54713Y-41744D01*
X54826Y-41631D01*
X54826Y-41631D01*
G37*
G36*
X55049Y-41408D02*
X55473Y-41832D01*
X55360Y-41945D01*
X54935Y-41521D01*
X55049Y-41408D01*
X55049Y-41408D01*
G37*
G36*
X53712Y-42745D02*
X54136Y-43169D01*
X54023Y-43282D01*
X53599Y-42858D01*
X53712Y-42745D01*
X53712Y-42745D01*
G37*
G36*
X53489Y-42967D02*
X53914Y-43392D01*
X53801Y-43505D01*
X53376Y-43080D01*
X53489Y-42967D01*
X53489Y-42967D01*
G37*
G36*
X53267Y-43190D02*
X53691Y-43614D01*
X53578Y-43727D01*
X53154Y-43303D01*
X53267Y-43190D01*
X53267Y-43190D01*
G37*
G36*
X53044Y-43413D02*
X53468Y-43837D01*
X53355Y-43950D01*
X52931Y-43526D01*
X53044Y-43413D01*
X53044Y-43413D01*
G37*
G36*
X52821Y-43635D02*
X53245Y-44060D01*
X53132Y-44173D01*
X52708Y-43749D01*
X52821Y-43635D01*
X52821Y-43635D01*
G37*
G36*
X50753Y-39340D02*
X51177Y-39764D01*
X51064Y-39877D01*
X50640Y-39453D01*
X50753Y-39340D01*
X50753Y-39340D01*
G37*
G36*
X50976Y-39117D02*
X51400Y-39541D01*
X51287Y-39654D01*
X50863Y-39230D01*
X50976Y-39117D01*
X50976Y-39117D01*
G37*
G36*
X51198Y-38894D02*
X51623Y-39319D01*
X51510Y-39432D01*
X51085Y-39007D01*
X51198Y-38894D01*
X51198Y-38894D01*
G37*
G36*
X51421Y-38672D02*
X51845Y-39096D01*
X51732Y-39209D01*
X51308Y-38785D01*
X51421Y-38672D01*
X51421Y-38672D01*
G37*
G36*
X51644Y-38449D02*
X52068Y-38873D01*
X51955Y-38986D01*
X51531Y-38562D01*
X51644Y-38449D01*
X51644Y-38449D01*
G37*
G36*
X51867Y-38226D02*
X52291Y-38650D01*
X52178Y-38764D01*
X51754Y-38339D01*
X51867Y-38226D01*
X51867Y-38226D01*
G37*
G36*
X50530Y-39563D02*
X50954Y-39987D01*
X50841Y-40100D01*
X50417Y-39676D01*
X50530Y-39563D01*
X50530Y-39563D01*
G37*
G36*
X50307Y-39785D02*
X50732Y-40210D01*
X50619Y-40323D01*
X50194Y-39898D01*
X50307Y-39785D01*
X50307Y-39785D01*
G37*
G36*
X50085Y-40008D02*
X50509Y-40432D01*
X50396Y-40545D01*
X49972Y-40121D01*
X50085Y-40008D01*
X50085Y-40008D01*
G37*
G36*
X49862Y-40231D02*
X50286Y-40655D01*
X50173Y-40768D01*
X49749Y-40344D01*
X49862Y-40231D01*
X49862Y-40231D01*
G37*
G36*
X49639Y-40454D02*
X50064Y-40878D01*
X49950Y-40991D01*
X49526Y-40567D01*
X49639Y-40454D01*
X49639Y-40454D01*
G37*
G36*
X54246Y-39340D02*
X54359Y-39453D01*
X53935Y-39877D01*
X53822Y-39764D01*
X54246Y-39340D01*
X54246Y-39340D01*
G37*
G36*
X51064Y-42522D02*
X51177Y-42635D01*
X50753Y-43059D01*
X50640Y-42946D01*
X51064Y-42522D01*
X51064Y-42522D01*
G37*
G36*
X54023Y-39117D02*
X54136Y-39230D01*
X53712Y-39654D01*
X53599Y-39541D01*
X54023Y-39117D01*
X54023Y-39117D01*
G37*
G36*
X50841Y-42299D02*
X50954Y-42412D01*
X50530Y-42836D01*
X50417Y-42723D01*
X50841Y-42299D01*
X50841Y-42299D01*
G37*
G36*
X50619Y-42076D02*
X50732Y-42189D01*
X50307Y-42614D01*
X50194Y-42501D01*
X50619Y-42076D01*
X50619Y-42076D01*
G37*
G36*
X53801Y-38894D02*
X53914Y-39007D01*
X53489Y-39432D01*
X53376Y-39319D01*
X53801Y-38894D01*
X53801Y-38894D01*
G37*
G36*
X53578Y-38672D02*
X53691Y-38785D01*
X53267Y-39209D01*
X53154Y-39096D01*
X53578Y-38672D01*
X53578Y-38672D01*
G37*
G36*
X50396Y-41854D02*
X50509Y-41967D01*
X50085Y-42391D01*
X49972Y-42278D01*
X50396Y-41854D01*
X50396Y-41854D01*
G37*
G36*
X50173Y-41631D02*
X50286Y-41744D01*
X49862Y-42168D01*
X49749Y-42055D01*
X50173Y-41631D01*
X50173Y-41631D01*
G37*
G36*
X53355Y-38449D02*
X53468Y-38562D01*
X53044Y-38986D01*
X52931Y-38873D01*
X53355Y-38449D01*
X53355Y-38449D01*
G37*
G36*
X53132Y-38226D02*
X53245Y-38339D01*
X52821Y-38764D01*
X52708Y-38650D01*
X53132Y-38226D01*
X53132Y-38226D01*
G37*
G36*
X49950Y-41408D02*
X50064Y-41521D01*
X49639Y-41945D01*
X49526Y-41832D01*
X49950Y-41408D01*
X49950Y-41408D01*
G37*
G36*
X51287Y-42745D02*
X51400Y-42858D01*
X50976Y-43282D01*
X50863Y-43169D01*
X51287Y-42745D01*
X51287Y-42745D01*
G37*
G36*
X54469Y-39563D02*
X54582Y-39676D01*
X54158Y-40100D01*
X54045Y-39987D01*
X54469Y-39563D01*
X54469Y-39563D01*
G37*
G36*
X54692Y-39785D02*
X54805Y-39898D01*
X54380Y-40323D01*
X54267Y-40210D01*
X54692Y-39785D01*
X54692Y-39785D01*
G37*
G36*
X51510Y-42967D02*
X51623Y-43080D01*
X51198Y-43505D01*
X51085Y-43392D01*
X51510Y-42967D01*
X51510Y-42967D01*
G37*
G36*
X51732Y-43190D02*
X51845Y-43303D01*
X51421Y-43727D01*
X51308Y-43614D01*
X51732Y-43190D01*
X51732Y-43190D01*
G37*
G36*
X54914Y-40008D02*
X55027Y-40121D01*
X54603Y-40545D01*
X54490Y-40432D01*
X54914Y-40008D01*
X54914Y-40008D01*
G37*
G36*
X55137Y-40231D02*
X55250Y-40344D01*
X54826Y-40768D01*
X54713Y-40655D01*
X55137Y-40231D01*
X55137Y-40231D01*
G37*
G36*
X51955Y-43413D02*
X52068Y-43526D01*
X51644Y-43950D01*
X51531Y-43837D01*
X51955Y-43413D01*
X51955Y-43413D01*
G37*
G36*
X52178Y-43635D02*
X52291Y-43749D01*
X51867Y-44173D01*
X51754Y-44060D01*
X52178Y-43635D01*
X52178Y-43635D01*
G37*
G36*
X55360Y-40454D02*
X55473Y-40567D01*
X55049Y-40991D01*
X54935Y-40878D01*
X55360Y-40454D01*
X55360Y-40454D01*
G37*
G54D12*
X61300Y-53100D03*
X63300Y-53100D03*
X61300Y-56100D03*
X63300Y-56100D03*
G54D13*
X48625Y-49500D03*
X47875Y-49500D03*
X48625Y-50500D03*
X48250Y-49500D03*
X47875Y-50500D03*
G54D14*
X39566Y-59275D03*
X38734Y-58900D03*
X39566Y-58525D03*
G54D10*
G36*
X57094Y-34416D02*
X57483Y-34805D01*
X57235Y-35053D01*
X56846Y-34664D01*
X57094Y-34416D01*
X57094Y-34416D01*
G37*
G36*
X56564Y-34946D02*
X56953Y-35335D01*
X56705Y-35583D01*
X56316Y-35194D01*
X56564Y-34946D01*
X56564Y-34946D01*
G37*
G54D15*
X58700Y-52425D03*
X58700Y-53175D03*
X61850Y-57175D03*
X61850Y-57925D03*
G54D16*
X42025Y-53050D03*
X42775Y-53050D03*
G54D15*
X40000Y-56725D03*
X40000Y-57475D03*
X38925Y-57450D03*
X38925Y-56700D03*
G54D10*
G36*
X58294Y-35616D02*
X58683Y-36005D01*
X58435Y-36253D01*
X58046Y-35864D01*
X58294Y-35616D01*
X58294Y-35616D01*
G37*
G36*
X57764Y-36146D02*
X58153Y-36535D01*
X57905Y-36783D01*
X57516Y-36394D01*
X57764Y-36146D01*
X57764Y-36146D01*
G37*
G54D17*
X42200Y-55100D03*
G54D18*
X43200Y-55100D03*
X42200Y-56100D03*
X43200Y-56100D03*
X42200Y-57100D03*
X43200Y-57100D03*
X42200Y-58100D03*
X43200Y-58100D03*
G54D17*
X67100Y-50850D03*
G54D18*
X67100Y-49850D03*
X67100Y-40850D03*
X67100Y-47850D03*
X67100Y-38850D03*
X67100Y-45850D03*
X67100Y-36850D03*
X67100Y-43850D03*
X67100Y-34850D03*
X67100Y-41850D03*
X67100Y-32850D03*
X67100Y-39850D03*
X67100Y-37850D03*
X67100Y-35850D03*
X67100Y-33850D03*
X67100Y-31850D03*
X67100Y-48850D03*
X67100Y-46850D03*
X67100Y-44850D03*
X67100Y-42850D03*
G54D17*
X37100Y-50850D03*
G54D18*
X37100Y-49850D03*
X37100Y-40850D03*
X37100Y-47850D03*
X37100Y-38850D03*
X37100Y-45850D03*
X37100Y-36850D03*
X37100Y-43850D03*
X37100Y-34850D03*
X37100Y-41850D03*
X37100Y-32850D03*
X37100Y-39850D03*
X37100Y-37850D03*
X37100Y-35850D03*
X37100Y-33850D03*
X37100Y-31850D03*
X37100Y-48850D03*
X37100Y-46850D03*
X37100Y-44850D03*
X37100Y-42850D03*
G54D17*
X37100Y-60100D03*
G54D18*
X37100Y-59100D03*
X37100Y-58100D03*
X37100Y-57100D03*
X37100Y-56100D03*
X37100Y-55100D03*
G54D19*
X58237Y-54750D03*
X59063Y-54750D03*
G54D20*
X55531Y-58950D03*
X57500Y-58950D03*
X59468Y-58950D03*
G54D18*
X64000Y-60050D03*
X64000Y-59050D03*
X65000Y-60050D03*
X65000Y-59050D03*
X66000Y-60050D03*
G54D17*
X66000Y-59050D03*
G54D10*
G36*
X55056Y-36496D02*
X55696Y-35856D01*
X56141Y-36301D01*
X55501Y-36941D01*
X55056Y-36496D01*
X55056Y-36496D01*
G37*
G36*
X56058Y-37498D02*
X56698Y-36858D01*
X57143Y-37303D01*
X56503Y-37943D01*
X56058Y-37498D01*
X56058Y-37498D01*
G37*
G54D21*
X67100Y-30100D03*
X67100Y-52600D03*
X37100Y-30100D03*
X37100Y-52600D03*
G54D16*
X49975Y-49050D03*
X50725Y-49050D03*
X49975Y-50800D03*
X50725Y-50800D03*
G54D11*
X59900Y-53650D03*
G54D17*
X66150Y-54950D03*
G54D18*
X67150Y-54950D03*
X68150Y-54950D03*
G54D22*
X49900Y-52100D03*
G54D11*
X43700Y-53050D03*
X52750Y-55600D03*
X54450Y-54900D03*
X56300Y-54850D03*
X58750Y-45750D03*
X55700Y-43450D03*
X51200Y-40450D03*
X41750Y-44350D03*
X54150Y-50150D03*
X54550Y-44700D03*
X55000Y-49950D03*
X58150Y-44600D03*
X56350Y-49500D03*
X58150Y-46150D03*
X48650Y-38800D03*
X44650Y-38850D03*
X47200Y-37850D03*
X43650Y-37850D03*
X45700Y-36850D03*
X42650Y-36850D03*
X44200Y-35850D03*
X42700Y-34850D03*
X41150Y-33850D03*
X39700Y-32900D03*
X53750Y-53700D03*
X53250Y-37800D03*
X55250Y-44600D03*
X55000Y-47550D03*
X50250Y-47450D03*
X44500Y-50350D03*
X51900Y-39900D03*
X53150Y-37150D03*
X45350Y-36300D03*
X51350Y-35850D03*
X61250Y-51000D03*
X54450Y-52450D03*
X59750Y-43900D03*
X56850Y-41550D03*
X64000Y-47400D03*
X63300Y-48100D03*
X60850Y-50550D03*
X54150Y-51850D03*
X59650Y-43050D03*
X55850Y-41050D03*
X55700Y-45150D03*
X58950Y-47750D03*
X46800Y-37450D03*
X60200Y-44900D03*
X56000Y-39450D03*
X54200Y-37850D03*
X56250Y-41550D03*
X58500Y-43650D03*
X59300Y-45700D03*
X57250Y-53250D03*
X55000Y-48900D03*
X53100Y-48850D03*
X52100Y-46100D03*
X64000Y-46650D03*
X62900Y-47750D03*
X60600Y-50100D03*
X54500Y-50950D03*
X59550Y-42200D03*
X55500Y-39800D03*
X53300Y-47700D03*
X53150Y-46100D03*
X49300Y-48400D03*
X40350Y-50950D03*
X40450Y-52000D03*
X53700Y-37550D03*
X54100Y-49300D03*
X52750Y-49950D03*
X55000Y-48250D03*
X53100Y-48250D03*
X52650Y-46100D03*
X47400Y-44750D03*
X56900Y-45750D03*
X62550Y-57150D03*
X54550Y-44200D03*
X56300Y-39000D03*
X51700Y-36650D03*
X51300Y-37850D03*
X55050Y-39100D03*
X49950Y-43300D03*
X50500Y-41250D03*
X52050Y-42400D03*
X48550Y-42800D03*
X46650Y-40850D03*
X52400Y-41350D03*
X47650Y-41850D03*
X52000Y-41850D03*
X53200Y-41050D03*
X45650Y-39850D03*
X46900Y-50500D03*
X49300Y-49900D03*
X51650Y-50600D03*
X53750Y-41800D03*
X54550Y-43500D03*
X49500Y-38550D03*
X48300Y-37250D03*
X56750Y-38400D03*
X57800Y-35350D03*
X56350Y-33900D03*
X58200Y-33700D03*
X51950Y-49050D03*
X50050Y-44800D03*
X54500Y-37350D03*
X51550Y-45350D03*
G54D23*
X39550Y-60100D02*
X40050Y-60100D01*
X37100Y-60100D02*
X39550Y-60100D01*
X41400Y-58750D02*
X41400Y-54400D01*
X40050Y-60100D02*
X41400Y-58750D01*
G54D24*
X48975Y-51175D02*
X49100Y-51300D01*
X49900Y-52100D02*
X49875Y-52075D01*
X49875Y-52075D02*
X49100Y-51300D01*
G54D23*
X48950Y-50800D02*
X48950Y-51050D01*
X48700Y-51300D02*
X48950Y-51050D01*
X45750Y-54250D02*
X48200Y-51800D01*
X45750Y-54250D02*
X43200Y-54250D01*
X48200Y-51800D02*
X48700Y-51300D01*
X48625Y-50500D02*
X48625Y-50525D01*
X48625Y-50525D02*
X48900Y-50800D01*
X48900Y-50800D02*
X48950Y-50800D01*
X48950Y-50800D02*
X49975Y-50800D01*
X43200Y-54250D02*
X43200Y-55100D01*
X42900Y-53950D02*
X43200Y-54250D01*
X41850Y-53950D02*
X42900Y-53950D01*
X41400Y-54400D02*
X41850Y-53950D01*
G54D25*
X43700Y-53050D02*
X42775Y-53050D01*
X53750Y-55600D02*
X52750Y-55600D01*
X54450Y-54900D02*
X53750Y-55600D01*
X54759Y-42122D02*
X54772Y-42122D01*
X54772Y-42122D02*
X55700Y-43050D01*
X56750Y-54400D02*
X56300Y-54850D01*
X56750Y-48200D02*
X56750Y-54400D01*
X58700Y-46250D02*
X56750Y-48200D01*
X58700Y-45800D02*
X58700Y-46250D01*
X58750Y-45750D02*
X58700Y-45800D01*
X55700Y-43050D02*
X55700Y-43450D01*
X51200Y-40450D02*
X52100Y-40450D01*
X52100Y-40450D02*
X52550Y-40000D01*
X52550Y-40000D02*
X52550Y-39800D01*
X52550Y-39800D02*
X52200Y-39450D01*
X52200Y-39450D02*
X51640Y-39450D01*
X51354Y-39163D02*
X51640Y-39450D01*
X38250Y-47850D02*
X41750Y-44350D01*
X38250Y-47850D02*
X37100Y-47850D01*
X55000Y-43200D02*
X55000Y-44250D01*
X54150Y-50150D02*
X53750Y-50550D01*
X53750Y-50550D02*
X52700Y-50550D01*
X54313Y-42568D02*
X54368Y-42568D01*
X54368Y-42568D02*
X55000Y-43200D01*
X42250Y-56100D02*
X42200Y-56100D01*
X47650Y-55600D02*
X52700Y-50550D01*
X42750Y-55600D02*
X47650Y-55600D01*
X42250Y-56100D02*
X42750Y-55600D01*
X54550Y-44700D02*
X54550Y-44700D01*
X55000Y-44250D02*
X54550Y-44700D01*
X55000Y-49950D02*
X54100Y-50850D01*
X54100Y-50850D02*
X53100Y-50850D01*
X43200Y-56100D02*
X47850Y-56100D01*
X47850Y-56100D02*
X53100Y-50850D01*
X55227Y-41677D02*
X58150Y-44600D01*
X55227Y-41677D02*
X55204Y-41677D01*
X56350Y-47950D02*
X56350Y-49500D01*
X58150Y-46150D02*
X56350Y-47950D01*
X37100Y-38850D02*
X44650Y-38850D01*
X49909Y-39500D02*
X50463Y-40054D01*
X49350Y-39500D02*
X49909Y-39500D01*
X48650Y-38800D02*
X49350Y-39500D01*
X37100Y-37850D02*
X43650Y-37850D01*
X49813Y-39850D02*
X50240Y-40277D01*
X49200Y-39850D02*
X49813Y-39850D01*
X47200Y-37850D02*
X49200Y-39850D01*
X37100Y-36850D02*
X42650Y-36850D01*
X49668Y-40150D02*
X50018Y-40499D01*
X49000Y-40150D02*
X49668Y-40150D01*
X45700Y-36850D02*
X49000Y-40150D01*
X44200Y-35850D02*
X49072Y-40722D01*
X49072Y-40722D02*
X49795Y-40722D01*
X42700Y-34850D02*
X49527Y-41677D01*
X49527Y-41677D02*
X49795Y-41677D01*
X41150Y-33850D02*
X49600Y-42300D01*
X49600Y-42300D02*
X49618Y-42300D01*
X49618Y-42300D02*
X50018Y-41900D01*
X39700Y-32900D02*
X49400Y-42600D01*
X49400Y-42600D02*
X49763Y-42600D01*
X50240Y-42122D02*
X49763Y-42600D01*
X37100Y-31850D02*
X38150Y-31850D01*
X49959Y-42850D02*
X50463Y-42345D01*
X49150Y-42850D02*
X49959Y-42850D01*
X38150Y-31850D02*
X49150Y-42850D01*
X37100Y-59100D02*
X38534Y-59100D01*
X38534Y-59100D02*
X38734Y-58900D01*
X49350Y-58100D02*
X53750Y-53700D01*
X43200Y-58100D02*
X49350Y-58100D01*
X52977Y-38072D02*
X52977Y-38495D01*
X52977Y-38072D02*
X53250Y-37800D01*
X41425Y-50475D02*
X44375Y-50475D01*
X54545Y-42345D02*
X55300Y-43100D01*
X54545Y-42345D02*
X54536Y-42345D01*
X55300Y-44550D02*
X55300Y-43100D01*
X55250Y-44600D02*
X55300Y-44550D01*
X54800Y-47350D02*
X55000Y-47550D01*
X50350Y-47350D02*
X54800Y-47350D01*
X50250Y-47450D02*
X50350Y-47350D01*
X44375Y-50475D02*
X44500Y-50350D01*
X37100Y-56100D02*
X37450Y-56100D01*
X38850Y-53050D02*
X41425Y-50475D01*
X41425Y-50475D02*
X41450Y-50450D01*
X41450Y-50450D02*
X41400Y-50500D01*
X38850Y-54700D02*
X38850Y-53050D01*
X37450Y-56100D02*
X38850Y-54700D01*
X51136Y-39386D02*
X51131Y-39386D01*
X51650Y-39900D02*
X51136Y-39386D01*
X51900Y-39900D02*
X51650Y-39900D01*
X37100Y-43850D02*
X47800Y-43850D01*
X57050Y-43968D02*
X54981Y-41900D01*
X57050Y-44950D02*
X57050Y-43968D01*
X55550Y-46450D02*
X57050Y-44950D01*
X50400Y-46450D02*
X55550Y-46450D01*
X47800Y-43850D02*
X50400Y-46450D01*
X53150Y-37150D02*
X52022Y-38127D01*
X52022Y-38495D02*
X52022Y-38127D01*
X45350Y-36300D02*
X45800Y-35850D01*
X45800Y-35850D02*
X51350Y-35850D01*
X53657Y-52800D02*
X54100Y-52800D01*
X48900Y-57600D02*
X53657Y-52800D01*
X42200Y-58100D02*
X42400Y-58100D01*
X42900Y-57600D02*
X48100Y-57600D01*
X42400Y-58100D02*
X42900Y-57600D01*
X48100Y-57600D02*
X48900Y-57600D01*
X64025Y-48225D02*
X64025Y-48175D01*
X61250Y-51000D02*
X64025Y-48225D01*
X54100Y-52800D02*
X54450Y-52450D01*
X64000Y-60050D02*
X64000Y-59950D01*
X63800Y-47950D02*
X59750Y-43900D01*
X56850Y-41550D02*
X56500Y-41200D01*
X56500Y-41200D02*
X56500Y-40850D01*
X56500Y-40850D02*
X55800Y-40150D01*
X55800Y-40150D02*
X55331Y-40150D01*
X55331Y-40150D02*
X54981Y-40499D01*
X64500Y-48650D02*
X64025Y-48175D01*
X64025Y-48175D02*
X63800Y-47950D01*
X64500Y-59450D02*
X64500Y-48650D01*
X64000Y-59950D02*
X64500Y-59450D01*
X53293Y-52300D02*
X53700Y-52300D01*
X48450Y-57100D02*
X53293Y-52300D01*
X43200Y-57100D02*
X48450Y-57100D01*
X60850Y-50550D02*
X63300Y-48100D01*
X53700Y-52300D02*
X54150Y-51850D01*
X65000Y-59050D02*
X65000Y-48400D01*
X64300Y-47700D02*
X64000Y-47400D01*
X64000Y-47400D02*
X59650Y-43050D01*
X55850Y-41050D02*
X55522Y-40722D01*
X55522Y-40722D02*
X55204Y-40722D01*
X65000Y-48400D02*
X64300Y-47700D01*
G54D23*
X52022Y-44122D02*
X53050Y-45150D01*
X53050Y-45150D02*
X55700Y-45150D01*
X52022Y-43904D02*
X52022Y-44122D01*
X58700Y-52425D02*
X58700Y-48000D01*
X58700Y-48000D02*
X58950Y-47750D01*
G54D25*
X47550Y-36700D02*
X51150Y-36700D01*
X46800Y-37450D02*
X47550Y-36700D01*
X51799Y-38699D02*
X51500Y-38400D01*
X51500Y-38400D02*
X51500Y-38200D01*
X51500Y-38200D02*
X51700Y-38000D01*
X51150Y-36700D02*
X51700Y-37250D01*
X51700Y-37250D02*
X51700Y-38000D01*
X51799Y-38699D02*
X51799Y-38718D01*
X61300Y-56100D02*
X61300Y-57375D01*
X61300Y-57375D02*
X61850Y-57925D01*
X61300Y-53100D02*
X61300Y-56100D01*
X60200Y-44900D02*
X60200Y-52000D01*
X56000Y-39450D02*
X55150Y-39450D01*
X55150Y-39450D02*
X54545Y-40054D01*
X54536Y-40054D02*
X54545Y-40054D01*
X60200Y-52000D02*
X61300Y-53100D01*
X66000Y-60050D02*
X65950Y-60050D01*
X65950Y-60050D02*
X65150Y-60850D01*
X65150Y-60850D02*
X62550Y-60850D01*
X62550Y-60850D02*
X61850Y-60150D01*
X61850Y-60150D02*
X61850Y-57925D01*
X53422Y-38927D02*
X54200Y-38150D01*
X54200Y-38150D02*
X54200Y-37850D01*
X53422Y-38940D02*
X53422Y-38927D01*
X56700Y-42000D02*
X57450Y-42000D01*
X56250Y-41550D02*
X56700Y-42000D01*
X58500Y-43050D02*
X58500Y-43650D01*
X57450Y-42000D02*
X58500Y-43050D01*
X59300Y-45700D02*
X59300Y-46400D01*
X59300Y-46400D02*
X57250Y-48450D01*
X57250Y-48450D02*
X57250Y-53250D01*
X53150Y-48900D02*
X55000Y-48900D01*
X53100Y-48850D02*
X53150Y-48900D01*
X52100Y-45400D02*
X52100Y-46100D01*
X51354Y-43245D02*
X51000Y-43600D01*
X51000Y-43600D02*
X51000Y-44300D01*
X51000Y-44300D02*
X51950Y-45250D01*
X51354Y-43236D02*
X51354Y-43245D01*
X51950Y-45250D02*
X52100Y-45400D01*
X52800Y-51950D02*
X53500Y-51950D01*
X42400Y-57100D02*
X42900Y-56600D01*
X42900Y-56600D02*
X48150Y-56600D01*
X48150Y-56600D02*
X52800Y-51950D01*
X42200Y-57100D02*
X42400Y-57100D01*
X62900Y-47800D02*
X62900Y-47750D01*
X60600Y-50100D02*
X62900Y-47800D01*
X53500Y-51950D02*
X54500Y-50950D01*
X65000Y-60050D02*
X65000Y-59800D01*
X64800Y-47450D02*
X64000Y-46650D01*
X64000Y-46650D02*
X59550Y-42200D01*
X55500Y-39800D02*
X55200Y-39800D01*
X55200Y-39800D02*
X54759Y-40240D01*
X54759Y-40240D02*
X54759Y-40277D01*
X65500Y-48150D02*
X64800Y-47450D01*
X65500Y-59300D02*
X65500Y-48150D01*
X65000Y-59800D02*
X65500Y-59300D01*
X52150Y-48400D02*
X52850Y-47700D01*
X52850Y-47700D02*
X53300Y-47700D01*
X51550Y-44100D02*
X53150Y-45700D01*
X51799Y-43700D02*
X51550Y-43950D01*
X51799Y-43700D02*
X51799Y-43681D01*
X53150Y-45700D02*
X53150Y-46100D01*
X51550Y-43950D02*
X51550Y-44100D01*
X49300Y-48400D02*
X52150Y-48400D01*
X40350Y-50950D02*
X40375Y-50975D01*
X40375Y-50975D02*
X40350Y-50950D01*
X40350Y-50950D02*
X40350Y-51000D01*
X37100Y-55100D02*
X37800Y-55100D01*
X38550Y-52800D02*
X40350Y-51000D01*
X38550Y-54350D02*
X38550Y-52800D01*
X37800Y-55100D02*
X38550Y-54350D01*
X39200Y-54950D02*
X39200Y-56425D01*
X39200Y-54950D02*
X39200Y-53250D01*
X39200Y-53250D02*
X40450Y-52000D01*
X38925Y-56700D02*
X39200Y-56425D01*
X53950Y-49450D02*
X53250Y-49450D01*
X53200Y-38699D02*
X53700Y-38200D01*
X53700Y-38200D02*
X53700Y-37550D01*
X54100Y-49300D02*
X53950Y-49450D01*
X53200Y-38699D02*
X53200Y-38718D01*
X53250Y-49450D02*
X52750Y-49950D01*
X53100Y-48250D02*
X55000Y-48250D01*
X52300Y-45250D02*
X52650Y-45600D01*
X51577Y-43522D02*
X51250Y-43850D01*
X51250Y-43850D02*
X51250Y-44200D01*
X51250Y-44200D02*
X52300Y-45250D01*
X51577Y-43459D02*
X51577Y-43522D01*
X52650Y-45600D02*
X52650Y-46100D01*
G54D23*
X47875Y-49500D02*
X47875Y-49425D01*
X47875Y-49425D02*
X47325Y-48875D01*
G54D24*
X48250Y-48650D02*
X47550Y-48650D01*
X46350Y-49850D02*
X37100Y-49850D01*
X47550Y-48650D02*
X47325Y-48875D01*
X47325Y-48875D02*
X46350Y-49850D01*
X55531Y-58950D02*
X55531Y-47418D01*
X55531Y-47418D02*
X56000Y-46950D01*
G54D25*
X57350Y-46200D02*
X57350Y-46150D01*
X57325Y-46175D02*
X57350Y-46200D01*
X56900Y-45750D02*
X57325Y-46175D01*
X57225Y-46125D02*
X57375Y-46125D01*
G54D24*
X62525Y-57175D02*
X61850Y-57175D01*
X62550Y-57150D02*
X62525Y-57175D01*
G54D25*
X53868Y-43013D02*
X53868Y-43018D01*
X53868Y-43018D02*
X54150Y-43300D01*
X54150Y-43800D02*
X54550Y-44200D01*
X54150Y-43300D02*
X54150Y-43800D01*
G54D23*
X48625Y-48925D02*
X49850Y-48925D01*
X49850Y-48925D02*
X49975Y-49050D01*
X48250Y-48650D02*
X48350Y-48650D01*
X48625Y-48925D02*
X48625Y-49500D01*
X48350Y-48650D02*
X48625Y-48925D01*
X48250Y-48650D02*
X48200Y-48650D01*
G54D24*
X49600Y-47300D02*
X48250Y-48650D01*
X49600Y-46950D02*
X49600Y-47300D01*
X49600Y-46950D02*
X47400Y-44750D01*
X56550Y-46950D02*
X56000Y-46950D01*
X56550Y-46950D02*
X57075Y-46425D01*
X57075Y-46425D02*
X57350Y-46150D01*
X56000Y-46950D02*
X49600Y-46950D01*
X57350Y-46150D02*
X57375Y-46125D01*
G54D25*
X57550Y-39200D02*
X56500Y-39200D01*
X56500Y-39200D02*
X56300Y-39000D01*
X52100Y-36300D02*
X52050Y-36300D01*
G54D24*
X57375Y-46125D02*
X59000Y-44500D01*
X57550Y-40300D02*
X57550Y-39200D01*
X59000Y-41750D02*
X57550Y-40300D01*
X59000Y-44500D02*
X59000Y-41750D01*
X57550Y-39200D02*
X60850Y-35900D01*
X60850Y-35900D02*
X60850Y-35150D01*
X60850Y-35150D02*
X58250Y-32550D01*
X58250Y-32550D02*
X55850Y-32550D01*
X55850Y-32550D02*
X52100Y-36300D01*
G54D25*
X52050Y-36300D02*
X51700Y-36650D01*
X50909Y-39609D02*
X50350Y-39050D01*
X50350Y-38800D02*
X51300Y-37850D01*
X50350Y-39050D02*
X50350Y-38800D01*
X54313Y-39831D02*
X54318Y-39831D01*
X54318Y-39831D02*
X55050Y-39100D01*
X50686Y-42568D02*
X50681Y-42568D01*
X50681Y-42568D02*
X49950Y-43300D01*
X51577Y-38940D02*
X51836Y-39200D01*
X52450Y-39200D02*
X51836Y-39200D01*
X53050Y-39800D02*
X52450Y-39200D01*
X53050Y-40050D02*
X53050Y-39800D01*
X51850Y-41250D02*
X53050Y-40050D01*
X50500Y-41250D02*
X51850Y-41250D01*
X37100Y-42850D02*
X48500Y-42850D01*
X52300Y-43227D02*
X52977Y-43904D01*
X52300Y-42650D02*
X52300Y-43227D01*
X52050Y-42400D02*
X52300Y-42650D01*
X48500Y-42850D02*
X48550Y-42800D01*
X52400Y-41350D02*
X52450Y-41350D01*
X37100Y-40850D02*
X46650Y-40850D01*
X52900Y-42936D02*
X53422Y-43459D01*
X52900Y-41800D02*
X52900Y-42936D01*
X52450Y-41350D02*
X52900Y-41800D01*
X52000Y-41850D02*
X52500Y-41850D01*
X37100Y-41850D02*
X47650Y-41850D01*
X52600Y-43081D02*
X53200Y-43681D01*
X52600Y-41950D02*
X52600Y-43081D01*
X52500Y-41850D02*
X52600Y-41950D01*
X53200Y-41050D02*
X53200Y-42790D01*
X37100Y-39850D02*
X45650Y-39850D01*
X53200Y-42790D02*
X53645Y-43236D01*
X53586Y-43236D02*
X53645Y-43236D01*
X47875Y-50500D02*
X46900Y-50500D01*
X50725Y-49050D02*
X50725Y-49525D01*
X50350Y-49900D02*
X49300Y-49900D01*
X50725Y-49525D02*
X50350Y-49900D01*
X50725Y-50800D02*
X51450Y-50800D01*
X51450Y-50800D02*
X51650Y-50600D01*
X54090Y-42790D02*
X53700Y-42400D01*
X53700Y-41850D02*
X53750Y-41800D01*
X53700Y-42400D02*
X53700Y-41850D01*
X54090Y-42790D02*
X54550Y-43250D01*
X54550Y-43250D02*
X54550Y-43500D01*
X49500Y-38550D02*
X49500Y-38450D01*
X49500Y-38450D02*
X48300Y-37250D01*
X58365Y-35934D02*
X58384Y-35934D01*
X58950Y-36500D02*
X56750Y-38400D01*
X58384Y-35934D02*
X58950Y-36500D01*
X57165Y-34734D02*
X57184Y-34734D01*
X57184Y-34734D02*
X57800Y-35350D01*
X57165Y-34734D02*
X57165Y-34715D01*
X57165Y-34715D02*
X56350Y-33900D01*
X57165Y-34734D02*
X58200Y-33700D01*
X50725Y-49050D02*
X51950Y-49050D01*
X56601Y-37401D02*
X56748Y-37401D01*
X56748Y-37401D02*
X57834Y-36315D01*
X56601Y-37401D02*
X55853Y-37401D01*
X55853Y-37401D02*
X53868Y-39386D01*
X39566Y-59275D02*
X40025Y-59275D01*
X40950Y-58350D02*
X40950Y-54133D01*
X40025Y-59275D02*
X40950Y-58350D01*
X42025Y-53050D02*
X40950Y-54133D01*
X38900Y-58000D02*
X39475Y-58000D01*
X39475Y-58000D02*
X40000Y-57475D01*
X38925Y-58000D02*
X38900Y-58000D01*
X38900Y-58000D02*
X38000Y-58000D01*
X38000Y-58000D02*
X37100Y-57100D01*
X38925Y-57450D02*
X38925Y-58000D01*
X56734Y-35365D02*
X56632Y-35365D01*
X56632Y-35365D02*
X55598Y-36398D01*
X55598Y-36398D02*
X55598Y-37210D01*
X55598Y-37210D02*
X53645Y-39163D01*
G54D23*
X58700Y-53175D02*
X58625Y-53175D01*
X58237Y-53563D02*
X58237Y-54750D01*
X58625Y-53175D02*
X58237Y-53563D01*
G54D25*
X51131Y-43013D02*
X51131Y-43018D01*
X51131Y-43018D02*
X50750Y-43400D01*
X50750Y-44550D02*
X51550Y-45350D01*
X50750Y-43400D02*
X50750Y-44550D01*
X51131Y-43013D02*
X51131Y-43018D01*
G54D10*
G36*
X42900Y-54692D02*
X42776Y-54816D01*
X42750Y-54879D01*
X42750Y-54750D01*
X42712Y-54658D01*
X42641Y-54588D01*
X42549Y-54550D01*
X42450Y-54549D01*
X42312Y-54550D01*
X42250Y-54612D01*
X42250Y-55050D01*
X42257Y-55050D01*
X42257Y-55150D01*
X42250Y-55150D01*
X42250Y-55157D01*
X42150Y-55157D01*
X42150Y-55150D01*
X42142Y-55150D01*
X42142Y-55050D01*
X42150Y-55050D01*
X42150Y-54612D01*
X42087Y-54550D01*
X41949Y-54549D01*
X41850Y-54550D01*
X41758Y-54588D01*
X41700Y-54646D01*
X41700Y-54524D01*
X41974Y-54250D01*
X42775Y-54250D01*
X42900Y-54374D01*
X42900Y-54692D01*
X42900Y-54692D01*
G37*
G54D25*
X42900Y-54692D02*
X42776Y-54816D01*
X42750Y-54879D01*
X42750Y-54750D01*
X42712Y-54658D01*
X42641Y-54588D01*
X42549Y-54550D01*
X42450Y-54549D01*
X42312Y-54550D01*
X42250Y-54612D01*
X42250Y-55050D01*
X42257Y-55050D01*
X42257Y-55150D01*
X42250Y-55150D01*
X42250Y-55157D01*
X42150Y-55157D01*
X42150Y-55150D01*
X42142Y-55150D01*
X42142Y-55050D01*
X42150Y-55050D01*
X42150Y-54612D01*
X42087Y-54550D01*
X41949Y-54549D01*
X41850Y-54550D01*
X41758Y-54588D01*
X41700Y-54646D01*
X41700Y-54524D01*
X41974Y-54250D01*
X42775Y-54250D01*
X42900Y-54374D01*
X42900Y-54692D01*
G54D10*
G36*
X51450Y-37506D02*
X51374Y-37475D01*
X51225Y-37474D01*
X51087Y-37531D01*
X50982Y-37637D01*
X50925Y-37775D01*
X50924Y-37871D01*
X50173Y-38623D01*
X50119Y-38704D01*
X50100Y-38800D01*
X50100Y-39050D01*
X50119Y-39145D01*
X50173Y-39226D01*
X50369Y-39423D01*
X50369Y-39458D01*
X50465Y-39554D01*
X50470Y-39566D01*
X50526Y-39622D01*
X50751Y-39847D01*
X50702Y-39897D01*
X50421Y-39616D01*
X50409Y-39611D01*
X50313Y-39515D01*
X50277Y-39515D01*
X50085Y-39323D01*
X50004Y-39269D01*
X49909Y-39250D01*
X49453Y-39250D01*
X49024Y-38821D01*
X49025Y-38725D01*
X48968Y-38587D01*
X48862Y-38482D01*
X48724Y-38425D01*
X48575Y-38424D01*
X48437Y-38481D01*
X48332Y-38587D01*
X48320Y-38616D01*
X47574Y-37871D01*
X47575Y-37775D01*
X47518Y-37637D01*
X47412Y-37532D01*
X47274Y-37475D01*
X47174Y-37474D01*
X47175Y-37428D01*
X47653Y-36950D01*
X51046Y-36950D01*
X51450Y-37353D01*
X51450Y-37506D01*
X51450Y-37506D01*
G37*
G54D25*
X51450Y-37506D02*
X51374Y-37475D01*
X51225Y-37474D01*
X51087Y-37531D01*
X50982Y-37637D01*
X50925Y-37775D01*
X50924Y-37871D01*
X50173Y-38623D01*
X50119Y-38704D01*
X50100Y-38800D01*
X50100Y-39050D01*
X50119Y-39145D01*
X50173Y-39226D01*
X50369Y-39423D01*
X50369Y-39458D01*
X50465Y-39554D01*
X50470Y-39566D01*
X50526Y-39622D01*
X50751Y-39847D01*
X50702Y-39897D01*
X50421Y-39616D01*
X50409Y-39611D01*
X50313Y-39515D01*
X50277Y-39515D01*
X50085Y-39323D01*
X50004Y-39269D01*
X49909Y-39250D01*
X49453Y-39250D01*
X49024Y-38821D01*
X49025Y-38725D01*
X48968Y-38587D01*
X48862Y-38482D01*
X48724Y-38425D01*
X48575Y-38424D01*
X48437Y-38481D01*
X48332Y-38587D01*
X48320Y-38616D01*
X47574Y-37871D01*
X47575Y-37775D01*
X47518Y-37637D01*
X47412Y-37532D01*
X47274Y-37475D01*
X47174Y-37474D01*
X47175Y-37428D01*
X47653Y-36950D01*
X51046Y-36950D01*
X51450Y-37353D01*
X51450Y-37506D01*
G54D10*
G36*
X58043Y-44961D02*
X57275Y-45730D01*
X57275Y-45675D01*
X57218Y-45537D01*
X57112Y-45432D01*
X56977Y-45376D01*
X57226Y-45126D01*
X57226Y-45126D01*
X57226Y-45126D01*
X57280Y-45045D01*
X57280Y-45045D01*
X57300Y-44950D01*
X57300Y-44103D01*
X57775Y-44578D01*
X57774Y-44674D01*
X57831Y-44812D01*
X57937Y-44917D01*
X58043Y-44961D01*
X58043Y-44961D01*
G37*
G54D25*
X58043Y-44961D02*
X57275Y-45730D01*
X57275Y-45675D01*
X57218Y-45537D01*
X57112Y-45432D01*
X56977Y-45376D01*
X57226Y-45126D01*
X57226Y-45126D01*
X57226Y-45126D01*
X57280Y-45045D01*
X57280Y-45045D01*
X57300Y-44950D01*
X57300Y-44103D01*
X57775Y-44578D01*
X57774Y-44674D01*
X57831Y-44812D01*
X57937Y-44917D01*
X58043Y-44961D01*
G54D10*
G36*
X60500Y-35755D02*
X58933Y-37321D01*
X58933Y-35956D01*
X58895Y-35864D01*
X58825Y-35793D01*
X58745Y-35713D01*
X58656Y-35713D01*
X58586Y-35784D01*
X58586Y-35643D01*
X58586Y-35554D01*
X58506Y-35474D01*
X58435Y-35404D01*
X58343Y-35366D01*
X58244Y-35366D01*
X58152Y-35404D01*
X58073Y-35484D01*
X58073Y-35572D01*
X58365Y-35864D01*
X58586Y-35643D01*
X58586Y-35784D01*
X58435Y-35934D01*
X58727Y-36226D01*
X58815Y-36226D01*
X58895Y-36147D01*
X58933Y-36055D01*
X58933Y-35956D01*
X58933Y-37321D01*
X57305Y-38950D01*
X56675Y-38950D01*
X56675Y-38925D01*
X56618Y-38787D01*
X56512Y-38682D01*
X56374Y-38625D01*
X56225Y-38624D01*
X56087Y-38681D01*
X55982Y-38787D01*
X55925Y-38925D01*
X55924Y-39074D01*
X55925Y-39075D01*
X55787Y-39131D01*
X55719Y-39200D01*
X55414Y-39200D01*
X55424Y-39174D01*
X55425Y-39025D01*
X55368Y-38887D01*
X55262Y-38782D01*
X55124Y-38725D01*
X54975Y-38724D01*
X54837Y-38781D01*
X54732Y-38887D01*
X54675Y-39025D01*
X54674Y-39121D01*
X54528Y-39268D01*
X54552Y-39292D01*
X54552Y-39292D01*
X54528Y-39268D01*
X54503Y-39292D01*
X54463Y-39292D01*
X54368Y-39388D01*
X54356Y-39393D01*
X54299Y-39449D01*
X53875Y-39873D01*
X53870Y-39886D01*
X53774Y-39982D01*
X53774Y-40070D01*
X53793Y-40089D01*
X53885Y-40127D01*
X53902Y-40127D01*
X53931Y-40156D01*
X54044Y-40269D01*
X54082Y-40285D01*
X54098Y-40323D01*
X54154Y-40379D01*
X54267Y-40492D01*
X54305Y-40508D01*
X54320Y-40545D01*
X54377Y-40602D01*
X54490Y-40715D01*
X54528Y-40731D01*
X54543Y-40768D01*
X54599Y-40824D01*
X54712Y-40938D01*
X54750Y-40953D01*
X54766Y-40991D01*
X54822Y-41047D01*
X54935Y-41160D01*
X55009Y-41191D01*
X55088Y-41191D01*
X55162Y-41161D01*
X55218Y-41104D01*
X55350Y-40972D01*
X55419Y-40972D01*
X55475Y-41028D01*
X55474Y-41124D01*
X55531Y-41262D01*
X55637Y-41367D01*
X55775Y-41424D01*
X55895Y-41425D01*
X55875Y-41475D01*
X55874Y-41624D01*
X55931Y-41762D01*
X56037Y-41867D01*
X56175Y-41924D01*
X56271Y-41925D01*
X56523Y-42176D01*
X56604Y-42230D01*
X56700Y-42250D01*
X57346Y-42250D01*
X58250Y-43153D01*
X58250Y-43369D01*
X58182Y-43437D01*
X58125Y-43575D01*
X58124Y-43724D01*
X58181Y-43862D01*
X58287Y-43967D01*
X58425Y-44024D01*
X58574Y-44025D01*
X58650Y-43993D01*
X58650Y-44355D01*
X58511Y-44493D01*
X58468Y-44387D01*
X58362Y-44282D01*
X58224Y-44225D01*
X58128Y-44224D01*
X55656Y-41753D01*
X55643Y-41719D01*
X55586Y-41663D01*
X55162Y-41239D01*
X55089Y-41208D01*
X55009Y-41208D01*
X54935Y-41238D01*
X54879Y-41295D01*
X54766Y-41408D01*
X54750Y-41446D01*
X54713Y-41461D01*
X54656Y-41517D01*
X54543Y-41631D01*
X54528Y-41668D01*
X54490Y-41684D01*
X54434Y-41740D01*
X54321Y-41853D01*
X54305Y-41891D01*
X54267Y-41907D01*
X54211Y-41963D01*
X54098Y-42076D01*
X54082Y-42114D01*
X54045Y-42129D01*
X53988Y-42186D01*
X53902Y-42272D01*
X53885Y-42272D01*
X53793Y-42310D01*
X53774Y-42329D01*
X53774Y-42417D01*
X53870Y-42513D01*
X53875Y-42525D01*
X53931Y-42582D01*
X54355Y-43006D01*
X54368Y-43011D01*
X54463Y-43107D01*
X54552Y-43107D01*
X54553Y-43106D01*
X54750Y-43303D01*
X54750Y-43877D01*
X54624Y-43825D01*
X54528Y-43824D01*
X54400Y-43696D01*
X54400Y-43300D01*
X54393Y-43266D01*
X54407Y-43252D01*
X54407Y-43163D01*
X54311Y-43068D01*
X54306Y-43056D01*
X54250Y-42999D01*
X53826Y-42575D01*
X53813Y-42570D01*
X53717Y-42474D01*
X53629Y-42474D01*
X53610Y-42493D01*
X53572Y-42585D01*
X53572Y-42602D01*
X53543Y-42631D01*
X53468Y-42706D01*
X53450Y-42687D01*
X53450Y-41330D01*
X53517Y-41262D01*
X53574Y-41124D01*
X53575Y-40975D01*
X53518Y-40837D01*
X53412Y-40732D01*
X53274Y-40675D01*
X53125Y-40674D01*
X52987Y-40731D01*
X52882Y-40837D01*
X52825Y-40975D01*
X52824Y-41124D01*
X52881Y-41262D01*
X52950Y-41330D01*
X52950Y-41496D01*
X52775Y-41321D01*
X52775Y-41275D01*
X52718Y-41137D01*
X52612Y-41032D01*
X52477Y-40976D01*
X53226Y-40226D01*
X53226Y-40226D01*
X53226Y-40226D01*
X53280Y-40145D01*
X53280Y-40145D01*
X53296Y-40069D01*
X53300Y-40050D01*
X53299Y-40050D01*
X53300Y-40050D01*
X53300Y-39800D01*
X53280Y-39704D01*
X53280Y-39704D01*
X53259Y-39671D01*
X53226Y-39623D01*
X53226Y-39623D01*
X52626Y-39023D01*
X52545Y-38969D01*
X52450Y-38950D01*
X52253Y-38950D01*
X52253Y-38949D01*
X52291Y-38933D01*
X52347Y-38877D01*
X52460Y-38764D01*
X52491Y-38690D01*
X52491Y-38611D01*
X52461Y-38537D01*
X52404Y-38481D01*
X52272Y-38349D01*
X52272Y-38241D01*
X52878Y-37716D01*
X52875Y-37725D01*
X52874Y-37821D01*
X52800Y-37895D01*
X52746Y-37977D01*
X52727Y-38072D01*
X52727Y-38349D01*
X52539Y-38537D01*
X52508Y-38610D01*
X52508Y-38690D01*
X52538Y-38764D01*
X52595Y-38820D01*
X52708Y-38933D01*
X52746Y-38949D01*
X52761Y-38986D01*
X52817Y-39043D01*
X52931Y-39156D01*
X52968Y-39171D01*
X52984Y-39209D01*
X53040Y-39265D01*
X53153Y-39378D01*
X53191Y-39394D01*
X53207Y-39432D01*
X53263Y-39488D01*
X53376Y-39601D01*
X53414Y-39617D01*
X53429Y-39654D01*
X53486Y-39711D01*
X53572Y-39797D01*
X53572Y-39814D01*
X53610Y-39906D01*
X53629Y-39925D01*
X53717Y-39925D01*
X53813Y-39829D01*
X53825Y-39824D01*
X53882Y-39768D01*
X54306Y-39344D01*
X54311Y-39331D01*
X54407Y-39236D01*
X54407Y-39200D01*
X54433Y-39174D01*
X54407Y-39147D01*
X54407Y-39147D01*
X54433Y-39174D01*
X55942Y-37665D01*
X55944Y-37667D01*
X56390Y-38113D01*
X56463Y-38143D01*
X56543Y-38143D01*
X56616Y-38113D01*
X56673Y-38057D01*
X57313Y-37417D01*
X57343Y-37343D01*
X57343Y-37264D01*
X57313Y-37190D01*
X57313Y-37190D01*
X57671Y-36832D01*
X57792Y-36952D01*
X57865Y-36983D01*
X57945Y-36983D01*
X58018Y-36953D01*
X58074Y-36896D01*
X58322Y-36649D01*
X58352Y-36575D01*
X58353Y-36496D01*
X58349Y-36487D01*
X58386Y-36503D01*
X58485Y-36502D01*
X58577Y-36464D01*
X58656Y-36385D01*
X58656Y-36297D01*
X58365Y-36005D01*
X58359Y-36011D01*
X58288Y-35940D01*
X58294Y-35934D01*
X58002Y-35643D01*
X57914Y-35643D01*
X57835Y-35722D01*
X57797Y-35814D01*
X57796Y-35913D01*
X57812Y-35950D01*
X57804Y-35947D01*
X57733Y-35946D01*
X57733Y-34756D01*
X57695Y-34664D01*
X57625Y-34593D01*
X57545Y-34513D01*
X57456Y-34513D01*
X57386Y-34584D01*
X57386Y-34443D01*
X57386Y-34354D01*
X57306Y-34274D01*
X57235Y-34204D01*
X57143Y-34166D01*
X57044Y-34166D01*
X56952Y-34204D01*
X56873Y-34284D01*
X56873Y-34372D01*
X57165Y-34664D01*
X57386Y-34443D01*
X57386Y-34584D01*
X57235Y-34734D01*
X57527Y-35026D01*
X57615Y-35026D01*
X57695Y-34947D01*
X57733Y-34855D01*
X57733Y-34756D01*
X57733Y-35946D01*
X57724Y-35946D01*
X57650Y-35977D01*
X57594Y-36033D01*
X57347Y-36281D01*
X57316Y-36354D01*
X57316Y-36434D01*
X57329Y-36466D01*
X56959Y-36836D01*
X56811Y-36688D01*
X56738Y-36658D01*
X56658Y-36658D01*
X56585Y-36688D01*
X56529Y-36744D01*
X56122Y-37151D01*
X55853Y-37151D01*
X55848Y-37151D01*
X55848Y-36877D01*
X56311Y-36414D01*
X56341Y-36341D01*
X56341Y-36261D01*
X56311Y-36188D01*
X56255Y-36132D01*
X56237Y-36114D01*
X56596Y-35754D01*
X56665Y-35783D01*
X56745Y-35783D01*
X56818Y-35753D01*
X56874Y-35696D01*
X57122Y-35449D01*
X57152Y-35375D01*
X57153Y-35296D01*
X57149Y-35287D01*
X57186Y-35303D01*
X57285Y-35302D01*
X57377Y-35264D01*
X57456Y-35185D01*
X57456Y-35097D01*
X57165Y-34805D01*
X57159Y-34811D01*
X57088Y-34740D01*
X57094Y-34734D01*
X56802Y-34443D01*
X56714Y-34443D01*
X56635Y-34522D01*
X56597Y-34614D01*
X56596Y-34713D01*
X56612Y-34750D01*
X56604Y-34747D01*
X56524Y-34746D01*
X56450Y-34777D01*
X56394Y-34833D01*
X56147Y-35081D01*
X56116Y-35154D01*
X56116Y-35234D01*
X56146Y-35307D01*
X56203Y-35363D01*
X56241Y-35402D01*
X55883Y-35760D01*
X55809Y-35686D01*
X55736Y-35656D01*
X55656Y-35656D01*
X55583Y-35686D01*
X55526Y-35742D01*
X54886Y-36382D01*
X54856Y-36456D01*
X54856Y-36535D01*
X54886Y-36609D01*
X54942Y-36665D01*
X55348Y-37072D01*
X55348Y-37106D01*
X54574Y-37880D01*
X54575Y-37775D01*
X54518Y-37637D01*
X54412Y-37532D01*
X54274Y-37475D01*
X54125Y-37474D01*
X54075Y-37495D01*
X54075Y-37475D01*
X54018Y-37337D01*
X53912Y-37232D01*
X53774Y-37175D01*
X53625Y-37174D01*
X53524Y-37216D01*
X53525Y-37075D01*
X53468Y-36937D01*
X53362Y-36832D01*
X53224Y-36775D01*
X53075Y-36774D01*
X52937Y-36831D01*
X52832Y-36937D01*
X52775Y-37075D01*
X52775Y-37144D01*
X51950Y-37859D01*
X51950Y-37250D01*
X51930Y-37154D01*
X51930Y-37154D01*
X51876Y-37073D01*
X51812Y-37009D01*
X51912Y-36968D01*
X52017Y-36862D01*
X52074Y-36724D01*
X52075Y-36645D01*
X52100Y-36650D01*
X52233Y-36623D01*
X52347Y-36547D01*
X55994Y-32900D01*
X58105Y-32900D01*
X60500Y-35294D01*
X60500Y-35755D01*
X60500Y-35755D01*
G37*
G54D25*
X60500Y-35755D02*
X58933Y-37321D01*
X58933Y-35956D01*
X58895Y-35864D01*
X58825Y-35793D01*
X58745Y-35713D01*
X58656Y-35713D01*
X58586Y-35784D01*
X58586Y-35643D01*
X58586Y-35554D01*
X58506Y-35474D01*
X58435Y-35404D01*
X58343Y-35366D01*
X58244Y-35366D01*
X58152Y-35404D01*
X58073Y-35484D01*
X58073Y-35572D01*
X58365Y-35864D01*
X58586Y-35643D01*
X58586Y-35784D01*
X58435Y-35934D01*
X58727Y-36226D01*
X58815Y-36226D01*
X58895Y-36147D01*
X58933Y-36055D01*
X58933Y-35956D01*
X58933Y-37321D01*
X57305Y-38950D01*
X56675Y-38950D01*
X56675Y-38925D01*
X56618Y-38787D01*
X56512Y-38682D01*
X56374Y-38625D01*
X56225Y-38624D01*
X56087Y-38681D01*
X55982Y-38787D01*
X55925Y-38925D01*
X55924Y-39074D01*
X55925Y-39075D01*
X55787Y-39131D01*
X55719Y-39200D01*
X55414Y-39200D01*
X55424Y-39174D01*
X55425Y-39025D01*
X55368Y-38887D01*
X55262Y-38782D01*
X55124Y-38725D01*
X54975Y-38724D01*
X54837Y-38781D01*
X54732Y-38887D01*
X54675Y-39025D01*
X54674Y-39121D01*
X54528Y-39268D01*
X54552Y-39292D01*
X54552Y-39292D01*
X54528Y-39268D01*
X54503Y-39292D01*
X54463Y-39292D01*
X54368Y-39388D01*
X54356Y-39393D01*
X54299Y-39449D01*
X53875Y-39873D01*
X53870Y-39886D01*
X53774Y-39982D01*
X53774Y-40070D01*
X53793Y-40089D01*
X53885Y-40127D01*
X53902Y-40127D01*
X53931Y-40156D01*
X54044Y-40269D01*
X54082Y-40285D01*
X54098Y-40323D01*
X54154Y-40379D01*
X54267Y-40492D01*
X54305Y-40508D01*
X54320Y-40545D01*
X54377Y-40602D01*
X54490Y-40715D01*
X54528Y-40731D01*
X54543Y-40768D01*
X54599Y-40824D01*
X54712Y-40938D01*
X54750Y-40953D01*
X54766Y-40991D01*
X54822Y-41047D01*
X54935Y-41160D01*
X55009Y-41191D01*
X55088Y-41191D01*
X55162Y-41161D01*
X55218Y-41104D01*
X55350Y-40972D01*
X55419Y-40972D01*
X55475Y-41028D01*
X55474Y-41124D01*
X55531Y-41262D01*
X55637Y-41367D01*
X55775Y-41424D01*
X55895Y-41425D01*
X55875Y-41475D01*
X55874Y-41624D01*
X55931Y-41762D01*
X56037Y-41867D01*
X56175Y-41924D01*
X56271Y-41925D01*
X56523Y-42176D01*
X56604Y-42230D01*
X56700Y-42250D01*
X57346Y-42250D01*
X58250Y-43153D01*
X58250Y-43369D01*
X58182Y-43437D01*
X58125Y-43575D01*
X58124Y-43724D01*
X58181Y-43862D01*
X58287Y-43967D01*
X58425Y-44024D01*
X58574Y-44025D01*
X58650Y-43993D01*
X58650Y-44355D01*
X58511Y-44493D01*
X58468Y-44387D01*
X58362Y-44282D01*
X58224Y-44225D01*
X58128Y-44224D01*
X55656Y-41753D01*
X55643Y-41719D01*
X55586Y-41663D01*
X55162Y-41239D01*
X55089Y-41208D01*
X55009Y-41208D01*
X54935Y-41238D01*
X54879Y-41295D01*
X54766Y-41408D01*
X54750Y-41446D01*
X54713Y-41461D01*
X54656Y-41517D01*
X54543Y-41631D01*
X54528Y-41668D01*
X54490Y-41684D01*
X54434Y-41740D01*
X54321Y-41853D01*
X54305Y-41891D01*
X54267Y-41907D01*
X54211Y-41963D01*
X54098Y-42076D01*
X54082Y-42114D01*
X54045Y-42129D01*
X53988Y-42186D01*
X53902Y-42272D01*
X53885Y-42272D01*
X53793Y-42310D01*
X53774Y-42329D01*
X53774Y-42417D01*
X53870Y-42513D01*
X53875Y-42525D01*
X53931Y-42582D01*
X54355Y-43006D01*
X54368Y-43011D01*
X54463Y-43107D01*
X54552Y-43107D01*
X54553Y-43106D01*
X54750Y-43303D01*
X54750Y-43877D01*
X54624Y-43825D01*
X54528Y-43824D01*
X54400Y-43696D01*
X54400Y-43300D01*
X54393Y-43266D01*
X54407Y-43252D01*
X54407Y-43163D01*
X54311Y-43068D01*
X54306Y-43056D01*
X54250Y-42999D01*
X53826Y-42575D01*
X53813Y-42570D01*
X53717Y-42474D01*
X53629Y-42474D01*
X53610Y-42493D01*
X53572Y-42585D01*
X53572Y-42602D01*
X53543Y-42631D01*
X53468Y-42706D01*
X53450Y-42687D01*
X53450Y-41330D01*
X53517Y-41262D01*
X53574Y-41124D01*
X53575Y-40975D01*
X53518Y-40837D01*
X53412Y-40732D01*
X53274Y-40675D01*
X53125Y-40674D01*
X52987Y-40731D01*
X52882Y-40837D01*
X52825Y-40975D01*
X52824Y-41124D01*
X52881Y-41262D01*
X52950Y-41330D01*
X52950Y-41496D01*
X52775Y-41321D01*
X52775Y-41275D01*
X52718Y-41137D01*
X52612Y-41032D01*
X52477Y-40976D01*
X53226Y-40226D01*
X53226Y-40226D01*
X53226Y-40226D01*
X53280Y-40145D01*
X53280Y-40145D01*
X53296Y-40069D01*
X53300Y-40050D01*
X53299Y-40050D01*
X53300Y-40050D01*
X53300Y-39800D01*
X53280Y-39704D01*
X53280Y-39704D01*
X53259Y-39671D01*
X53226Y-39623D01*
X53226Y-39623D01*
X52626Y-39023D01*
X52545Y-38969D01*
X52450Y-38950D01*
X52253Y-38950D01*
X52253Y-38949D01*
X52291Y-38933D01*
X52347Y-38877D01*
X52460Y-38764D01*
X52491Y-38690D01*
X52491Y-38611D01*
X52461Y-38537D01*
X52404Y-38481D01*
X52272Y-38349D01*
X52272Y-38241D01*
X52878Y-37716D01*
X52875Y-37725D01*
X52874Y-37821D01*
X52800Y-37895D01*
X52746Y-37977D01*
X52727Y-38072D01*
X52727Y-38349D01*
X52539Y-38537D01*
X52508Y-38610D01*
X52508Y-38690D01*
X52538Y-38764D01*
X52595Y-38820D01*
X52708Y-38933D01*
X52746Y-38949D01*
X52761Y-38986D01*
X52817Y-39043D01*
X52931Y-39156D01*
X52968Y-39171D01*
X52984Y-39209D01*
X53040Y-39265D01*
X53153Y-39378D01*
X53191Y-39394D01*
X53207Y-39432D01*
X53263Y-39488D01*
X53376Y-39601D01*
X53414Y-39617D01*
X53429Y-39654D01*
X53486Y-39711D01*
X53572Y-39797D01*
X53572Y-39814D01*
X53610Y-39906D01*
X53629Y-39925D01*
X53717Y-39925D01*
X53813Y-39829D01*
X53825Y-39824D01*
X53882Y-39768D01*
X54306Y-39344D01*
X54311Y-39331D01*
X54407Y-39236D01*
X54407Y-39200D01*
X54433Y-39174D01*
X54407Y-39147D01*
X54407Y-39147D01*
X54433Y-39174D01*
X55942Y-37665D01*
X55944Y-37667D01*
X56390Y-38113D01*
X56463Y-38143D01*
X56543Y-38143D01*
X56616Y-38113D01*
X56673Y-38057D01*
X57313Y-37417D01*
X57343Y-37343D01*
X57343Y-37264D01*
X57313Y-37190D01*
X57313Y-37190D01*
X57671Y-36832D01*
X57792Y-36952D01*
X57865Y-36983D01*
X57945Y-36983D01*
X58018Y-36953D01*
X58074Y-36896D01*
X58322Y-36649D01*
X58352Y-36575D01*
X58353Y-36496D01*
X58349Y-36487D01*
X58386Y-36503D01*
X58485Y-36502D01*
X58577Y-36464D01*
X58656Y-36385D01*
X58656Y-36297D01*
X58365Y-36005D01*
X58359Y-36011D01*
X58288Y-35940D01*
X58294Y-35934D01*
X58002Y-35643D01*
X57914Y-35643D01*
X57835Y-35722D01*
X57797Y-35814D01*
X57796Y-35913D01*
X57812Y-35950D01*
X57804Y-35947D01*
X57733Y-35946D01*
X57733Y-34756D01*
X57695Y-34664D01*
X57625Y-34593D01*
X57545Y-34513D01*
X57456Y-34513D01*
X57386Y-34584D01*
X57386Y-34443D01*
X57386Y-34354D01*
X57306Y-34274D01*
X57235Y-34204D01*
X57143Y-34166D01*
X57044Y-34166D01*
X56952Y-34204D01*
X56873Y-34284D01*
X56873Y-34372D01*
X57165Y-34664D01*
X57386Y-34443D01*
X57386Y-34584D01*
X57235Y-34734D01*
X57527Y-35026D01*
X57615Y-35026D01*
X57695Y-34947D01*
X57733Y-34855D01*
X57733Y-34756D01*
X57733Y-35946D01*
X57724Y-35946D01*
X57650Y-35977D01*
X57594Y-36033D01*
X57347Y-36281D01*
X57316Y-36354D01*
X57316Y-36434D01*
X57329Y-36466D01*
X56959Y-36836D01*
X56811Y-36688D01*
X56738Y-36658D01*
X56658Y-36658D01*
X56585Y-36688D01*
X56529Y-36744D01*
X56122Y-37151D01*
X55853Y-37151D01*
X55848Y-37151D01*
X55848Y-36877D01*
X56311Y-36414D01*
X56341Y-36341D01*
X56341Y-36261D01*
X56311Y-36188D01*
X56255Y-36132D01*
X56237Y-36114D01*
X56596Y-35754D01*
X56665Y-35783D01*
X56745Y-35783D01*
X56818Y-35753D01*
X56874Y-35696D01*
X57122Y-35449D01*
X57152Y-35375D01*
X57153Y-35296D01*
X57149Y-35287D01*
X57186Y-35303D01*
X57285Y-35302D01*
X57377Y-35264D01*
X57456Y-35185D01*
X57456Y-35097D01*
X57165Y-34805D01*
X57159Y-34811D01*
X57088Y-34740D01*
X57094Y-34734D01*
X56802Y-34443D01*
X56714Y-34443D01*
X56635Y-34522D01*
X56597Y-34614D01*
X56596Y-34713D01*
X56612Y-34750D01*
X56604Y-34747D01*
X56524Y-34746D01*
X56450Y-34777D01*
X56394Y-34833D01*
X56147Y-35081D01*
X56116Y-35154D01*
X56116Y-35234D01*
X56146Y-35307D01*
X56203Y-35363D01*
X56241Y-35402D01*
X55883Y-35760D01*
X55809Y-35686D01*
X55736Y-35656D01*
X55656Y-35656D01*
X55583Y-35686D01*
X55526Y-35742D01*
X54886Y-36382D01*
X54856Y-36456D01*
X54856Y-36535D01*
X54886Y-36609D01*
X54942Y-36665D01*
X55348Y-37072D01*
X55348Y-37106D01*
X54574Y-37880D01*
X54575Y-37775D01*
X54518Y-37637D01*
X54412Y-37532D01*
X54274Y-37475D01*
X54125Y-37474D01*
X54075Y-37495D01*
X54075Y-37475D01*
X54018Y-37337D01*
X53912Y-37232D01*
X53774Y-37175D01*
X53625Y-37174D01*
X53524Y-37216D01*
X53525Y-37075D01*
X53468Y-36937D01*
X53362Y-36832D01*
X53224Y-36775D01*
X53075Y-36774D01*
X52937Y-36831D01*
X52832Y-36937D01*
X52775Y-37075D01*
X52775Y-37144D01*
X51950Y-37859D01*
X51950Y-37250D01*
X51930Y-37154D01*
X51930Y-37154D01*
X51876Y-37073D01*
X51812Y-37009D01*
X51912Y-36968D01*
X52017Y-36862D01*
X52074Y-36724D01*
X52075Y-36645D01*
X52100Y-36650D01*
X52233Y-36623D01*
X52347Y-36547D01*
X55994Y-32900D01*
X58105Y-32900D01*
X60500Y-35294D01*
X60500Y-35755D01*
G54D10*
G36*
X65096Y-60550D02*
X65046Y-60600D01*
X62653Y-60600D01*
X62100Y-60046D01*
X62100Y-58300D01*
X62164Y-58300D01*
X62238Y-58269D01*
X62294Y-58213D01*
X62324Y-58139D01*
X62325Y-58060D01*
X62325Y-57710D01*
X62294Y-57636D01*
X62238Y-57580D01*
X62164Y-57550D01*
X62164Y-57550D01*
X62225Y-57525D01*
X62525Y-57525D01*
X62525Y-57524D01*
X62624Y-57525D01*
X62762Y-57468D01*
X62867Y-57362D01*
X62924Y-57224D01*
X62925Y-57075D01*
X62868Y-56937D01*
X62762Y-56832D01*
X62624Y-56775D01*
X62475Y-56774D01*
X62354Y-56825D01*
X62225Y-56825D01*
X62164Y-56800D01*
X62085Y-56799D01*
X61550Y-56799D01*
X61550Y-56510D01*
X61568Y-56502D01*
X61702Y-56369D01*
X61774Y-56194D01*
X61775Y-56005D01*
X61702Y-55831D01*
X61569Y-55697D01*
X61550Y-55689D01*
X61550Y-53510D01*
X61568Y-53502D01*
X61702Y-53369D01*
X61774Y-53194D01*
X61775Y-53005D01*
X61702Y-52831D01*
X61569Y-52697D01*
X61394Y-52625D01*
X61205Y-52624D01*
X61186Y-52632D01*
X60450Y-51896D01*
X60450Y-50443D01*
X60482Y-50457D01*
X60475Y-50475D01*
X60474Y-50624D01*
X60531Y-50762D01*
X60637Y-50867D01*
X60775Y-50924D01*
X60875Y-50925D01*
X60875Y-50925D01*
X60874Y-51074D01*
X60931Y-51212D01*
X61037Y-51317D01*
X61175Y-51374D01*
X61324Y-51375D01*
X61462Y-51318D01*
X61567Y-51212D01*
X61624Y-51074D01*
X61625Y-50978D01*
X64050Y-48553D01*
X64250Y-48753D01*
X64250Y-58612D01*
X64099Y-58550D01*
X63900Y-58549D01*
X63829Y-58579D01*
X63829Y-56175D01*
X63829Y-53175D01*
X63818Y-52967D01*
X63760Y-52827D01*
X63667Y-52802D01*
X63597Y-52873D01*
X63597Y-52732D01*
X63572Y-52639D01*
X63375Y-52570D01*
X63167Y-52581D01*
X63027Y-52639D01*
X63002Y-52732D01*
X63300Y-53029D01*
X63597Y-52732D01*
X63597Y-52873D01*
X63370Y-53100D01*
X63667Y-53397D01*
X63760Y-53372D01*
X63829Y-53175D01*
X63829Y-56175D01*
X63818Y-55967D01*
X63760Y-55827D01*
X63667Y-55802D01*
X63597Y-55873D01*
X63597Y-55732D01*
X63597Y-53467D01*
X63300Y-53170D01*
X63229Y-53241D01*
X63229Y-53100D01*
X62932Y-52802D01*
X62839Y-52827D01*
X62770Y-53024D01*
X62781Y-53232D01*
X62839Y-53372D01*
X62932Y-53397D01*
X63229Y-53100D01*
X63229Y-53241D01*
X63002Y-53467D01*
X63027Y-53560D01*
X63224Y-53629D01*
X63432Y-53618D01*
X63572Y-53560D01*
X63597Y-53467D01*
X63597Y-55732D01*
X63572Y-55639D01*
X63375Y-55570D01*
X63167Y-55581D01*
X63027Y-55639D01*
X63002Y-55732D01*
X63300Y-56029D01*
X63597Y-55732D01*
X63597Y-55873D01*
X63370Y-56100D01*
X63667Y-56397D01*
X63760Y-56372D01*
X63829Y-56175D01*
X63829Y-58579D01*
X63717Y-58625D01*
X63597Y-58745D01*
X63597Y-56467D01*
X63300Y-56170D01*
X63229Y-56241D01*
X63229Y-56100D01*
X62932Y-55802D01*
X62839Y-55827D01*
X62770Y-56024D01*
X62781Y-56232D01*
X62839Y-56372D01*
X62932Y-56397D01*
X63229Y-56100D01*
X63229Y-56241D01*
X63002Y-56467D01*
X63027Y-56560D01*
X63224Y-56629D01*
X63432Y-56618D01*
X63572Y-56560D01*
X63597Y-56467D01*
X63597Y-58745D01*
X63576Y-58766D01*
X63500Y-58950D01*
X63499Y-59149D01*
X63575Y-59332D01*
X63716Y-59473D01*
X63900Y-59549D01*
X64046Y-59550D01*
X64046Y-59550D01*
X63900Y-59549D01*
X63717Y-59625D01*
X63576Y-59766D01*
X63500Y-59950D01*
X63499Y-60149D01*
X63575Y-60332D01*
X63716Y-60473D01*
X63900Y-60549D01*
X64099Y-60550D01*
X64282Y-60474D01*
X64423Y-60333D01*
X64499Y-60149D01*
X64500Y-59950D01*
X64456Y-59846D01*
X64676Y-59626D01*
X64730Y-59545D01*
X64743Y-59484D01*
X64897Y-59548D01*
X64893Y-59553D01*
X64717Y-59625D01*
X64576Y-59766D01*
X64500Y-59950D01*
X64499Y-60149D01*
X64575Y-60332D01*
X64716Y-60473D01*
X64900Y-60549D01*
X65096Y-60550D01*
X65096Y-60550D01*
G37*
G54D25*
X65096Y-60550D02*
X65046Y-60600D01*
X62653Y-60600D01*
X62100Y-60046D01*
X62100Y-58300D01*
X62164Y-58300D01*
X62238Y-58269D01*
X62294Y-58213D01*
X62324Y-58139D01*
X62325Y-58060D01*
X62325Y-57710D01*
X62294Y-57636D01*
X62238Y-57580D01*
X62164Y-57550D01*
X62164Y-57550D01*
X62225Y-57525D01*
X62525Y-57525D01*
X62525Y-57524D01*
X62624Y-57525D01*
X62762Y-57468D01*
X62867Y-57362D01*
X62924Y-57224D01*
X62925Y-57075D01*
X62868Y-56937D01*
X62762Y-56832D01*
X62624Y-56775D01*
X62475Y-56774D01*
X62354Y-56825D01*
X62225Y-56825D01*
X62164Y-56800D01*
X62085Y-56799D01*
X61550Y-56799D01*
X61550Y-56510D01*
X61568Y-56502D01*
X61702Y-56369D01*
X61774Y-56194D01*
X61775Y-56005D01*
X61702Y-55831D01*
X61569Y-55697D01*
X61550Y-55689D01*
X61550Y-53510D01*
X61568Y-53502D01*
X61702Y-53369D01*
X61774Y-53194D01*
X61775Y-53005D01*
X61702Y-52831D01*
X61569Y-52697D01*
X61394Y-52625D01*
X61205Y-52624D01*
X61186Y-52632D01*
X60450Y-51896D01*
X60450Y-50443D01*
X60482Y-50457D01*
X60475Y-50475D01*
X60474Y-50624D01*
X60531Y-50762D01*
X60637Y-50867D01*
X60775Y-50924D01*
X60875Y-50925D01*
X60875Y-50925D01*
X60874Y-51074D01*
X60931Y-51212D01*
X61037Y-51317D01*
X61175Y-51374D01*
X61324Y-51375D01*
X61462Y-51318D01*
X61567Y-51212D01*
X61624Y-51074D01*
X61625Y-50978D01*
X64050Y-48553D01*
X64250Y-48753D01*
X64250Y-58612D01*
X64099Y-58550D01*
X63900Y-58549D01*
X63829Y-58579D01*
X63829Y-56175D01*
X63829Y-53175D01*
X63818Y-52967D01*
X63760Y-52827D01*
X63667Y-52802D01*
X63597Y-52873D01*
X63597Y-52732D01*
X63572Y-52639D01*
X63375Y-52570D01*
X63167Y-52581D01*
X63027Y-52639D01*
X63002Y-52732D01*
X63300Y-53029D01*
X63597Y-52732D01*
X63597Y-52873D01*
X63370Y-53100D01*
X63667Y-53397D01*
X63760Y-53372D01*
X63829Y-53175D01*
X63829Y-56175D01*
X63818Y-55967D01*
X63760Y-55827D01*
X63667Y-55802D01*
X63597Y-55873D01*
X63597Y-55732D01*
X63597Y-53467D01*
X63300Y-53170D01*
X63229Y-53241D01*
X63229Y-53100D01*
X62932Y-52802D01*
X62839Y-52827D01*
X62770Y-53024D01*
X62781Y-53232D01*
X62839Y-53372D01*
X62932Y-53397D01*
X63229Y-53100D01*
X63229Y-53241D01*
X63002Y-53467D01*
X63027Y-53560D01*
X63224Y-53629D01*
X63432Y-53618D01*
X63572Y-53560D01*
X63597Y-53467D01*
X63597Y-55732D01*
X63572Y-55639D01*
X63375Y-55570D01*
X63167Y-55581D01*
X63027Y-55639D01*
X63002Y-55732D01*
X63300Y-56029D01*
X63597Y-55732D01*
X63597Y-55873D01*
X63370Y-56100D01*
X63667Y-56397D01*
X63760Y-56372D01*
X63829Y-56175D01*
X63829Y-58579D01*
X63717Y-58625D01*
X63597Y-58745D01*
X63597Y-56467D01*
X63300Y-56170D01*
X63229Y-56241D01*
X63229Y-56100D01*
X62932Y-55802D01*
X62839Y-55827D01*
X62770Y-56024D01*
X62781Y-56232D01*
X62839Y-56372D01*
X62932Y-56397D01*
X63229Y-56100D01*
X63229Y-56241D01*
X63002Y-56467D01*
X63027Y-56560D01*
X63224Y-56629D01*
X63432Y-56618D01*
X63572Y-56560D01*
X63597Y-56467D01*
X63597Y-58745D01*
X63576Y-58766D01*
X63500Y-58950D01*
X63499Y-59149D01*
X63575Y-59332D01*
X63716Y-59473D01*
X63900Y-59549D01*
X64046Y-59550D01*
X64046Y-59550D01*
X63900Y-59549D01*
X63717Y-59625D01*
X63576Y-59766D01*
X63500Y-59950D01*
X63499Y-60149D01*
X63575Y-60332D01*
X63716Y-60473D01*
X63900Y-60549D01*
X64099Y-60550D01*
X64282Y-60474D01*
X64423Y-60333D01*
X64499Y-60149D01*
X64500Y-59950D01*
X64456Y-59846D01*
X64676Y-59626D01*
X64730Y-59545D01*
X64743Y-59484D01*
X64897Y-59548D01*
X64893Y-59553D01*
X64717Y-59625D01*
X64576Y-59766D01*
X64500Y-59950D01*
X64499Y-60149D01*
X64575Y-60332D01*
X64716Y-60473D01*
X64900Y-60549D01*
X65096Y-60550D01*
G54D10*
G36*
X68800Y-62200D02*
X68704Y-62200D01*
X68704Y-55031D01*
X68693Y-54813D01*
X68631Y-54662D01*
X68535Y-54634D01*
X68465Y-54705D01*
X68465Y-54564D01*
X68437Y-54468D01*
X68250Y-54401D01*
X68250Y-52372D01*
X68250Y-29872D01*
X68075Y-29449D01*
X67752Y-29125D01*
X67329Y-28950D01*
X66872Y-28949D01*
X66449Y-29124D01*
X66125Y-29447D01*
X65950Y-29870D01*
X65949Y-30327D01*
X66124Y-30750D01*
X66447Y-31074D01*
X66870Y-31249D01*
X67327Y-31250D01*
X67750Y-31075D01*
X68074Y-30752D01*
X68249Y-30329D01*
X68250Y-29872D01*
X68250Y-52372D01*
X68075Y-51949D01*
X67752Y-51625D01*
X67600Y-51562D01*
X67600Y-49750D01*
X67600Y-48750D01*
X67600Y-47750D01*
X67600Y-46750D01*
X67600Y-45750D01*
X67600Y-44750D01*
X67600Y-43750D01*
X67600Y-42750D01*
X67600Y-41750D01*
X67600Y-40750D01*
X67600Y-39750D01*
X67600Y-38750D01*
X67600Y-37750D01*
X67600Y-36750D01*
X67600Y-35750D01*
X67600Y-34750D01*
X67600Y-33750D01*
X67600Y-32750D01*
X67600Y-31750D01*
X67524Y-31567D01*
X67383Y-31426D01*
X67199Y-31350D01*
X67000Y-31349D01*
X66817Y-31425D01*
X66676Y-31566D01*
X66600Y-31750D01*
X66599Y-31949D01*
X66675Y-32132D01*
X66816Y-32273D01*
X67000Y-32349D01*
X67199Y-32350D01*
X67382Y-32274D01*
X67523Y-32133D01*
X67599Y-31949D01*
X67600Y-31750D01*
X67600Y-32750D01*
X67524Y-32567D01*
X67383Y-32426D01*
X67199Y-32350D01*
X67000Y-32349D01*
X66817Y-32425D01*
X66676Y-32566D01*
X66600Y-32750D01*
X66599Y-32949D01*
X66675Y-33132D01*
X66816Y-33273D01*
X67000Y-33349D01*
X67199Y-33350D01*
X67382Y-33274D01*
X67523Y-33133D01*
X67599Y-32949D01*
X67600Y-32750D01*
X67600Y-33750D01*
X67524Y-33567D01*
X67383Y-33426D01*
X67199Y-33350D01*
X67000Y-33349D01*
X66817Y-33425D01*
X66676Y-33566D01*
X66600Y-33750D01*
X66599Y-33949D01*
X66675Y-34132D01*
X66816Y-34273D01*
X67000Y-34349D01*
X67199Y-34350D01*
X67382Y-34274D01*
X67523Y-34133D01*
X67599Y-33949D01*
X67600Y-33750D01*
X67600Y-34750D01*
X67524Y-34567D01*
X67383Y-34426D01*
X67199Y-34350D01*
X67000Y-34349D01*
X66817Y-34425D01*
X66676Y-34566D01*
X66600Y-34750D01*
X66599Y-34949D01*
X66675Y-35132D01*
X66816Y-35273D01*
X67000Y-35349D01*
X67199Y-35350D01*
X67382Y-35274D01*
X67523Y-35133D01*
X67599Y-34949D01*
X67600Y-34750D01*
X67600Y-35750D01*
X67524Y-35567D01*
X67383Y-35426D01*
X67199Y-35350D01*
X67000Y-35349D01*
X66817Y-35425D01*
X66676Y-35566D01*
X66600Y-35750D01*
X66599Y-35949D01*
X66675Y-36132D01*
X66816Y-36273D01*
X67000Y-36349D01*
X67199Y-36350D01*
X67382Y-36274D01*
X67523Y-36133D01*
X67599Y-35949D01*
X67600Y-35750D01*
X67600Y-36750D01*
X67524Y-36567D01*
X67383Y-36426D01*
X67199Y-36350D01*
X67000Y-36349D01*
X66817Y-36425D01*
X66676Y-36566D01*
X66600Y-36750D01*
X66599Y-36949D01*
X66675Y-37132D01*
X66816Y-37273D01*
X67000Y-37349D01*
X67199Y-37350D01*
X67382Y-37274D01*
X67523Y-37133D01*
X67599Y-36949D01*
X67600Y-36750D01*
X67600Y-37750D01*
X67524Y-37567D01*
X67383Y-37426D01*
X67199Y-37350D01*
X67000Y-37349D01*
X66817Y-37425D01*
X66676Y-37566D01*
X66600Y-37750D01*
X66599Y-37949D01*
X66675Y-38132D01*
X66816Y-38273D01*
X67000Y-38349D01*
X67199Y-38350D01*
X67382Y-38274D01*
X67523Y-38133D01*
X67599Y-37949D01*
X67600Y-37750D01*
X67600Y-38750D01*
X67524Y-38567D01*
X67383Y-38426D01*
X67199Y-38350D01*
X67000Y-38349D01*
X66817Y-38425D01*
X66676Y-38566D01*
X66600Y-38750D01*
X66599Y-38949D01*
X66675Y-39132D01*
X66816Y-39273D01*
X67000Y-39349D01*
X67199Y-39350D01*
X67382Y-39274D01*
X67523Y-39133D01*
X67599Y-38949D01*
X67600Y-38750D01*
X67600Y-39750D01*
X67524Y-39567D01*
X67383Y-39426D01*
X67199Y-39350D01*
X67000Y-39349D01*
X66817Y-39425D01*
X66676Y-39566D01*
X66600Y-39750D01*
X66599Y-39949D01*
X66675Y-40132D01*
X66816Y-40273D01*
X67000Y-40349D01*
X67199Y-40350D01*
X67382Y-40274D01*
X67523Y-40133D01*
X67599Y-39949D01*
X67600Y-39750D01*
X67600Y-40750D01*
X67524Y-40567D01*
X67383Y-40426D01*
X67199Y-40350D01*
X67000Y-40349D01*
X66817Y-40425D01*
X66676Y-40566D01*
X66600Y-40750D01*
X66599Y-40949D01*
X66675Y-41132D01*
X66816Y-41273D01*
X67000Y-41349D01*
X67199Y-41350D01*
X67382Y-41274D01*
X67523Y-41133D01*
X67599Y-40949D01*
X67600Y-40750D01*
X67600Y-41750D01*
X67524Y-41567D01*
X67383Y-41426D01*
X67199Y-41350D01*
X67000Y-41349D01*
X66817Y-41425D01*
X66676Y-41566D01*
X66600Y-41750D01*
X66599Y-41949D01*
X66675Y-42132D01*
X66816Y-42273D01*
X67000Y-42349D01*
X67199Y-42350D01*
X67382Y-42274D01*
X67523Y-42133D01*
X67599Y-41949D01*
X67600Y-41750D01*
X67600Y-42750D01*
X67524Y-42567D01*
X67383Y-42426D01*
X67199Y-42350D01*
X67000Y-42349D01*
X66817Y-42425D01*
X66676Y-42566D01*
X66600Y-42750D01*
X66599Y-42949D01*
X66675Y-43132D01*
X66816Y-43273D01*
X67000Y-43349D01*
X67199Y-43350D01*
X67382Y-43274D01*
X67523Y-43133D01*
X67599Y-42949D01*
X67600Y-42750D01*
X67600Y-43750D01*
X67524Y-43567D01*
X67383Y-43426D01*
X67199Y-43350D01*
X67000Y-43349D01*
X66817Y-43425D01*
X66676Y-43566D01*
X66600Y-43750D01*
X66599Y-43949D01*
X66675Y-44132D01*
X66816Y-44273D01*
X67000Y-44349D01*
X67199Y-44350D01*
X67382Y-44274D01*
X67523Y-44133D01*
X67599Y-43949D01*
X67600Y-43750D01*
X67600Y-44750D01*
X67524Y-44567D01*
X67383Y-44426D01*
X67199Y-44350D01*
X67000Y-44349D01*
X66817Y-44425D01*
X66676Y-44566D01*
X66600Y-44750D01*
X66599Y-44949D01*
X66675Y-45132D01*
X66816Y-45273D01*
X67000Y-45349D01*
X67199Y-45350D01*
X67382Y-45274D01*
X67523Y-45133D01*
X67599Y-44949D01*
X67600Y-44750D01*
X67600Y-45750D01*
X67524Y-45567D01*
X67383Y-45426D01*
X67199Y-45350D01*
X67000Y-45349D01*
X66817Y-45425D01*
X66676Y-45566D01*
X66600Y-45750D01*
X66599Y-45949D01*
X66675Y-46132D01*
X66816Y-46273D01*
X67000Y-46349D01*
X67199Y-46350D01*
X67382Y-46274D01*
X67523Y-46133D01*
X67599Y-45949D01*
X67600Y-45750D01*
X67600Y-46750D01*
X67524Y-46567D01*
X67383Y-46426D01*
X67199Y-46350D01*
X67000Y-46349D01*
X66817Y-46425D01*
X66676Y-46566D01*
X66600Y-46750D01*
X66599Y-46949D01*
X66675Y-47132D01*
X66816Y-47273D01*
X67000Y-47349D01*
X67199Y-47350D01*
X67382Y-47274D01*
X67523Y-47133D01*
X67599Y-46949D01*
X67600Y-46750D01*
X67600Y-47750D01*
X67524Y-47567D01*
X67383Y-47426D01*
X67199Y-47350D01*
X67000Y-47349D01*
X66817Y-47425D01*
X66676Y-47566D01*
X66600Y-47750D01*
X66599Y-47949D01*
X66675Y-48132D01*
X66816Y-48273D01*
X67000Y-48349D01*
X67199Y-48350D01*
X67382Y-48274D01*
X67523Y-48133D01*
X67599Y-47949D01*
X67600Y-47750D01*
X67600Y-48750D01*
X67524Y-48567D01*
X67383Y-48426D01*
X67199Y-48350D01*
X67000Y-48349D01*
X66817Y-48425D01*
X66676Y-48566D01*
X66600Y-48750D01*
X66599Y-48949D01*
X66675Y-49132D01*
X66816Y-49273D01*
X67000Y-49349D01*
X67199Y-49350D01*
X67382Y-49274D01*
X67523Y-49133D01*
X67599Y-48949D01*
X67600Y-48750D01*
X67600Y-49750D01*
X67524Y-49567D01*
X67383Y-49426D01*
X67199Y-49350D01*
X67000Y-49349D01*
X66817Y-49425D01*
X66676Y-49566D01*
X66600Y-49750D01*
X66599Y-49949D01*
X66675Y-50132D01*
X66816Y-50273D01*
X67000Y-50349D01*
X67060Y-50349D01*
X66760Y-50349D01*
X66686Y-50380D01*
X66630Y-50436D01*
X66600Y-50510D01*
X66599Y-50589D01*
X66599Y-51189D01*
X66630Y-51263D01*
X66686Y-51319D01*
X66760Y-51349D01*
X66839Y-51350D01*
X67439Y-51350D01*
X67513Y-51319D01*
X67569Y-51263D01*
X67599Y-51189D01*
X67600Y-51110D01*
X67600Y-50510D01*
X67569Y-50436D01*
X67513Y-50380D01*
X67439Y-50350D01*
X67360Y-50349D01*
X67199Y-50349D01*
X67382Y-50274D01*
X67523Y-50133D01*
X67599Y-49949D01*
X67600Y-49750D01*
X67600Y-51562D01*
X67329Y-51450D01*
X66872Y-51449D01*
X66449Y-51624D01*
X66125Y-51947D01*
X65950Y-52370D01*
X65949Y-52827D01*
X66124Y-53250D01*
X66447Y-53574D01*
X66870Y-53749D01*
X67327Y-53750D01*
X67750Y-53575D01*
X68074Y-53252D01*
X68249Y-52829D01*
X68250Y-52372D01*
X68250Y-54401D01*
X68231Y-54395D01*
X68013Y-54406D01*
X67862Y-54468D01*
X67834Y-54564D01*
X68150Y-54879D01*
X68465Y-54564D01*
X68465Y-54705D01*
X68220Y-54950D01*
X68535Y-55265D01*
X68631Y-55237D01*
X68704Y-55031D01*
X68704Y-62200D01*
X68465Y-62200D01*
X68465Y-55335D01*
X68150Y-55020D01*
X68079Y-55091D01*
X68079Y-54950D01*
X67764Y-54634D01*
X67668Y-54662D01*
X67623Y-54787D01*
X67574Y-54667D01*
X67433Y-54526D01*
X67249Y-54450D01*
X67050Y-54449D01*
X66867Y-54525D01*
X66726Y-54666D01*
X66650Y-54850D01*
X66650Y-54910D01*
X66650Y-54610D01*
X66619Y-54536D01*
X66563Y-54480D01*
X66489Y-54450D01*
X66410Y-54449D01*
X65810Y-54449D01*
X65750Y-54474D01*
X65750Y-48150D01*
X65749Y-48149D01*
X65750Y-48149D01*
X65746Y-48130D01*
X65730Y-48054D01*
X65730Y-48054D01*
X65676Y-47973D01*
X65676Y-47973D01*
X64976Y-47273D01*
X64976Y-47273D01*
X64374Y-46671D01*
X64375Y-46575D01*
X64318Y-46437D01*
X64212Y-46332D01*
X64074Y-46275D01*
X63978Y-46274D01*
X59924Y-42221D01*
X59925Y-42125D01*
X59868Y-41987D01*
X59762Y-41882D01*
X59624Y-41825D01*
X59475Y-41824D01*
X59350Y-41876D01*
X59350Y-41750D01*
X59323Y-41616D01*
X59247Y-41502D01*
X57900Y-40155D01*
X57900Y-39344D01*
X61097Y-36147D01*
X61173Y-36033D01*
X61173Y-36033D01*
X61200Y-35900D01*
X61200Y-35150D01*
X61173Y-35016D01*
X61097Y-34902D01*
X58497Y-32302D01*
X58383Y-32226D01*
X58250Y-32200D01*
X55850Y-32200D01*
X55716Y-32226D01*
X55602Y-32302D01*
X51852Y-36052D01*
X51776Y-36166D01*
X51763Y-36233D01*
X51721Y-36275D01*
X51625Y-36274D01*
X51487Y-36331D01*
X51382Y-36437D01*
X51340Y-36537D01*
X51326Y-36523D01*
X51245Y-36469D01*
X51150Y-36450D01*
X47550Y-36450D01*
X47549Y-36450D01*
X47530Y-36453D01*
X47454Y-36469D01*
X47373Y-36523D01*
X47373Y-36523D01*
X46821Y-37075D01*
X46725Y-37074D01*
X46587Y-37131D01*
X46482Y-37237D01*
X46470Y-37266D01*
X46074Y-36871D01*
X46075Y-36775D01*
X46018Y-36637D01*
X45912Y-36532D01*
X45774Y-36475D01*
X45683Y-36474D01*
X45724Y-36374D01*
X45725Y-36278D01*
X45903Y-36100D01*
X51069Y-36100D01*
X51137Y-36167D01*
X51275Y-36224D01*
X51424Y-36225D01*
X51562Y-36168D01*
X51667Y-36062D01*
X51724Y-35924D01*
X51725Y-35775D01*
X51668Y-35637D01*
X51562Y-35532D01*
X51424Y-35475D01*
X51275Y-35474D01*
X51137Y-35531D01*
X51069Y-35600D01*
X45800Y-35600D01*
X45704Y-35619D01*
X45623Y-35673D01*
X45371Y-35925D01*
X45275Y-35924D01*
X45137Y-35981D01*
X45032Y-36087D01*
X44975Y-36225D01*
X44975Y-36271D01*
X44574Y-35871D01*
X44575Y-35775D01*
X44518Y-35637D01*
X44412Y-35532D01*
X44274Y-35475D01*
X44125Y-35474D01*
X43987Y-35531D01*
X43882Y-35637D01*
X43870Y-35666D01*
X43074Y-34871D01*
X43075Y-34775D01*
X43018Y-34637D01*
X42912Y-34532D01*
X42774Y-34475D01*
X42625Y-34474D01*
X42487Y-34531D01*
X42382Y-34637D01*
X42355Y-34701D01*
X41524Y-33871D01*
X41525Y-33775D01*
X41468Y-33637D01*
X41362Y-33532D01*
X41224Y-33475D01*
X41075Y-33474D01*
X40937Y-33531D01*
X40832Y-33637D01*
X40820Y-33666D01*
X40074Y-32921D01*
X40075Y-32825D01*
X40018Y-32687D01*
X39912Y-32582D01*
X39774Y-32525D01*
X39625Y-32524D01*
X39487Y-32581D01*
X39382Y-32687D01*
X39370Y-32716D01*
X38326Y-31673D01*
X38250Y-31622D01*
X38250Y-29872D01*
X38075Y-29449D01*
X37752Y-29125D01*
X37329Y-28950D01*
X36872Y-28949D01*
X36449Y-29124D01*
X36125Y-29447D01*
X35950Y-29870D01*
X35949Y-30327D01*
X36124Y-30750D01*
X36447Y-31074D01*
X36870Y-31249D01*
X37327Y-31250D01*
X37750Y-31075D01*
X38074Y-30752D01*
X38249Y-30329D01*
X38250Y-29872D01*
X38250Y-31622D01*
X38245Y-31619D01*
X38150Y-31600D01*
X37537Y-31600D01*
X37524Y-31567D01*
X37383Y-31426D01*
X37199Y-31350D01*
X37000Y-31349D01*
X36817Y-31425D01*
X36676Y-31566D01*
X36600Y-31750D01*
X36599Y-31949D01*
X36675Y-32132D01*
X36816Y-32273D01*
X37000Y-32349D01*
X37199Y-32350D01*
X37382Y-32274D01*
X37523Y-32133D01*
X37537Y-32100D01*
X38046Y-32100D01*
X42466Y-36520D01*
X42437Y-36531D01*
X42369Y-36600D01*
X37600Y-36600D01*
X37600Y-35750D01*
X37600Y-34750D01*
X37600Y-33750D01*
X37600Y-32750D01*
X37524Y-32567D01*
X37383Y-32426D01*
X37199Y-32350D01*
X37000Y-32349D01*
X36817Y-32425D01*
X36676Y-32566D01*
X36600Y-32750D01*
X36599Y-32949D01*
X36675Y-33132D01*
X36816Y-33273D01*
X37000Y-33349D01*
X37199Y-33350D01*
X37382Y-33274D01*
X37523Y-33133D01*
X37599Y-32949D01*
X37600Y-32750D01*
X37600Y-33750D01*
X37524Y-33567D01*
X37383Y-33426D01*
X37199Y-33350D01*
X37000Y-33349D01*
X36817Y-33425D01*
X36676Y-33566D01*
X36600Y-33750D01*
X36599Y-33949D01*
X36675Y-34132D01*
X36816Y-34273D01*
X37000Y-34349D01*
X37199Y-34350D01*
X37382Y-34274D01*
X37523Y-34133D01*
X37599Y-33949D01*
X37600Y-33750D01*
X37600Y-34750D01*
X37524Y-34567D01*
X37383Y-34426D01*
X37199Y-34350D01*
X37000Y-34349D01*
X36817Y-34425D01*
X36676Y-34566D01*
X36600Y-34750D01*
X36599Y-34949D01*
X36675Y-35132D01*
X36816Y-35273D01*
X37000Y-35349D01*
X37199Y-35350D01*
X37382Y-35274D01*
X37523Y-35133D01*
X37599Y-34949D01*
X37600Y-34750D01*
X37600Y-35750D01*
X37524Y-35567D01*
X37383Y-35426D01*
X37199Y-35350D01*
X37000Y-35349D01*
X36817Y-35425D01*
X36676Y-35566D01*
X36600Y-35750D01*
X36599Y-35949D01*
X36675Y-36132D01*
X36816Y-36273D01*
X37000Y-36349D01*
X37199Y-36350D01*
X37382Y-36274D01*
X37523Y-36133D01*
X37599Y-35949D01*
X37600Y-35750D01*
X37600Y-36600D01*
X37537Y-36600D01*
X37524Y-36567D01*
X37383Y-36426D01*
X37199Y-36350D01*
X37000Y-36349D01*
X36817Y-36425D01*
X36676Y-36566D01*
X36600Y-36750D01*
X36599Y-36949D01*
X36675Y-37132D01*
X36816Y-37273D01*
X37000Y-37349D01*
X37199Y-37350D01*
X37382Y-37274D01*
X37523Y-37133D01*
X37537Y-37100D01*
X42369Y-37100D01*
X42437Y-37167D01*
X42575Y-37224D01*
X42724Y-37225D01*
X42862Y-37168D01*
X42967Y-37062D01*
X42979Y-37033D01*
X43466Y-37520D01*
X43437Y-37531D01*
X43369Y-37600D01*
X37537Y-37600D01*
X37524Y-37567D01*
X37383Y-37426D01*
X37199Y-37350D01*
X37000Y-37349D01*
X36817Y-37425D01*
X36676Y-37566D01*
X36600Y-37750D01*
X36599Y-37949D01*
X36675Y-38132D01*
X36816Y-38273D01*
X37000Y-38349D01*
X37199Y-38350D01*
X37382Y-38274D01*
X37523Y-38133D01*
X37537Y-38100D01*
X43369Y-38100D01*
X43437Y-38167D01*
X43575Y-38224D01*
X43724Y-38225D01*
X43862Y-38168D01*
X43967Y-38062D01*
X43979Y-38033D01*
X44466Y-38520D01*
X44437Y-38531D01*
X44369Y-38600D01*
X37537Y-38600D01*
X37524Y-38567D01*
X37383Y-38426D01*
X37199Y-38350D01*
X37000Y-38349D01*
X36817Y-38425D01*
X36676Y-38566D01*
X36600Y-38750D01*
X36599Y-38949D01*
X36675Y-39132D01*
X36816Y-39273D01*
X37000Y-39349D01*
X37199Y-39350D01*
X37382Y-39274D01*
X37523Y-39133D01*
X37537Y-39100D01*
X44369Y-39100D01*
X44437Y-39167D01*
X44575Y-39224D01*
X44724Y-39225D01*
X44862Y-39168D01*
X44967Y-39062D01*
X44979Y-39033D01*
X45466Y-39520D01*
X45437Y-39531D01*
X45369Y-39600D01*
X37537Y-39600D01*
X37524Y-39567D01*
X37383Y-39426D01*
X37199Y-39350D01*
X37000Y-39349D01*
X36817Y-39425D01*
X36676Y-39566D01*
X36600Y-39750D01*
X36599Y-39949D01*
X36675Y-40132D01*
X36816Y-40273D01*
X37000Y-40349D01*
X37199Y-40350D01*
X37382Y-40274D01*
X37523Y-40133D01*
X37537Y-40100D01*
X45369Y-40100D01*
X45437Y-40167D01*
X45575Y-40224D01*
X45724Y-40225D01*
X45862Y-40168D01*
X45967Y-40062D01*
X45979Y-40033D01*
X46466Y-40520D01*
X46437Y-40531D01*
X46369Y-40600D01*
X37537Y-40600D01*
X37524Y-40567D01*
X37383Y-40426D01*
X37199Y-40350D01*
X37000Y-40349D01*
X36817Y-40425D01*
X36676Y-40566D01*
X36600Y-40750D01*
X36599Y-40949D01*
X36675Y-41132D01*
X36816Y-41273D01*
X37000Y-41349D01*
X37199Y-41350D01*
X37382Y-41274D01*
X37523Y-41133D01*
X37537Y-41100D01*
X46369Y-41100D01*
X46437Y-41167D01*
X46575Y-41224D01*
X46724Y-41225D01*
X46862Y-41168D01*
X46967Y-41062D01*
X46979Y-41033D01*
X47466Y-41520D01*
X47437Y-41531D01*
X47369Y-41600D01*
X37537Y-41600D01*
X37524Y-41567D01*
X37383Y-41426D01*
X37199Y-41350D01*
X37000Y-41349D01*
X36817Y-41425D01*
X36676Y-41566D01*
X36600Y-41750D01*
X36599Y-41949D01*
X36675Y-42132D01*
X36816Y-42273D01*
X37000Y-42349D01*
X37199Y-42350D01*
X37382Y-42274D01*
X37523Y-42133D01*
X37537Y-42100D01*
X47369Y-42100D01*
X47437Y-42167D01*
X47575Y-42224D01*
X47724Y-42225D01*
X47862Y-42168D01*
X47967Y-42062D01*
X47979Y-42033D01*
X48401Y-42455D01*
X48337Y-42481D01*
X48232Y-42587D01*
X48227Y-42600D01*
X37537Y-42600D01*
X37524Y-42567D01*
X37383Y-42426D01*
X37199Y-42350D01*
X37000Y-42349D01*
X36817Y-42425D01*
X36676Y-42566D01*
X36600Y-42750D01*
X36599Y-42949D01*
X36675Y-43132D01*
X36816Y-43273D01*
X37000Y-43349D01*
X37199Y-43350D01*
X37382Y-43274D01*
X37523Y-43133D01*
X37537Y-43100D01*
X48319Y-43100D01*
X48337Y-43117D01*
X48475Y-43174D01*
X48624Y-43175D01*
X48762Y-43118D01*
X48867Y-43012D01*
X48894Y-42948D01*
X48973Y-43026D01*
X48973Y-43026D01*
X49054Y-43080D01*
X49054Y-43080D01*
X49130Y-43096D01*
X49149Y-43100D01*
X49149Y-43099D01*
X49150Y-43100D01*
X49627Y-43100D01*
X49575Y-43225D01*
X49574Y-43374D01*
X49631Y-43512D01*
X49737Y-43617D01*
X49875Y-43674D01*
X50024Y-43675D01*
X50162Y-43618D01*
X50267Y-43512D01*
X50324Y-43374D01*
X50325Y-43278D01*
X50471Y-43131D01*
X50447Y-43107D01*
X50447Y-43107D01*
X50471Y-43131D01*
X50496Y-43107D01*
X50536Y-43107D01*
X50631Y-43011D01*
X50643Y-43006D01*
X50700Y-42950D01*
X51124Y-42526D01*
X51129Y-42513D01*
X51225Y-42417D01*
X51225Y-42329D01*
X51206Y-42310D01*
X51114Y-42272D01*
X51097Y-42272D01*
X51068Y-42243D01*
X50955Y-42130D01*
X50917Y-42114D01*
X50901Y-42076D01*
X50845Y-42020D01*
X50732Y-41907D01*
X50694Y-41891D01*
X50679Y-41854D01*
X50622Y-41797D01*
X50509Y-41684D01*
X50471Y-41668D01*
X50456Y-41631D01*
X50450Y-41624D01*
X50574Y-41625D01*
X50712Y-41568D01*
X50780Y-41500D01*
X51850Y-41500D01*
X51879Y-41494D01*
X51787Y-41531D01*
X51682Y-41637D01*
X51625Y-41775D01*
X51624Y-41924D01*
X51681Y-42062D01*
X51769Y-42150D01*
X51732Y-42187D01*
X51675Y-42325D01*
X51674Y-42474D01*
X51731Y-42612D01*
X51837Y-42717D01*
X51975Y-42774D01*
X52050Y-42775D01*
X52050Y-43227D01*
X52051Y-43236D01*
X52031Y-43228D01*
X52015Y-43190D01*
X51959Y-43134D01*
X51846Y-43021D01*
X51808Y-43005D01*
X51792Y-42967D01*
X51736Y-42911D01*
X51623Y-42798D01*
X51585Y-42782D01*
X51570Y-42745D01*
X51513Y-42688D01*
X51427Y-42602D01*
X51427Y-42585D01*
X51389Y-42493D01*
X51370Y-42474D01*
X51282Y-42474D01*
X51186Y-42570D01*
X51174Y-42575D01*
X51117Y-42631D01*
X50693Y-43055D01*
X50688Y-43068D01*
X50592Y-43163D01*
X50592Y-43203D01*
X50573Y-43223D01*
X50569Y-43229D01*
X50569Y-43229D01*
X50519Y-43304D01*
X50500Y-43400D01*
X50500Y-44550D01*
X50519Y-44645D01*
X50573Y-44726D01*
X51175Y-45328D01*
X51174Y-45424D01*
X51231Y-45562D01*
X51337Y-45667D01*
X51475Y-45724D01*
X51624Y-45725D01*
X51762Y-45668D01*
X51850Y-45580D01*
X51850Y-45819D01*
X51782Y-45887D01*
X51725Y-46025D01*
X51724Y-46174D01*
X51735Y-46200D01*
X50503Y-46200D01*
X47976Y-43673D01*
X47895Y-43619D01*
X47800Y-43600D01*
X37537Y-43600D01*
X37524Y-43567D01*
X37383Y-43426D01*
X37199Y-43350D01*
X37000Y-43349D01*
X36817Y-43425D01*
X36676Y-43566D01*
X36600Y-43750D01*
X36599Y-43949D01*
X36675Y-44132D01*
X36816Y-44273D01*
X37000Y-44349D01*
X37199Y-44350D01*
X37382Y-44274D01*
X37523Y-44133D01*
X37537Y-44100D01*
X41469Y-44100D01*
X41432Y-44137D01*
X41375Y-44275D01*
X41374Y-44371D01*
X38146Y-47600D01*
X37600Y-47600D01*
X37600Y-46750D01*
X37600Y-45750D01*
X37600Y-44750D01*
X37524Y-44567D01*
X37383Y-44426D01*
X37199Y-44350D01*
X37000Y-44349D01*
X36817Y-44425D01*
X36676Y-44566D01*
X36600Y-44750D01*
X36599Y-44949D01*
X36675Y-45132D01*
X36816Y-45273D01*
X37000Y-45349D01*
X37199Y-45350D01*
X37382Y-45274D01*
X37523Y-45133D01*
X37599Y-44949D01*
X37600Y-44750D01*
X37600Y-45750D01*
X37524Y-45567D01*
X37383Y-45426D01*
X37199Y-45350D01*
X37000Y-45349D01*
X36817Y-45425D01*
X36676Y-45566D01*
X36600Y-45750D01*
X36599Y-45949D01*
X36675Y-46132D01*
X36816Y-46273D01*
X37000Y-46349D01*
X37199Y-46350D01*
X37382Y-46274D01*
X37523Y-46133D01*
X37599Y-45949D01*
X37600Y-45750D01*
X37600Y-46750D01*
X37524Y-46567D01*
X37383Y-46426D01*
X37199Y-46350D01*
X37000Y-46349D01*
X36817Y-46425D01*
X36676Y-46566D01*
X36600Y-46750D01*
X36599Y-46949D01*
X36675Y-47132D01*
X36816Y-47273D01*
X37000Y-47349D01*
X37199Y-47350D01*
X37382Y-47274D01*
X37523Y-47133D01*
X37599Y-46949D01*
X37600Y-46750D01*
X37600Y-47600D01*
X37537Y-47600D01*
X37524Y-47567D01*
X37383Y-47426D01*
X37199Y-47350D01*
X37000Y-47349D01*
X36817Y-47425D01*
X36676Y-47566D01*
X36600Y-47750D01*
X36599Y-47949D01*
X36675Y-48132D01*
X36816Y-48273D01*
X37000Y-48349D01*
X37199Y-48350D01*
X37382Y-48274D01*
X37523Y-48133D01*
X37537Y-48100D01*
X38250Y-48100D01*
X38345Y-48080D01*
X38426Y-48026D01*
X41728Y-44724D01*
X41824Y-44725D01*
X41962Y-44668D01*
X42067Y-44562D01*
X42124Y-44424D01*
X42125Y-44275D01*
X42068Y-44137D01*
X42030Y-44100D01*
X47696Y-44100D01*
X50196Y-46600D01*
X49744Y-46600D01*
X47742Y-44597D01*
X47718Y-44537D01*
X47612Y-44432D01*
X47474Y-44375D01*
X47325Y-44374D01*
X47187Y-44431D01*
X47082Y-44537D01*
X47025Y-44675D01*
X47024Y-44824D01*
X47081Y-44962D01*
X47187Y-45067D01*
X47247Y-45092D01*
X49250Y-47094D01*
X49250Y-47155D01*
X48105Y-48300D01*
X47550Y-48300D01*
X47416Y-48326D01*
X47302Y-48402D01*
X47077Y-48627D01*
X47077Y-48627D01*
X47077Y-48627D01*
X46205Y-49500D01*
X37600Y-49500D01*
X37600Y-48750D01*
X37524Y-48567D01*
X37383Y-48426D01*
X37199Y-48350D01*
X37000Y-48349D01*
X36817Y-48425D01*
X36676Y-48566D01*
X36600Y-48750D01*
X36599Y-48949D01*
X36675Y-49132D01*
X36816Y-49273D01*
X37000Y-49349D01*
X37199Y-49350D01*
X37382Y-49274D01*
X37523Y-49133D01*
X37599Y-48949D01*
X37600Y-48750D01*
X37600Y-49500D01*
X37457Y-49500D01*
X37383Y-49426D01*
X37199Y-49350D01*
X37000Y-49349D01*
X36817Y-49425D01*
X36676Y-49566D01*
X36600Y-49750D01*
X36599Y-49949D01*
X36675Y-50132D01*
X36816Y-50273D01*
X36879Y-50299D01*
X36849Y-50299D01*
X36750Y-50300D01*
X36658Y-50338D01*
X36587Y-50408D01*
X36549Y-50500D01*
X36550Y-50737D01*
X36612Y-50800D01*
X37050Y-50800D01*
X37050Y-50792D01*
X37150Y-50792D01*
X37150Y-50800D01*
X37587Y-50800D01*
X37650Y-50737D01*
X37650Y-50500D01*
X37612Y-50408D01*
X37541Y-50338D01*
X37449Y-50300D01*
X37350Y-50299D01*
X37320Y-50299D01*
X37382Y-50274D01*
X37457Y-50200D01*
X41450Y-50200D01*
X41354Y-50219D01*
X41273Y-50273D01*
X41248Y-50298D01*
X41248Y-50298D01*
X41223Y-50323D01*
X41223Y-50323D01*
X40709Y-50837D01*
X40668Y-50737D01*
X40562Y-50632D01*
X40424Y-50575D01*
X40275Y-50574D01*
X40137Y-50631D01*
X40032Y-50737D01*
X39975Y-50875D01*
X39974Y-51021D01*
X38373Y-52623D01*
X38319Y-52704D01*
X38300Y-52800D01*
X38300Y-54246D01*
X38250Y-54296D01*
X38250Y-52372D01*
X38075Y-51949D01*
X37752Y-51625D01*
X37650Y-51583D01*
X37650Y-51199D01*
X37650Y-50962D01*
X37587Y-50900D01*
X37150Y-50900D01*
X37150Y-51337D01*
X37212Y-51400D01*
X37350Y-51400D01*
X37449Y-51399D01*
X37541Y-51361D01*
X37612Y-51291D01*
X37650Y-51199D01*
X37650Y-51583D01*
X37329Y-51450D01*
X37050Y-51449D01*
X37050Y-51337D01*
X37050Y-50900D01*
X36612Y-50900D01*
X36550Y-50962D01*
X36549Y-51199D01*
X36587Y-51291D01*
X36658Y-51361D01*
X36750Y-51399D01*
X36849Y-51400D01*
X36987Y-51400D01*
X37050Y-51337D01*
X37050Y-51449D01*
X36872Y-51449D01*
X36449Y-51624D01*
X36125Y-51947D01*
X35950Y-52370D01*
X35949Y-52827D01*
X36124Y-53250D01*
X36447Y-53574D01*
X36870Y-53749D01*
X37327Y-53750D01*
X37750Y-53575D01*
X38074Y-53252D01*
X38249Y-52829D01*
X38250Y-52372D01*
X38250Y-54296D01*
X37696Y-54850D01*
X37537Y-54850D01*
X37524Y-54817D01*
X37383Y-54676D01*
X37199Y-54600D01*
X37000Y-54599D01*
X36817Y-54675D01*
X36676Y-54816D01*
X36600Y-55000D01*
X36599Y-55199D01*
X36675Y-55382D01*
X36816Y-55523D01*
X37000Y-55599D01*
X37199Y-55600D01*
X37382Y-55524D01*
X37523Y-55383D01*
X37537Y-55350D01*
X37800Y-55350D01*
X37857Y-55338D01*
X37451Y-55744D01*
X37383Y-55676D01*
X37199Y-55600D01*
X37000Y-55599D01*
X36817Y-55675D01*
X36676Y-55816D01*
X36600Y-56000D01*
X36599Y-56199D01*
X36675Y-56382D01*
X36816Y-56523D01*
X37000Y-56599D01*
X37199Y-56600D01*
X37382Y-56524D01*
X37523Y-56383D01*
X37545Y-56331D01*
X37545Y-56330D01*
X37626Y-56276D01*
X38950Y-54953D01*
X38950Y-56321D01*
X38946Y-56324D01*
X38610Y-56324D01*
X38536Y-56355D01*
X38480Y-56411D01*
X38450Y-56485D01*
X38449Y-56564D01*
X38449Y-56914D01*
X38480Y-56988D01*
X38536Y-57044D01*
X38610Y-57074D01*
X38610Y-57074D01*
X38536Y-57105D01*
X38480Y-57161D01*
X38450Y-57235D01*
X38449Y-57314D01*
X38449Y-57664D01*
X38480Y-57738D01*
X38492Y-57750D01*
X38103Y-57750D01*
X37586Y-57232D01*
X37599Y-57199D01*
X37600Y-57000D01*
X37524Y-56817D01*
X37383Y-56676D01*
X37199Y-56600D01*
X37000Y-56599D01*
X36817Y-56675D01*
X36676Y-56816D01*
X36600Y-57000D01*
X36599Y-57199D01*
X36675Y-57382D01*
X36816Y-57523D01*
X37000Y-57599D01*
X37199Y-57600D01*
X37232Y-57586D01*
X37279Y-57633D01*
X37199Y-57600D01*
X37000Y-57599D01*
X36817Y-57675D01*
X36676Y-57816D01*
X36600Y-58000D01*
X36599Y-58199D01*
X36675Y-58382D01*
X36816Y-58523D01*
X37000Y-58599D01*
X37199Y-58600D01*
X37382Y-58524D01*
X37523Y-58383D01*
X37599Y-58199D01*
X37600Y-58000D01*
X37566Y-57920D01*
X37823Y-58176D01*
X37904Y-58230D01*
X38000Y-58250D01*
X38900Y-58250D01*
X38925Y-58250D01*
X39172Y-58250D01*
X39156Y-58265D01*
X39118Y-58357D01*
X39119Y-58412D01*
X39181Y-58475D01*
X39516Y-58475D01*
X39516Y-58467D01*
X39616Y-58467D01*
X39616Y-58475D01*
X39950Y-58475D01*
X40013Y-58412D01*
X40013Y-58357D01*
X39975Y-58265D01*
X39904Y-58195D01*
X39812Y-58157D01*
X39713Y-58156D01*
X39678Y-58157D01*
X39616Y-58219D01*
X39616Y-58200D01*
X39651Y-58176D01*
X39978Y-57850D01*
X40314Y-57850D01*
X40388Y-57819D01*
X40444Y-57763D01*
X40474Y-57689D01*
X40475Y-57610D01*
X40475Y-57260D01*
X40444Y-57186D01*
X40388Y-57130D01*
X40380Y-57127D01*
X40416Y-57111D01*
X40487Y-57041D01*
X40525Y-56949D01*
X40525Y-56500D01*
X40487Y-56408D01*
X40416Y-56338D01*
X40324Y-56300D01*
X40225Y-56299D01*
X40112Y-56300D01*
X40050Y-56362D01*
X40050Y-56675D01*
X40462Y-56675D01*
X40525Y-56612D01*
X40525Y-56500D01*
X40525Y-56949D01*
X40525Y-56837D01*
X40462Y-56775D01*
X40050Y-56775D01*
X40050Y-56782D01*
X39950Y-56782D01*
X39950Y-56775D01*
X39950Y-56675D01*
X39950Y-56362D01*
X39887Y-56300D01*
X39774Y-56299D01*
X39675Y-56300D01*
X39583Y-56338D01*
X39512Y-56408D01*
X39474Y-56500D01*
X39475Y-56612D01*
X39537Y-56675D01*
X39950Y-56675D01*
X39950Y-56775D01*
X39537Y-56775D01*
X39475Y-56837D01*
X39474Y-56949D01*
X39512Y-57041D01*
X39583Y-57111D01*
X39619Y-57127D01*
X39611Y-57130D01*
X39555Y-57186D01*
X39525Y-57260D01*
X39524Y-57339D01*
X39524Y-57596D01*
X39371Y-57750D01*
X39357Y-57750D01*
X39369Y-57738D01*
X39399Y-57664D01*
X39400Y-57585D01*
X39400Y-57235D01*
X39369Y-57161D01*
X39313Y-57105D01*
X39239Y-57075D01*
X39239Y-57075D01*
X39313Y-57044D01*
X39369Y-56988D01*
X39399Y-56914D01*
X39400Y-56835D01*
X39400Y-56566D01*
X39430Y-56520D01*
X39450Y-56425D01*
X39450Y-54950D01*
X39450Y-53353D01*
X40428Y-52374D01*
X40524Y-52375D01*
X40662Y-52318D01*
X40767Y-52212D01*
X40824Y-52074D01*
X40825Y-51925D01*
X40768Y-51787D01*
X40662Y-51682D01*
X40598Y-51655D01*
X41528Y-50725D01*
X44375Y-50725D01*
X44408Y-50718D01*
X44425Y-50724D01*
X44574Y-50725D01*
X44712Y-50668D01*
X44817Y-50562D01*
X44874Y-50424D01*
X44875Y-50275D01*
X44843Y-50200D01*
X46350Y-50200D01*
X46483Y-50173D01*
X46483Y-50173D01*
X46597Y-50097D01*
X47360Y-49334D01*
X47574Y-49549D01*
X47574Y-49689D01*
X47605Y-49763D01*
X47661Y-49819D01*
X47735Y-49849D01*
X47814Y-49850D01*
X47996Y-49850D01*
X48008Y-49862D01*
X48100Y-49900D01*
X48137Y-49900D01*
X48200Y-49837D01*
X48200Y-49550D01*
X48192Y-49550D01*
X48192Y-49450D01*
X48200Y-49450D01*
X48200Y-49162D01*
X48137Y-49100D01*
X48100Y-49099D01*
X48011Y-49136D01*
X47874Y-49000D01*
X48250Y-49000D01*
X48271Y-48995D01*
X48325Y-49049D01*
X48325Y-49137D01*
X48300Y-49162D01*
X48300Y-49450D01*
X48307Y-49450D01*
X48307Y-49550D01*
X48300Y-49550D01*
X48300Y-49837D01*
X48362Y-49900D01*
X48399Y-49900D01*
X48491Y-49862D01*
X48503Y-49849D01*
X48564Y-49850D01*
X48764Y-49850D01*
X48838Y-49819D01*
X48894Y-49763D01*
X48924Y-49689D01*
X48925Y-49610D01*
X48925Y-49310D01*
X48925Y-49310D01*
X48925Y-49225D01*
X49599Y-49225D01*
X49599Y-49364D01*
X49630Y-49438D01*
X49686Y-49494D01*
X49760Y-49524D01*
X49839Y-49525D01*
X50189Y-49525D01*
X50263Y-49494D01*
X50319Y-49438D01*
X50322Y-49430D01*
X50338Y-49466D01*
X50408Y-49537D01*
X50500Y-49575D01*
X50612Y-49575D01*
X50675Y-49512D01*
X50675Y-49100D01*
X50667Y-49100D01*
X50667Y-49000D01*
X50675Y-49000D01*
X50675Y-48992D01*
X50775Y-48992D01*
X50775Y-49000D01*
X51087Y-49000D01*
X51150Y-48937D01*
X51150Y-48824D01*
X51149Y-48725D01*
X51118Y-48650D01*
X52150Y-48650D01*
X52245Y-48630D01*
X52326Y-48576D01*
X52725Y-48178D01*
X52724Y-48324D01*
X52781Y-48462D01*
X52869Y-48550D01*
X52782Y-48637D01*
X52725Y-48775D01*
X52724Y-48924D01*
X52781Y-49062D01*
X52887Y-49167D01*
X53025Y-49224D01*
X53145Y-49225D01*
X53073Y-49273D01*
X52771Y-49575D01*
X52675Y-49574D01*
X52537Y-49631D01*
X52432Y-49737D01*
X52375Y-49875D01*
X52374Y-50024D01*
X52431Y-50162D01*
X52537Y-50267D01*
X52642Y-50311D01*
X52604Y-50319D01*
X52523Y-50373D01*
X51150Y-51746D01*
X51150Y-51025D01*
X51150Y-50574D01*
X51150Y-49275D01*
X51150Y-49162D01*
X51087Y-49100D01*
X50775Y-49100D01*
X50775Y-49512D01*
X50837Y-49575D01*
X50949Y-49575D01*
X51041Y-49537D01*
X51111Y-49466D01*
X51149Y-49374D01*
X51150Y-49275D01*
X51150Y-50574D01*
X51149Y-50475D01*
X51111Y-50383D01*
X51041Y-50312D01*
X50949Y-50274D01*
X50837Y-50275D01*
X50775Y-50337D01*
X50775Y-50750D01*
X51087Y-50750D01*
X51150Y-50687D01*
X51150Y-50574D01*
X51150Y-51025D01*
X51150Y-50912D01*
X51087Y-50850D01*
X50775Y-50850D01*
X50775Y-51262D01*
X50837Y-51325D01*
X50949Y-51325D01*
X51041Y-51287D01*
X51111Y-51216D01*
X51149Y-51124D01*
X51150Y-51025D01*
X51150Y-51746D01*
X47546Y-55350D01*
X43637Y-55350D01*
X43699Y-55199D01*
X43700Y-55000D01*
X43624Y-54817D01*
X43500Y-54692D01*
X43500Y-54550D01*
X45750Y-54550D01*
X45750Y-54549D01*
X45864Y-54527D01*
X45864Y-54527D01*
X45962Y-54462D01*
X48412Y-52012D01*
X48412Y-52012D01*
X48412Y-52012D01*
X48864Y-51559D01*
X49474Y-52169D01*
X49474Y-52184D01*
X49539Y-52340D01*
X49658Y-52460D01*
X49815Y-52524D01*
X49984Y-52525D01*
X50140Y-52460D01*
X50260Y-52341D01*
X50324Y-52184D01*
X50325Y-52015D01*
X50260Y-51859D01*
X50141Y-51739D01*
X49984Y-51675D01*
X49970Y-51675D01*
X49394Y-51100D01*
X49599Y-51100D01*
X49599Y-51114D01*
X49630Y-51188D01*
X49686Y-51244D01*
X49760Y-51274D01*
X49839Y-51275D01*
X50189Y-51275D01*
X50263Y-51244D01*
X50319Y-51188D01*
X50322Y-51180D01*
X50338Y-51216D01*
X50408Y-51287D01*
X50500Y-51325D01*
X50612Y-51325D01*
X50675Y-51262D01*
X50675Y-50850D01*
X50667Y-50850D01*
X50667Y-50750D01*
X50675Y-50750D01*
X50675Y-50337D01*
X50612Y-50275D01*
X50500Y-50274D01*
X50408Y-50312D01*
X50338Y-50383D01*
X50322Y-50419D01*
X50319Y-50411D01*
X50263Y-50355D01*
X50189Y-50325D01*
X50110Y-50324D01*
X49760Y-50324D01*
X49686Y-50355D01*
X49630Y-50411D01*
X49600Y-50485D01*
X49600Y-50500D01*
X49024Y-50500D01*
X48925Y-50400D01*
X48925Y-50310D01*
X48894Y-50236D01*
X48838Y-50180D01*
X48764Y-50150D01*
X48685Y-50149D01*
X48485Y-50149D01*
X48411Y-50180D01*
X48355Y-50236D01*
X48325Y-50310D01*
X48324Y-50389D01*
X48324Y-50689D01*
X48355Y-50763D01*
X48411Y-50819D01*
X48485Y-50849D01*
X48525Y-50850D01*
X48625Y-50949D01*
X48487Y-51087D01*
X48487Y-51087D01*
X48225Y-51350D01*
X48225Y-50600D01*
X48225Y-50399D01*
X48224Y-50300D01*
X48186Y-50208D01*
X48116Y-50137D01*
X48024Y-50099D01*
X47987Y-50100D01*
X47925Y-50162D01*
X47925Y-50450D01*
X48162Y-50450D01*
X48225Y-50387D01*
X48225Y-50399D01*
X48225Y-50600D01*
X48225Y-50612D01*
X48162Y-50550D01*
X47925Y-50550D01*
X47925Y-50837D01*
X47987Y-50900D01*
X48024Y-50900D01*
X48116Y-50862D01*
X48186Y-50791D01*
X48224Y-50699D01*
X48225Y-50600D01*
X48225Y-51350D01*
X47987Y-51587D01*
X47987Y-51587D01*
X47825Y-51750D01*
X47825Y-50837D01*
X47825Y-50550D01*
X47825Y-50450D01*
X47825Y-50162D01*
X47762Y-50100D01*
X47725Y-50099D01*
X47633Y-50137D01*
X47563Y-50208D01*
X47525Y-50300D01*
X47524Y-50399D01*
X47525Y-50387D01*
X47587Y-50450D01*
X47825Y-50450D01*
X47825Y-50550D01*
X47587Y-50550D01*
X47525Y-50612D01*
X47524Y-50600D01*
X47525Y-50699D01*
X47563Y-50791D01*
X47633Y-50862D01*
X47725Y-50900D01*
X47762Y-50900D01*
X47825Y-50837D01*
X47825Y-51750D01*
X45625Y-53950D01*
X43324Y-53950D01*
X43112Y-53737D01*
X43014Y-53672D01*
X42900Y-53650D01*
X41850Y-53650D01*
X41765Y-53666D01*
X41906Y-53525D01*
X42239Y-53525D01*
X42313Y-53494D01*
X42369Y-53438D01*
X42399Y-53364D01*
X42399Y-53364D01*
X42430Y-53438D01*
X42486Y-53494D01*
X42560Y-53524D01*
X42639Y-53525D01*
X42989Y-53525D01*
X43063Y-53494D01*
X43119Y-53438D01*
X43149Y-53364D01*
X43150Y-53300D01*
X43419Y-53300D01*
X43487Y-53367D01*
X43625Y-53424D01*
X43774Y-53425D01*
X43912Y-53368D01*
X44017Y-53262D01*
X44074Y-53124D01*
X44075Y-52975D01*
X44018Y-52837D01*
X43912Y-52732D01*
X43774Y-52675D01*
X43625Y-52674D01*
X43487Y-52731D01*
X43419Y-52800D01*
X43150Y-52800D01*
X43150Y-52735D01*
X43119Y-52661D01*
X43063Y-52605D01*
X42989Y-52575D01*
X42910Y-52574D01*
X42560Y-52574D01*
X42486Y-52605D01*
X42430Y-52661D01*
X42400Y-52735D01*
X42400Y-52735D01*
X42369Y-52661D01*
X42313Y-52605D01*
X42239Y-52575D01*
X42160Y-52574D01*
X41810Y-52574D01*
X41736Y-52605D01*
X41680Y-52661D01*
X41650Y-52735D01*
X41649Y-52814D01*
X41649Y-53073D01*
X40772Y-53957D01*
X40745Y-53997D01*
X40719Y-54037D01*
X40718Y-54038D01*
X40718Y-54038D01*
X40709Y-54086D01*
X40700Y-54133D01*
X40700Y-58246D01*
X40013Y-58933D01*
X40013Y-58692D01*
X40013Y-58637D01*
X39950Y-58575D01*
X39616Y-58575D01*
X39616Y-58830D01*
X39678Y-58893D01*
X39713Y-58893D01*
X39812Y-58892D01*
X39904Y-58854D01*
X39975Y-58784D01*
X40013Y-58692D01*
X40013Y-58933D01*
X39921Y-59025D01*
X39913Y-59025D01*
X39876Y-58987D01*
X39802Y-58957D01*
X39723Y-58956D01*
X39516Y-58956D01*
X39516Y-58830D01*
X39516Y-58575D01*
X39181Y-58575D01*
X39119Y-58637D01*
X39118Y-58692D01*
X39156Y-58784D01*
X39227Y-58854D01*
X39319Y-58892D01*
X39418Y-58893D01*
X39453Y-58893D01*
X39516Y-58830D01*
X39516Y-58956D01*
X39329Y-58956D01*
X39255Y-58987D01*
X39199Y-59043D01*
X39169Y-59117D01*
X39168Y-59196D01*
X39168Y-59432D01*
X39199Y-59506D01*
X39255Y-59562D01*
X39329Y-59592D01*
X39408Y-59593D01*
X39802Y-59593D01*
X39876Y-59562D01*
X39913Y-59525D01*
X40025Y-59525D01*
X40120Y-59505D01*
X40201Y-59451D01*
X41100Y-58553D01*
X41100Y-58625D01*
X39925Y-59800D01*
X39550Y-59800D01*
X37600Y-59800D01*
X37600Y-59760D01*
X37569Y-59686D01*
X37513Y-59630D01*
X37439Y-59600D01*
X37360Y-59599D01*
X37199Y-59599D01*
X37382Y-59524D01*
X37523Y-59383D01*
X37537Y-59350D01*
X38534Y-59350D01*
X38629Y-59330D01*
X38710Y-59276D01*
X38769Y-59218D01*
X38970Y-59218D01*
X39044Y-59187D01*
X39100Y-59131D01*
X39130Y-59057D01*
X39131Y-58978D01*
X39131Y-58742D01*
X39100Y-58668D01*
X39044Y-58612D01*
X38970Y-58582D01*
X38891Y-58581D01*
X38497Y-58581D01*
X38423Y-58612D01*
X38367Y-58668D01*
X38337Y-58742D01*
X38336Y-58821D01*
X38336Y-58850D01*
X37537Y-58850D01*
X37524Y-58817D01*
X37383Y-58676D01*
X37199Y-58600D01*
X37000Y-58599D01*
X36817Y-58675D01*
X36676Y-58816D01*
X36600Y-59000D01*
X36599Y-59199D01*
X36675Y-59382D01*
X36816Y-59523D01*
X37000Y-59599D01*
X37060Y-59599D01*
X36760Y-59599D01*
X36686Y-59630D01*
X36630Y-59686D01*
X36600Y-59760D01*
X36599Y-59839D01*
X36599Y-60439D01*
X36630Y-60513D01*
X36686Y-60569D01*
X36760Y-60599D01*
X36839Y-60600D01*
X37439Y-60600D01*
X37513Y-60569D01*
X37569Y-60513D01*
X37599Y-60439D01*
X37600Y-60400D01*
X39550Y-60400D01*
X40050Y-60400D01*
X40050Y-60399D01*
X40164Y-60377D01*
X40164Y-60377D01*
X40262Y-60312D01*
X41612Y-58962D01*
X41612Y-58962D01*
X41677Y-58864D01*
X41699Y-58750D01*
X41700Y-58750D01*
X41700Y-58199D01*
X41775Y-58382D01*
X41916Y-58523D01*
X42100Y-58599D01*
X42299Y-58600D01*
X42482Y-58524D01*
X42623Y-58383D01*
X42699Y-58199D01*
X42699Y-58153D01*
X42699Y-58199D01*
X42775Y-58382D01*
X42916Y-58523D01*
X43100Y-58599D01*
X43299Y-58600D01*
X43482Y-58524D01*
X43623Y-58383D01*
X43637Y-58350D01*
X49350Y-58350D01*
X49445Y-58330D01*
X49526Y-58276D01*
X53728Y-54074D01*
X53824Y-54075D01*
X53962Y-54018D01*
X54067Y-53912D01*
X54124Y-53774D01*
X54125Y-53625D01*
X54068Y-53487D01*
X53962Y-53382D01*
X53824Y-53325D01*
X53675Y-53324D01*
X53537Y-53381D01*
X53432Y-53487D01*
X53375Y-53625D01*
X53374Y-53721D01*
X49246Y-57850D01*
X48900Y-57850D01*
X48900Y-57849D01*
X48901Y-57849D01*
X48948Y-57840D01*
X48995Y-57830D01*
X48996Y-57830D01*
X48996Y-57830D01*
X49036Y-57803D01*
X49076Y-57776D01*
X49077Y-57776D01*
X49077Y-57775D01*
X53754Y-53050D01*
X54100Y-53050D01*
X54195Y-53030D01*
X54276Y-52976D01*
X54428Y-52824D01*
X54524Y-52825D01*
X54662Y-52768D01*
X54767Y-52662D01*
X54824Y-52524D01*
X54825Y-52375D01*
X54768Y-52237D01*
X54662Y-52132D01*
X54524Y-52075D01*
X54455Y-52075D01*
X54467Y-52062D01*
X54524Y-51924D01*
X54525Y-51775D01*
X54468Y-51637D01*
X54362Y-51532D01*
X54298Y-51505D01*
X54478Y-51324D01*
X54574Y-51325D01*
X54712Y-51268D01*
X54817Y-51162D01*
X54874Y-51024D01*
X54875Y-50875D01*
X54818Y-50737D01*
X54712Y-50632D01*
X54683Y-50620D01*
X54978Y-50324D01*
X55074Y-50325D01*
X55181Y-50280D01*
X55181Y-58599D01*
X55111Y-58669D01*
X55036Y-58851D01*
X55036Y-59048D01*
X55111Y-59230D01*
X55250Y-59369D01*
X55432Y-59445D01*
X55629Y-59445D01*
X55811Y-59370D01*
X55951Y-59230D01*
X56026Y-59048D01*
X56026Y-58851D01*
X55951Y-58669D01*
X55881Y-58599D01*
X55881Y-47563D01*
X56144Y-47300D01*
X56550Y-47300D01*
X56670Y-47276D01*
X56173Y-47773D01*
X56119Y-47854D01*
X56100Y-47950D01*
X56100Y-49219D01*
X56032Y-49287D01*
X55975Y-49425D01*
X55974Y-49574D01*
X56031Y-49712D01*
X56137Y-49817D01*
X56275Y-49874D01*
X56424Y-49875D01*
X56500Y-49843D01*
X56500Y-54296D01*
X56321Y-54475D01*
X56225Y-54474D01*
X56087Y-54531D01*
X55982Y-54637D01*
X55925Y-54775D01*
X55924Y-54924D01*
X55981Y-55062D01*
X56087Y-55167D01*
X56225Y-55224D01*
X56374Y-55225D01*
X56512Y-55168D01*
X56617Y-55062D01*
X56674Y-54924D01*
X56675Y-54828D01*
X56926Y-54576D01*
X56980Y-54495D01*
X57000Y-54400D01*
X57000Y-53530D01*
X57037Y-53567D01*
X57175Y-53624D01*
X57324Y-53625D01*
X57462Y-53568D01*
X57567Y-53462D01*
X57624Y-53324D01*
X57625Y-53175D01*
X57568Y-53037D01*
X57500Y-52969D01*
X57500Y-48553D01*
X59476Y-46576D01*
X59530Y-46495D01*
X59550Y-46400D01*
X59550Y-45980D01*
X59617Y-45912D01*
X59674Y-45774D01*
X59675Y-45625D01*
X59618Y-45487D01*
X59512Y-45382D01*
X59374Y-45325D01*
X59225Y-45324D01*
X59087Y-45381D01*
X58999Y-45469D01*
X58962Y-45432D01*
X58824Y-45375D01*
X58675Y-45374D01*
X58580Y-45414D01*
X59247Y-44747D01*
X59323Y-44633D01*
X59350Y-44500D01*
X59350Y-43280D01*
X59437Y-43367D01*
X59575Y-43424D01*
X59671Y-43425D01*
X59771Y-43525D01*
X59675Y-43524D01*
X59537Y-43581D01*
X59432Y-43687D01*
X59375Y-43825D01*
X59374Y-43974D01*
X59431Y-44112D01*
X59537Y-44217D01*
X59675Y-44274D01*
X59771Y-44275D01*
X60051Y-44555D01*
X59987Y-44581D01*
X59882Y-44687D01*
X59825Y-44825D01*
X59824Y-44974D01*
X59881Y-45112D01*
X59950Y-45180D01*
X59950Y-52000D01*
X59969Y-52095D01*
X60023Y-52176D01*
X60832Y-52986D01*
X60825Y-53005D01*
X60824Y-53194D01*
X60897Y-53368D01*
X61030Y-53502D01*
X61050Y-53510D01*
X61050Y-55689D01*
X61031Y-55697D01*
X60897Y-55830D01*
X60825Y-56005D01*
X60824Y-56194D01*
X60897Y-56368D01*
X61030Y-56502D01*
X61050Y-56510D01*
X61050Y-57375D01*
X61069Y-57470D01*
X61123Y-57551D01*
X61374Y-57803D01*
X61374Y-58139D01*
X61405Y-58213D01*
X61461Y-58269D01*
X61535Y-58299D01*
X61600Y-58300D01*
X61600Y-60150D01*
X61619Y-60245D01*
X61673Y-60326D01*
X62373Y-61026D01*
X62373Y-61026D01*
X62454Y-61080D01*
X62454Y-61080D01*
X62530Y-61096D01*
X62549Y-61100D01*
X62549Y-61099D01*
X62550Y-61100D01*
X65150Y-61100D01*
X65245Y-61080D01*
X65326Y-61026D01*
X65831Y-60521D01*
X65900Y-60549D01*
X66099Y-60550D01*
X66282Y-60474D01*
X66423Y-60333D01*
X66499Y-60149D01*
X66500Y-59950D01*
X66424Y-59767D01*
X66283Y-59626D01*
X66220Y-59600D01*
X66349Y-59600D01*
X66441Y-59562D01*
X66511Y-59491D01*
X66549Y-59399D01*
X66550Y-59300D01*
X66550Y-58799D01*
X66549Y-58700D01*
X66511Y-58608D01*
X66441Y-58537D01*
X66349Y-58499D01*
X66112Y-58500D01*
X66050Y-58562D01*
X66050Y-59000D01*
X66487Y-59000D01*
X66550Y-58937D01*
X66550Y-58799D01*
X66550Y-59300D01*
X66550Y-59162D01*
X66487Y-59100D01*
X66050Y-59100D01*
X66050Y-59107D01*
X65950Y-59107D01*
X65950Y-59100D01*
X65942Y-59100D01*
X65942Y-59000D01*
X65950Y-59000D01*
X65950Y-58562D01*
X65887Y-58500D01*
X65750Y-58499D01*
X65750Y-55425D01*
X65810Y-55449D01*
X65889Y-55450D01*
X66489Y-55450D01*
X66563Y-55419D01*
X66619Y-55363D01*
X66649Y-55289D01*
X66650Y-55210D01*
X66650Y-55049D01*
X66725Y-55232D01*
X66866Y-55373D01*
X67050Y-55449D01*
X67249Y-55450D01*
X67432Y-55374D01*
X67573Y-55233D01*
X67620Y-55121D01*
X67668Y-55237D01*
X67764Y-55265D01*
X68079Y-54950D01*
X68079Y-55091D01*
X67834Y-55335D01*
X67862Y-55431D01*
X68068Y-55504D01*
X68286Y-55493D01*
X68437Y-55431D01*
X68465Y-55335D01*
X68465Y-62200D01*
X60018Y-62200D01*
X60018Y-59030D01*
X60007Y-58813D01*
X59945Y-58664D01*
X59850Y-58638D01*
X59780Y-58708D01*
X59780Y-58567D01*
X59753Y-58472D01*
X59549Y-58399D01*
X59549Y-58399D01*
X59549Y-54936D01*
X59549Y-54563D01*
X59548Y-54464D01*
X59510Y-54372D01*
X59440Y-54301D01*
X59348Y-54263D01*
X59325Y-54263D01*
X59325Y-47675D01*
X59268Y-47537D01*
X59162Y-47432D01*
X59024Y-47375D01*
X58875Y-47374D01*
X58737Y-47431D01*
X58632Y-47537D01*
X58575Y-47675D01*
X58575Y-47700D01*
X58487Y-47787D01*
X58422Y-47885D01*
X58400Y-48000D01*
X58400Y-52049D01*
X58385Y-52049D01*
X58311Y-52080D01*
X58255Y-52136D01*
X58225Y-52210D01*
X58224Y-52289D01*
X58224Y-52639D01*
X58255Y-52713D01*
X58311Y-52769D01*
X58385Y-52799D01*
X58385Y-52799D01*
X58311Y-52830D01*
X58255Y-52886D01*
X58225Y-52960D01*
X58224Y-53039D01*
X58224Y-53150D01*
X58024Y-53350D01*
X57959Y-53448D01*
X57937Y-53563D01*
X57937Y-54324D01*
X57887Y-54344D01*
X57831Y-54400D01*
X57801Y-54474D01*
X57800Y-54553D01*
X57800Y-55025D01*
X57831Y-55099D01*
X57887Y-55155D01*
X57961Y-55185D01*
X58040Y-55186D01*
X58512Y-55186D01*
X58586Y-55155D01*
X58614Y-55126D01*
X58615Y-55127D01*
X58685Y-55198D01*
X58777Y-55236D01*
X58950Y-55236D01*
X59013Y-55173D01*
X59013Y-54800D01*
X59005Y-54800D01*
X59005Y-54700D01*
X59013Y-54700D01*
X59013Y-54326D01*
X58950Y-54264D01*
X58777Y-54263D01*
X58685Y-54301D01*
X58615Y-54372D01*
X58614Y-54373D01*
X58586Y-54344D01*
X58537Y-54324D01*
X58537Y-53687D01*
X58674Y-53550D01*
X59014Y-53550D01*
X59088Y-53519D01*
X59144Y-53463D01*
X59174Y-53389D01*
X59175Y-53310D01*
X59175Y-52960D01*
X59144Y-52886D01*
X59088Y-52830D01*
X59014Y-52800D01*
X59014Y-52800D01*
X59088Y-52769D01*
X59144Y-52713D01*
X59174Y-52639D01*
X59175Y-52560D01*
X59175Y-52210D01*
X59144Y-52136D01*
X59088Y-52080D01*
X59014Y-52050D01*
X59000Y-52050D01*
X59000Y-48125D01*
X59024Y-48125D01*
X59162Y-48068D01*
X59267Y-47962D01*
X59324Y-47824D01*
X59325Y-47675D01*
X59325Y-54263D01*
X59175Y-54264D01*
X59113Y-54326D01*
X59113Y-54700D01*
X59486Y-54700D01*
X59549Y-54637D01*
X59549Y-54563D01*
X59549Y-54936D01*
X59549Y-54862D01*
X59486Y-54800D01*
X59113Y-54800D01*
X59113Y-55173D01*
X59175Y-55236D01*
X59348Y-55236D01*
X59440Y-55198D01*
X59510Y-55127D01*
X59548Y-55035D01*
X59549Y-54936D01*
X59549Y-58399D01*
X59332Y-58410D01*
X59183Y-58472D01*
X59156Y-58567D01*
X59468Y-58879D01*
X59780Y-58567D01*
X59780Y-58708D01*
X59539Y-58950D01*
X59850Y-59261D01*
X59945Y-59235D01*
X60018Y-59030D01*
X60018Y-62200D01*
X59780Y-62200D01*
X59780Y-59332D01*
X59468Y-59020D01*
X59397Y-59091D01*
X59397Y-58950D01*
X59086Y-58638D01*
X58991Y-58664D01*
X58918Y-58869D01*
X58929Y-59086D01*
X58991Y-59235D01*
X59086Y-59261D01*
X59397Y-58950D01*
X59397Y-59091D01*
X59156Y-59332D01*
X59183Y-59427D01*
X59387Y-59500D01*
X59604Y-59489D01*
X59753Y-59427D01*
X59780Y-59332D01*
X59780Y-62200D01*
X57995Y-62200D01*
X57995Y-58851D01*
X57920Y-58669D01*
X57780Y-58530D01*
X57598Y-58454D01*
X57401Y-58454D01*
X57219Y-58529D01*
X57080Y-58669D01*
X57004Y-58851D01*
X57004Y-59048D01*
X57079Y-59230D01*
X57219Y-59369D01*
X57401Y-59445D01*
X57598Y-59445D01*
X57780Y-59370D01*
X57919Y-59230D01*
X57995Y-59048D01*
X57995Y-58851D01*
X57995Y-62200D01*
X54825Y-62200D01*
X54825Y-54825D01*
X54768Y-54687D01*
X54662Y-54582D01*
X54524Y-54525D01*
X54375Y-54524D01*
X54237Y-54581D01*
X54132Y-54687D01*
X54075Y-54825D01*
X54074Y-54921D01*
X53646Y-55350D01*
X53030Y-55350D01*
X52962Y-55282D01*
X52824Y-55225D01*
X52675Y-55224D01*
X52537Y-55281D01*
X52432Y-55387D01*
X52375Y-55525D01*
X52374Y-55674D01*
X52431Y-55812D01*
X52537Y-55917D01*
X52675Y-55974D01*
X52824Y-55975D01*
X52962Y-55918D01*
X53030Y-55850D01*
X53750Y-55850D01*
X53845Y-55830D01*
X53926Y-55776D01*
X54428Y-55274D01*
X54524Y-55275D01*
X54662Y-55218D01*
X54767Y-55112D01*
X54824Y-54974D01*
X54825Y-54825D01*
X54825Y-62200D01*
X35650Y-62200D01*
X35650Y-28450D01*
X68800Y-28450D01*
X68800Y-62200D01*
X68800Y-62200D01*
G37*
G54D25*
X68800Y-62200D02*
X68704Y-62200D01*
X68704Y-55031D01*
X68693Y-54813D01*
X68631Y-54662D01*
X68535Y-54634D01*
X68465Y-54705D01*
X68465Y-54564D01*
X68437Y-54468D01*
X68250Y-54401D01*
X68250Y-52372D01*
X68250Y-29872D01*
X68075Y-29449D01*
X67752Y-29125D01*
X67329Y-28950D01*
X66872Y-28949D01*
X66449Y-29124D01*
X66125Y-29447D01*
X65950Y-29870D01*
X65949Y-30327D01*
X66124Y-30750D01*
X66447Y-31074D01*
X66870Y-31249D01*
X67327Y-31250D01*
X67750Y-31075D01*
X68074Y-30752D01*
X68249Y-30329D01*
X68250Y-29872D01*
X68250Y-52372D01*
X68075Y-51949D01*
X67752Y-51625D01*
X67600Y-51562D01*
X67600Y-49750D01*
X67600Y-48750D01*
X67600Y-47750D01*
X67600Y-46750D01*
X67600Y-45750D01*
X67600Y-44750D01*
X67600Y-43750D01*
X67600Y-42750D01*
X67600Y-41750D01*
X67600Y-40750D01*
X67600Y-39750D01*
X67600Y-38750D01*
X67600Y-37750D01*
X67600Y-36750D01*
X67600Y-35750D01*
X67600Y-34750D01*
X67600Y-33750D01*
X67600Y-32750D01*
X67600Y-31750D01*
X67524Y-31567D01*
X67383Y-31426D01*
X67199Y-31350D01*
X67000Y-31349D01*
X66817Y-31425D01*
X66676Y-31566D01*
X66600Y-31750D01*
X66599Y-31949D01*
X66675Y-32132D01*
X66816Y-32273D01*
X67000Y-32349D01*
X67199Y-32350D01*
X67382Y-32274D01*
X67523Y-32133D01*
X67599Y-31949D01*
X67600Y-31750D01*
X67600Y-32750D01*
X67524Y-32567D01*
X67383Y-32426D01*
X67199Y-32350D01*
X67000Y-32349D01*
X66817Y-32425D01*
X66676Y-32566D01*
X66600Y-32750D01*
X66599Y-32949D01*
X66675Y-33132D01*
X66816Y-33273D01*
X67000Y-33349D01*
X67199Y-33350D01*
X67382Y-33274D01*
X67523Y-33133D01*
X67599Y-32949D01*
X67600Y-32750D01*
X67600Y-33750D01*
X67524Y-33567D01*
X67383Y-33426D01*
X67199Y-33350D01*
X67000Y-33349D01*
X66817Y-33425D01*
X66676Y-33566D01*
X66600Y-33750D01*
X66599Y-33949D01*
X66675Y-34132D01*
X66816Y-34273D01*
X67000Y-34349D01*
X67199Y-34350D01*
X67382Y-34274D01*
X67523Y-34133D01*
X67599Y-33949D01*
X67600Y-33750D01*
X67600Y-34750D01*
X67524Y-34567D01*
X67383Y-34426D01*
X67199Y-34350D01*
X67000Y-34349D01*
X66817Y-34425D01*
X66676Y-34566D01*
X66600Y-34750D01*
X66599Y-34949D01*
X66675Y-35132D01*
X66816Y-35273D01*
X67000Y-35349D01*
X67199Y-35350D01*
X67382Y-35274D01*
X67523Y-35133D01*
X67599Y-34949D01*
X67600Y-34750D01*
X67600Y-35750D01*
X67524Y-35567D01*
X67383Y-35426D01*
X67199Y-35350D01*
X67000Y-35349D01*
X66817Y-35425D01*
X66676Y-35566D01*
X66600Y-35750D01*
X66599Y-35949D01*
X66675Y-36132D01*
X66816Y-36273D01*
X67000Y-36349D01*
X67199Y-36350D01*
X67382Y-36274D01*
X67523Y-36133D01*
X67599Y-35949D01*
X67600Y-35750D01*
X67600Y-36750D01*
X67524Y-36567D01*
X67383Y-36426D01*
X67199Y-36350D01*
X67000Y-36349D01*
X66817Y-36425D01*
X66676Y-36566D01*
X66600Y-36750D01*
X66599Y-36949D01*
X66675Y-37132D01*
X66816Y-37273D01*
X67000Y-37349D01*
X67199Y-37350D01*
X67382Y-37274D01*
X67523Y-37133D01*
X67599Y-36949D01*
X67600Y-36750D01*
X67600Y-37750D01*
X67524Y-37567D01*
X67383Y-37426D01*
X67199Y-37350D01*
X67000Y-37349D01*
X66817Y-37425D01*
X66676Y-37566D01*
X66600Y-37750D01*
X66599Y-37949D01*
X66675Y-38132D01*
X66816Y-38273D01*
X67000Y-38349D01*
X67199Y-38350D01*
X67382Y-38274D01*
X67523Y-38133D01*
X67599Y-37949D01*
X67600Y-37750D01*
X67600Y-38750D01*
X67524Y-38567D01*
X67383Y-38426D01*
X67199Y-38350D01*
X67000Y-38349D01*
X66817Y-38425D01*
X66676Y-38566D01*
X66600Y-38750D01*
X66599Y-38949D01*
X66675Y-39132D01*
X66816Y-39273D01*
X67000Y-39349D01*
X67199Y-39350D01*
X67382Y-39274D01*
X67523Y-39133D01*
X67599Y-38949D01*
X67600Y-38750D01*
X67600Y-39750D01*
X67524Y-39567D01*
X67383Y-39426D01*
X67199Y-39350D01*
X67000Y-39349D01*
X66817Y-39425D01*
X66676Y-39566D01*
X66600Y-39750D01*
X66599Y-39949D01*
X66675Y-40132D01*
X66816Y-40273D01*
X67000Y-40349D01*
X67199Y-40350D01*
X67382Y-40274D01*
X67523Y-40133D01*
X67599Y-39949D01*
X67600Y-39750D01*
X67600Y-40750D01*
X67524Y-40567D01*
X67383Y-40426D01*
X67199Y-40350D01*
X67000Y-40349D01*
X66817Y-40425D01*
X66676Y-40566D01*
X66600Y-40750D01*
X66599Y-40949D01*
X66675Y-41132D01*
X66816Y-41273D01*
X67000Y-41349D01*
X67199Y-41350D01*
X67382Y-41274D01*
X67523Y-41133D01*
X67599Y-40949D01*
X67600Y-40750D01*
X67600Y-41750D01*
X67524Y-41567D01*
X67383Y-41426D01*
X67199Y-41350D01*
X67000Y-41349D01*
X66817Y-41425D01*
X66676Y-41566D01*
X66600Y-41750D01*
X66599Y-41949D01*
X66675Y-42132D01*
X66816Y-42273D01*
X67000Y-42349D01*
X67199Y-42350D01*
X67382Y-42274D01*
X67523Y-42133D01*
X67599Y-41949D01*
X67600Y-41750D01*
X67600Y-42750D01*
X67524Y-42567D01*
X67383Y-42426D01*
X67199Y-42350D01*
X67000Y-42349D01*
X66817Y-42425D01*
X66676Y-42566D01*
X66600Y-42750D01*
X66599Y-42949D01*
X66675Y-43132D01*
X66816Y-43273D01*
X67000Y-43349D01*
X67199Y-43350D01*
X67382Y-43274D01*
X67523Y-43133D01*
X67599Y-42949D01*
X67600Y-42750D01*
X67600Y-43750D01*
X67524Y-43567D01*
X67383Y-43426D01*
X67199Y-43350D01*
X67000Y-43349D01*
X66817Y-43425D01*
X66676Y-43566D01*
X66600Y-43750D01*
X66599Y-43949D01*
X66675Y-44132D01*
X66816Y-44273D01*
X67000Y-44349D01*
X67199Y-44350D01*
X67382Y-44274D01*
X67523Y-44133D01*
X67599Y-43949D01*
X67600Y-43750D01*
X67600Y-44750D01*
X67524Y-44567D01*
X67383Y-44426D01*
X67199Y-44350D01*
X67000Y-44349D01*
X66817Y-44425D01*
X66676Y-44566D01*
X66600Y-44750D01*
X66599Y-44949D01*
X66675Y-45132D01*
X66816Y-45273D01*
X67000Y-45349D01*
X67199Y-45350D01*
X67382Y-45274D01*
X67523Y-45133D01*
X67599Y-44949D01*
X67600Y-44750D01*
X67600Y-45750D01*
X67524Y-45567D01*
X67383Y-45426D01*
X67199Y-45350D01*
X67000Y-45349D01*
X66817Y-45425D01*
X66676Y-45566D01*
X66600Y-45750D01*
X66599Y-45949D01*
X66675Y-46132D01*
X66816Y-46273D01*
X67000Y-46349D01*
X67199Y-46350D01*
X67382Y-46274D01*
X67523Y-46133D01*
X67599Y-45949D01*
X67600Y-45750D01*
X67600Y-46750D01*
X67524Y-46567D01*
X67383Y-46426D01*
X67199Y-46350D01*
X67000Y-46349D01*
X66817Y-46425D01*
X66676Y-46566D01*
X66600Y-46750D01*
X66599Y-46949D01*
X66675Y-47132D01*
X66816Y-47273D01*
X67000Y-47349D01*
X67199Y-47350D01*
X67382Y-47274D01*
X67523Y-47133D01*
X67599Y-46949D01*
X67600Y-46750D01*
X67600Y-47750D01*
X67524Y-47567D01*
X67383Y-47426D01*
X67199Y-47350D01*
X67000Y-47349D01*
X66817Y-47425D01*
X66676Y-47566D01*
X66600Y-47750D01*
X66599Y-47949D01*
X66675Y-48132D01*
X66816Y-48273D01*
X67000Y-48349D01*
X67199Y-48350D01*
X67382Y-48274D01*
X67523Y-48133D01*
X67599Y-47949D01*
X67600Y-47750D01*
X67600Y-48750D01*
X67524Y-48567D01*
X67383Y-48426D01*
X67199Y-48350D01*
X67000Y-48349D01*
X66817Y-48425D01*
X66676Y-48566D01*
X66600Y-48750D01*
X66599Y-48949D01*
X66675Y-49132D01*
X66816Y-49273D01*
X67000Y-49349D01*
X67199Y-49350D01*
X67382Y-49274D01*
X67523Y-49133D01*
X67599Y-48949D01*
X67600Y-48750D01*
X67600Y-49750D01*
X67524Y-49567D01*
X67383Y-49426D01*
X67199Y-49350D01*
X67000Y-49349D01*
X66817Y-49425D01*
X66676Y-49566D01*
X66600Y-49750D01*
X66599Y-49949D01*
X66675Y-50132D01*
X66816Y-50273D01*
X67000Y-50349D01*
X67060Y-50349D01*
X66760Y-50349D01*
X66686Y-50380D01*
X66630Y-50436D01*
X66600Y-50510D01*
X66599Y-50589D01*
X66599Y-51189D01*
X66630Y-51263D01*
X66686Y-51319D01*
X66760Y-51349D01*
X66839Y-51350D01*
X67439Y-51350D01*
X67513Y-51319D01*
X67569Y-51263D01*
X67599Y-51189D01*
X67600Y-51110D01*
X67600Y-50510D01*
X67569Y-50436D01*
X67513Y-50380D01*
X67439Y-50350D01*
X67360Y-50349D01*
X67199Y-50349D01*
X67382Y-50274D01*
X67523Y-50133D01*
X67599Y-49949D01*
X67600Y-49750D01*
X67600Y-51562D01*
X67329Y-51450D01*
X66872Y-51449D01*
X66449Y-51624D01*
X66125Y-51947D01*
X65950Y-52370D01*
X65949Y-52827D01*
X66124Y-53250D01*
X66447Y-53574D01*
X66870Y-53749D01*
X67327Y-53750D01*
X67750Y-53575D01*
X68074Y-53252D01*
X68249Y-52829D01*
X68250Y-52372D01*
X68250Y-54401D01*
X68231Y-54395D01*
X68013Y-54406D01*
X67862Y-54468D01*
X67834Y-54564D01*
X68150Y-54879D01*
X68465Y-54564D01*
X68465Y-54705D01*
X68220Y-54950D01*
X68535Y-55265D01*
X68631Y-55237D01*
X68704Y-55031D01*
X68704Y-62200D01*
X68465Y-62200D01*
X68465Y-55335D01*
X68150Y-55020D01*
X68079Y-55091D01*
X68079Y-54950D01*
X67764Y-54634D01*
X67668Y-54662D01*
X67623Y-54787D01*
X67574Y-54667D01*
X67433Y-54526D01*
X67249Y-54450D01*
X67050Y-54449D01*
X66867Y-54525D01*
X66726Y-54666D01*
X66650Y-54850D01*
X66650Y-54910D01*
X66650Y-54610D01*
X66619Y-54536D01*
X66563Y-54480D01*
X66489Y-54450D01*
X66410Y-54449D01*
X65810Y-54449D01*
X65750Y-54474D01*
X65750Y-48150D01*
X65749Y-48149D01*
X65750Y-48149D01*
X65746Y-48130D01*
X65730Y-48054D01*
X65730Y-48054D01*
X65676Y-47973D01*
X65676Y-47973D01*
X64976Y-47273D01*
X64976Y-47273D01*
X64374Y-46671D01*
X64375Y-46575D01*
X64318Y-46437D01*
X64212Y-46332D01*
X64074Y-46275D01*
X63978Y-46274D01*
X59924Y-42221D01*
X59925Y-42125D01*
X59868Y-41987D01*
X59762Y-41882D01*
X59624Y-41825D01*
X59475Y-41824D01*
X59350Y-41876D01*
X59350Y-41750D01*
X59323Y-41616D01*
X59247Y-41502D01*
X57900Y-40155D01*
X57900Y-39344D01*
X61097Y-36147D01*
X61173Y-36033D01*
X61173Y-36033D01*
X61200Y-35900D01*
X61200Y-35150D01*
X61173Y-35016D01*
X61097Y-34902D01*
X58497Y-32302D01*
X58383Y-32226D01*
X58250Y-32200D01*
X55850Y-32200D01*
X55716Y-32226D01*
X55602Y-32302D01*
X51852Y-36052D01*
X51776Y-36166D01*
X51763Y-36233D01*
X51721Y-36275D01*
X51625Y-36274D01*
X51487Y-36331D01*
X51382Y-36437D01*
X51340Y-36537D01*
X51326Y-36523D01*
X51245Y-36469D01*
X51150Y-36450D01*
X47550Y-36450D01*
X47549Y-36450D01*
X47530Y-36453D01*
X47454Y-36469D01*
X47373Y-36523D01*
X47373Y-36523D01*
X46821Y-37075D01*
X46725Y-37074D01*
X46587Y-37131D01*
X46482Y-37237D01*
X46470Y-37266D01*
X46074Y-36871D01*
X46075Y-36775D01*
X46018Y-36637D01*
X45912Y-36532D01*
X45774Y-36475D01*
X45683Y-36474D01*
X45724Y-36374D01*
X45725Y-36278D01*
X45903Y-36100D01*
X51069Y-36100D01*
X51137Y-36167D01*
X51275Y-36224D01*
X51424Y-36225D01*
X51562Y-36168D01*
X51667Y-36062D01*
X51724Y-35924D01*
X51725Y-35775D01*
X51668Y-35637D01*
X51562Y-35532D01*
X51424Y-35475D01*
X51275Y-35474D01*
X51137Y-35531D01*
X51069Y-35600D01*
X45800Y-35600D01*
X45704Y-35619D01*
X45623Y-35673D01*
X45371Y-35925D01*
X45275Y-35924D01*
X45137Y-35981D01*
X45032Y-36087D01*
X44975Y-36225D01*
X44975Y-36271D01*
X44574Y-35871D01*
X44575Y-35775D01*
X44518Y-35637D01*
X44412Y-35532D01*
X44274Y-35475D01*
X44125Y-35474D01*
X43987Y-35531D01*
X43882Y-35637D01*
X43870Y-35666D01*
X43074Y-34871D01*
X43075Y-34775D01*
X43018Y-34637D01*
X42912Y-34532D01*
X42774Y-34475D01*
X42625Y-34474D01*
X42487Y-34531D01*
X42382Y-34637D01*
X42355Y-34701D01*
X41524Y-33871D01*
X41525Y-33775D01*
X41468Y-33637D01*
X41362Y-33532D01*
X41224Y-33475D01*
X41075Y-33474D01*
X40937Y-33531D01*
X40832Y-33637D01*
X40820Y-33666D01*
X40074Y-32921D01*
X40075Y-32825D01*
X40018Y-32687D01*
X39912Y-32582D01*
X39774Y-32525D01*
X39625Y-32524D01*
X39487Y-32581D01*
X39382Y-32687D01*
X39370Y-32716D01*
X38326Y-31673D01*
X38250Y-31622D01*
X38250Y-29872D01*
X38075Y-29449D01*
X37752Y-29125D01*
X37329Y-28950D01*
X36872Y-28949D01*
X36449Y-29124D01*
X36125Y-29447D01*
X35950Y-29870D01*
X35949Y-30327D01*
X36124Y-30750D01*
X36447Y-31074D01*
X36870Y-31249D01*
X37327Y-31250D01*
X37750Y-31075D01*
X38074Y-30752D01*
X38249Y-30329D01*
X38250Y-29872D01*
X38250Y-31622D01*
X38245Y-31619D01*
X38150Y-31600D01*
X37537Y-31600D01*
X37524Y-31567D01*
X37383Y-31426D01*
X37199Y-31350D01*
X37000Y-31349D01*
X36817Y-31425D01*
X36676Y-31566D01*
X36600Y-31750D01*
X36599Y-31949D01*
X36675Y-32132D01*
X36816Y-32273D01*
X37000Y-32349D01*
X37199Y-32350D01*
X37382Y-32274D01*
X37523Y-32133D01*
X37537Y-32100D01*
X38046Y-32100D01*
X42466Y-36520D01*
X42437Y-36531D01*
X42369Y-36600D01*
X37600Y-36600D01*
X37600Y-35750D01*
X37600Y-34750D01*
X37600Y-33750D01*
X37600Y-32750D01*
X37524Y-32567D01*
X37383Y-32426D01*
X37199Y-32350D01*
X37000Y-32349D01*
X36817Y-32425D01*
X36676Y-32566D01*
X36600Y-32750D01*
X36599Y-32949D01*
X36675Y-33132D01*
X36816Y-33273D01*
X37000Y-33349D01*
X37199Y-33350D01*
X37382Y-33274D01*
X37523Y-33133D01*
X37599Y-32949D01*
X37600Y-32750D01*
X37600Y-33750D01*
X37524Y-33567D01*
X37383Y-33426D01*
X37199Y-33350D01*
X37000Y-33349D01*
X36817Y-33425D01*
X36676Y-33566D01*
X36600Y-33750D01*
X36599Y-33949D01*
X36675Y-34132D01*
X36816Y-34273D01*
X37000Y-34349D01*
X37199Y-34350D01*
X37382Y-34274D01*
X37523Y-34133D01*
X37599Y-33949D01*
X37600Y-33750D01*
X37600Y-34750D01*
X37524Y-34567D01*
X37383Y-34426D01*
X37199Y-34350D01*
X37000Y-34349D01*
X36817Y-34425D01*
X36676Y-34566D01*
X36600Y-34750D01*
X36599Y-34949D01*
X36675Y-35132D01*
X36816Y-35273D01*
X37000Y-35349D01*
X37199Y-35350D01*
X37382Y-35274D01*
X37523Y-35133D01*
X37599Y-34949D01*
X37600Y-34750D01*
X37600Y-35750D01*
X37524Y-35567D01*
X37383Y-35426D01*
X37199Y-35350D01*
X37000Y-35349D01*
X36817Y-35425D01*
X36676Y-35566D01*
X36600Y-35750D01*
X36599Y-35949D01*
X36675Y-36132D01*
X36816Y-36273D01*
X37000Y-36349D01*
X37199Y-36350D01*
X37382Y-36274D01*
X37523Y-36133D01*
X37599Y-35949D01*
X37600Y-35750D01*
X37600Y-36600D01*
X37537Y-36600D01*
X37524Y-36567D01*
X37383Y-36426D01*
X37199Y-36350D01*
X37000Y-36349D01*
X36817Y-36425D01*
X36676Y-36566D01*
X36600Y-36750D01*
X36599Y-36949D01*
X36675Y-37132D01*
X36816Y-37273D01*
X37000Y-37349D01*
X37199Y-37350D01*
X37382Y-37274D01*
X37523Y-37133D01*
X37537Y-37100D01*
X42369Y-37100D01*
X42437Y-37167D01*
X42575Y-37224D01*
X42724Y-37225D01*
X42862Y-37168D01*
X42967Y-37062D01*
X42979Y-37033D01*
X43466Y-37520D01*
X43437Y-37531D01*
X43369Y-37600D01*
X37537Y-37600D01*
X37524Y-37567D01*
X37383Y-37426D01*
X37199Y-37350D01*
X37000Y-37349D01*
X36817Y-37425D01*
X36676Y-37566D01*
X36600Y-37750D01*
X36599Y-37949D01*
X36675Y-38132D01*
X36816Y-38273D01*
X37000Y-38349D01*
X37199Y-38350D01*
X37382Y-38274D01*
X37523Y-38133D01*
X37537Y-38100D01*
X43369Y-38100D01*
X43437Y-38167D01*
X43575Y-38224D01*
X43724Y-38225D01*
X43862Y-38168D01*
X43967Y-38062D01*
X43979Y-38033D01*
X44466Y-38520D01*
X44437Y-38531D01*
X44369Y-38600D01*
X37537Y-38600D01*
X37524Y-38567D01*
X37383Y-38426D01*
X37199Y-38350D01*
X37000Y-38349D01*
X36817Y-38425D01*
X36676Y-38566D01*
X36600Y-38750D01*
X36599Y-38949D01*
X36675Y-39132D01*
X36816Y-39273D01*
X37000Y-39349D01*
X37199Y-39350D01*
X37382Y-39274D01*
X37523Y-39133D01*
X37537Y-39100D01*
X44369Y-39100D01*
X44437Y-39167D01*
X44575Y-39224D01*
X44724Y-39225D01*
X44862Y-39168D01*
X44967Y-39062D01*
X44979Y-39033D01*
X45466Y-39520D01*
X45437Y-39531D01*
X45369Y-39600D01*
X37537Y-39600D01*
X37524Y-39567D01*
X37383Y-39426D01*
X37199Y-39350D01*
X37000Y-39349D01*
X36817Y-39425D01*
X36676Y-39566D01*
X36600Y-39750D01*
X36599Y-39949D01*
X36675Y-40132D01*
X36816Y-40273D01*
X37000Y-40349D01*
X37199Y-40350D01*
X37382Y-40274D01*
X37523Y-40133D01*
X37537Y-40100D01*
X45369Y-40100D01*
X45437Y-40167D01*
X45575Y-40224D01*
X45724Y-40225D01*
X45862Y-40168D01*
X45967Y-40062D01*
X45979Y-40033D01*
X46466Y-40520D01*
X46437Y-40531D01*
X46369Y-40600D01*
X37537Y-40600D01*
X37524Y-40567D01*
X37383Y-40426D01*
X37199Y-40350D01*
X37000Y-40349D01*
X36817Y-40425D01*
X36676Y-40566D01*
X36600Y-40750D01*
X36599Y-40949D01*
X36675Y-41132D01*
X36816Y-41273D01*
X37000Y-41349D01*
X37199Y-41350D01*
X37382Y-41274D01*
X37523Y-41133D01*
X37537Y-41100D01*
X46369Y-41100D01*
X46437Y-41167D01*
X46575Y-41224D01*
X46724Y-41225D01*
X46862Y-41168D01*
X46967Y-41062D01*
X46979Y-41033D01*
X47466Y-41520D01*
X47437Y-41531D01*
X47369Y-41600D01*
X37537Y-41600D01*
X37524Y-41567D01*
X37383Y-41426D01*
X37199Y-41350D01*
X37000Y-41349D01*
X36817Y-41425D01*
X36676Y-41566D01*
X36600Y-41750D01*
X36599Y-41949D01*
X36675Y-42132D01*
X36816Y-42273D01*
X37000Y-42349D01*
X37199Y-42350D01*
X37382Y-42274D01*
X37523Y-42133D01*
X37537Y-42100D01*
X47369Y-42100D01*
X47437Y-42167D01*
X47575Y-42224D01*
X47724Y-42225D01*
X47862Y-42168D01*
X47967Y-42062D01*
X47979Y-42033D01*
X48401Y-42455D01*
X48337Y-42481D01*
X48232Y-42587D01*
X48227Y-42600D01*
X37537Y-42600D01*
X37524Y-42567D01*
X37383Y-42426D01*
X37199Y-42350D01*
X37000Y-42349D01*
X36817Y-42425D01*
X36676Y-42566D01*
X36600Y-42750D01*
X36599Y-42949D01*
X36675Y-43132D01*
X36816Y-43273D01*
X37000Y-43349D01*
X37199Y-43350D01*
X37382Y-43274D01*
X37523Y-43133D01*
X37537Y-43100D01*
X48319Y-43100D01*
X48337Y-43117D01*
X48475Y-43174D01*
X48624Y-43175D01*
X48762Y-43118D01*
X48867Y-43012D01*
X48894Y-42948D01*
X48973Y-43026D01*
X48973Y-43026D01*
X49054Y-43080D01*
X49054Y-43080D01*
X49130Y-43096D01*
X49149Y-43100D01*
X49149Y-43099D01*
X49150Y-43100D01*
X49627Y-43100D01*
X49575Y-43225D01*
X49574Y-43374D01*
X49631Y-43512D01*
X49737Y-43617D01*
X49875Y-43674D01*
X50024Y-43675D01*
X50162Y-43618D01*
X50267Y-43512D01*
X50324Y-43374D01*
X50325Y-43278D01*
X50471Y-43131D01*
X50447Y-43107D01*
X50447Y-43107D01*
X50471Y-43131D01*
X50496Y-43107D01*
X50536Y-43107D01*
X50631Y-43011D01*
X50643Y-43006D01*
X50700Y-42950D01*
X51124Y-42526D01*
X51129Y-42513D01*
X51225Y-42417D01*
X51225Y-42329D01*
X51206Y-42310D01*
X51114Y-42272D01*
X51097Y-42272D01*
X51068Y-42243D01*
X50955Y-42130D01*
X50917Y-42114D01*
X50901Y-42076D01*
X50845Y-42020D01*
X50732Y-41907D01*
X50694Y-41891D01*
X50679Y-41854D01*
X50622Y-41797D01*
X50509Y-41684D01*
X50471Y-41668D01*
X50456Y-41631D01*
X50450Y-41624D01*
X50574Y-41625D01*
X50712Y-41568D01*
X50780Y-41500D01*
X51850Y-41500D01*
X51879Y-41494D01*
X51787Y-41531D01*
X51682Y-41637D01*
X51625Y-41775D01*
X51624Y-41924D01*
X51681Y-42062D01*
X51769Y-42150D01*
X51732Y-42187D01*
X51675Y-42325D01*
X51674Y-42474D01*
X51731Y-42612D01*
X51837Y-42717D01*
X51975Y-42774D01*
X52050Y-42775D01*
X52050Y-43227D01*
X52051Y-43236D01*
X52031Y-43228D01*
X52015Y-43190D01*
X51959Y-43134D01*
X51846Y-43021D01*
X51808Y-43005D01*
X51792Y-42967D01*
X51736Y-42911D01*
X51623Y-42798D01*
X51585Y-42782D01*
X51570Y-42745D01*
X51513Y-42688D01*
X51427Y-42602D01*
X51427Y-42585D01*
X51389Y-42493D01*
X51370Y-42474D01*
X51282Y-42474D01*
X51186Y-42570D01*
X51174Y-42575D01*
X51117Y-42631D01*
X50693Y-43055D01*
X50688Y-43068D01*
X50592Y-43163D01*
X50592Y-43203D01*
X50573Y-43223D01*
X50569Y-43229D01*
X50569Y-43229D01*
X50519Y-43304D01*
X50500Y-43400D01*
X50500Y-44550D01*
X50519Y-44645D01*
X50573Y-44726D01*
X51175Y-45328D01*
X51174Y-45424D01*
X51231Y-45562D01*
X51337Y-45667D01*
X51475Y-45724D01*
X51624Y-45725D01*
X51762Y-45668D01*
X51850Y-45580D01*
X51850Y-45819D01*
X51782Y-45887D01*
X51725Y-46025D01*
X51724Y-46174D01*
X51735Y-46200D01*
X50503Y-46200D01*
X47976Y-43673D01*
X47895Y-43619D01*
X47800Y-43600D01*
X37537Y-43600D01*
X37524Y-43567D01*
X37383Y-43426D01*
X37199Y-43350D01*
X37000Y-43349D01*
X36817Y-43425D01*
X36676Y-43566D01*
X36600Y-43750D01*
X36599Y-43949D01*
X36675Y-44132D01*
X36816Y-44273D01*
X37000Y-44349D01*
X37199Y-44350D01*
X37382Y-44274D01*
X37523Y-44133D01*
X37537Y-44100D01*
X41469Y-44100D01*
X41432Y-44137D01*
X41375Y-44275D01*
X41374Y-44371D01*
X38146Y-47600D01*
X37600Y-47600D01*
X37600Y-46750D01*
X37600Y-45750D01*
X37600Y-44750D01*
X37524Y-44567D01*
X37383Y-44426D01*
X37199Y-44350D01*
X37000Y-44349D01*
X36817Y-44425D01*
X36676Y-44566D01*
X36600Y-44750D01*
X36599Y-44949D01*
X36675Y-45132D01*
X36816Y-45273D01*
X37000Y-45349D01*
X37199Y-45350D01*
X37382Y-45274D01*
X37523Y-45133D01*
X37599Y-44949D01*
X37600Y-44750D01*
X37600Y-45750D01*
X37524Y-45567D01*
X37383Y-45426D01*
X37199Y-45350D01*
X37000Y-45349D01*
X36817Y-45425D01*
X36676Y-45566D01*
X36600Y-45750D01*
X36599Y-45949D01*
X36675Y-46132D01*
X36816Y-46273D01*
X37000Y-46349D01*
X37199Y-46350D01*
X37382Y-46274D01*
X37523Y-46133D01*
X37599Y-45949D01*
X37600Y-45750D01*
X37600Y-46750D01*
X37524Y-46567D01*
X37383Y-46426D01*
X37199Y-46350D01*
X37000Y-46349D01*
X36817Y-46425D01*
X36676Y-46566D01*
X36600Y-46750D01*
X36599Y-46949D01*
X36675Y-47132D01*
X36816Y-47273D01*
X37000Y-47349D01*
X37199Y-47350D01*
X37382Y-47274D01*
X37523Y-47133D01*
X37599Y-46949D01*
X37600Y-46750D01*
X37600Y-47600D01*
X37537Y-47600D01*
X37524Y-47567D01*
X37383Y-47426D01*
X37199Y-47350D01*
X37000Y-47349D01*
X36817Y-47425D01*
X36676Y-47566D01*
X36600Y-47750D01*
X36599Y-47949D01*
X36675Y-48132D01*
X36816Y-48273D01*
X37000Y-48349D01*
X37199Y-48350D01*
X37382Y-48274D01*
X37523Y-48133D01*
X37537Y-48100D01*
X38250Y-48100D01*
X38345Y-48080D01*
X38426Y-48026D01*
X41728Y-44724D01*
X41824Y-44725D01*
X41962Y-44668D01*
X42067Y-44562D01*
X42124Y-44424D01*
X42125Y-44275D01*
X42068Y-44137D01*
X42030Y-44100D01*
X47696Y-44100D01*
X50196Y-46600D01*
X49744Y-46600D01*
X47742Y-44597D01*
X47718Y-44537D01*
X47612Y-44432D01*
X47474Y-44375D01*
X47325Y-44374D01*
X47187Y-44431D01*
X47082Y-44537D01*
X47025Y-44675D01*
X47024Y-44824D01*
X47081Y-44962D01*
X47187Y-45067D01*
X47247Y-45092D01*
X49250Y-47094D01*
X49250Y-47155D01*
X48105Y-48300D01*
X47550Y-48300D01*
X47416Y-48326D01*
X47302Y-48402D01*
X47077Y-48627D01*
X47077Y-48627D01*
X47077Y-48627D01*
X46205Y-49500D01*
X37600Y-49500D01*
X37600Y-48750D01*
X37524Y-48567D01*
X37383Y-48426D01*
X37199Y-48350D01*
X37000Y-48349D01*
X36817Y-48425D01*
X36676Y-48566D01*
X36600Y-48750D01*
X36599Y-48949D01*
X36675Y-49132D01*
X36816Y-49273D01*
X37000Y-49349D01*
X37199Y-49350D01*
X37382Y-49274D01*
X37523Y-49133D01*
X37599Y-48949D01*
X37600Y-48750D01*
X37600Y-49500D01*
X37457Y-49500D01*
X37383Y-49426D01*
X37199Y-49350D01*
X37000Y-49349D01*
X36817Y-49425D01*
X36676Y-49566D01*
X36600Y-49750D01*
X36599Y-49949D01*
X36675Y-50132D01*
X36816Y-50273D01*
X36879Y-50299D01*
X36849Y-50299D01*
X36750Y-50300D01*
X36658Y-50338D01*
X36587Y-50408D01*
X36549Y-50500D01*
X36550Y-50737D01*
X36612Y-50800D01*
X37050Y-50800D01*
X37050Y-50792D01*
X37150Y-50792D01*
X37150Y-50800D01*
X37587Y-50800D01*
X37650Y-50737D01*
X37650Y-50500D01*
X37612Y-50408D01*
X37541Y-50338D01*
X37449Y-50300D01*
X37350Y-50299D01*
X37320Y-50299D01*
X37382Y-50274D01*
X37457Y-50200D01*
X41450Y-50200D01*
X41354Y-50219D01*
X41273Y-50273D01*
X41248Y-50298D01*
X41248Y-50298D01*
X41223Y-50323D01*
X41223Y-50323D01*
X40709Y-50837D01*
X40668Y-50737D01*
X40562Y-50632D01*
X40424Y-50575D01*
X40275Y-50574D01*
X40137Y-50631D01*
X40032Y-50737D01*
X39975Y-50875D01*
X39974Y-51021D01*
X38373Y-52623D01*
X38319Y-52704D01*
X38300Y-52800D01*
X38300Y-54246D01*
X38250Y-54296D01*
X38250Y-52372D01*
X38075Y-51949D01*
X37752Y-51625D01*
X37650Y-51583D01*
X37650Y-51199D01*
X37650Y-50962D01*
X37587Y-50900D01*
X37150Y-50900D01*
X37150Y-51337D01*
X37212Y-51400D01*
X37350Y-51400D01*
X37449Y-51399D01*
X37541Y-51361D01*
X37612Y-51291D01*
X37650Y-51199D01*
X37650Y-51583D01*
X37329Y-51450D01*
X37050Y-51449D01*
X37050Y-51337D01*
X37050Y-50900D01*
X36612Y-50900D01*
X36550Y-50962D01*
X36549Y-51199D01*
X36587Y-51291D01*
X36658Y-51361D01*
X36750Y-51399D01*
X36849Y-51400D01*
X36987Y-51400D01*
X37050Y-51337D01*
X37050Y-51449D01*
X36872Y-51449D01*
X36449Y-51624D01*
X36125Y-51947D01*
X35950Y-52370D01*
X35949Y-52827D01*
X36124Y-53250D01*
X36447Y-53574D01*
X36870Y-53749D01*
X37327Y-53750D01*
X37750Y-53575D01*
X38074Y-53252D01*
X38249Y-52829D01*
X38250Y-52372D01*
X38250Y-54296D01*
X37696Y-54850D01*
X37537Y-54850D01*
X37524Y-54817D01*
X37383Y-54676D01*
X37199Y-54600D01*
X37000Y-54599D01*
X36817Y-54675D01*
X36676Y-54816D01*
X36600Y-55000D01*
X36599Y-55199D01*
X36675Y-55382D01*
X36816Y-55523D01*
X37000Y-55599D01*
X37199Y-55600D01*
X37382Y-55524D01*
X37523Y-55383D01*
X37537Y-55350D01*
X37800Y-55350D01*
X37857Y-55338D01*
X37451Y-55744D01*
X37383Y-55676D01*
X37199Y-55600D01*
X37000Y-55599D01*
X36817Y-55675D01*
X36676Y-55816D01*
X36600Y-56000D01*
X36599Y-56199D01*
X36675Y-56382D01*
X36816Y-56523D01*
X37000Y-56599D01*
X37199Y-56600D01*
X37382Y-56524D01*
X37523Y-56383D01*
X37545Y-56331D01*
X37545Y-56330D01*
X37626Y-56276D01*
X38950Y-54953D01*
X38950Y-56321D01*
X38946Y-56324D01*
X38610Y-56324D01*
X38536Y-56355D01*
X38480Y-56411D01*
X38450Y-56485D01*
X38449Y-56564D01*
X38449Y-56914D01*
X38480Y-56988D01*
X38536Y-57044D01*
X38610Y-57074D01*
X38610Y-57074D01*
X38536Y-57105D01*
X38480Y-57161D01*
X38450Y-57235D01*
X38449Y-57314D01*
X38449Y-57664D01*
X38480Y-57738D01*
X38492Y-57750D01*
X38103Y-57750D01*
X37586Y-57232D01*
X37599Y-57199D01*
X37600Y-57000D01*
X37524Y-56817D01*
X37383Y-56676D01*
X37199Y-56600D01*
X37000Y-56599D01*
X36817Y-56675D01*
X36676Y-56816D01*
X36600Y-57000D01*
X36599Y-57199D01*
X36675Y-57382D01*
X36816Y-57523D01*
X37000Y-57599D01*
X37199Y-57600D01*
X37232Y-57586D01*
X37279Y-57633D01*
X37199Y-57600D01*
X37000Y-57599D01*
X36817Y-57675D01*
X36676Y-57816D01*
X36600Y-58000D01*
X36599Y-58199D01*
X36675Y-58382D01*
X36816Y-58523D01*
X37000Y-58599D01*
X37199Y-58600D01*
X37382Y-58524D01*
X37523Y-58383D01*
X37599Y-58199D01*
X37600Y-58000D01*
X37566Y-57920D01*
X37823Y-58176D01*
X37904Y-58230D01*
X38000Y-58250D01*
X38900Y-58250D01*
X38925Y-58250D01*
X39172Y-58250D01*
X39156Y-58265D01*
X39118Y-58357D01*
X39119Y-58412D01*
X39181Y-58475D01*
X39516Y-58475D01*
X39516Y-58467D01*
X39616Y-58467D01*
X39616Y-58475D01*
X39950Y-58475D01*
X40013Y-58412D01*
X40013Y-58357D01*
X39975Y-58265D01*
X39904Y-58195D01*
X39812Y-58157D01*
X39713Y-58156D01*
X39678Y-58157D01*
X39616Y-58219D01*
X39616Y-58200D01*
X39651Y-58176D01*
X39978Y-57850D01*
X40314Y-57850D01*
X40388Y-57819D01*
X40444Y-57763D01*
X40474Y-57689D01*
X40475Y-57610D01*
X40475Y-57260D01*
X40444Y-57186D01*
X40388Y-57130D01*
X40380Y-57127D01*
X40416Y-57111D01*
X40487Y-57041D01*
X40525Y-56949D01*
X40525Y-56500D01*
X40487Y-56408D01*
X40416Y-56338D01*
X40324Y-56300D01*
X40225Y-56299D01*
X40112Y-56300D01*
X40050Y-56362D01*
X40050Y-56675D01*
X40462Y-56675D01*
X40525Y-56612D01*
X40525Y-56500D01*
X40525Y-56949D01*
X40525Y-56837D01*
X40462Y-56775D01*
X40050Y-56775D01*
X40050Y-56782D01*
X39950Y-56782D01*
X39950Y-56775D01*
X39950Y-56675D01*
X39950Y-56362D01*
X39887Y-56300D01*
X39774Y-56299D01*
X39675Y-56300D01*
X39583Y-56338D01*
X39512Y-56408D01*
X39474Y-56500D01*
X39475Y-56612D01*
X39537Y-56675D01*
X39950Y-56675D01*
X39950Y-56775D01*
X39537Y-56775D01*
X39475Y-56837D01*
X39474Y-56949D01*
X39512Y-57041D01*
X39583Y-57111D01*
X39619Y-57127D01*
X39611Y-57130D01*
X39555Y-57186D01*
X39525Y-57260D01*
X39524Y-57339D01*
X39524Y-57596D01*
X39371Y-57750D01*
X39357Y-57750D01*
X39369Y-57738D01*
X39399Y-57664D01*
X39400Y-57585D01*
X39400Y-57235D01*
X39369Y-57161D01*
X39313Y-57105D01*
X39239Y-57075D01*
X39239Y-57075D01*
X39313Y-57044D01*
X39369Y-56988D01*
X39399Y-56914D01*
X39400Y-56835D01*
X39400Y-56566D01*
X39430Y-56520D01*
X39450Y-56425D01*
X39450Y-54950D01*
X39450Y-53353D01*
X40428Y-52374D01*
X40524Y-52375D01*
X40662Y-52318D01*
X40767Y-52212D01*
X40824Y-52074D01*
X40825Y-51925D01*
X40768Y-51787D01*
X40662Y-51682D01*
X40598Y-51655D01*
X41528Y-50725D01*
X44375Y-50725D01*
X44408Y-50718D01*
X44425Y-50724D01*
X44574Y-50725D01*
X44712Y-50668D01*
X44817Y-50562D01*
X44874Y-50424D01*
X44875Y-50275D01*
X44843Y-50200D01*
X46350Y-50200D01*
X46483Y-50173D01*
X46483Y-50173D01*
X46597Y-50097D01*
X47360Y-49334D01*
X47574Y-49549D01*
X47574Y-49689D01*
X47605Y-49763D01*
X47661Y-49819D01*
X47735Y-49849D01*
X47814Y-49850D01*
X47996Y-49850D01*
X48008Y-49862D01*
X48100Y-49900D01*
X48137Y-49900D01*
X48200Y-49837D01*
X48200Y-49550D01*
X48192Y-49550D01*
X48192Y-49450D01*
X48200Y-49450D01*
X48200Y-49162D01*
X48137Y-49100D01*
X48100Y-49099D01*
X48011Y-49136D01*
X47874Y-49000D01*
X48250Y-49000D01*
X48271Y-48995D01*
X48325Y-49049D01*
X48325Y-49137D01*
X48300Y-49162D01*
X48300Y-49450D01*
X48307Y-49450D01*
X48307Y-49550D01*
X48300Y-49550D01*
X48300Y-49837D01*
X48362Y-49900D01*
X48399Y-49900D01*
X48491Y-49862D01*
X48503Y-49849D01*
X48564Y-49850D01*
X48764Y-49850D01*
X48838Y-49819D01*
X48894Y-49763D01*
X48924Y-49689D01*
X48925Y-49610D01*
X48925Y-49310D01*
X48925Y-49310D01*
X48925Y-49225D01*
X49599Y-49225D01*
X49599Y-49364D01*
X49630Y-49438D01*
X49686Y-49494D01*
X49760Y-49524D01*
X49839Y-49525D01*
X50189Y-49525D01*
X50263Y-49494D01*
X50319Y-49438D01*
X50322Y-49430D01*
X50338Y-49466D01*
X50408Y-49537D01*
X50500Y-49575D01*
X50612Y-49575D01*
X50675Y-49512D01*
X50675Y-49100D01*
X50667Y-49100D01*
X50667Y-49000D01*
X50675Y-49000D01*
X50675Y-48992D01*
X50775Y-48992D01*
X50775Y-49000D01*
X51087Y-49000D01*
X51150Y-48937D01*
X51150Y-48824D01*
X51149Y-48725D01*
X51118Y-48650D01*
X52150Y-48650D01*
X52245Y-48630D01*
X52326Y-48576D01*
X52725Y-48178D01*
X52724Y-48324D01*
X52781Y-48462D01*
X52869Y-48550D01*
X52782Y-48637D01*
X52725Y-48775D01*
X52724Y-48924D01*
X52781Y-49062D01*
X52887Y-49167D01*
X53025Y-49224D01*
X53145Y-49225D01*
X53073Y-49273D01*
X52771Y-49575D01*
X52675Y-49574D01*
X52537Y-49631D01*
X52432Y-49737D01*
X52375Y-49875D01*
X52374Y-50024D01*
X52431Y-50162D01*
X52537Y-50267D01*
X52642Y-50311D01*
X52604Y-50319D01*
X52523Y-50373D01*
X51150Y-51746D01*
X51150Y-51025D01*
X51150Y-50574D01*
X51150Y-49275D01*
X51150Y-49162D01*
X51087Y-49100D01*
X50775Y-49100D01*
X50775Y-49512D01*
X50837Y-49575D01*
X50949Y-49575D01*
X51041Y-49537D01*
X51111Y-49466D01*
X51149Y-49374D01*
X51150Y-49275D01*
X51150Y-50574D01*
X51149Y-50475D01*
X51111Y-50383D01*
X51041Y-50312D01*
X50949Y-50274D01*
X50837Y-50275D01*
X50775Y-50337D01*
X50775Y-50750D01*
X51087Y-50750D01*
X51150Y-50687D01*
X51150Y-50574D01*
X51150Y-51025D01*
X51150Y-50912D01*
X51087Y-50850D01*
X50775Y-50850D01*
X50775Y-51262D01*
X50837Y-51325D01*
X50949Y-51325D01*
X51041Y-51287D01*
X51111Y-51216D01*
X51149Y-51124D01*
X51150Y-51025D01*
X51150Y-51746D01*
X47546Y-55350D01*
X43637Y-55350D01*
X43699Y-55199D01*
X43700Y-55000D01*
X43624Y-54817D01*
X43500Y-54692D01*
X43500Y-54550D01*
X45750Y-54550D01*
X45750Y-54549D01*
X45864Y-54527D01*
X45864Y-54527D01*
X45962Y-54462D01*
X48412Y-52012D01*
X48412Y-52012D01*
X48412Y-52012D01*
X48864Y-51559D01*
X49474Y-52169D01*
X49474Y-52184D01*
X49539Y-52340D01*
X49658Y-52460D01*
X49815Y-52524D01*
X49984Y-52525D01*
X50140Y-52460D01*
X50260Y-52341D01*
X50324Y-52184D01*
X50325Y-52015D01*
X50260Y-51859D01*
X50141Y-51739D01*
X49984Y-51675D01*
X49970Y-51675D01*
X49394Y-51100D01*
X49599Y-51100D01*
X49599Y-51114D01*
X49630Y-51188D01*
X49686Y-51244D01*
X49760Y-51274D01*
X49839Y-51275D01*
X50189Y-51275D01*
X50263Y-51244D01*
X50319Y-51188D01*
X50322Y-51180D01*
X50338Y-51216D01*
X50408Y-51287D01*
X50500Y-51325D01*
X50612Y-51325D01*
X50675Y-51262D01*
X50675Y-50850D01*
X50667Y-50850D01*
X50667Y-50750D01*
X50675Y-50750D01*
X50675Y-50337D01*
X50612Y-50275D01*
X50500Y-50274D01*
X50408Y-50312D01*
X50338Y-50383D01*
X50322Y-50419D01*
X50319Y-50411D01*
X50263Y-50355D01*
X50189Y-50325D01*
X50110Y-50324D01*
X49760Y-50324D01*
X49686Y-50355D01*
X49630Y-50411D01*
X49600Y-50485D01*
X49600Y-50500D01*
X49024Y-50500D01*
X48925Y-50400D01*
X48925Y-50310D01*
X48894Y-50236D01*
X48838Y-50180D01*
X48764Y-50150D01*
X48685Y-50149D01*
X48485Y-50149D01*
X48411Y-50180D01*
X48355Y-50236D01*
X48325Y-50310D01*
X48324Y-50389D01*
X48324Y-50689D01*
X48355Y-50763D01*
X48411Y-50819D01*
X48485Y-50849D01*
X48525Y-50850D01*
X48625Y-50949D01*
X48487Y-51087D01*
X48487Y-51087D01*
X48225Y-51350D01*
X48225Y-50600D01*
X48225Y-50399D01*
X48224Y-50300D01*
X48186Y-50208D01*
X48116Y-50137D01*
X48024Y-50099D01*
X47987Y-50100D01*
X47925Y-50162D01*
X47925Y-50450D01*
X48162Y-50450D01*
X48225Y-50387D01*
X48225Y-50399D01*
X48225Y-50600D01*
X48225Y-50612D01*
X48162Y-50550D01*
X47925Y-50550D01*
X47925Y-50837D01*
X47987Y-50900D01*
X48024Y-50900D01*
X48116Y-50862D01*
X48186Y-50791D01*
X48224Y-50699D01*
X48225Y-50600D01*
X48225Y-51350D01*
X47987Y-51587D01*
X47987Y-51587D01*
X47825Y-51750D01*
X47825Y-50837D01*
X47825Y-50550D01*
X47825Y-50450D01*
X47825Y-50162D01*
X47762Y-50100D01*
X47725Y-50099D01*
X47633Y-50137D01*
X47563Y-50208D01*
X47525Y-50300D01*
X47524Y-50399D01*
X47525Y-50387D01*
X47587Y-50450D01*
X47825Y-50450D01*
X47825Y-50550D01*
X47587Y-50550D01*
X47525Y-50612D01*
X47524Y-50600D01*
X47525Y-50699D01*
X47563Y-50791D01*
X47633Y-50862D01*
X47725Y-50900D01*
X47762Y-50900D01*
X47825Y-50837D01*
X47825Y-51750D01*
X45625Y-53950D01*
X43324Y-53950D01*
X43112Y-53737D01*
X43014Y-53672D01*
X42900Y-53650D01*
X41850Y-53650D01*
X41765Y-53666D01*
X41906Y-53525D01*
X42239Y-53525D01*
X42313Y-53494D01*
X42369Y-53438D01*
X42399Y-53364D01*
X42399Y-53364D01*
X42430Y-53438D01*
X42486Y-53494D01*
X42560Y-53524D01*
X42639Y-53525D01*
X42989Y-53525D01*
X43063Y-53494D01*
X43119Y-53438D01*
X43149Y-53364D01*
X43150Y-53300D01*
X43419Y-53300D01*
X43487Y-53367D01*
X43625Y-53424D01*
X43774Y-53425D01*
X43912Y-53368D01*
X44017Y-53262D01*
X44074Y-53124D01*
X44075Y-52975D01*
X44018Y-52837D01*
X43912Y-52732D01*
X43774Y-52675D01*
X43625Y-52674D01*
X43487Y-52731D01*
X43419Y-52800D01*
X43150Y-52800D01*
X43150Y-52735D01*
X43119Y-52661D01*
X43063Y-52605D01*
X42989Y-52575D01*
X42910Y-52574D01*
X42560Y-52574D01*
X42486Y-52605D01*
X42430Y-52661D01*
X42400Y-52735D01*
X42400Y-52735D01*
X42369Y-52661D01*
X42313Y-52605D01*
X42239Y-52575D01*
X42160Y-52574D01*
X41810Y-52574D01*
X41736Y-52605D01*
X41680Y-52661D01*
X41650Y-52735D01*
X41649Y-52814D01*
X41649Y-53073D01*
X40772Y-53957D01*
X40745Y-53997D01*
X40719Y-54037D01*
X40718Y-54038D01*
X40718Y-54038D01*
X40709Y-54086D01*
X40700Y-54133D01*
X40700Y-58246D01*
X40013Y-58933D01*
X40013Y-58692D01*
X40013Y-58637D01*
X39950Y-58575D01*
X39616Y-58575D01*
X39616Y-58830D01*
X39678Y-58893D01*
X39713Y-58893D01*
X39812Y-58892D01*
X39904Y-58854D01*
X39975Y-58784D01*
X40013Y-58692D01*
X40013Y-58933D01*
X39921Y-59025D01*
X39913Y-59025D01*
X39876Y-58987D01*
X39802Y-58957D01*
X39723Y-58956D01*
X39516Y-58956D01*
X39516Y-58830D01*
X39516Y-58575D01*
X39181Y-58575D01*
X39119Y-58637D01*
X39118Y-58692D01*
X39156Y-58784D01*
X39227Y-58854D01*
X39319Y-58892D01*
X39418Y-58893D01*
X39453Y-58893D01*
X39516Y-58830D01*
X39516Y-58956D01*
X39329Y-58956D01*
X39255Y-58987D01*
X39199Y-59043D01*
X39169Y-59117D01*
X39168Y-59196D01*
X39168Y-59432D01*
X39199Y-59506D01*
X39255Y-59562D01*
X39329Y-59592D01*
X39408Y-59593D01*
X39802Y-59593D01*
X39876Y-59562D01*
X39913Y-59525D01*
X40025Y-59525D01*
X40120Y-59505D01*
X40201Y-59451D01*
X41100Y-58553D01*
X41100Y-58625D01*
X39925Y-59800D01*
X39550Y-59800D01*
X37600Y-59800D01*
X37600Y-59760D01*
X37569Y-59686D01*
X37513Y-59630D01*
X37439Y-59600D01*
X37360Y-59599D01*
X37199Y-59599D01*
X37382Y-59524D01*
X37523Y-59383D01*
X37537Y-59350D01*
X38534Y-59350D01*
X38629Y-59330D01*
X38710Y-59276D01*
X38769Y-59218D01*
X38970Y-59218D01*
X39044Y-59187D01*
X39100Y-59131D01*
X39130Y-59057D01*
X39131Y-58978D01*
X39131Y-58742D01*
X39100Y-58668D01*
X39044Y-58612D01*
X38970Y-58582D01*
X38891Y-58581D01*
X38497Y-58581D01*
X38423Y-58612D01*
X38367Y-58668D01*
X38337Y-58742D01*
X38336Y-58821D01*
X38336Y-58850D01*
X37537Y-58850D01*
X37524Y-58817D01*
X37383Y-58676D01*
X37199Y-58600D01*
X37000Y-58599D01*
X36817Y-58675D01*
X36676Y-58816D01*
X36600Y-59000D01*
X36599Y-59199D01*
X36675Y-59382D01*
X36816Y-59523D01*
X37000Y-59599D01*
X37060Y-59599D01*
X36760Y-59599D01*
X36686Y-59630D01*
X36630Y-59686D01*
X36600Y-59760D01*
X36599Y-59839D01*
X36599Y-60439D01*
X36630Y-60513D01*
X36686Y-60569D01*
X36760Y-60599D01*
X36839Y-60600D01*
X37439Y-60600D01*
X37513Y-60569D01*
X37569Y-60513D01*
X37599Y-60439D01*
X37600Y-60400D01*
X39550Y-60400D01*
X40050Y-60400D01*
X40050Y-60399D01*
X40164Y-60377D01*
X40164Y-60377D01*
X40262Y-60312D01*
X41612Y-58962D01*
X41612Y-58962D01*
X41677Y-58864D01*
X41699Y-58750D01*
X41700Y-58750D01*
X41700Y-58199D01*
X41775Y-58382D01*
X41916Y-58523D01*
X42100Y-58599D01*
X42299Y-58600D01*
X42482Y-58524D01*
X42623Y-58383D01*
X42699Y-58199D01*
X42699Y-58153D01*
X42699Y-58199D01*
X42775Y-58382D01*
X42916Y-58523D01*
X43100Y-58599D01*
X43299Y-58600D01*
X43482Y-58524D01*
X43623Y-58383D01*
X43637Y-58350D01*
X49350Y-58350D01*
X49445Y-58330D01*
X49526Y-58276D01*
X53728Y-54074D01*
X53824Y-54075D01*
X53962Y-54018D01*
X54067Y-53912D01*
X54124Y-53774D01*
X54125Y-53625D01*
X54068Y-53487D01*
X53962Y-53382D01*
X53824Y-53325D01*
X53675Y-53324D01*
X53537Y-53381D01*
X53432Y-53487D01*
X53375Y-53625D01*
X53374Y-53721D01*
X49246Y-57850D01*
X48900Y-57850D01*
X48900Y-57849D01*
X48901Y-57849D01*
X48948Y-57840D01*
X48995Y-57830D01*
X48996Y-57830D01*
X48996Y-57830D01*
X49036Y-57803D01*
X49076Y-57776D01*
X49077Y-57776D01*
X49077Y-57775D01*
X53754Y-53050D01*
X54100Y-53050D01*
X54195Y-53030D01*
X54276Y-52976D01*
X54428Y-52824D01*
X54524Y-52825D01*
X54662Y-52768D01*
X54767Y-52662D01*
X54824Y-52524D01*
X54825Y-52375D01*
X54768Y-52237D01*
X54662Y-52132D01*
X54524Y-52075D01*
X54455Y-52075D01*
X54467Y-52062D01*
X54524Y-51924D01*
X54525Y-51775D01*
X54468Y-51637D01*
X54362Y-51532D01*
X54298Y-51505D01*
X54478Y-51324D01*
X54574Y-51325D01*
X54712Y-51268D01*
X54817Y-51162D01*
X54874Y-51024D01*
X54875Y-50875D01*
X54818Y-50737D01*
X54712Y-50632D01*
X54683Y-50620D01*
X54978Y-50324D01*
X55074Y-50325D01*
X55181Y-50280D01*
X55181Y-58599D01*
X55111Y-58669D01*
X55036Y-58851D01*
X55036Y-59048D01*
X55111Y-59230D01*
X55250Y-59369D01*
X55432Y-59445D01*
X55629Y-59445D01*
X55811Y-59370D01*
X55951Y-59230D01*
X56026Y-59048D01*
X56026Y-58851D01*
X55951Y-58669D01*
X55881Y-58599D01*
X55881Y-47563D01*
X56144Y-47300D01*
X56550Y-47300D01*
X56670Y-47276D01*
X56173Y-47773D01*
X56119Y-47854D01*
X56100Y-47950D01*
X56100Y-49219D01*
X56032Y-49287D01*
X55975Y-49425D01*
X55974Y-49574D01*
X56031Y-49712D01*
X56137Y-49817D01*
X56275Y-49874D01*
X56424Y-49875D01*
X56500Y-49843D01*
X56500Y-54296D01*
X56321Y-54475D01*
X56225Y-54474D01*
X56087Y-54531D01*
X55982Y-54637D01*
X55925Y-54775D01*
X55924Y-54924D01*
X55981Y-55062D01*
X56087Y-55167D01*
X56225Y-55224D01*
X56374Y-55225D01*
X56512Y-55168D01*
X56617Y-55062D01*
X56674Y-54924D01*
X56675Y-54828D01*
X56926Y-54576D01*
X56980Y-54495D01*
X57000Y-54400D01*
X57000Y-53530D01*
X57037Y-53567D01*
X57175Y-53624D01*
X57324Y-53625D01*
X57462Y-53568D01*
X57567Y-53462D01*
X57624Y-53324D01*
X57625Y-53175D01*
X57568Y-53037D01*
X57500Y-52969D01*
X57500Y-48553D01*
X59476Y-46576D01*
X59530Y-46495D01*
X59550Y-46400D01*
X59550Y-45980D01*
X59617Y-45912D01*
X59674Y-45774D01*
X59675Y-45625D01*
X59618Y-45487D01*
X59512Y-45382D01*
X59374Y-45325D01*
X59225Y-45324D01*
X59087Y-45381D01*
X58999Y-45469D01*
X58962Y-45432D01*
X58824Y-45375D01*
X58675Y-45374D01*
X58580Y-45414D01*
X59247Y-44747D01*
X59323Y-44633D01*
X59350Y-44500D01*
X59350Y-43280D01*
X59437Y-43367D01*
X59575Y-43424D01*
X59671Y-43425D01*
X59771Y-43525D01*
X59675Y-43524D01*
X59537Y-43581D01*
X59432Y-43687D01*
X59375Y-43825D01*
X59374Y-43974D01*
X59431Y-44112D01*
X59537Y-44217D01*
X59675Y-44274D01*
X59771Y-44275D01*
X60051Y-44555D01*
X59987Y-44581D01*
X59882Y-44687D01*
X59825Y-44825D01*
X59824Y-44974D01*
X59881Y-45112D01*
X59950Y-45180D01*
X59950Y-52000D01*
X59969Y-52095D01*
X60023Y-52176D01*
X60832Y-52986D01*
X60825Y-53005D01*
X60824Y-53194D01*
X60897Y-53368D01*
X61030Y-53502D01*
X61050Y-53510D01*
X61050Y-55689D01*
X61031Y-55697D01*
X60897Y-55830D01*
X60825Y-56005D01*
X60824Y-56194D01*
X60897Y-56368D01*
X61030Y-56502D01*
X61050Y-56510D01*
X61050Y-57375D01*
X61069Y-57470D01*
X61123Y-57551D01*
X61374Y-57803D01*
X61374Y-58139D01*
X61405Y-58213D01*
X61461Y-58269D01*
X61535Y-58299D01*
X61600Y-58300D01*
X61600Y-60150D01*
X61619Y-60245D01*
X61673Y-60326D01*
X62373Y-61026D01*
X62373Y-61026D01*
X62454Y-61080D01*
X62454Y-61080D01*
X62530Y-61096D01*
X62549Y-61100D01*
X62549Y-61099D01*
X62550Y-61100D01*
X65150Y-61100D01*
X65245Y-61080D01*
X65326Y-61026D01*
X65831Y-60521D01*
X65900Y-60549D01*
X66099Y-60550D01*
X66282Y-60474D01*
X66423Y-60333D01*
X66499Y-60149D01*
X66500Y-59950D01*
X66424Y-59767D01*
X66283Y-59626D01*
X66220Y-59600D01*
X66349Y-59600D01*
X66441Y-59562D01*
X66511Y-59491D01*
X66549Y-59399D01*
X66550Y-59300D01*
X66550Y-58799D01*
X66549Y-58700D01*
X66511Y-58608D01*
X66441Y-58537D01*
X66349Y-58499D01*
X66112Y-58500D01*
X66050Y-58562D01*
X66050Y-59000D01*
X66487Y-59000D01*
X66550Y-58937D01*
X66550Y-58799D01*
X66550Y-59300D01*
X66550Y-59162D01*
X66487Y-59100D01*
X66050Y-59100D01*
X66050Y-59107D01*
X65950Y-59107D01*
X65950Y-59100D01*
X65942Y-59100D01*
X65942Y-59000D01*
X65950Y-59000D01*
X65950Y-58562D01*
X65887Y-58500D01*
X65750Y-58499D01*
X65750Y-55425D01*
X65810Y-55449D01*
X65889Y-55450D01*
X66489Y-55450D01*
X66563Y-55419D01*
X66619Y-55363D01*
X66649Y-55289D01*
X66650Y-55210D01*
X66650Y-55049D01*
X66725Y-55232D01*
X66866Y-55373D01*
X67050Y-55449D01*
X67249Y-55450D01*
X67432Y-55374D01*
X67573Y-55233D01*
X67620Y-55121D01*
X67668Y-55237D01*
X67764Y-55265D01*
X68079Y-54950D01*
X68079Y-55091D01*
X67834Y-55335D01*
X67862Y-55431D01*
X68068Y-55504D01*
X68286Y-55493D01*
X68437Y-55431D01*
X68465Y-55335D01*
X68465Y-62200D01*
X60018Y-62200D01*
X60018Y-59030D01*
X60007Y-58813D01*
X59945Y-58664D01*
X59850Y-58638D01*
X59780Y-58708D01*
X59780Y-58567D01*
X59753Y-58472D01*
X59549Y-58399D01*
X59549Y-58399D01*
X59549Y-54936D01*
X59549Y-54563D01*
X59548Y-54464D01*
X59510Y-54372D01*
X59440Y-54301D01*
X59348Y-54263D01*
X59325Y-54263D01*
X59325Y-47675D01*
X59268Y-47537D01*
X59162Y-47432D01*
X59024Y-47375D01*
X58875Y-47374D01*
X58737Y-47431D01*
X58632Y-47537D01*
X58575Y-47675D01*
X58575Y-47700D01*
X58487Y-47787D01*
X58422Y-47885D01*
X58400Y-48000D01*
X58400Y-52049D01*
X58385Y-52049D01*
X58311Y-52080D01*
X58255Y-52136D01*
X58225Y-52210D01*
X58224Y-52289D01*
X58224Y-52639D01*
X58255Y-52713D01*
X58311Y-52769D01*
X58385Y-52799D01*
X58385Y-52799D01*
X58311Y-52830D01*
X58255Y-52886D01*
X58225Y-52960D01*
X58224Y-53039D01*
X58224Y-53150D01*
X58024Y-53350D01*
X57959Y-53448D01*
X57937Y-53563D01*
X57937Y-54324D01*
X57887Y-54344D01*
X57831Y-54400D01*
X57801Y-54474D01*
X57800Y-54553D01*
X57800Y-55025D01*
X57831Y-55099D01*
X57887Y-55155D01*
X57961Y-55185D01*
X58040Y-55186D01*
X58512Y-55186D01*
X58586Y-55155D01*
X58614Y-55126D01*
X58615Y-55127D01*
X58685Y-55198D01*
X58777Y-55236D01*
X58950Y-55236D01*
X59013Y-55173D01*
X59013Y-54800D01*
X59005Y-54800D01*
X59005Y-54700D01*
X59013Y-54700D01*
X59013Y-54326D01*
X58950Y-54264D01*
X58777Y-54263D01*
X58685Y-54301D01*
X58615Y-54372D01*
X58614Y-54373D01*
X58586Y-54344D01*
X58537Y-54324D01*
X58537Y-53687D01*
X58674Y-53550D01*
X59014Y-53550D01*
X59088Y-53519D01*
X59144Y-53463D01*
X59174Y-53389D01*
X59175Y-53310D01*
X59175Y-52960D01*
X59144Y-52886D01*
X59088Y-52830D01*
X59014Y-52800D01*
X59014Y-52800D01*
X59088Y-52769D01*
X59144Y-52713D01*
X59174Y-52639D01*
X59175Y-52560D01*
X59175Y-52210D01*
X59144Y-52136D01*
X59088Y-52080D01*
X59014Y-52050D01*
X59000Y-52050D01*
X59000Y-48125D01*
X59024Y-48125D01*
X59162Y-48068D01*
X59267Y-47962D01*
X59324Y-47824D01*
X59325Y-47675D01*
X59325Y-54263D01*
X59175Y-54264D01*
X59113Y-54326D01*
X59113Y-54700D01*
X59486Y-54700D01*
X59549Y-54637D01*
X59549Y-54563D01*
X59549Y-54936D01*
X59549Y-54862D01*
X59486Y-54800D01*
X59113Y-54800D01*
X59113Y-55173D01*
X59175Y-55236D01*
X59348Y-55236D01*
X59440Y-55198D01*
X59510Y-55127D01*
X59548Y-55035D01*
X59549Y-54936D01*
X59549Y-58399D01*
X59332Y-58410D01*
X59183Y-58472D01*
X59156Y-58567D01*
X59468Y-58879D01*
X59780Y-58567D01*
X59780Y-58708D01*
X59539Y-58950D01*
X59850Y-59261D01*
X59945Y-59235D01*
X60018Y-59030D01*
X60018Y-62200D01*
X59780Y-62200D01*
X59780Y-59332D01*
X59468Y-59020D01*
X59397Y-59091D01*
X59397Y-58950D01*
X59086Y-58638D01*
X58991Y-58664D01*
X58918Y-58869D01*
X58929Y-59086D01*
X58991Y-59235D01*
X59086Y-59261D01*
X59397Y-58950D01*
X59397Y-59091D01*
X59156Y-59332D01*
X59183Y-59427D01*
X59387Y-59500D01*
X59604Y-59489D01*
X59753Y-59427D01*
X59780Y-59332D01*
X59780Y-62200D01*
X57995Y-62200D01*
X57995Y-58851D01*
X57920Y-58669D01*
X57780Y-58530D01*
X57598Y-58454D01*
X57401Y-58454D01*
X57219Y-58529D01*
X57080Y-58669D01*
X57004Y-58851D01*
X57004Y-59048D01*
X57079Y-59230D01*
X57219Y-59369D01*
X57401Y-59445D01*
X57598Y-59445D01*
X57780Y-59370D01*
X57919Y-59230D01*
X57995Y-59048D01*
X57995Y-58851D01*
X57995Y-62200D01*
X54825Y-62200D01*
X54825Y-54825D01*
X54768Y-54687D01*
X54662Y-54582D01*
X54524Y-54525D01*
X54375Y-54524D01*
X54237Y-54581D01*
X54132Y-54687D01*
X54075Y-54825D01*
X54074Y-54921D01*
X53646Y-55350D01*
X53030Y-55350D01*
X52962Y-55282D01*
X52824Y-55225D01*
X52675Y-55224D01*
X52537Y-55281D01*
X52432Y-55387D01*
X52375Y-55525D01*
X52374Y-55674D01*
X52431Y-55812D01*
X52537Y-55917D01*
X52675Y-55974D01*
X52824Y-55975D01*
X52962Y-55918D01*
X53030Y-55850D01*
X53750Y-55850D01*
X53845Y-55830D01*
X53926Y-55776D01*
X54428Y-55274D01*
X54524Y-55275D01*
X54662Y-55218D01*
X54767Y-55112D01*
X54824Y-54974D01*
X54825Y-54825D01*
X54825Y-62200D01*
X35650Y-62200D01*
X35650Y-28450D01*
X68800Y-28450D01*
X68800Y-62200D01*
M02*
