G04 (created by PCBNEW (2013-may-18)-stable) date Sun 14 Jun 2015 08:39:56 PM EDT*
%MOIN*%
G04 Gerber Fmt 3.4, Leading zero omitted, Abs format*
%FSLAX34Y34*%
G01*
G70*
G90*
G04 APERTURE LIST*
%ADD10C,0.00590551*%
%ADD11C,0.035*%
%ADD12C,0.055*%
%ADD13R,0.06X0.06*%
%ADD14C,0.06*%
%ADD15C,0.0590551*%
%ADD16C,0.18*%
%ADD17C,0.045*%
G04 APERTURE END LIST*
G54D10*
G54D11*
X40100Y-53500D03*
X40250Y-55250D03*
X42400Y-49100D03*
X47300Y-46600D03*
X46300Y-47650D03*
X44650Y-48350D03*
X44300Y-45100D03*
X40850Y-47900D03*
X41850Y-46850D03*
X48650Y-53650D03*
X57950Y-51600D03*
X59500Y-51550D03*
X59550Y-47000D03*
X63750Y-49500D03*
X63150Y-50150D03*
X47350Y-53850D03*
X44750Y-53750D03*
X54275Y-35325D03*
X51650Y-58350D03*
X48800Y-52450D03*
X57950Y-56300D03*
X59650Y-47600D03*
X62850Y-36600D03*
X61500Y-37300D03*
X59400Y-39150D03*
X49575Y-34825D03*
X52925Y-33775D03*
X45775Y-33325D03*
X44275Y-34775D03*
X47075Y-43375D03*
X63250Y-41150D03*
X64600Y-40450D03*
X64550Y-43650D03*
X38150Y-58350D03*
X63200Y-44350D03*
X57550Y-45050D03*
G54D12*
X61300Y-53100D03*
X63300Y-53100D03*
X61300Y-56100D03*
X63300Y-56100D03*
G54D10*
G36*
X56033Y-38494D02*
X55644Y-38883D01*
X55396Y-38635D01*
X55785Y-38246D01*
X56033Y-38494D01*
X56033Y-38494D01*
G37*
G36*
X55503Y-37964D02*
X55114Y-38353D01*
X54866Y-38105D01*
X55255Y-37716D01*
X55503Y-37964D01*
X55503Y-37964D01*
G37*
G36*
X50255Y-38233D02*
X49866Y-37844D01*
X50114Y-37596D01*
X50503Y-37985D01*
X50255Y-38233D01*
X50255Y-38233D01*
G37*
G36*
X50785Y-37703D02*
X50396Y-37314D01*
X50644Y-37066D01*
X51033Y-37455D01*
X50785Y-37703D01*
X50785Y-37703D01*
G37*
G36*
X49883Y-44294D02*
X49494Y-44683D01*
X49246Y-44435D01*
X49635Y-44046D01*
X49883Y-44294D01*
X49883Y-44294D01*
G37*
G36*
X49353Y-43764D02*
X48964Y-44153D01*
X48716Y-43905D01*
X49105Y-43516D01*
X49353Y-43764D01*
X49353Y-43764D01*
G37*
G36*
X56844Y-44066D02*
X57233Y-44455D01*
X56985Y-44703D01*
X56596Y-44314D01*
X56844Y-44066D01*
X56844Y-44066D01*
G37*
G36*
X56314Y-44596D02*
X56703Y-44985D01*
X56455Y-45233D01*
X56066Y-44844D01*
X56314Y-44596D01*
X56314Y-44596D01*
G37*
G36*
X51333Y-45794D02*
X50944Y-46183D01*
X50696Y-45935D01*
X51085Y-45546D01*
X51333Y-45794D01*
X51333Y-45794D01*
G37*
G36*
X50803Y-45264D02*
X50414Y-45653D01*
X50166Y-45405D01*
X50555Y-45016D01*
X50803Y-45264D01*
X50803Y-45264D01*
G37*
G54D13*
X42200Y-55100D03*
G54D14*
X43200Y-55100D03*
X42200Y-56100D03*
X43200Y-56100D03*
X42200Y-57100D03*
X43200Y-57100D03*
X42200Y-58100D03*
X43200Y-58100D03*
G54D13*
X67100Y-50850D03*
G54D14*
X67100Y-49850D03*
X67100Y-40850D03*
X67100Y-47850D03*
X67100Y-38850D03*
X67100Y-45850D03*
X67100Y-36850D03*
X67100Y-43850D03*
X67100Y-34850D03*
X67100Y-41850D03*
X67100Y-32850D03*
X67100Y-39850D03*
X67100Y-37850D03*
X67100Y-35850D03*
X67100Y-33850D03*
X67100Y-31850D03*
X67100Y-48850D03*
X67100Y-46850D03*
X67100Y-44850D03*
X67100Y-42850D03*
G54D13*
X37100Y-50850D03*
G54D14*
X37100Y-49850D03*
X37100Y-40850D03*
X37100Y-47850D03*
X37100Y-38850D03*
X37100Y-45850D03*
X37100Y-36850D03*
X37100Y-43850D03*
X37100Y-34850D03*
X37100Y-41850D03*
X37100Y-32850D03*
X37100Y-39850D03*
X37100Y-37850D03*
X37100Y-35850D03*
X37100Y-33850D03*
X37100Y-31850D03*
X37100Y-48850D03*
X37100Y-46850D03*
X37100Y-44850D03*
X37100Y-42850D03*
G54D13*
X37100Y-60100D03*
G54D14*
X37100Y-59100D03*
X37100Y-58100D03*
X37100Y-57100D03*
X37100Y-56100D03*
X37100Y-55100D03*
G54D15*
X55531Y-58950D03*
X57500Y-58950D03*
X59468Y-58950D03*
G54D14*
X64000Y-60050D03*
X64000Y-59050D03*
X65000Y-60050D03*
X65000Y-59050D03*
X66000Y-60050D03*
G54D13*
X66000Y-59050D03*
G54D16*
X67100Y-30100D03*
X67100Y-52600D03*
X37100Y-30100D03*
X37100Y-52600D03*
G54D11*
X59900Y-53650D03*
G54D13*
X66150Y-54950D03*
G54D14*
X67150Y-54950D03*
X68150Y-54950D03*
G54D17*
X49900Y-52100D03*
G54D11*
X43700Y-53050D03*
X52750Y-55600D03*
X54450Y-54900D03*
X56300Y-54850D03*
X58750Y-45750D03*
X55700Y-43450D03*
X51200Y-40450D03*
X41750Y-44350D03*
X54150Y-50150D03*
X54550Y-44700D03*
X55000Y-49950D03*
X58150Y-44600D03*
X56350Y-49500D03*
X58150Y-46150D03*
X48650Y-38800D03*
X44650Y-38850D03*
X47200Y-37850D03*
X43650Y-37850D03*
X45700Y-36850D03*
X42650Y-36850D03*
X44200Y-35850D03*
X42700Y-34850D03*
X41150Y-33850D03*
X39700Y-32900D03*
X53750Y-53700D03*
X53250Y-37800D03*
X55250Y-44600D03*
X55000Y-47550D03*
X50250Y-47450D03*
X44500Y-50350D03*
X51900Y-39900D03*
X53150Y-37150D03*
X45350Y-36300D03*
X51350Y-35850D03*
X61250Y-51000D03*
X54450Y-52450D03*
X59750Y-43900D03*
X56850Y-41550D03*
X64000Y-47400D03*
X63300Y-48100D03*
X60850Y-50550D03*
X54150Y-51850D03*
X59650Y-43050D03*
X55850Y-41050D03*
X55700Y-45150D03*
X58950Y-47750D03*
X46800Y-37450D03*
X60200Y-44900D03*
X56000Y-39450D03*
X54200Y-37850D03*
X56250Y-41550D03*
X58500Y-43650D03*
X59300Y-45700D03*
X57250Y-53250D03*
X55000Y-48900D03*
X53100Y-48850D03*
X52100Y-46100D03*
X64000Y-46650D03*
X62900Y-47750D03*
X60600Y-50100D03*
X54500Y-50950D03*
X59550Y-42200D03*
X55500Y-39800D03*
X53300Y-47700D03*
X53150Y-46100D03*
X49300Y-48400D03*
X40350Y-50950D03*
X40450Y-52000D03*
X53700Y-37550D03*
X54100Y-49300D03*
X52750Y-49950D03*
X55000Y-48250D03*
X53100Y-48250D03*
X52650Y-46100D03*
X47400Y-44750D03*
X56900Y-45750D03*
X62550Y-57150D03*
X54550Y-44200D03*
X56300Y-39000D03*
X51700Y-36650D03*
X51300Y-37850D03*
X55050Y-39100D03*
X49950Y-43300D03*
X50500Y-41250D03*
X52050Y-42400D03*
X48550Y-42800D03*
X46650Y-40850D03*
X52400Y-41350D03*
X47650Y-41850D03*
X52000Y-41850D03*
X53200Y-41050D03*
X45650Y-39850D03*
X46900Y-50500D03*
X49300Y-49900D03*
X51650Y-50600D03*
X53750Y-41800D03*
X54550Y-43500D03*
X49500Y-38550D03*
X48300Y-37250D03*
X56750Y-38400D03*
X57800Y-35350D03*
X56350Y-33900D03*
X58200Y-33700D03*
X51950Y-49050D03*
X50050Y-44800D03*
X54500Y-37350D03*
X51550Y-45350D03*
M02*
