M48
INCH,TZ
T1C0.020
T2C0.025
T3C0.030
T4C0.032
T5C0.040
T6C0.043
T7C0.120
%
G90
G05
T1
X057550Y-045050
T2
X038150Y-058350
X039700Y-032900
X040100Y-053500
X040250Y-055250
X040350Y-050950
X040450Y-052000
X040850Y-047900
X041150Y-033850
X041750Y-044350
X041850Y-046850
X042400Y-049100
X042650Y-036850
X042700Y-034850
X043650Y-037850
X043700Y-053050
X044200Y-035850
X044275Y-034775
X044300Y-045100
X044500Y-050350
X044650Y-038850
X044650Y-048350
X044750Y-053750
X045350Y-036300
X045650Y-039850
X045700Y-036850
X045775Y-033325
X046300Y-047650
X046650Y-040850
X046800Y-037450
X046900Y-050500
X047075Y-043375
X047200Y-037850
X047300Y-046600
X047350Y-053850
X047400Y-044750
X047650Y-041850
X048300Y-037250
X048550Y-042800
X048650Y-038800
X048650Y-053650
X048800Y-052450
X049300Y-048400
X049300Y-049900
X049500Y-038550
X049575Y-034825
X049950Y-043300
X050050Y-044800
X050250Y-047450
X050500Y-041250
X051200Y-040450
X051300Y-037850
X051350Y-035850
X051550Y-045350
X051650Y-050600
X051650Y-058350
X051700Y-036650
X051900Y-039900
X051950Y-049050
X052000Y-041850
X052050Y-042400
X052100Y-046100
X052400Y-041350
X052650Y-046100
X052750Y-049950
X052750Y-055600
X052925Y-033775
X053100Y-048250
X053100Y-048850
X053150Y-037150
X053150Y-046100
X053200Y-041050
X053250Y-037800
X053300Y-047700
X053700Y-037550
X053750Y-041800
X053750Y-053700
X054100Y-049300
X054150Y-050150
X054150Y-051850
X054200Y-037850
X054275Y-035325
X054450Y-052450
X054450Y-054900
X054500Y-037350
X054500Y-050950
X054550Y-043500
X054550Y-044200
X054550Y-044700
X055000Y-047550
X055000Y-048250
X055000Y-048900
X055000Y-049950
X055050Y-039100
X055250Y-044600
X055500Y-039800
X055700Y-043450
X055700Y-045150
X055850Y-041050
X056000Y-039450
X056250Y-041550
X056300Y-039000
X056300Y-054850
X056350Y-033900
X056350Y-049500
X056750Y-038400
X056850Y-041550
X056900Y-045750
X057250Y-053250
X057800Y-035350
X057950Y-051600
X057950Y-056300
X058150Y-044600
X058150Y-046150
X058200Y-033700
X058500Y-043650
X058750Y-045750
X058950Y-047750
X059300Y-045700
X059400Y-039150
X059500Y-051550
X059550Y-042200
X059550Y-047000
X059650Y-043050
X059650Y-047600
X059750Y-043900
X059900Y-053650
X060200Y-044900
X060600Y-050100
X060850Y-050550
X061250Y-051000
X061500Y-037300
X062550Y-057150
X062850Y-036600
X062900Y-047750
X063150Y-050150
X063200Y-044350
X063250Y-041150
X063300Y-048100
X063750Y-049500
X064000Y-046650
X064000Y-047400
X064550Y-043650
X064600Y-040450
T3
X049900Y-052100
T4
X061300Y-053100
X061300Y-056100
X063300Y-053100
X063300Y-056100
T5
X037100Y-031850
X037100Y-032850
X037100Y-033850
X037100Y-034850
X037100Y-035850
X037100Y-036850
X037100Y-037850
X037100Y-038850
X037100Y-039850
X037100Y-040850
X037100Y-041850
X037100Y-042850
X037100Y-043850
X037100Y-044850
X037100Y-045850
X037100Y-046850
X037100Y-047850
X037100Y-048850
X037100Y-049850
X037100Y-050850
X037100Y-055100
X037100Y-056100
X037100Y-057100
X037100Y-058100
X037100Y-059100
X037100Y-060100
X042200Y-055100
X042200Y-056100
X042200Y-057100
X042200Y-058100
X043200Y-055100
X043200Y-056100
X043200Y-057100
X043200Y-058100
X064000Y-059050
X064000Y-060050
X065000Y-059050
X065000Y-060050
X066000Y-059050
X066000Y-060050
X066150Y-054950
X067100Y-031850
X067100Y-032850
X067100Y-033850
X067100Y-034850
X067100Y-035850
X067100Y-036850
X067100Y-037850
X067100Y-038850
X067100Y-039850
X067100Y-040850
X067100Y-041850
X067100Y-042850
X067100Y-043850
X067100Y-044850
X067100Y-045850
X067100Y-046850
X067100Y-047850
X067100Y-048850
X067100Y-049850
X067100Y-050850
X067150Y-054950
X068150Y-054950
T6
X055531Y-058950
X057500Y-058950
X059469Y-058950
T7
X037100Y-030100
X037100Y-052600
X067100Y-030100
X067100Y-052600
T0
M30
