G04 (created by PCBNEW (2013-may-18)-stable) date Sun 14 Jun 2015 08:39:56 PM EDT*
%MOIN*%
G04 Gerber Fmt 3.4, Leading zero omitted, Abs format*
%FSLAX34Y34*%
G01*
G70*
G90*
G04 APERTURE LIST*
%ADD10C,0.00590551*%
%ADD11C,0.035*%
%ADD12C,0.055*%
%ADD13R,0.06X0.06*%
%ADD14C,0.06*%
%ADD15C,0.0590551*%
%ADD16C,0.18*%
%ADD17C,0.045*%
%ADD18C,0.03*%
%ADD19C,0.01*%
%ADD20C,0.02*%
G04 APERTURE END LIST*
G54D10*
G54D11*
X40100Y-53500D03*
X40250Y-55250D03*
X42400Y-49100D03*
X47300Y-46600D03*
X46300Y-47650D03*
X44650Y-48350D03*
X44300Y-45100D03*
X40850Y-47900D03*
X41850Y-46850D03*
X48650Y-53650D03*
X57950Y-51600D03*
X59500Y-51550D03*
X59550Y-47000D03*
X63750Y-49500D03*
X63150Y-50150D03*
X47350Y-53850D03*
X44750Y-53750D03*
X54275Y-35325D03*
X51650Y-58350D03*
X48800Y-52450D03*
X57950Y-56300D03*
X59650Y-47600D03*
X62850Y-36600D03*
X61500Y-37300D03*
X59400Y-39150D03*
X49575Y-34825D03*
X52925Y-33775D03*
X45775Y-33325D03*
X44275Y-34775D03*
X47075Y-43375D03*
X63250Y-41150D03*
X64600Y-40450D03*
X64550Y-43650D03*
X38150Y-58350D03*
X63200Y-44350D03*
X57550Y-45050D03*
G54D12*
X61300Y-53100D03*
X63300Y-53100D03*
X61300Y-56100D03*
X63300Y-56100D03*
G54D10*
G36*
X56033Y-38494D02*
X55644Y-38883D01*
X55396Y-38635D01*
X55785Y-38246D01*
X56033Y-38494D01*
X56033Y-38494D01*
G37*
G36*
X55503Y-37964D02*
X55114Y-38353D01*
X54866Y-38105D01*
X55255Y-37716D01*
X55503Y-37964D01*
X55503Y-37964D01*
G37*
G36*
X50255Y-38233D02*
X49866Y-37844D01*
X50114Y-37596D01*
X50503Y-37985D01*
X50255Y-38233D01*
X50255Y-38233D01*
G37*
G36*
X50785Y-37703D02*
X50396Y-37314D01*
X50644Y-37066D01*
X51033Y-37455D01*
X50785Y-37703D01*
X50785Y-37703D01*
G37*
G36*
X49883Y-44294D02*
X49494Y-44683D01*
X49246Y-44435D01*
X49635Y-44046D01*
X49883Y-44294D01*
X49883Y-44294D01*
G37*
G36*
X49353Y-43764D02*
X48964Y-44153D01*
X48716Y-43905D01*
X49105Y-43516D01*
X49353Y-43764D01*
X49353Y-43764D01*
G37*
G36*
X56844Y-44066D02*
X57233Y-44455D01*
X56985Y-44703D01*
X56596Y-44314D01*
X56844Y-44066D01*
X56844Y-44066D01*
G37*
G36*
X56314Y-44596D02*
X56703Y-44985D01*
X56455Y-45233D01*
X56066Y-44844D01*
X56314Y-44596D01*
X56314Y-44596D01*
G37*
G36*
X51333Y-45794D02*
X50944Y-46183D01*
X50696Y-45935D01*
X51085Y-45546D01*
X51333Y-45794D01*
X51333Y-45794D01*
G37*
G36*
X50803Y-45264D02*
X50414Y-45653D01*
X50166Y-45405D01*
X50555Y-45016D01*
X50803Y-45264D01*
X50803Y-45264D01*
G37*
G54D13*
X42200Y-55100D03*
G54D14*
X43200Y-55100D03*
X42200Y-56100D03*
X43200Y-56100D03*
X42200Y-57100D03*
X43200Y-57100D03*
X42200Y-58100D03*
X43200Y-58100D03*
G54D13*
X67100Y-50850D03*
G54D14*
X67100Y-49850D03*
X67100Y-40850D03*
X67100Y-47850D03*
X67100Y-38850D03*
X67100Y-45850D03*
X67100Y-36850D03*
X67100Y-43850D03*
X67100Y-34850D03*
X67100Y-41850D03*
X67100Y-32850D03*
X67100Y-39850D03*
X67100Y-37850D03*
X67100Y-35850D03*
X67100Y-33850D03*
X67100Y-31850D03*
X67100Y-48850D03*
X67100Y-46850D03*
X67100Y-44850D03*
X67100Y-42850D03*
G54D13*
X37100Y-50850D03*
G54D14*
X37100Y-49850D03*
X37100Y-40850D03*
X37100Y-47850D03*
X37100Y-38850D03*
X37100Y-45850D03*
X37100Y-36850D03*
X37100Y-43850D03*
X37100Y-34850D03*
X37100Y-41850D03*
X37100Y-32850D03*
X37100Y-39850D03*
X37100Y-37850D03*
X37100Y-35850D03*
X37100Y-33850D03*
X37100Y-31850D03*
X37100Y-48850D03*
X37100Y-46850D03*
X37100Y-44850D03*
X37100Y-42850D03*
G54D13*
X37100Y-60100D03*
G54D14*
X37100Y-59100D03*
X37100Y-58100D03*
X37100Y-57100D03*
X37100Y-56100D03*
X37100Y-55100D03*
G54D15*
X55531Y-58950D03*
X57500Y-58950D03*
X59468Y-58950D03*
G54D14*
X64000Y-60050D03*
X64000Y-59050D03*
X65000Y-60050D03*
X65000Y-59050D03*
X66000Y-60050D03*
G54D13*
X66000Y-59050D03*
G54D16*
X67100Y-30100D03*
X67100Y-52600D03*
X37100Y-30100D03*
X37100Y-52600D03*
G54D11*
X59900Y-53650D03*
G54D13*
X66150Y-54950D03*
G54D14*
X67150Y-54950D03*
X68150Y-54950D03*
G54D17*
X49900Y-52100D03*
G54D11*
X43700Y-53050D03*
X52750Y-55600D03*
X54450Y-54900D03*
X56300Y-54850D03*
X58750Y-45750D03*
X55700Y-43450D03*
X51200Y-40450D03*
X41750Y-44350D03*
X54150Y-50150D03*
X54550Y-44700D03*
X55000Y-49950D03*
X58150Y-44600D03*
X56350Y-49500D03*
X58150Y-46150D03*
X48650Y-38800D03*
X44650Y-38850D03*
X47200Y-37850D03*
X43650Y-37850D03*
X45700Y-36850D03*
X42650Y-36850D03*
X44200Y-35850D03*
X42700Y-34850D03*
X41150Y-33850D03*
X39700Y-32900D03*
X53750Y-53700D03*
X53250Y-37800D03*
X55250Y-44600D03*
X55000Y-47550D03*
X50250Y-47450D03*
X44500Y-50350D03*
X51900Y-39900D03*
X53150Y-37150D03*
X45350Y-36300D03*
X51350Y-35850D03*
X61250Y-51000D03*
X54450Y-52450D03*
X59750Y-43900D03*
X56850Y-41550D03*
X64000Y-47400D03*
X63300Y-48100D03*
X60850Y-50550D03*
X54150Y-51850D03*
X59650Y-43050D03*
X55850Y-41050D03*
X55700Y-45150D03*
X58950Y-47750D03*
X46800Y-37450D03*
X60200Y-44900D03*
X56000Y-39450D03*
X54200Y-37850D03*
X56250Y-41550D03*
X58500Y-43650D03*
X59300Y-45700D03*
X57250Y-53250D03*
X55000Y-48900D03*
X53100Y-48850D03*
X52100Y-46100D03*
X64000Y-46650D03*
X62900Y-47750D03*
X60600Y-50100D03*
X54500Y-50950D03*
X59550Y-42200D03*
X55500Y-39800D03*
X53300Y-47700D03*
X53150Y-46100D03*
X49300Y-48400D03*
X40350Y-50950D03*
X40450Y-52000D03*
X53700Y-37550D03*
X54100Y-49300D03*
X52750Y-49950D03*
X55000Y-48250D03*
X53100Y-48250D03*
X52650Y-46100D03*
X47400Y-44750D03*
X56900Y-45750D03*
X62550Y-57150D03*
X54550Y-44200D03*
X56300Y-39000D03*
X51700Y-36650D03*
X51300Y-37850D03*
X55050Y-39100D03*
X49950Y-43300D03*
X50500Y-41250D03*
X52050Y-42400D03*
X48550Y-42800D03*
X46650Y-40850D03*
X52400Y-41350D03*
X47650Y-41850D03*
X52000Y-41850D03*
X53200Y-41050D03*
X45650Y-39850D03*
X46900Y-50500D03*
X49300Y-49900D03*
X51650Y-50600D03*
X53750Y-41800D03*
X54550Y-43500D03*
X49500Y-38550D03*
X48300Y-37250D03*
X56750Y-38400D03*
X57800Y-35350D03*
X56350Y-33900D03*
X58200Y-33700D03*
X51950Y-49050D03*
X50050Y-44800D03*
X54500Y-37350D03*
X51550Y-45350D03*
G54D18*
X49900Y-52100D02*
X49900Y-52100D01*
X50650Y-52100D02*
X53700Y-55150D01*
X50650Y-52100D02*
X49900Y-52100D01*
X57500Y-58950D02*
X53700Y-55150D01*
X53700Y-55150D02*
X53700Y-55150D01*
G54D19*
X50200Y-53050D02*
X43700Y-53050D01*
X52750Y-55600D02*
X50200Y-53050D01*
X56250Y-54900D02*
X54450Y-54900D01*
X56300Y-54850D02*
X56250Y-54900D01*
X58750Y-45100D02*
X58750Y-45750D01*
X58750Y-44400D02*
X58750Y-45100D01*
X58750Y-45100D02*
X58750Y-45150D01*
X57800Y-43450D02*
X58750Y-44400D01*
X55700Y-43450D02*
X57800Y-43450D01*
X41750Y-44350D02*
X45650Y-40450D01*
X45650Y-40450D02*
X51200Y-40450D01*
X54550Y-44700D02*
X54550Y-45750D01*
X54550Y-45750D02*
X54550Y-49750D01*
X54550Y-49750D02*
X54150Y-50150D01*
X58150Y-45150D02*
X58150Y-46150D01*
X55400Y-49950D02*
X55500Y-49950D01*
X55000Y-49950D02*
X55400Y-49950D01*
X58150Y-45150D02*
X58150Y-44600D01*
X55900Y-49950D02*
X55500Y-49950D01*
X56350Y-49500D02*
X55900Y-49950D01*
X44700Y-38800D02*
X48650Y-38800D01*
X44650Y-38850D02*
X44700Y-38800D01*
X43650Y-37850D02*
X47200Y-37850D01*
X42650Y-36850D02*
X45700Y-36850D01*
X37100Y-35850D02*
X41650Y-35850D01*
X41650Y-35850D02*
X44200Y-35850D01*
X37100Y-34850D02*
X40650Y-34850D01*
X40650Y-34850D02*
X42700Y-34850D01*
X37100Y-33850D02*
X39650Y-33850D01*
X39650Y-33850D02*
X41150Y-33850D01*
X38600Y-32900D02*
X37150Y-32900D01*
X38600Y-32900D02*
X39650Y-32900D01*
X39650Y-32900D02*
X39700Y-32900D01*
X37150Y-32900D02*
X37100Y-32850D01*
X53850Y-40750D02*
X54900Y-41800D01*
X53250Y-40150D02*
X53850Y-40750D01*
X53250Y-37800D02*
X53250Y-40150D01*
X53750Y-43300D02*
X53750Y-53700D01*
X54900Y-42150D02*
X53750Y-43300D01*
X54900Y-41800D02*
X54900Y-42150D01*
X55250Y-47300D02*
X55250Y-44600D01*
X55000Y-47550D02*
X55250Y-47300D01*
X47400Y-47450D02*
X50250Y-47450D01*
X44500Y-50350D02*
X47400Y-47450D01*
X37100Y-48850D02*
X37100Y-48700D01*
X38450Y-46350D02*
X45500Y-39300D01*
X36800Y-46350D02*
X38450Y-46350D01*
X36400Y-46750D02*
X36800Y-46350D01*
X36400Y-48000D02*
X36400Y-46750D01*
X37100Y-48700D02*
X36400Y-48000D01*
X49400Y-39300D02*
X51050Y-39300D01*
X45500Y-39300D02*
X49400Y-39300D01*
X51650Y-39900D02*
X51900Y-39900D01*
X51050Y-39300D02*
X51650Y-39900D01*
X51350Y-35850D02*
X51850Y-35850D01*
X51850Y-35850D02*
X53150Y-37150D01*
X45300Y-36350D02*
X45350Y-36300D01*
X37700Y-44850D02*
X37100Y-44850D01*
X37700Y-44850D02*
X38000Y-44550D01*
X38000Y-39600D02*
X41250Y-36350D01*
X38000Y-44550D02*
X38000Y-39600D01*
X41250Y-36350D02*
X45300Y-36350D01*
X55900Y-51000D02*
X61250Y-51000D01*
X54450Y-52450D02*
X55900Y-51000D01*
X59750Y-43900D02*
X57400Y-41550D01*
X57400Y-41550D02*
X56850Y-41550D01*
X63300Y-48100D02*
X64000Y-47400D01*
X60750Y-50650D02*
X60850Y-50550D01*
X55350Y-50650D02*
X60750Y-50650D01*
X54150Y-51850D02*
X55350Y-50650D01*
X59650Y-43050D02*
X57650Y-41050D01*
X57650Y-41050D02*
X55850Y-41050D01*
G54D20*
X57200Y-46650D02*
X57850Y-46650D01*
X55700Y-45150D02*
X57200Y-46650D01*
X57850Y-46650D02*
X58950Y-47750D01*
G54D19*
X37100Y-45850D02*
X37750Y-45850D01*
X41250Y-37450D02*
X46800Y-37450D01*
X39100Y-39600D02*
X41250Y-37450D01*
X39100Y-44500D02*
X39100Y-39600D01*
X37750Y-45850D02*
X39100Y-44500D01*
X60200Y-44900D02*
X60200Y-41950D01*
X60200Y-41950D02*
X57700Y-39450D01*
X57700Y-39450D02*
X56000Y-39450D01*
X42100Y-52600D02*
X39450Y-55250D01*
X54200Y-40300D02*
X55450Y-41550D01*
X54200Y-37850D02*
X54200Y-40300D01*
X55450Y-41550D02*
X56250Y-41550D01*
X58500Y-43650D02*
X59300Y-44450D01*
X59300Y-44450D02*
X59300Y-45700D01*
X46500Y-52600D02*
X42100Y-52600D01*
X47450Y-51650D02*
X46500Y-52600D01*
X50850Y-51650D02*
X47450Y-51650D01*
X53500Y-54300D02*
X50850Y-51650D01*
X56200Y-54300D02*
X53500Y-54300D01*
X57250Y-53250D02*
X56200Y-54300D01*
X39450Y-55750D02*
X37100Y-58100D01*
X39450Y-55250D02*
X39450Y-55750D01*
X65350Y-54300D02*
X65350Y-55250D01*
X55000Y-48900D02*
X57700Y-48900D01*
X57700Y-48900D02*
X59950Y-48900D01*
X59950Y-48900D02*
X65350Y-54300D01*
X52100Y-47850D02*
X53100Y-48850D01*
X52100Y-47450D02*
X52100Y-47850D01*
X52100Y-46100D02*
X52100Y-47450D01*
X66450Y-55650D02*
X67150Y-54950D01*
X65750Y-55650D02*
X66450Y-55650D01*
X65350Y-55250D02*
X65750Y-55650D01*
X62900Y-47750D02*
X64000Y-46650D01*
X60400Y-50300D02*
X60600Y-50100D01*
X55150Y-50300D02*
X60400Y-50300D01*
X54500Y-50950D02*
X55150Y-50300D01*
X59550Y-42200D02*
X57150Y-39800D01*
X57150Y-39800D02*
X55500Y-39800D01*
X40350Y-50950D02*
X44600Y-50950D01*
X53150Y-46100D02*
X53150Y-47550D01*
X53150Y-47550D02*
X53300Y-47700D01*
X47150Y-48400D02*
X49300Y-48400D01*
X44600Y-50950D02*
X47150Y-48400D01*
X47250Y-51100D02*
X46350Y-52000D01*
X46350Y-52000D02*
X40450Y-52000D01*
X52700Y-50250D02*
X52700Y-50000D01*
X51850Y-51100D02*
X47250Y-51100D01*
X52200Y-50750D02*
X51850Y-51100D01*
X52700Y-50250D02*
X52200Y-50750D01*
X52700Y-50000D02*
X52750Y-49950D01*
X55300Y-41800D02*
X55300Y-42250D01*
X55300Y-42250D02*
X54100Y-43450D01*
X53700Y-37550D02*
X53650Y-37600D01*
X53650Y-37600D02*
X53650Y-40150D01*
X53650Y-40150D02*
X54150Y-40650D01*
X54100Y-43450D02*
X54100Y-49300D01*
X54150Y-40650D02*
X55300Y-41800D01*
X66150Y-54950D02*
X66150Y-54250D01*
X66150Y-54250D02*
X65850Y-53950D01*
X57700Y-48250D02*
X60150Y-48250D01*
X55000Y-48250D02*
X57700Y-48250D01*
X60150Y-48250D02*
X65850Y-53950D01*
X65850Y-53950D02*
X65875Y-53975D01*
X52650Y-47800D02*
X53100Y-48250D01*
X52650Y-46100D02*
X52650Y-47500D01*
X52650Y-47500D02*
X52650Y-47800D01*
X49034Y-43834D02*
X48315Y-43834D01*
X48315Y-43834D02*
X47400Y-44750D01*
G54D18*
X56300Y-60000D02*
X56050Y-60000D01*
X56300Y-60000D02*
X62400Y-60000D01*
X63100Y-59300D02*
X62400Y-60000D01*
X55531Y-59481D02*
X55531Y-58950D01*
X56050Y-60000D02*
X55531Y-59481D01*
G54D19*
X56384Y-44915D02*
X56384Y-45234D01*
X56384Y-45234D02*
X56900Y-45750D01*
G54D18*
X63100Y-59300D02*
X63100Y-57700D01*
X63100Y-57700D02*
X62550Y-57150D01*
X63350Y-59050D02*
X64000Y-59050D01*
X63100Y-59300D02*
X63350Y-59050D01*
G54D19*
X56215Y-44915D02*
X56384Y-44915D01*
X55500Y-44200D02*
X56215Y-44915D01*
X54550Y-44200D02*
X55500Y-44200D01*
X55865Y-38565D02*
X55715Y-38565D01*
X56300Y-39000D02*
X55865Y-38565D01*
X50965Y-37384D02*
X50715Y-37384D01*
X51700Y-36650D02*
X50965Y-37384D01*
X50834Y-37384D02*
X50715Y-37384D01*
X51300Y-37850D02*
X50834Y-37384D01*
X55050Y-39100D02*
X55534Y-38565D01*
X55534Y-38565D02*
X55715Y-38565D01*
X49950Y-43300D02*
X49415Y-43834D01*
X49415Y-43834D02*
X49034Y-43834D01*
X45450Y-41250D02*
X50500Y-41250D01*
X39850Y-46850D02*
X45450Y-41250D01*
X39850Y-46850D02*
X37100Y-46850D01*
X48950Y-42400D02*
X52050Y-42400D01*
X48550Y-42800D02*
X48950Y-42400D01*
X46650Y-40850D02*
X46700Y-40900D01*
X46700Y-40900D02*
X51650Y-40900D01*
X51650Y-40900D02*
X52400Y-41350D01*
X47650Y-41850D02*
X52000Y-41850D01*
X51100Y-39850D02*
X53200Y-41050D01*
X45650Y-39850D02*
X51100Y-39850D01*
X50134Y-37915D02*
X49500Y-38550D01*
X50184Y-37915D02*
X50134Y-37915D01*
X49565Y-44365D02*
X49615Y-44365D01*
X50484Y-45234D02*
X50050Y-44800D01*
X50484Y-45234D02*
X50484Y-45334D01*
X49615Y-44365D02*
X50050Y-44800D01*
X55184Y-38034D02*
X54500Y-37350D01*
X51034Y-45865D02*
X51015Y-45865D01*
X51550Y-45350D02*
X51034Y-45865D01*
G54D10*
G36*
X68800Y-62200D02*
X68704Y-62200D01*
X68704Y-55031D01*
X68693Y-54813D01*
X68631Y-54662D01*
X68535Y-54634D01*
X68465Y-54705D01*
X68465Y-54564D01*
X68437Y-54468D01*
X68250Y-54401D01*
X68250Y-52372D01*
X68250Y-29872D01*
X68075Y-29449D01*
X67752Y-29125D01*
X67329Y-28950D01*
X66872Y-28949D01*
X66449Y-29124D01*
X66125Y-29447D01*
X65950Y-29870D01*
X65949Y-30327D01*
X66124Y-30750D01*
X66447Y-31074D01*
X66870Y-31249D01*
X67327Y-31250D01*
X67750Y-31075D01*
X68074Y-30752D01*
X68249Y-30329D01*
X68250Y-29872D01*
X68250Y-52372D01*
X68075Y-51949D01*
X67752Y-51625D01*
X67600Y-51562D01*
X67600Y-49750D01*
X67600Y-48750D01*
X67600Y-47750D01*
X67600Y-46750D01*
X67600Y-45750D01*
X67600Y-44750D01*
X67600Y-43750D01*
X67600Y-42750D01*
X67600Y-41750D01*
X67600Y-40750D01*
X67600Y-39750D01*
X67600Y-38750D01*
X67600Y-37750D01*
X67600Y-36750D01*
X67600Y-35750D01*
X67600Y-34750D01*
X67600Y-33750D01*
X67600Y-32750D01*
X67600Y-31750D01*
X67524Y-31567D01*
X67383Y-31426D01*
X67199Y-31350D01*
X67000Y-31349D01*
X66817Y-31425D01*
X66676Y-31566D01*
X66600Y-31750D01*
X66599Y-31949D01*
X66675Y-32132D01*
X66816Y-32273D01*
X67000Y-32349D01*
X67199Y-32350D01*
X67382Y-32274D01*
X67523Y-32133D01*
X67599Y-31949D01*
X67600Y-31750D01*
X67600Y-32750D01*
X67524Y-32567D01*
X67383Y-32426D01*
X67199Y-32350D01*
X67000Y-32349D01*
X66817Y-32425D01*
X66676Y-32566D01*
X66600Y-32750D01*
X66599Y-32949D01*
X66675Y-33132D01*
X66816Y-33273D01*
X67000Y-33349D01*
X67199Y-33350D01*
X67382Y-33274D01*
X67523Y-33133D01*
X67599Y-32949D01*
X67600Y-32750D01*
X67600Y-33750D01*
X67524Y-33567D01*
X67383Y-33426D01*
X67199Y-33350D01*
X67000Y-33349D01*
X66817Y-33425D01*
X66676Y-33566D01*
X66600Y-33750D01*
X66599Y-33949D01*
X66675Y-34132D01*
X66816Y-34273D01*
X67000Y-34349D01*
X67199Y-34350D01*
X67382Y-34274D01*
X67523Y-34133D01*
X67599Y-33949D01*
X67600Y-33750D01*
X67600Y-34750D01*
X67524Y-34567D01*
X67383Y-34426D01*
X67199Y-34350D01*
X67000Y-34349D01*
X66817Y-34425D01*
X66676Y-34566D01*
X66600Y-34750D01*
X66599Y-34949D01*
X66675Y-35132D01*
X66816Y-35273D01*
X67000Y-35349D01*
X67199Y-35350D01*
X67382Y-35274D01*
X67523Y-35133D01*
X67599Y-34949D01*
X67600Y-34750D01*
X67600Y-35750D01*
X67524Y-35567D01*
X67383Y-35426D01*
X67199Y-35350D01*
X67000Y-35349D01*
X66817Y-35425D01*
X66676Y-35566D01*
X66600Y-35750D01*
X66599Y-35949D01*
X66675Y-36132D01*
X66816Y-36273D01*
X67000Y-36349D01*
X67199Y-36350D01*
X67382Y-36274D01*
X67523Y-36133D01*
X67599Y-35949D01*
X67600Y-35750D01*
X67600Y-36750D01*
X67524Y-36567D01*
X67383Y-36426D01*
X67199Y-36350D01*
X67000Y-36349D01*
X66817Y-36425D01*
X66676Y-36566D01*
X66600Y-36750D01*
X66599Y-36949D01*
X66675Y-37132D01*
X66816Y-37273D01*
X67000Y-37349D01*
X67199Y-37350D01*
X67382Y-37274D01*
X67523Y-37133D01*
X67599Y-36949D01*
X67600Y-36750D01*
X67600Y-37750D01*
X67524Y-37567D01*
X67383Y-37426D01*
X67199Y-37350D01*
X67000Y-37349D01*
X66817Y-37425D01*
X66676Y-37566D01*
X66600Y-37750D01*
X66599Y-37949D01*
X66675Y-38132D01*
X66816Y-38273D01*
X67000Y-38349D01*
X67199Y-38350D01*
X67382Y-38274D01*
X67523Y-38133D01*
X67599Y-37949D01*
X67600Y-37750D01*
X67600Y-38750D01*
X67524Y-38567D01*
X67383Y-38426D01*
X67199Y-38350D01*
X67000Y-38349D01*
X66817Y-38425D01*
X66676Y-38566D01*
X66600Y-38750D01*
X66599Y-38949D01*
X66675Y-39132D01*
X66816Y-39273D01*
X67000Y-39349D01*
X67199Y-39350D01*
X67382Y-39274D01*
X67523Y-39133D01*
X67599Y-38949D01*
X67600Y-38750D01*
X67600Y-39750D01*
X67524Y-39567D01*
X67383Y-39426D01*
X67199Y-39350D01*
X67000Y-39349D01*
X66817Y-39425D01*
X66676Y-39566D01*
X66600Y-39750D01*
X66599Y-39949D01*
X66675Y-40132D01*
X66816Y-40273D01*
X67000Y-40349D01*
X67199Y-40350D01*
X67382Y-40274D01*
X67523Y-40133D01*
X67599Y-39949D01*
X67600Y-39750D01*
X67600Y-40750D01*
X67524Y-40567D01*
X67383Y-40426D01*
X67199Y-40350D01*
X67000Y-40349D01*
X66817Y-40425D01*
X66676Y-40566D01*
X66600Y-40750D01*
X66599Y-40949D01*
X66675Y-41132D01*
X66816Y-41273D01*
X67000Y-41349D01*
X67199Y-41350D01*
X67382Y-41274D01*
X67523Y-41133D01*
X67599Y-40949D01*
X67600Y-40750D01*
X67600Y-41750D01*
X67524Y-41567D01*
X67383Y-41426D01*
X67199Y-41350D01*
X67000Y-41349D01*
X66817Y-41425D01*
X66676Y-41566D01*
X66600Y-41750D01*
X66599Y-41949D01*
X66675Y-42132D01*
X66816Y-42273D01*
X67000Y-42349D01*
X67199Y-42350D01*
X67382Y-42274D01*
X67523Y-42133D01*
X67599Y-41949D01*
X67600Y-41750D01*
X67600Y-42750D01*
X67524Y-42567D01*
X67383Y-42426D01*
X67199Y-42350D01*
X67000Y-42349D01*
X66817Y-42425D01*
X66676Y-42566D01*
X66600Y-42750D01*
X66599Y-42949D01*
X66675Y-43132D01*
X66816Y-43273D01*
X67000Y-43349D01*
X67199Y-43350D01*
X67382Y-43274D01*
X67523Y-43133D01*
X67599Y-42949D01*
X67600Y-42750D01*
X67600Y-43750D01*
X67524Y-43567D01*
X67383Y-43426D01*
X67199Y-43350D01*
X67000Y-43349D01*
X66817Y-43425D01*
X66676Y-43566D01*
X66600Y-43750D01*
X66599Y-43949D01*
X66675Y-44132D01*
X66816Y-44273D01*
X67000Y-44349D01*
X67199Y-44350D01*
X67382Y-44274D01*
X67523Y-44133D01*
X67599Y-43949D01*
X67600Y-43750D01*
X67600Y-44750D01*
X67524Y-44567D01*
X67383Y-44426D01*
X67199Y-44350D01*
X67000Y-44349D01*
X66817Y-44425D01*
X66676Y-44566D01*
X66600Y-44750D01*
X66599Y-44949D01*
X66675Y-45132D01*
X66816Y-45273D01*
X67000Y-45349D01*
X67199Y-45350D01*
X67382Y-45274D01*
X67523Y-45133D01*
X67599Y-44949D01*
X67600Y-44750D01*
X67600Y-45750D01*
X67524Y-45567D01*
X67383Y-45426D01*
X67199Y-45350D01*
X67000Y-45349D01*
X66817Y-45425D01*
X66676Y-45566D01*
X66600Y-45750D01*
X66599Y-45949D01*
X66675Y-46132D01*
X66816Y-46273D01*
X67000Y-46349D01*
X67199Y-46350D01*
X67382Y-46274D01*
X67523Y-46133D01*
X67599Y-45949D01*
X67600Y-45750D01*
X67600Y-46750D01*
X67524Y-46567D01*
X67383Y-46426D01*
X67199Y-46350D01*
X67000Y-46349D01*
X66817Y-46425D01*
X66676Y-46566D01*
X66600Y-46750D01*
X66599Y-46949D01*
X66675Y-47132D01*
X66816Y-47273D01*
X67000Y-47349D01*
X67199Y-47350D01*
X67382Y-47274D01*
X67523Y-47133D01*
X67599Y-46949D01*
X67600Y-46750D01*
X67600Y-47750D01*
X67524Y-47567D01*
X67383Y-47426D01*
X67199Y-47350D01*
X67000Y-47349D01*
X66817Y-47425D01*
X66676Y-47566D01*
X66600Y-47750D01*
X66599Y-47949D01*
X66675Y-48132D01*
X66816Y-48273D01*
X67000Y-48349D01*
X67199Y-48350D01*
X67382Y-48274D01*
X67523Y-48133D01*
X67599Y-47949D01*
X67600Y-47750D01*
X67600Y-48750D01*
X67524Y-48567D01*
X67383Y-48426D01*
X67199Y-48350D01*
X67000Y-48349D01*
X66817Y-48425D01*
X66676Y-48566D01*
X66600Y-48750D01*
X66599Y-48949D01*
X66675Y-49132D01*
X66816Y-49273D01*
X67000Y-49349D01*
X67199Y-49350D01*
X67382Y-49274D01*
X67523Y-49133D01*
X67599Y-48949D01*
X67600Y-48750D01*
X67600Y-49750D01*
X67524Y-49567D01*
X67383Y-49426D01*
X67199Y-49350D01*
X67000Y-49349D01*
X66817Y-49425D01*
X66676Y-49566D01*
X66600Y-49750D01*
X66599Y-49949D01*
X66675Y-50132D01*
X66816Y-50273D01*
X67000Y-50349D01*
X67060Y-50349D01*
X66760Y-50349D01*
X66686Y-50380D01*
X66630Y-50436D01*
X66600Y-50510D01*
X66599Y-50589D01*
X66599Y-51189D01*
X66630Y-51263D01*
X66686Y-51319D01*
X66760Y-51349D01*
X66839Y-51350D01*
X67439Y-51350D01*
X67513Y-51319D01*
X67569Y-51263D01*
X67599Y-51189D01*
X67600Y-51110D01*
X67600Y-50510D01*
X67569Y-50436D01*
X67513Y-50380D01*
X67439Y-50350D01*
X67360Y-50349D01*
X67199Y-50349D01*
X67382Y-50274D01*
X67523Y-50133D01*
X67599Y-49949D01*
X67600Y-49750D01*
X67600Y-51562D01*
X67329Y-51450D01*
X66872Y-51449D01*
X66449Y-51624D01*
X66125Y-51947D01*
X65950Y-52370D01*
X65949Y-52827D01*
X66124Y-53250D01*
X66447Y-53574D01*
X66870Y-53749D01*
X67327Y-53750D01*
X67750Y-53575D01*
X68074Y-53252D01*
X68249Y-52829D01*
X68250Y-52372D01*
X68250Y-54401D01*
X68231Y-54395D01*
X68013Y-54406D01*
X67862Y-54468D01*
X67834Y-54564D01*
X68150Y-54879D01*
X68465Y-54564D01*
X68465Y-54705D01*
X68220Y-54950D01*
X68535Y-55265D01*
X68631Y-55237D01*
X68704Y-55031D01*
X68704Y-62200D01*
X68465Y-62200D01*
X68465Y-55335D01*
X68150Y-55020D01*
X68079Y-55091D01*
X68079Y-54950D01*
X67764Y-54634D01*
X67668Y-54662D01*
X67623Y-54787D01*
X67574Y-54667D01*
X67433Y-54526D01*
X67249Y-54450D01*
X67050Y-54449D01*
X66867Y-54525D01*
X66726Y-54666D01*
X66650Y-54850D01*
X66650Y-54910D01*
X66650Y-54610D01*
X66619Y-54536D01*
X66563Y-54480D01*
X66489Y-54450D01*
X66410Y-54449D01*
X66400Y-54449D01*
X66400Y-54250D01*
X66399Y-54249D01*
X66400Y-54249D01*
X66396Y-54230D01*
X66380Y-54154D01*
X66380Y-54154D01*
X66326Y-54073D01*
X66326Y-54073D01*
X66051Y-53798D01*
X66026Y-53773D01*
X66026Y-53773D01*
X64375Y-52121D01*
X64375Y-47325D01*
X64318Y-47187D01*
X64212Y-47082D01*
X64074Y-47025D01*
X64074Y-47025D01*
X64212Y-46968D01*
X64317Y-46862D01*
X64374Y-46724D01*
X64375Y-46575D01*
X64318Y-46437D01*
X64212Y-46332D01*
X64074Y-46275D01*
X63925Y-46274D01*
X63787Y-46331D01*
X63682Y-46437D01*
X63625Y-46575D01*
X63624Y-46671D01*
X62921Y-47375D01*
X62825Y-47374D01*
X62687Y-47431D01*
X62582Y-47537D01*
X62525Y-47675D01*
X62524Y-47824D01*
X62581Y-47962D01*
X62687Y-48067D01*
X62825Y-48124D01*
X62924Y-48125D01*
X62924Y-48174D01*
X62981Y-48312D01*
X63087Y-48417D01*
X63225Y-48474D01*
X63374Y-48475D01*
X63512Y-48418D01*
X63617Y-48312D01*
X63674Y-48174D01*
X63675Y-48078D01*
X63978Y-47774D01*
X64074Y-47775D01*
X64212Y-47718D01*
X64317Y-47612D01*
X64374Y-47474D01*
X64375Y-47325D01*
X64375Y-52121D01*
X60326Y-48073D01*
X60245Y-48019D01*
X60150Y-48000D01*
X59230Y-48000D01*
X59267Y-47962D01*
X59324Y-47824D01*
X59325Y-47675D01*
X59268Y-47537D01*
X59162Y-47432D01*
X59024Y-47375D01*
X58999Y-47375D01*
X58149Y-46524D01*
X58224Y-46525D01*
X58362Y-46468D01*
X58467Y-46362D01*
X58524Y-46224D01*
X58525Y-46075D01*
X58510Y-46041D01*
X58537Y-46067D01*
X58675Y-46124D01*
X58824Y-46125D01*
X58962Y-46068D01*
X59050Y-45980D01*
X59087Y-46017D01*
X59225Y-46074D01*
X59374Y-46075D01*
X59512Y-46018D01*
X59617Y-45912D01*
X59674Y-45774D01*
X59675Y-45625D01*
X59618Y-45487D01*
X59550Y-45419D01*
X59550Y-44450D01*
X59549Y-44449D01*
X59550Y-44449D01*
X59546Y-44430D01*
X59530Y-44354D01*
X59530Y-44354D01*
X59476Y-44273D01*
X59476Y-44273D01*
X58874Y-43671D01*
X58875Y-43575D01*
X58818Y-43437D01*
X58712Y-43332D01*
X58574Y-43275D01*
X58425Y-43274D01*
X58287Y-43331D01*
X58182Y-43437D01*
X58170Y-43466D01*
X57976Y-43273D01*
X57895Y-43219D01*
X57800Y-43200D01*
X55980Y-43200D01*
X55912Y-43132D01*
X55774Y-43075D01*
X55625Y-43074D01*
X55487Y-43131D01*
X55382Y-43237D01*
X55325Y-43375D01*
X55324Y-43524D01*
X55381Y-43662D01*
X55487Y-43767D01*
X55625Y-43824D01*
X55774Y-43825D01*
X55912Y-43768D01*
X55980Y-43700D01*
X57696Y-43700D01*
X58221Y-44225D01*
X58075Y-44224D01*
X57937Y-44281D01*
X57832Y-44387D01*
X57775Y-44525D01*
X57774Y-44674D01*
X57831Y-44812D01*
X57900Y-44880D01*
X57900Y-45150D01*
X57900Y-45869D01*
X57832Y-45937D01*
X57775Y-46075D01*
X57774Y-46224D01*
X57826Y-46350D01*
X57483Y-46350D01*
X57483Y-44406D01*
X57445Y-44314D01*
X57375Y-44243D01*
X57295Y-44163D01*
X57206Y-44163D01*
X57136Y-44234D01*
X57136Y-44093D01*
X57136Y-44004D01*
X57056Y-43924D01*
X56985Y-43854D01*
X56893Y-43816D01*
X56794Y-43816D01*
X56702Y-43854D01*
X56623Y-43934D01*
X56623Y-44022D01*
X56915Y-44314D01*
X57136Y-44093D01*
X57136Y-44234D01*
X56985Y-44384D01*
X57277Y-44676D01*
X57365Y-44676D01*
X57445Y-44597D01*
X57483Y-44505D01*
X57483Y-44406D01*
X57483Y-46350D01*
X57324Y-46350D01*
X57062Y-46088D01*
X57112Y-46068D01*
X57217Y-45962D01*
X57274Y-45824D01*
X57275Y-45675D01*
X57218Y-45537D01*
X57112Y-45432D01*
X56974Y-45375D01*
X56878Y-45374D01*
X56737Y-45234D01*
X56872Y-45099D01*
X56902Y-45025D01*
X56903Y-44946D01*
X56899Y-44937D01*
X56936Y-44953D01*
X57035Y-44952D01*
X57127Y-44914D01*
X57206Y-44835D01*
X57206Y-44747D01*
X56915Y-44455D01*
X56909Y-44461D01*
X56838Y-44390D01*
X56844Y-44384D01*
X56552Y-44093D01*
X56464Y-44093D01*
X56385Y-44172D01*
X56347Y-44264D01*
X56346Y-44363D01*
X56362Y-44400D01*
X56354Y-44397D01*
X56274Y-44396D01*
X56200Y-44427D01*
X56144Y-44483D01*
X56140Y-44487D01*
X55676Y-44023D01*
X55595Y-43969D01*
X55500Y-43950D01*
X54830Y-43950D01*
X54762Y-43882D01*
X54624Y-43825D01*
X54475Y-43824D01*
X54350Y-43876D01*
X54350Y-43553D01*
X55476Y-42426D01*
X55476Y-42426D01*
X55476Y-42426D01*
X55530Y-42345D01*
X55530Y-42345D01*
X55546Y-42269D01*
X55550Y-42250D01*
X55549Y-42250D01*
X55550Y-42250D01*
X55550Y-41800D01*
X55969Y-41800D01*
X56037Y-41867D01*
X56175Y-41924D01*
X56324Y-41925D01*
X56462Y-41868D01*
X56550Y-41780D01*
X56637Y-41867D01*
X56775Y-41924D01*
X56924Y-41925D01*
X57062Y-41868D01*
X57130Y-41800D01*
X57296Y-41800D01*
X59375Y-43878D01*
X59374Y-43974D01*
X59431Y-44112D01*
X59537Y-44217D01*
X59675Y-44274D01*
X59824Y-44275D01*
X59950Y-44223D01*
X59950Y-44619D01*
X59882Y-44687D01*
X59825Y-44825D01*
X59824Y-44974D01*
X59881Y-45112D01*
X59987Y-45217D01*
X60125Y-45274D01*
X60274Y-45275D01*
X60412Y-45218D01*
X60517Y-45112D01*
X60574Y-44974D01*
X60575Y-44825D01*
X60518Y-44687D01*
X60450Y-44619D01*
X60450Y-41950D01*
X60430Y-41854D01*
X60376Y-41773D01*
X57876Y-39273D01*
X57795Y-39219D01*
X57700Y-39200D01*
X56622Y-39200D01*
X56674Y-39074D01*
X56675Y-38925D01*
X56618Y-38787D01*
X56512Y-38682D01*
X56374Y-38625D01*
X56278Y-38624D01*
X56220Y-38566D01*
X56233Y-38534D01*
X56233Y-38454D01*
X56203Y-38381D01*
X56146Y-38325D01*
X55899Y-38077D01*
X55825Y-38047D01*
X55746Y-38046D01*
X55737Y-38050D01*
X55753Y-38013D01*
X55752Y-37914D01*
X55714Y-37822D01*
X55635Y-37743D01*
X55547Y-37743D01*
X55476Y-37813D01*
X55476Y-37672D01*
X55476Y-37584D01*
X55397Y-37504D01*
X55305Y-37466D01*
X55206Y-37466D01*
X55114Y-37504D01*
X55043Y-37574D01*
X54963Y-37654D01*
X54963Y-37743D01*
X55184Y-37964D01*
X55476Y-37672D01*
X55476Y-37813D01*
X55255Y-38034D01*
X55261Y-38040D01*
X55190Y-38111D01*
X55184Y-38105D01*
X55114Y-38176D01*
X55114Y-38034D01*
X54893Y-37813D01*
X54804Y-37813D01*
X54724Y-37893D01*
X54654Y-37964D01*
X54616Y-38056D01*
X54616Y-38155D01*
X54654Y-38247D01*
X54734Y-38326D01*
X54822Y-38326D01*
X55114Y-38034D01*
X55114Y-38176D01*
X54893Y-38397D01*
X54893Y-38485D01*
X54972Y-38564D01*
X55064Y-38602D01*
X55163Y-38603D01*
X55052Y-38725D01*
X54975Y-38724D01*
X54837Y-38781D01*
X54732Y-38887D01*
X54675Y-39025D01*
X54674Y-39174D01*
X54731Y-39312D01*
X54837Y-39417D01*
X54975Y-39474D01*
X55124Y-39475D01*
X55262Y-39418D01*
X55367Y-39312D01*
X55424Y-39174D01*
X55425Y-39058D01*
X55478Y-38999D01*
X55531Y-39052D01*
X55604Y-39083D01*
X55684Y-39083D01*
X55757Y-39053D01*
X55813Y-38996D01*
X55878Y-38932D01*
X55925Y-38978D01*
X55924Y-39074D01*
X55925Y-39075D01*
X55787Y-39131D01*
X55682Y-39237D01*
X55625Y-39375D01*
X55625Y-39445D01*
X55574Y-39425D01*
X55425Y-39424D01*
X55287Y-39481D01*
X55182Y-39587D01*
X55125Y-39725D01*
X55124Y-39874D01*
X55181Y-40012D01*
X55287Y-40117D01*
X55425Y-40174D01*
X55574Y-40175D01*
X55712Y-40118D01*
X55780Y-40050D01*
X57046Y-40050D01*
X59175Y-42178D01*
X59174Y-42221D01*
X57826Y-40873D01*
X57745Y-40819D01*
X57650Y-40800D01*
X56130Y-40800D01*
X56062Y-40732D01*
X55924Y-40675D01*
X55775Y-40674D01*
X55637Y-40731D01*
X55532Y-40837D01*
X55475Y-40975D01*
X55474Y-41124D01*
X55531Y-41262D01*
X55569Y-41300D01*
X55553Y-41300D01*
X54450Y-40196D01*
X54450Y-38130D01*
X54517Y-38062D01*
X54574Y-37924D01*
X54575Y-37775D01*
X54518Y-37637D01*
X54412Y-37532D01*
X54274Y-37475D01*
X54125Y-37474D01*
X54075Y-37495D01*
X54075Y-37475D01*
X54018Y-37337D01*
X53912Y-37232D01*
X53774Y-37175D01*
X53625Y-37174D01*
X53524Y-37216D01*
X53525Y-37075D01*
X53468Y-36937D01*
X53362Y-36832D01*
X53224Y-36775D01*
X53128Y-36774D01*
X52026Y-35673D01*
X51945Y-35619D01*
X51850Y-35600D01*
X51630Y-35600D01*
X51562Y-35532D01*
X51424Y-35475D01*
X51275Y-35474D01*
X51137Y-35531D01*
X51032Y-35637D01*
X50975Y-35775D01*
X50974Y-35924D01*
X51031Y-36062D01*
X51137Y-36167D01*
X51275Y-36224D01*
X51424Y-36225D01*
X51562Y-36168D01*
X51630Y-36100D01*
X51746Y-36100D01*
X52775Y-37128D01*
X52774Y-37224D01*
X52831Y-37362D01*
X52937Y-37467D01*
X53018Y-37501D01*
X52932Y-37587D01*
X52875Y-37725D01*
X52874Y-37874D01*
X52931Y-38012D01*
X53000Y-38080D01*
X53000Y-40150D01*
X53019Y-40245D01*
X53073Y-40326D01*
X53673Y-40926D01*
X53673Y-40926D01*
X54650Y-41903D01*
X54650Y-42046D01*
X53575Y-43121D01*
X53575Y-40975D01*
X53518Y-40837D01*
X53412Y-40732D01*
X53274Y-40675D01*
X53125Y-40674D01*
X53082Y-40692D01*
X52162Y-40168D01*
X52217Y-40112D01*
X52274Y-39974D01*
X52275Y-39825D01*
X52218Y-39687D01*
X52112Y-39582D01*
X52075Y-39566D01*
X52075Y-36575D01*
X52018Y-36437D01*
X51912Y-36332D01*
X51774Y-36275D01*
X51625Y-36274D01*
X51487Y-36331D01*
X51382Y-36437D01*
X51325Y-36575D01*
X51324Y-36671D01*
X50928Y-37067D01*
X50757Y-36897D01*
X50684Y-36866D01*
X50604Y-36866D01*
X50531Y-36896D01*
X50475Y-36953D01*
X50227Y-37200D01*
X50197Y-37274D01*
X50196Y-37353D01*
X50200Y-37362D01*
X50163Y-37346D01*
X50064Y-37347D01*
X49972Y-37385D01*
X49893Y-37464D01*
X49893Y-37552D01*
X50184Y-37844D01*
X50190Y-37838D01*
X50261Y-37909D01*
X50255Y-37915D01*
X50547Y-38206D01*
X50635Y-38206D01*
X50714Y-38127D01*
X50752Y-38035D01*
X50753Y-37936D01*
X50737Y-37899D01*
X50745Y-37902D01*
X50825Y-37903D01*
X50899Y-37872D01*
X50925Y-37846D01*
X50924Y-37924D01*
X50981Y-38062D01*
X51087Y-38167D01*
X51225Y-38224D01*
X51374Y-38225D01*
X51512Y-38168D01*
X51617Y-38062D01*
X51674Y-37924D01*
X51675Y-37775D01*
X51618Y-37637D01*
X51512Y-37532D01*
X51374Y-37475D01*
X51278Y-37474D01*
X51253Y-37449D01*
X51678Y-37024D01*
X51774Y-37025D01*
X51912Y-36968D01*
X52017Y-36862D01*
X52074Y-36724D01*
X52075Y-36575D01*
X52075Y-39566D01*
X51974Y-39525D01*
X51825Y-39524D01*
X51687Y-39581D01*
X51686Y-39583D01*
X51226Y-39123D01*
X51145Y-39069D01*
X51050Y-39050D01*
X50476Y-39050D01*
X50476Y-38365D01*
X50476Y-38277D01*
X50184Y-37985D01*
X50114Y-38056D01*
X50114Y-37915D01*
X49822Y-37623D01*
X49734Y-37623D01*
X49654Y-37702D01*
X49616Y-37794D01*
X49616Y-37893D01*
X49654Y-37985D01*
X49724Y-38056D01*
X49804Y-38136D01*
X49893Y-38136D01*
X50114Y-37915D01*
X50114Y-38056D01*
X49963Y-38206D01*
X49963Y-38295D01*
X50043Y-38375D01*
X50114Y-38445D01*
X50206Y-38483D01*
X50305Y-38483D01*
X50397Y-38445D01*
X50476Y-38365D01*
X50476Y-39050D01*
X49400Y-39050D01*
X48930Y-39050D01*
X48967Y-39012D01*
X49024Y-38874D01*
X49025Y-38725D01*
X48968Y-38587D01*
X48862Y-38482D01*
X48724Y-38425D01*
X48575Y-38424D01*
X48437Y-38481D01*
X48369Y-38550D01*
X44880Y-38550D01*
X44862Y-38532D01*
X44724Y-38475D01*
X44575Y-38474D01*
X44437Y-38531D01*
X44332Y-38637D01*
X44275Y-38775D01*
X44274Y-38924D01*
X44331Y-39062D01*
X44437Y-39167D01*
X44575Y-39224D01*
X44724Y-39225D01*
X44862Y-39168D01*
X44967Y-39062D01*
X44972Y-39050D01*
X45500Y-39050D01*
X45404Y-39069D01*
X45323Y-39123D01*
X38346Y-46100D01*
X37750Y-46100D01*
X37845Y-46080D01*
X37926Y-46026D01*
X39276Y-44676D01*
X39330Y-44595D01*
X39330Y-44595D01*
X39350Y-44500D01*
X39350Y-39703D01*
X41353Y-37700D01*
X43306Y-37700D01*
X43275Y-37775D01*
X43274Y-37924D01*
X43331Y-38062D01*
X43437Y-38167D01*
X43575Y-38224D01*
X43724Y-38225D01*
X43862Y-38168D01*
X43930Y-38100D01*
X46919Y-38100D01*
X46987Y-38167D01*
X47125Y-38224D01*
X47274Y-38225D01*
X47412Y-38168D01*
X47517Y-38062D01*
X47574Y-37924D01*
X47575Y-37775D01*
X47518Y-37637D01*
X47412Y-37532D01*
X47274Y-37475D01*
X47174Y-37474D01*
X47175Y-37375D01*
X47118Y-37237D01*
X47012Y-37132D01*
X46874Y-37075D01*
X46725Y-37074D01*
X46587Y-37131D01*
X46519Y-37200D01*
X45834Y-37200D01*
X45912Y-37168D01*
X46017Y-37062D01*
X46074Y-36924D01*
X46075Y-36775D01*
X46018Y-36637D01*
X45912Y-36532D01*
X45774Y-36475D01*
X45683Y-36474D01*
X45724Y-36374D01*
X45725Y-36225D01*
X45668Y-36087D01*
X45562Y-35982D01*
X45424Y-35925D01*
X45275Y-35924D01*
X45137Y-35981D01*
X45032Y-36087D01*
X45027Y-36100D01*
X44480Y-36100D01*
X44517Y-36062D01*
X44574Y-35924D01*
X44575Y-35775D01*
X44518Y-35637D01*
X44412Y-35532D01*
X44274Y-35475D01*
X44125Y-35474D01*
X43987Y-35531D01*
X43919Y-35600D01*
X43075Y-35600D01*
X43075Y-34775D01*
X43018Y-34637D01*
X42912Y-34532D01*
X42774Y-34475D01*
X42625Y-34474D01*
X42487Y-34531D01*
X42419Y-34600D01*
X41525Y-34600D01*
X41525Y-33775D01*
X41468Y-33637D01*
X41362Y-33532D01*
X41224Y-33475D01*
X41075Y-33474D01*
X40937Y-33531D01*
X40869Y-33600D01*
X40075Y-33600D01*
X40075Y-32825D01*
X40018Y-32687D01*
X39912Y-32582D01*
X39774Y-32525D01*
X39625Y-32524D01*
X39487Y-32581D01*
X39419Y-32650D01*
X38600Y-32650D01*
X38250Y-32650D01*
X38250Y-29872D01*
X38075Y-29449D01*
X37752Y-29125D01*
X37329Y-28950D01*
X36872Y-28949D01*
X36449Y-29124D01*
X36125Y-29447D01*
X35950Y-29870D01*
X35949Y-30327D01*
X36124Y-30750D01*
X36447Y-31074D01*
X36870Y-31249D01*
X37327Y-31250D01*
X37750Y-31075D01*
X38074Y-30752D01*
X38249Y-30329D01*
X38250Y-29872D01*
X38250Y-32650D01*
X37600Y-32650D01*
X37600Y-31750D01*
X37524Y-31567D01*
X37383Y-31426D01*
X37199Y-31350D01*
X37000Y-31349D01*
X36817Y-31425D01*
X36676Y-31566D01*
X36600Y-31750D01*
X36599Y-31949D01*
X36675Y-32132D01*
X36816Y-32273D01*
X37000Y-32349D01*
X37199Y-32350D01*
X37382Y-32274D01*
X37523Y-32133D01*
X37599Y-31949D01*
X37600Y-31750D01*
X37600Y-32650D01*
X37558Y-32650D01*
X37524Y-32567D01*
X37383Y-32426D01*
X37199Y-32350D01*
X37000Y-32349D01*
X36817Y-32425D01*
X36676Y-32566D01*
X36600Y-32750D01*
X36599Y-32949D01*
X36675Y-33132D01*
X36816Y-33273D01*
X37000Y-33349D01*
X37199Y-33350D01*
X37382Y-33274D01*
X37507Y-33150D01*
X38600Y-33150D01*
X39419Y-33150D01*
X39487Y-33217D01*
X39625Y-33274D01*
X39774Y-33275D01*
X39912Y-33218D01*
X40017Y-33112D01*
X40074Y-32974D01*
X40075Y-32825D01*
X40075Y-33600D01*
X39650Y-33600D01*
X37537Y-33600D01*
X37524Y-33567D01*
X37383Y-33426D01*
X37199Y-33350D01*
X37000Y-33349D01*
X36817Y-33425D01*
X36676Y-33566D01*
X36600Y-33750D01*
X36599Y-33949D01*
X36675Y-34132D01*
X36816Y-34273D01*
X37000Y-34349D01*
X37199Y-34350D01*
X37382Y-34274D01*
X37523Y-34133D01*
X37537Y-34100D01*
X39650Y-34100D01*
X40869Y-34100D01*
X40937Y-34167D01*
X41075Y-34224D01*
X41224Y-34225D01*
X41362Y-34168D01*
X41467Y-34062D01*
X41524Y-33924D01*
X41525Y-33775D01*
X41525Y-34600D01*
X40650Y-34600D01*
X37537Y-34600D01*
X37524Y-34567D01*
X37383Y-34426D01*
X37199Y-34350D01*
X37000Y-34349D01*
X36817Y-34425D01*
X36676Y-34566D01*
X36600Y-34750D01*
X36599Y-34949D01*
X36675Y-35132D01*
X36816Y-35273D01*
X37000Y-35349D01*
X37199Y-35350D01*
X37382Y-35274D01*
X37523Y-35133D01*
X37537Y-35100D01*
X40650Y-35100D01*
X42419Y-35100D01*
X42487Y-35167D01*
X42625Y-35224D01*
X42774Y-35225D01*
X42912Y-35168D01*
X43017Y-35062D01*
X43074Y-34924D01*
X43075Y-34775D01*
X43075Y-35600D01*
X41650Y-35600D01*
X37537Y-35600D01*
X37524Y-35567D01*
X37383Y-35426D01*
X37199Y-35350D01*
X37000Y-35349D01*
X36817Y-35425D01*
X36676Y-35566D01*
X36600Y-35750D01*
X36599Y-35949D01*
X36675Y-36132D01*
X36816Y-36273D01*
X37000Y-36349D01*
X37199Y-36350D01*
X37382Y-36274D01*
X37523Y-36133D01*
X37537Y-36100D01*
X41249Y-36100D01*
X41230Y-36103D01*
X41154Y-36119D01*
X41073Y-36173D01*
X41073Y-36173D01*
X37823Y-39423D01*
X37769Y-39504D01*
X37750Y-39600D01*
X37750Y-44446D01*
X37600Y-44596D01*
X37600Y-43750D01*
X37600Y-42750D01*
X37600Y-41750D01*
X37600Y-40750D01*
X37600Y-39750D01*
X37600Y-38750D01*
X37600Y-37750D01*
X37600Y-36750D01*
X37524Y-36567D01*
X37383Y-36426D01*
X37199Y-36350D01*
X37000Y-36349D01*
X36817Y-36425D01*
X36676Y-36566D01*
X36600Y-36750D01*
X36599Y-36949D01*
X36675Y-37132D01*
X36816Y-37273D01*
X37000Y-37349D01*
X37199Y-37350D01*
X37382Y-37274D01*
X37523Y-37133D01*
X37599Y-36949D01*
X37600Y-36750D01*
X37600Y-37750D01*
X37524Y-37567D01*
X37383Y-37426D01*
X37199Y-37350D01*
X37000Y-37349D01*
X36817Y-37425D01*
X36676Y-37566D01*
X36600Y-37750D01*
X36599Y-37949D01*
X36675Y-38132D01*
X36816Y-38273D01*
X37000Y-38349D01*
X37199Y-38350D01*
X37382Y-38274D01*
X37523Y-38133D01*
X37599Y-37949D01*
X37600Y-37750D01*
X37600Y-38750D01*
X37524Y-38567D01*
X37383Y-38426D01*
X37199Y-38350D01*
X37000Y-38349D01*
X36817Y-38425D01*
X36676Y-38566D01*
X36600Y-38750D01*
X36599Y-38949D01*
X36675Y-39132D01*
X36816Y-39273D01*
X37000Y-39349D01*
X37199Y-39350D01*
X37382Y-39274D01*
X37523Y-39133D01*
X37599Y-38949D01*
X37600Y-38750D01*
X37600Y-39750D01*
X37524Y-39567D01*
X37383Y-39426D01*
X37199Y-39350D01*
X37000Y-39349D01*
X36817Y-39425D01*
X36676Y-39566D01*
X36600Y-39750D01*
X36599Y-39949D01*
X36675Y-40132D01*
X36816Y-40273D01*
X37000Y-40349D01*
X37199Y-40350D01*
X37382Y-40274D01*
X37523Y-40133D01*
X37599Y-39949D01*
X37600Y-39750D01*
X37600Y-40750D01*
X37524Y-40567D01*
X37383Y-40426D01*
X37199Y-40350D01*
X37000Y-40349D01*
X36817Y-40425D01*
X36676Y-40566D01*
X36600Y-40750D01*
X36599Y-40949D01*
X36675Y-41132D01*
X36816Y-41273D01*
X37000Y-41349D01*
X37199Y-41350D01*
X37382Y-41274D01*
X37523Y-41133D01*
X37599Y-40949D01*
X37600Y-40750D01*
X37600Y-41750D01*
X37524Y-41567D01*
X37383Y-41426D01*
X37199Y-41350D01*
X37000Y-41349D01*
X36817Y-41425D01*
X36676Y-41566D01*
X36600Y-41750D01*
X36599Y-41949D01*
X36675Y-42132D01*
X36816Y-42273D01*
X37000Y-42349D01*
X37199Y-42350D01*
X37382Y-42274D01*
X37523Y-42133D01*
X37599Y-41949D01*
X37600Y-41750D01*
X37600Y-42750D01*
X37524Y-42567D01*
X37383Y-42426D01*
X37199Y-42350D01*
X37000Y-42349D01*
X36817Y-42425D01*
X36676Y-42566D01*
X36600Y-42750D01*
X36599Y-42949D01*
X36675Y-43132D01*
X36816Y-43273D01*
X37000Y-43349D01*
X37199Y-43350D01*
X37382Y-43274D01*
X37523Y-43133D01*
X37599Y-42949D01*
X37600Y-42750D01*
X37600Y-43750D01*
X37524Y-43567D01*
X37383Y-43426D01*
X37199Y-43350D01*
X37000Y-43349D01*
X36817Y-43425D01*
X36676Y-43566D01*
X36600Y-43750D01*
X36599Y-43949D01*
X36675Y-44132D01*
X36816Y-44273D01*
X37000Y-44349D01*
X37199Y-44350D01*
X37382Y-44274D01*
X37523Y-44133D01*
X37599Y-43949D01*
X37600Y-43750D01*
X37600Y-44596D01*
X37596Y-44600D01*
X37537Y-44600D01*
X37524Y-44567D01*
X37383Y-44426D01*
X37199Y-44350D01*
X37000Y-44349D01*
X36817Y-44425D01*
X36676Y-44566D01*
X36600Y-44750D01*
X36599Y-44949D01*
X36675Y-45132D01*
X36816Y-45273D01*
X37000Y-45349D01*
X37199Y-45350D01*
X37382Y-45274D01*
X37523Y-45133D01*
X37537Y-45100D01*
X37700Y-45100D01*
X37795Y-45080D01*
X37876Y-45026D01*
X38176Y-44726D01*
X38176Y-44726D01*
X38176Y-44726D01*
X38230Y-44645D01*
X38230Y-44645D01*
X38246Y-44569D01*
X38250Y-44550D01*
X38249Y-44550D01*
X38250Y-44550D01*
X38250Y-39703D01*
X41353Y-36600D01*
X42369Y-36600D01*
X42332Y-36637D01*
X42275Y-36775D01*
X42274Y-36924D01*
X42331Y-37062D01*
X42437Y-37167D01*
X42515Y-37200D01*
X41250Y-37200D01*
X41154Y-37219D01*
X41073Y-37273D01*
X38923Y-39423D01*
X38869Y-39504D01*
X38850Y-39600D01*
X38850Y-44396D01*
X37646Y-45600D01*
X37537Y-45600D01*
X37524Y-45567D01*
X37383Y-45426D01*
X37199Y-45350D01*
X37000Y-45349D01*
X36817Y-45425D01*
X36676Y-45566D01*
X36600Y-45750D01*
X36599Y-45949D01*
X36675Y-46132D01*
X36678Y-46135D01*
X36623Y-46173D01*
X36623Y-46173D01*
X36223Y-46573D01*
X36169Y-46654D01*
X36150Y-46750D01*
X36150Y-48000D01*
X36169Y-48095D01*
X36223Y-48176D01*
X36657Y-48611D01*
X36600Y-48750D01*
X36599Y-48949D01*
X36675Y-49132D01*
X36816Y-49273D01*
X37000Y-49349D01*
X37199Y-49350D01*
X37382Y-49274D01*
X37523Y-49133D01*
X37599Y-48949D01*
X37600Y-48750D01*
X37524Y-48567D01*
X37383Y-48426D01*
X37199Y-48350D01*
X37103Y-48350D01*
X37103Y-48350D01*
X37199Y-48350D01*
X37382Y-48274D01*
X37523Y-48133D01*
X37599Y-47949D01*
X37600Y-47750D01*
X37524Y-47567D01*
X37383Y-47426D01*
X37199Y-47350D01*
X37000Y-47349D01*
X36817Y-47425D01*
X36676Y-47566D01*
X36650Y-47629D01*
X36650Y-47070D01*
X36675Y-47132D01*
X36816Y-47273D01*
X37000Y-47349D01*
X37199Y-47350D01*
X37382Y-47274D01*
X37523Y-47133D01*
X37537Y-47100D01*
X39850Y-47100D01*
X39945Y-47080D01*
X40026Y-47026D01*
X45553Y-41500D01*
X47515Y-41500D01*
X47437Y-41531D01*
X47332Y-41637D01*
X47275Y-41775D01*
X47274Y-41924D01*
X47331Y-42062D01*
X47437Y-42167D01*
X47575Y-42224D01*
X47724Y-42225D01*
X47862Y-42168D01*
X47930Y-42100D01*
X51719Y-42100D01*
X51769Y-42150D01*
X48950Y-42150D01*
X48949Y-42150D01*
X48930Y-42153D01*
X48854Y-42169D01*
X48773Y-42223D01*
X48773Y-42223D01*
X48571Y-42425D01*
X48475Y-42424D01*
X48337Y-42481D01*
X48232Y-42587D01*
X48175Y-42725D01*
X48174Y-42874D01*
X48231Y-43012D01*
X48337Y-43117D01*
X48475Y-43174D01*
X48624Y-43175D01*
X48762Y-43118D01*
X48867Y-43012D01*
X48924Y-42874D01*
X48925Y-42778D01*
X49053Y-42650D01*
X51769Y-42650D01*
X51837Y-42717D01*
X51975Y-42774D01*
X52124Y-42775D01*
X52262Y-42718D01*
X52367Y-42612D01*
X52424Y-42474D01*
X52425Y-42325D01*
X52368Y-42187D01*
X52280Y-42099D01*
X52317Y-42062D01*
X52374Y-41924D01*
X52375Y-41775D01*
X52354Y-41724D01*
X52474Y-41725D01*
X52612Y-41668D01*
X52717Y-41562D01*
X52774Y-41424D01*
X52775Y-41275D01*
X52718Y-41137D01*
X52612Y-41032D01*
X52474Y-40975D01*
X52325Y-40974D01*
X52286Y-40991D01*
X51778Y-40685D01*
X51761Y-40679D01*
X51745Y-40669D01*
X51715Y-40663D01*
X51686Y-40652D01*
X51668Y-40653D01*
X51650Y-40650D01*
X51522Y-40650D01*
X51574Y-40524D01*
X51575Y-40408D01*
X52824Y-41121D01*
X52824Y-41124D01*
X52881Y-41262D01*
X52987Y-41367D01*
X53125Y-41424D01*
X53274Y-41425D01*
X53412Y-41368D01*
X53517Y-41262D01*
X53574Y-41124D01*
X53575Y-40975D01*
X53575Y-43121D01*
X53573Y-43123D01*
X53519Y-43204D01*
X53500Y-43300D01*
X53500Y-45965D01*
X53468Y-45887D01*
X53362Y-45782D01*
X53224Y-45725D01*
X53075Y-45724D01*
X52937Y-45781D01*
X52900Y-45819D01*
X52862Y-45782D01*
X52724Y-45725D01*
X52575Y-45724D01*
X52437Y-45781D01*
X52374Y-45844D01*
X52312Y-45782D01*
X52174Y-45725D01*
X52025Y-45724D01*
X51925Y-45766D01*
X51925Y-45275D01*
X51868Y-45137D01*
X51762Y-45032D01*
X51624Y-44975D01*
X51475Y-44974D01*
X51337Y-45031D01*
X51232Y-45137D01*
X51175Y-45275D01*
X51174Y-45367D01*
X51125Y-45347D01*
X51046Y-45346D01*
X51037Y-45350D01*
X51053Y-45313D01*
X51052Y-45214D01*
X51014Y-45122D01*
X50935Y-45043D01*
X50847Y-45043D01*
X50776Y-45113D01*
X50776Y-44972D01*
X50776Y-44884D01*
X50697Y-44804D01*
X50605Y-44766D01*
X50506Y-44766D01*
X50414Y-44804D01*
X50343Y-44874D01*
X50325Y-44893D01*
X50325Y-43225D01*
X50268Y-43087D01*
X50162Y-42982D01*
X50024Y-42925D01*
X49875Y-42924D01*
X49737Y-42981D01*
X49632Y-43087D01*
X49575Y-43225D01*
X49574Y-43321D01*
X49384Y-43512D01*
X49218Y-43347D01*
X49145Y-43316D01*
X49065Y-43316D01*
X48992Y-43346D01*
X48936Y-43403D01*
X48754Y-43584D01*
X48315Y-43584D01*
X48219Y-43603D01*
X48138Y-43658D01*
X47421Y-44375D01*
X47325Y-44374D01*
X47187Y-44431D01*
X47082Y-44537D01*
X47025Y-44675D01*
X47024Y-44824D01*
X47081Y-44962D01*
X47187Y-45067D01*
X47325Y-45124D01*
X47474Y-45125D01*
X47612Y-45068D01*
X47717Y-44962D01*
X47774Y-44824D01*
X47775Y-44728D01*
X48418Y-44084D01*
X48613Y-44084D01*
X48850Y-44322D01*
X48924Y-44352D01*
X49003Y-44353D01*
X49012Y-44349D01*
X48996Y-44386D01*
X48997Y-44485D01*
X49035Y-44577D01*
X49114Y-44656D01*
X49202Y-44656D01*
X49494Y-44365D01*
X49488Y-44359D01*
X49559Y-44288D01*
X49565Y-44294D01*
X49856Y-44002D01*
X49856Y-43914D01*
X49777Y-43835D01*
X49771Y-43832D01*
X49928Y-43674D01*
X50024Y-43675D01*
X50162Y-43618D01*
X50267Y-43512D01*
X50324Y-43374D01*
X50325Y-43225D01*
X50325Y-44893D01*
X50263Y-44954D01*
X50263Y-45043D01*
X50484Y-45264D01*
X50776Y-44972D01*
X50776Y-45113D01*
X50555Y-45334D01*
X50561Y-45340D01*
X50490Y-45411D01*
X50484Y-45405D01*
X50414Y-45476D01*
X50414Y-45334D01*
X50193Y-45113D01*
X50133Y-45113D01*
X50133Y-44343D01*
X50133Y-44244D01*
X50095Y-44152D01*
X50015Y-44073D01*
X49927Y-44073D01*
X49635Y-44365D01*
X49856Y-44586D01*
X49945Y-44586D01*
X50025Y-44506D01*
X50095Y-44435D01*
X50133Y-44343D01*
X50133Y-45113D01*
X50104Y-45113D01*
X50024Y-45193D01*
X49954Y-45264D01*
X49916Y-45356D01*
X49916Y-45455D01*
X49954Y-45547D01*
X50034Y-45626D01*
X50122Y-45626D01*
X50414Y-45334D01*
X50414Y-45476D01*
X50193Y-45697D01*
X50193Y-45785D01*
X50272Y-45864D01*
X50364Y-45902D01*
X50463Y-45903D01*
X50500Y-45887D01*
X50497Y-45895D01*
X50496Y-45975D01*
X50527Y-46049D01*
X50583Y-46105D01*
X50831Y-46352D01*
X50904Y-46383D01*
X50984Y-46383D01*
X51057Y-46353D01*
X51113Y-46296D01*
X51502Y-45907D01*
X51533Y-45834D01*
X51533Y-45754D01*
X51523Y-45730D01*
X51528Y-45724D01*
X51624Y-45725D01*
X51762Y-45668D01*
X51867Y-45562D01*
X51924Y-45424D01*
X51925Y-45275D01*
X51925Y-45766D01*
X51887Y-45781D01*
X51782Y-45887D01*
X51725Y-46025D01*
X51724Y-46174D01*
X51781Y-46312D01*
X51850Y-46380D01*
X51850Y-47450D01*
X51850Y-47850D01*
X51869Y-47945D01*
X51923Y-48026D01*
X52725Y-48828D01*
X52724Y-48924D01*
X52781Y-49062D01*
X52887Y-49167D01*
X53025Y-49224D01*
X53174Y-49225D01*
X53312Y-49168D01*
X53417Y-49062D01*
X53474Y-48924D01*
X53475Y-48775D01*
X53418Y-48637D01*
X53330Y-48549D01*
X53417Y-48462D01*
X53474Y-48324D01*
X53475Y-48175D01*
X53424Y-48054D01*
X53500Y-48023D01*
X53500Y-53419D01*
X53432Y-53487D01*
X53375Y-53625D01*
X53374Y-53774D01*
X53408Y-53854D01*
X53125Y-53571D01*
X53125Y-49875D01*
X53068Y-49737D01*
X52962Y-49632D01*
X52824Y-49575D01*
X52675Y-49574D01*
X52537Y-49631D01*
X52432Y-49737D01*
X52375Y-49875D01*
X52374Y-50024D01*
X52431Y-50162D01*
X52433Y-50163D01*
X52023Y-50573D01*
X52023Y-50573D01*
X51746Y-50850D01*
X50625Y-50850D01*
X50625Y-47375D01*
X50568Y-47237D01*
X50462Y-47132D01*
X50324Y-47075D01*
X50175Y-47074D01*
X50037Y-47131D01*
X49969Y-47200D01*
X49786Y-47200D01*
X49786Y-44745D01*
X49786Y-44656D01*
X49565Y-44435D01*
X49273Y-44727D01*
X49273Y-44815D01*
X49352Y-44895D01*
X49444Y-44933D01*
X49543Y-44933D01*
X49635Y-44895D01*
X49706Y-44825D01*
X49786Y-44745D01*
X49786Y-47200D01*
X47400Y-47200D01*
X47304Y-47219D01*
X47223Y-47273D01*
X44521Y-49975D01*
X44425Y-49974D01*
X44287Y-50031D01*
X44182Y-50137D01*
X44125Y-50275D01*
X44124Y-50424D01*
X44181Y-50562D01*
X44287Y-50667D01*
X44365Y-50700D01*
X40630Y-50700D01*
X40562Y-50632D01*
X40424Y-50575D01*
X40275Y-50574D01*
X40137Y-50631D01*
X40032Y-50737D01*
X39975Y-50875D01*
X39974Y-51024D01*
X40031Y-51162D01*
X40137Y-51267D01*
X40275Y-51324D01*
X40424Y-51325D01*
X40562Y-51268D01*
X40630Y-51200D01*
X44600Y-51200D01*
X44695Y-51180D01*
X44776Y-51126D01*
X47253Y-48650D01*
X49019Y-48650D01*
X49087Y-48717D01*
X49225Y-48774D01*
X49374Y-48775D01*
X49512Y-48718D01*
X49617Y-48612D01*
X49674Y-48474D01*
X49675Y-48325D01*
X49618Y-48187D01*
X49512Y-48082D01*
X49374Y-48025D01*
X49225Y-48024D01*
X49087Y-48081D01*
X49019Y-48150D01*
X47150Y-48150D01*
X47054Y-48169D01*
X46994Y-48208D01*
X47503Y-47700D01*
X49969Y-47700D01*
X50037Y-47767D01*
X50175Y-47824D01*
X50324Y-47825D01*
X50462Y-47768D01*
X50567Y-47662D01*
X50624Y-47524D01*
X50625Y-47375D01*
X50625Y-50850D01*
X47250Y-50850D01*
X47154Y-50869D01*
X47073Y-50923D01*
X46246Y-51750D01*
X40730Y-51750D01*
X40662Y-51682D01*
X40524Y-51625D01*
X40375Y-51624D01*
X40237Y-51681D01*
X40132Y-51787D01*
X40075Y-51925D01*
X40074Y-52074D01*
X40131Y-52212D01*
X40237Y-52317D01*
X40375Y-52374D01*
X40524Y-52375D01*
X40662Y-52318D01*
X40730Y-52250D01*
X46350Y-52250D01*
X46445Y-52230D01*
X46526Y-52176D01*
X47353Y-51350D01*
X51850Y-51350D01*
X51945Y-51330D01*
X52026Y-51276D01*
X52376Y-50926D01*
X52376Y-50926D01*
X52376Y-50926D01*
X52876Y-50426D01*
X52930Y-50345D01*
X52944Y-50275D01*
X52962Y-50268D01*
X53067Y-50162D01*
X53124Y-50024D01*
X53125Y-49875D01*
X53125Y-53571D01*
X51026Y-51473D01*
X50945Y-51419D01*
X50850Y-51400D01*
X47450Y-51400D01*
X47354Y-51419D01*
X47273Y-51473D01*
X46396Y-52350D01*
X42100Y-52350D01*
X42004Y-52369D01*
X41971Y-52390D01*
X41923Y-52423D01*
X41923Y-52423D01*
X39273Y-55073D01*
X39219Y-55154D01*
X39200Y-55250D01*
X39200Y-55646D01*
X38250Y-56596D01*
X38250Y-52372D01*
X38075Y-51949D01*
X37752Y-51625D01*
X37650Y-51583D01*
X37650Y-51199D01*
X37650Y-50500D01*
X37612Y-50408D01*
X37541Y-50338D01*
X37449Y-50300D01*
X37350Y-50299D01*
X37320Y-50299D01*
X37382Y-50274D01*
X37523Y-50133D01*
X37599Y-49949D01*
X37600Y-49750D01*
X37524Y-49567D01*
X37383Y-49426D01*
X37199Y-49350D01*
X37000Y-49349D01*
X36817Y-49425D01*
X36676Y-49566D01*
X36600Y-49750D01*
X36599Y-49949D01*
X36675Y-50132D01*
X36816Y-50273D01*
X36879Y-50299D01*
X36849Y-50299D01*
X36750Y-50300D01*
X36658Y-50338D01*
X36587Y-50408D01*
X36549Y-50500D01*
X36550Y-50737D01*
X36612Y-50800D01*
X37050Y-50800D01*
X37050Y-50792D01*
X37150Y-50792D01*
X37150Y-50800D01*
X37587Y-50800D01*
X37650Y-50737D01*
X37650Y-50500D01*
X37650Y-51199D01*
X37650Y-50962D01*
X37587Y-50900D01*
X37150Y-50900D01*
X37150Y-51337D01*
X37212Y-51400D01*
X37350Y-51400D01*
X37449Y-51399D01*
X37541Y-51361D01*
X37612Y-51291D01*
X37650Y-51199D01*
X37650Y-51583D01*
X37329Y-51450D01*
X37050Y-51449D01*
X37050Y-51337D01*
X37050Y-50900D01*
X36612Y-50900D01*
X36550Y-50962D01*
X36549Y-51199D01*
X36587Y-51291D01*
X36658Y-51361D01*
X36750Y-51399D01*
X36849Y-51400D01*
X36987Y-51400D01*
X37050Y-51337D01*
X37050Y-51449D01*
X36872Y-51449D01*
X36449Y-51624D01*
X36125Y-51947D01*
X35950Y-52370D01*
X35949Y-52827D01*
X36124Y-53250D01*
X36447Y-53574D01*
X36870Y-53749D01*
X37327Y-53750D01*
X37750Y-53575D01*
X38074Y-53252D01*
X38249Y-52829D01*
X38250Y-52372D01*
X38250Y-56596D01*
X37566Y-57279D01*
X37599Y-57199D01*
X37600Y-57000D01*
X37600Y-56000D01*
X37600Y-55000D01*
X37524Y-54817D01*
X37383Y-54676D01*
X37199Y-54600D01*
X37000Y-54599D01*
X36817Y-54675D01*
X36676Y-54816D01*
X36600Y-55000D01*
X36599Y-55199D01*
X36675Y-55382D01*
X36816Y-55523D01*
X37000Y-55599D01*
X37199Y-55600D01*
X37382Y-55524D01*
X37523Y-55383D01*
X37599Y-55199D01*
X37600Y-55000D01*
X37600Y-56000D01*
X37524Y-55817D01*
X37383Y-55676D01*
X37199Y-55600D01*
X37000Y-55599D01*
X36817Y-55675D01*
X36676Y-55816D01*
X36600Y-56000D01*
X36599Y-56199D01*
X36675Y-56382D01*
X36816Y-56523D01*
X37000Y-56599D01*
X37199Y-56600D01*
X37382Y-56524D01*
X37523Y-56383D01*
X37599Y-56199D01*
X37600Y-56000D01*
X37600Y-57000D01*
X37524Y-56817D01*
X37383Y-56676D01*
X37199Y-56600D01*
X37000Y-56599D01*
X36817Y-56675D01*
X36676Y-56816D01*
X36600Y-57000D01*
X36599Y-57199D01*
X36675Y-57382D01*
X36816Y-57523D01*
X37000Y-57599D01*
X37199Y-57600D01*
X37279Y-57566D01*
X37232Y-57613D01*
X37199Y-57600D01*
X37000Y-57599D01*
X36817Y-57675D01*
X36676Y-57816D01*
X36600Y-58000D01*
X36599Y-58199D01*
X36675Y-58382D01*
X36816Y-58523D01*
X37000Y-58599D01*
X37199Y-58600D01*
X37382Y-58524D01*
X37523Y-58383D01*
X37599Y-58199D01*
X37600Y-58000D01*
X37586Y-57967D01*
X39626Y-55926D01*
X39626Y-55926D01*
X39626Y-55926D01*
X39680Y-55845D01*
X39680Y-55845D01*
X39696Y-55769D01*
X39700Y-55750D01*
X39699Y-55750D01*
X39700Y-55750D01*
X39700Y-55353D01*
X42203Y-52850D01*
X43377Y-52850D01*
X43325Y-52975D01*
X43324Y-53124D01*
X43381Y-53262D01*
X43487Y-53367D01*
X43625Y-53424D01*
X43774Y-53425D01*
X43912Y-53368D01*
X43980Y-53300D01*
X50096Y-53300D01*
X52375Y-55578D01*
X52374Y-55674D01*
X52431Y-55812D01*
X52537Y-55917D01*
X52675Y-55974D01*
X52824Y-55975D01*
X52962Y-55918D01*
X53067Y-55812D01*
X53124Y-55674D01*
X53125Y-55525D01*
X53068Y-55387D01*
X52962Y-55282D01*
X52824Y-55225D01*
X52728Y-55224D01*
X50376Y-52873D01*
X50295Y-52819D01*
X50200Y-52800D01*
X46642Y-52800D01*
X46676Y-52776D01*
X47553Y-51900D01*
X49522Y-51900D01*
X49475Y-52015D01*
X49474Y-52184D01*
X49539Y-52340D01*
X49658Y-52460D01*
X49815Y-52524D01*
X49984Y-52525D01*
X50140Y-52460D01*
X50150Y-52450D01*
X50505Y-52450D01*
X53452Y-55397D01*
X57004Y-58949D01*
X57004Y-59048D01*
X57079Y-59230D01*
X57219Y-59369D01*
X57401Y-59445D01*
X57598Y-59445D01*
X57780Y-59370D01*
X57919Y-59230D01*
X57995Y-59048D01*
X57995Y-58851D01*
X57920Y-58669D01*
X57780Y-58530D01*
X57598Y-58454D01*
X57499Y-58454D01*
X54280Y-55235D01*
X54375Y-55274D01*
X54524Y-55275D01*
X54662Y-55218D01*
X54730Y-55150D01*
X56069Y-55150D01*
X56087Y-55167D01*
X56225Y-55224D01*
X56374Y-55225D01*
X56512Y-55168D01*
X56617Y-55062D01*
X56674Y-54924D01*
X56675Y-54775D01*
X56618Y-54637D01*
X56512Y-54532D01*
X56377Y-54476D01*
X57228Y-53624D01*
X57324Y-53625D01*
X57462Y-53568D01*
X57567Y-53462D01*
X57624Y-53324D01*
X57625Y-53175D01*
X57568Y-53037D01*
X57462Y-52932D01*
X57324Y-52875D01*
X57175Y-52874D01*
X57037Y-52931D01*
X56932Y-53037D01*
X56875Y-53175D01*
X56874Y-53271D01*
X56096Y-54050D01*
X53884Y-54050D01*
X53962Y-54018D01*
X54067Y-53912D01*
X54124Y-53774D01*
X54125Y-53625D01*
X54068Y-53487D01*
X54000Y-53419D01*
X54000Y-52193D01*
X54075Y-52224D01*
X54144Y-52224D01*
X54132Y-52237D01*
X54075Y-52375D01*
X54074Y-52524D01*
X54131Y-52662D01*
X54237Y-52767D01*
X54375Y-52824D01*
X54524Y-52825D01*
X54662Y-52768D01*
X54767Y-52662D01*
X54824Y-52524D01*
X54825Y-52428D01*
X56003Y-51250D01*
X60969Y-51250D01*
X61037Y-51317D01*
X61175Y-51374D01*
X61324Y-51375D01*
X61462Y-51318D01*
X61567Y-51212D01*
X61624Y-51074D01*
X61625Y-50928D01*
X63272Y-52575D01*
X63167Y-52581D01*
X63027Y-52639D01*
X63002Y-52732D01*
X63300Y-53029D01*
X63305Y-53023D01*
X63376Y-53094D01*
X63370Y-53100D01*
X63667Y-53397D01*
X63760Y-53372D01*
X63829Y-53175D01*
X63827Y-53131D01*
X65100Y-54403D01*
X65100Y-55250D01*
X65119Y-55345D01*
X65173Y-55426D01*
X65573Y-55826D01*
X65573Y-55826D01*
X65654Y-55880D01*
X65654Y-55880D01*
X65730Y-55896D01*
X65749Y-55900D01*
X65749Y-55899D01*
X65750Y-55900D01*
X66450Y-55900D01*
X66545Y-55880D01*
X66626Y-55826D01*
X67017Y-55436D01*
X67050Y-55449D01*
X67249Y-55450D01*
X67432Y-55374D01*
X67573Y-55233D01*
X67620Y-55121D01*
X67668Y-55237D01*
X67764Y-55265D01*
X68079Y-54950D01*
X68079Y-55091D01*
X67834Y-55335D01*
X67862Y-55431D01*
X68068Y-55504D01*
X68286Y-55493D01*
X68437Y-55431D01*
X68465Y-55335D01*
X68465Y-62200D01*
X66550Y-62200D01*
X66550Y-59300D01*
X66550Y-58799D01*
X66549Y-58700D01*
X66511Y-58608D01*
X66441Y-58537D01*
X66349Y-58499D01*
X66112Y-58500D01*
X66050Y-58562D01*
X66050Y-59000D01*
X66487Y-59000D01*
X66550Y-58937D01*
X66550Y-58799D01*
X66550Y-59300D01*
X66550Y-59162D01*
X66487Y-59100D01*
X66050Y-59100D01*
X66050Y-59107D01*
X65950Y-59107D01*
X65950Y-59100D01*
X65942Y-59100D01*
X65942Y-59000D01*
X65950Y-59000D01*
X65950Y-58562D01*
X65887Y-58500D01*
X65650Y-58499D01*
X65558Y-58537D01*
X65488Y-58608D01*
X65450Y-58700D01*
X65449Y-58799D01*
X65449Y-58829D01*
X65424Y-58767D01*
X65283Y-58626D01*
X65099Y-58550D01*
X64900Y-58549D01*
X64717Y-58625D01*
X64576Y-58766D01*
X64500Y-58950D01*
X64500Y-58951D01*
X64500Y-58950D01*
X64424Y-58767D01*
X64283Y-58626D01*
X64099Y-58550D01*
X63900Y-58549D01*
X63829Y-58579D01*
X63829Y-56175D01*
X63818Y-55967D01*
X63760Y-55827D01*
X63667Y-55802D01*
X63597Y-55873D01*
X63597Y-55732D01*
X63597Y-53467D01*
X63300Y-53170D01*
X63229Y-53241D01*
X63229Y-53100D01*
X62932Y-52802D01*
X62839Y-52827D01*
X62770Y-53024D01*
X62781Y-53232D01*
X62839Y-53372D01*
X62932Y-53397D01*
X63229Y-53100D01*
X63229Y-53241D01*
X63002Y-53467D01*
X63027Y-53560D01*
X63224Y-53629D01*
X63432Y-53618D01*
X63572Y-53560D01*
X63597Y-53467D01*
X63597Y-55732D01*
X63572Y-55639D01*
X63375Y-55570D01*
X63167Y-55581D01*
X63027Y-55639D01*
X63002Y-55732D01*
X63300Y-56029D01*
X63597Y-55732D01*
X63597Y-55873D01*
X63370Y-56100D01*
X63667Y-56397D01*
X63760Y-56372D01*
X63829Y-56175D01*
X63829Y-58579D01*
X63717Y-58625D01*
X63642Y-58700D01*
X63597Y-58700D01*
X63597Y-56467D01*
X63300Y-56170D01*
X63229Y-56241D01*
X63229Y-56100D01*
X62932Y-55802D01*
X62839Y-55827D01*
X62770Y-56024D01*
X62781Y-56232D01*
X62839Y-56372D01*
X62932Y-56397D01*
X63229Y-56100D01*
X63229Y-56241D01*
X63002Y-56467D01*
X63027Y-56560D01*
X63224Y-56629D01*
X63432Y-56618D01*
X63572Y-56560D01*
X63597Y-56467D01*
X63597Y-58700D01*
X63450Y-58700D01*
X63450Y-57700D01*
X63423Y-57566D01*
X63347Y-57452D01*
X62892Y-56997D01*
X62868Y-56937D01*
X62762Y-56832D01*
X62624Y-56775D01*
X62475Y-56774D01*
X62337Y-56831D01*
X62232Y-56937D01*
X62175Y-57075D01*
X62174Y-57224D01*
X62231Y-57362D01*
X62337Y-57467D01*
X62397Y-57492D01*
X62750Y-57844D01*
X62750Y-59155D01*
X62255Y-59650D01*
X61775Y-59650D01*
X61775Y-56005D01*
X61775Y-53005D01*
X61702Y-52831D01*
X61569Y-52697D01*
X61394Y-52625D01*
X61205Y-52624D01*
X61031Y-52697D01*
X60897Y-52830D01*
X60825Y-53005D01*
X60824Y-53194D01*
X60897Y-53368D01*
X61030Y-53502D01*
X61205Y-53574D01*
X61394Y-53575D01*
X61568Y-53502D01*
X61702Y-53369D01*
X61774Y-53194D01*
X61775Y-53005D01*
X61775Y-56005D01*
X61702Y-55831D01*
X61569Y-55697D01*
X61394Y-55625D01*
X61205Y-55624D01*
X61031Y-55697D01*
X60897Y-55830D01*
X60825Y-56005D01*
X60824Y-56194D01*
X60897Y-56368D01*
X61030Y-56502D01*
X61205Y-56574D01*
X61394Y-56575D01*
X61568Y-56502D01*
X61702Y-56369D01*
X61774Y-56194D01*
X61775Y-56005D01*
X61775Y-59650D01*
X60018Y-59650D01*
X60018Y-59030D01*
X60007Y-58813D01*
X59945Y-58664D01*
X59850Y-58638D01*
X59780Y-58708D01*
X59780Y-58567D01*
X59753Y-58472D01*
X59549Y-58399D01*
X59332Y-58410D01*
X59183Y-58472D01*
X59156Y-58567D01*
X59468Y-58879D01*
X59780Y-58567D01*
X59780Y-58708D01*
X59539Y-58950D01*
X59850Y-59261D01*
X59945Y-59235D01*
X60018Y-59030D01*
X60018Y-59650D01*
X59780Y-59650D01*
X59780Y-59332D01*
X59468Y-59020D01*
X59397Y-59091D01*
X59397Y-58950D01*
X59086Y-58638D01*
X58991Y-58664D01*
X58918Y-58869D01*
X58929Y-59086D01*
X58991Y-59235D01*
X59086Y-59261D01*
X59397Y-58950D01*
X59397Y-59091D01*
X59156Y-59332D01*
X59183Y-59427D01*
X59387Y-59500D01*
X59604Y-59489D01*
X59753Y-59427D01*
X59780Y-59332D01*
X59780Y-59650D01*
X56300Y-59650D01*
X56194Y-59650D01*
X55881Y-59336D01*
X55881Y-59300D01*
X55951Y-59230D01*
X56026Y-59048D01*
X56026Y-58851D01*
X55951Y-58669D01*
X55812Y-58530D01*
X55630Y-58454D01*
X55433Y-58454D01*
X55251Y-58529D01*
X55111Y-58669D01*
X55036Y-58851D01*
X55036Y-59048D01*
X55111Y-59230D01*
X55181Y-59300D01*
X55181Y-59481D01*
X55208Y-59615D01*
X55284Y-59728D01*
X55802Y-60247D01*
X55916Y-60323D01*
X56050Y-60350D01*
X56300Y-60350D01*
X62400Y-60350D01*
X62533Y-60323D01*
X62533Y-60323D01*
X62647Y-60247D01*
X63347Y-59547D01*
X63347Y-59547D01*
X63347Y-59547D01*
X63494Y-59400D01*
X63642Y-59400D01*
X63716Y-59473D01*
X63900Y-59549D01*
X64099Y-59550D01*
X64282Y-59474D01*
X64423Y-59333D01*
X64499Y-59149D01*
X64500Y-58950D01*
X64500Y-58951D01*
X64499Y-59149D01*
X64575Y-59332D01*
X64716Y-59473D01*
X64900Y-59549D01*
X65099Y-59550D01*
X65282Y-59474D01*
X65423Y-59333D01*
X65449Y-59270D01*
X65449Y-59300D01*
X65450Y-59399D01*
X65488Y-59491D01*
X65558Y-59562D01*
X65650Y-59600D01*
X65779Y-59600D01*
X65717Y-59625D01*
X65576Y-59766D01*
X65500Y-59950D01*
X65500Y-59951D01*
X65500Y-59950D01*
X65424Y-59767D01*
X65283Y-59626D01*
X65099Y-59550D01*
X64900Y-59549D01*
X64717Y-59625D01*
X64576Y-59766D01*
X64500Y-59950D01*
X64500Y-59951D01*
X64500Y-59950D01*
X64424Y-59767D01*
X64283Y-59626D01*
X64099Y-59550D01*
X63900Y-59549D01*
X63717Y-59625D01*
X63576Y-59766D01*
X63500Y-59950D01*
X63499Y-60149D01*
X63575Y-60332D01*
X63716Y-60473D01*
X63900Y-60549D01*
X64099Y-60550D01*
X64282Y-60474D01*
X64423Y-60333D01*
X64499Y-60149D01*
X64500Y-59950D01*
X64500Y-59951D01*
X64499Y-60149D01*
X64575Y-60332D01*
X64716Y-60473D01*
X64900Y-60549D01*
X65099Y-60550D01*
X65282Y-60474D01*
X65423Y-60333D01*
X65499Y-60149D01*
X65500Y-59950D01*
X65500Y-59951D01*
X65499Y-60149D01*
X65575Y-60332D01*
X65716Y-60473D01*
X65900Y-60549D01*
X66099Y-60550D01*
X66282Y-60474D01*
X66423Y-60333D01*
X66499Y-60149D01*
X66500Y-59950D01*
X66424Y-59767D01*
X66283Y-59626D01*
X66220Y-59600D01*
X66349Y-59600D01*
X66441Y-59562D01*
X66511Y-59491D01*
X66549Y-59399D01*
X66550Y-59300D01*
X66550Y-62200D01*
X43700Y-62200D01*
X43700Y-58000D01*
X43700Y-57000D01*
X43700Y-56000D01*
X43700Y-55000D01*
X43624Y-54817D01*
X43483Y-54676D01*
X43299Y-54600D01*
X43100Y-54599D01*
X42917Y-54675D01*
X42776Y-54816D01*
X42750Y-54879D01*
X42750Y-54750D01*
X42712Y-54658D01*
X42641Y-54588D01*
X42549Y-54550D01*
X42450Y-54549D01*
X42312Y-54550D01*
X42250Y-54612D01*
X42250Y-55050D01*
X42257Y-55050D01*
X42257Y-55150D01*
X42250Y-55150D01*
X42250Y-55157D01*
X42150Y-55157D01*
X42150Y-55150D01*
X42150Y-55050D01*
X42150Y-54612D01*
X42087Y-54550D01*
X41949Y-54549D01*
X41850Y-54550D01*
X41758Y-54588D01*
X41687Y-54658D01*
X41649Y-54750D01*
X41650Y-54987D01*
X41712Y-55050D01*
X42150Y-55050D01*
X42150Y-55150D01*
X41712Y-55150D01*
X41650Y-55212D01*
X41649Y-55449D01*
X41687Y-55541D01*
X41758Y-55611D01*
X41850Y-55649D01*
X41949Y-55650D01*
X41979Y-55650D01*
X41917Y-55675D01*
X41776Y-55816D01*
X41700Y-56000D01*
X41699Y-56199D01*
X41775Y-56382D01*
X41916Y-56523D01*
X42100Y-56599D01*
X42299Y-56600D01*
X42482Y-56524D01*
X42623Y-56383D01*
X42699Y-56199D01*
X42700Y-56000D01*
X42624Y-55817D01*
X42483Y-55676D01*
X42420Y-55650D01*
X42450Y-55650D01*
X42549Y-55649D01*
X42641Y-55611D01*
X42712Y-55541D01*
X42750Y-55449D01*
X42750Y-55320D01*
X42775Y-55382D01*
X42916Y-55523D01*
X43100Y-55599D01*
X43299Y-55600D01*
X43482Y-55524D01*
X43623Y-55383D01*
X43699Y-55199D01*
X43700Y-55000D01*
X43700Y-56000D01*
X43624Y-55817D01*
X43483Y-55676D01*
X43299Y-55600D01*
X43100Y-55599D01*
X42917Y-55675D01*
X42776Y-55816D01*
X42700Y-56000D01*
X42699Y-56199D01*
X42775Y-56382D01*
X42916Y-56523D01*
X43100Y-56599D01*
X43299Y-56600D01*
X43482Y-56524D01*
X43623Y-56383D01*
X43699Y-56199D01*
X43700Y-56000D01*
X43700Y-57000D01*
X43624Y-56817D01*
X43483Y-56676D01*
X43299Y-56600D01*
X43100Y-56599D01*
X42917Y-56675D01*
X42776Y-56816D01*
X42700Y-57000D01*
X42700Y-57001D01*
X42700Y-57000D01*
X42624Y-56817D01*
X42483Y-56676D01*
X42299Y-56600D01*
X42100Y-56599D01*
X41917Y-56675D01*
X41776Y-56816D01*
X41700Y-57000D01*
X41699Y-57199D01*
X41775Y-57382D01*
X41916Y-57523D01*
X42100Y-57599D01*
X42299Y-57600D01*
X42482Y-57524D01*
X42623Y-57383D01*
X42699Y-57199D01*
X42700Y-57000D01*
X42700Y-57001D01*
X42699Y-57199D01*
X42775Y-57382D01*
X42916Y-57523D01*
X43100Y-57599D01*
X43299Y-57600D01*
X43482Y-57524D01*
X43623Y-57383D01*
X43699Y-57199D01*
X43700Y-57000D01*
X43700Y-58000D01*
X43624Y-57817D01*
X43483Y-57676D01*
X43299Y-57600D01*
X43100Y-57599D01*
X42917Y-57675D01*
X42776Y-57816D01*
X42700Y-58000D01*
X42700Y-58001D01*
X42700Y-58000D01*
X42624Y-57817D01*
X42483Y-57676D01*
X42299Y-57600D01*
X42100Y-57599D01*
X41917Y-57675D01*
X41776Y-57816D01*
X41700Y-58000D01*
X41699Y-58199D01*
X41775Y-58382D01*
X41916Y-58523D01*
X42100Y-58599D01*
X42299Y-58600D01*
X42482Y-58524D01*
X42623Y-58383D01*
X42699Y-58199D01*
X42700Y-58000D01*
X42700Y-58001D01*
X42699Y-58199D01*
X42775Y-58382D01*
X42916Y-58523D01*
X43100Y-58599D01*
X43299Y-58600D01*
X43482Y-58524D01*
X43623Y-58383D01*
X43699Y-58199D01*
X43700Y-58000D01*
X43700Y-62200D01*
X37600Y-62200D01*
X37600Y-59000D01*
X37524Y-58817D01*
X37383Y-58676D01*
X37199Y-58600D01*
X37000Y-58599D01*
X36817Y-58675D01*
X36676Y-58816D01*
X36600Y-59000D01*
X36599Y-59199D01*
X36675Y-59382D01*
X36816Y-59523D01*
X37000Y-59599D01*
X37060Y-59599D01*
X36760Y-59599D01*
X36686Y-59630D01*
X36630Y-59686D01*
X36600Y-59760D01*
X36599Y-59839D01*
X36599Y-60439D01*
X36630Y-60513D01*
X36686Y-60569D01*
X36760Y-60599D01*
X36839Y-60600D01*
X37439Y-60600D01*
X37513Y-60569D01*
X37569Y-60513D01*
X37599Y-60439D01*
X37600Y-60360D01*
X37600Y-59760D01*
X37569Y-59686D01*
X37513Y-59630D01*
X37439Y-59600D01*
X37360Y-59599D01*
X37199Y-59599D01*
X37382Y-59524D01*
X37523Y-59383D01*
X37599Y-59199D01*
X37600Y-59000D01*
X37600Y-62200D01*
X35650Y-62200D01*
X35650Y-28450D01*
X68800Y-28450D01*
X68800Y-62200D01*
X68800Y-62200D01*
G37*
G54D19*
X68800Y-62200D02*
X68704Y-62200D01*
X68704Y-55031D01*
X68693Y-54813D01*
X68631Y-54662D01*
X68535Y-54634D01*
X68465Y-54705D01*
X68465Y-54564D01*
X68437Y-54468D01*
X68250Y-54401D01*
X68250Y-52372D01*
X68250Y-29872D01*
X68075Y-29449D01*
X67752Y-29125D01*
X67329Y-28950D01*
X66872Y-28949D01*
X66449Y-29124D01*
X66125Y-29447D01*
X65950Y-29870D01*
X65949Y-30327D01*
X66124Y-30750D01*
X66447Y-31074D01*
X66870Y-31249D01*
X67327Y-31250D01*
X67750Y-31075D01*
X68074Y-30752D01*
X68249Y-30329D01*
X68250Y-29872D01*
X68250Y-52372D01*
X68075Y-51949D01*
X67752Y-51625D01*
X67600Y-51562D01*
X67600Y-49750D01*
X67600Y-48750D01*
X67600Y-47750D01*
X67600Y-46750D01*
X67600Y-45750D01*
X67600Y-44750D01*
X67600Y-43750D01*
X67600Y-42750D01*
X67600Y-41750D01*
X67600Y-40750D01*
X67600Y-39750D01*
X67600Y-38750D01*
X67600Y-37750D01*
X67600Y-36750D01*
X67600Y-35750D01*
X67600Y-34750D01*
X67600Y-33750D01*
X67600Y-32750D01*
X67600Y-31750D01*
X67524Y-31567D01*
X67383Y-31426D01*
X67199Y-31350D01*
X67000Y-31349D01*
X66817Y-31425D01*
X66676Y-31566D01*
X66600Y-31750D01*
X66599Y-31949D01*
X66675Y-32132D01*
X66816Y-32273D01*
X67000Y-32349D01*
X67199Y-32350D01*
X67382Y-32274D01*
X67523Y-32133D01*
X67599Y-31949D01*
X67600Y-31750D01*
X67600Y-32750D01*
X67524Y-32567D01*
X67383Y-32426D01*
X67199Y-32350D01*
X67000Y-32349D01*
X66817Y-32425D01*
X66676Y-32566D01*
X66600Y-32750D01*
X66599Y-32949D01*
X66675Y-33132D01*
X66816Y-33273D01*
X67000Y-33349D01*
X67199Y-33350D01*
X67382Y-33274D01*
X67523Y-33133D01*
X67599Y-32949D01*
X67600Y-32750D01*
X67600Y-33750D01*
X67524Y-33567D01*
X67383Y-33426D01*
X67199Y-33350D01*
X67000Y-33349D01*
X66817Y-33425D01*
X66676Y-33566D01*
X66600Y-33750D01*
X66599Y-33949D01*
X66675Y-34132D01*
X66816Y-34273D01*
X67000Y-34349D01*
X67199Y-34350D01*
X67382Y-34274D01*
X67523Y-34133D01*
X67599Y-33949D01*
X67600Y-33750D01*
X67600Y-34750D01*
X67524Y-34567D01*
X67383Y-34426D01*
X67199Y-34350D01*
X67000Y-34349D01*
X66817Y-34425D01*
X66676Y-34566D01*
X66600Y-34750D01*
X66599Y-34949D01*
X66675Y-35132D01*
X66816Y-35273D01*
X67000Y-35349D01*
X67199Y-35350D01*
X67382Y-35274D01*
X67523Y-35133D01*
X67599Y-34949D01*
X67600Y-34750D01*
X67600Y-35750D01*
X67524Y-35567D01*
X67383Y-35426D01*
X67199Y-35350D01*
X67000Y-35349D01*
X66817Y-35425D01*
X66676Y-35566D01*
X66600Y-35750D01*
X66599Y-35949D01*
X66675Y-36132D01*
X66816Y-36273D01*
X67000Y-36349D01*
X67199Y-36350D01*
X67382Y-36274D01*
X67523Y-36133D01*
X67599Y-35949D01*
X67600Y-35750D01*
X67600Y-36750D01*
X67524Y-36567D01*
X67383Y-36426D01*
X67199Y-36350D01*
X67000Y-36349D01*
X66817Y-36425D01*
X66676Y-36566D01*
X66600Y-36750D01*
X66599Y-36949D01*
X66675Y-37132D01*
X66816Y-37273D01*
X67000Y-37349D01*
X67199Y-37350D01*
X67382Y-37274D01*
X67523Y-37133D01*
X67599Y-36949D01*
X67600Y-36750D01*
X67600Y-37750D01*
X67524Y-37567D01*
X67383Y-37426D01*
X67199Y-37350D01*
X67000Y-37349D01*
X66817Y-37425D01*
X66676Y-37566D01*
X66600Y-37750D01*
X66599Y-37949D01*
X66675Y-38132D01*
X66816Y-38273D01*
X67000Y-38349D01*
X67199Y-38350D01*
X67382Y-38274D01*
X67523Y-38133D01*
X67599Y-37949D01*
X67600Y-37750D01*
X67600Y-38750D01*
X67524Y-38567D01*
X67383Y-38426D01*
X67199Y-38350D01*
X67000Y-38349D01*
X66817Y-38425D01*
X66676Y-38566D01*
X66600Y-38750D01*
X66599Y-38949D01*
X66675Y-39132D01*
X66816Y-39273D01*
X67000Y-39349D01*
X67199Y-39350D01*
X67382Y-39274D01*
X67523Y-39133D01*
X67599Y-38949D01*
X67600Y-38750D01*
X67600Y-39750D01*
X67524Y-39567D01*
X67383Y-39426D01*
X67199Y-39350D01*
X67000Y-39349D01*
X66817Y-39425D01*
X66676Y-39566D01*
X66600Y-39750D01*
X66599Y-39949D01*
X66675Y-40132D01*
X66816Y-40273D01*
X67000Y-40349D01*
X67199Y-40350D01*
X67382Y-40274D01*
X67523Y-40133D01*
X67599Y-39949D01*
X67600Y-39750D01*
X67600Y-40750D01*
X67524Y-40567D01*
X67383Y-40426D01*
X67199Y-40350D01*
X67000Y-40349D01*
X66817Y-40425D01*
X66676Y-40566D01*
X66600Y-40750D01*
X66599Y-40949D01*
X66675Y-41132D01*
X66816Y-41273D01*
X67000Y-41349D01*
X67199Y-41350D01*
X67382Y-41274D01*
X67523Y-41133D01*
X67599Y-40949D01*
X67600Y-40750D01*
X67600Y-41750D01*
X67524Y-41567D01*
X67383Y-41426D01*
X67199Y-41350D01*
X67000Y-41349D01*
X66817Y-41425D01*
X66676Y-41566D01*
X66600Y-41750D01*
X66599Y-41949D01*
X66675Y-42132D01*
X66816Y-42273D01*
X67000Y-42349D01*
X67199Y-42350D01*
X67382Y-42274D01*
X67523Y-42133D01*
X67599Y-41949D01*
X67600Y-41750D01*
X67600Y-42750D01*
X67524Y-42567D01*
X67383Y-42426D01*
X67199Y-42350D01*
X67000Y-42349D01*
X66817Y-42425D01*
X66676Y-42566D01*
X66600Y-42750D01*
X66599Y-42949D01*
X66675Y-43132D01*
X66816Y-43273D01*
X67000Y-43349D01*
X67199Y-43350D01*
X67382Y-43274D01*
X67523Y-43133D01*
X67599Y-42949D01*
X67600Y-42750D01*
X67600Y-43750D01*
X67524Y-43567D01*
X67383Y-43426D01*
X67199Y-43350D01*
X67000Y-43349D01*
X66817Y-43425D01*
X66676Y-43566D01*
X66600Y-43750D01*
X66599Y-43949D01*
X66675Y-44132D01*
X66816Y-44273D01*
X67000Y-44349D01*
X67199Y-44350D01*
X67382Y-44274D01*
X67523Y-44133D01*
X67599Y-43949D01*
X67600Y-43750D01*
X67600Y-44750D01*
X67524Y-44567D01*
X67383Y-44426D01*
X67199Y-44350D01*
X67000Y-44349D01*
X66817Y-44425D01*
X66676Y-44566D01*
X66600Y-44750D01*
X66599Y-44949D01*
X66675Y-45132D01*
X66816Y-45273D01*
X67000Y-45349D01*
X67199Y-45350D01*
X67382Y-45274D01*
X67523Y-45133D01*
X67599Y-44949D01*
X67600Y-44750D01*
X67600Y-45750D01*
X67524Y-45567D01*
X67383Y-45426D01*
X67199Y-45350D01*
X67000Y-45349D01*
X66817Y-45425D01*
X66676Y-45566D01*
X66600Y-45750D01*
X66599Y-45949D01*
X66675Y-46132D01*
X66816Y-46273D01*
X67000Y-46349D01*
X67199Y-46350D01*
X67382Y-46274D01*
X67523Y-46133D01*
X67599Y-45949D01*
X67600Y-45750D01*
X67600Y-46750D01*
X67524Y-46567D01*
X67383Y-46426D01*
X67199Y-46350D01*
X67000Y-46349D01*
X66817Y-46425D01*
X66676Y-46566D01*
X66600Y-46750D01*
X66599Y-46949D01*
X66675Y-47132D01*
X66816Y-47273D01*
X67000Y-47349D01*
X67199Y-47350D01*
X67382Y-47274D01*
X67523Y-47133D01*
X67599Y-46949D01*
X67600Y-46750D01*
X67600Y-47750D01*
X67524Y-47567D01*
X67383Y-47426D01*
X67199Y-47350D01*
X67000Y-47349D01*
X66817Y-47425D01*
X66676Y-47566D01*
X66600Y-47750D01*
X66599Y-47949D01*
X66675Y-48132D01*
X66816Y-48273D01*
X67000Y-48349D01*
X67199Y-48350D01*
X67382Y-48274D01*
X67523Y-48133D01*
X67599Y-47949D01*
X67600Y-47750D01*
X67600Y-48750D01*
X67524Y-48567D01*
X67383Y-48426D01*
X67199Y-48350D01*
X67000Y-48349D01*
X66817Y-48425D01*
X66676Y-48566D01*
X66600Y-48750D01*
X66599Y-48949D01*
X66675Y-49132D01*
X66816Y-49273D01*
X67000Y-49349D01*
X67199Y-49350D01*
X67382Y-49274D01*
X67523Y-49133D01*
X67599Y-48949D01*
X67600Y-48750D01*
X67600Y-49750D01*
X67524Y-49567D01*
X67383Y-49426D01*
X67199Y-49350D01*
X67000Y-49349D01*
X66817Y-49425D01*
X66676Y-49566D01*
X66600Y-49750D01*
X66599Y-49949D01*
X66675Y-50132D01*
X66816Y-50273D01*
X67000Y-50349D01*
X67060Y-50349D01*
X66760Y-50349D01*
X66686Y-50380D01*
X66630Y-50436D01*
X66600Y-50510D01*
X66599Y-50589D01*
X66599Y-51189D01*
X66630Y-51263D01*
X66686Y-51319D01*
X66760Y-51349D01*
X66839Y-51350D01*
X67439Y-51350D01*
X67513Y-51319D01*
X67569Y-51263D01*
X67599Y-51189D01*
X67600Y-51110D01*
X67600Y-50510D01*
X67569Y-50436D01*
X67513Y-50380D01*
X67439Y-50350D01*
X67360Y-50349D01*
X67199Y-50349D01*
X67382Y-50274D01*
X67523Y-50133D01*
X67599Y-49949D01*
X67600Y-49750D01*
X67600Y-51562D01*
X67329Y-51450D01*
X66872Y-51449D01*
X66449Y-51624D01*
X66125Y-51947D01*
X65950Y-52370D01*
X65949Y-52827D01*
X66124Y-53250D01*
X66447Y-53574D01*
X66870Y-53749D01*
X67327Y-53750D01*
X67750Y-53575D01*
X68074Y-53252D01*
X68249Y-52829D01*
X68250Y-52372D01*
X68250Y-54401D01*
X68231Y-54395D01*
X68013Y-54406D01*
X67862Y-54468D01*
X67834Y-54564D01*
X68150Y-54879D01*
X68465Y-54564D01*
X68465Y-54705D01*
X68220Y-54950D01*
X68535Y-55265D01*
X68631Y-55237D01*
X68704Y-55031D01*
X68704Y-62200D01*
X68465Y-62200D01*
X68465Y-55335D01*
X68150Y-55020D01*
X68079Y-55091D01*
X68079Y-54950D01*
X67764Y-54634D01*
X67668Y-54662D01*
X67623Y-54787D01*
X67574Y-54667D01*
X67433Y-54526D01*
X67249Y-54450D01*
X67050Y-54449D01*
X66867Y-54525D01*
X66726Y-54666D01*
X66650Y-54850D01*
X66650Y-54910D01*
X66650Y-54610D01*
X66619Y-54536D01*
X66563Y-54480D01*
X66489Y-54450D01*
X66410Y-54449D01*
X66400Y-54449D01*
X66400Y-54250D01*
X66399Y-54249D01*
X66400Y-54249D01*
X66396Y-54230D01*
X66380Y-54154D01*
X66380Y-54154D01*
X66326Y-54073D01*
X66326Y-54073D01*
X66051Y-53798D01*
X66026Y-53773D01*
X66026Y-53773D01*
X64375Y-52121D01*
X64375Y-47325D01*
X64318Y-47187D01*
X64212Y-47082D01*
X64074Y-47025D01*
X64074Y-47025D01*
X64212Y-46968D01*
X64317Y-46862D01*
X64374Y-46724D01*
X64375Y-46575D01*
X64318Y-46437D01*
X64212Y-46332D01*
X64074Y-46275D01*
X63925Y-46274D01*
X63787Y-46331D01*
X63682Y-46437D01*
X63625Y-46575D01*
X63624Y-46671D01*
X62921Y-47375D01*
X62825Y-47374D01*
X62687Y-47431D01*
X62582Y-47537D01*
X62525Y-47675D01*
X62524Y-47824D01*
X62581Y-47962D01*
X62687Y-48067D01*
X62825Y-48124D01*
X62924Y-48125D01*
X62924Y-48174D01*
X62981Y-48312D01*
X63087Y-48417D01*
X63225Y-48474D01*
X63374Y-48475D01*
X63512Y-48418D01*
X63617Y-48312D01*
X63674Y-48174D01*
X63675Y-48078D01*
X63978Y-47774D01*
X64074Y-47775D01*
X64212Y-47718D01*
X64317Y-47612D01*
X64374Y-47474D01*
X64375Y-47325D01*
X64375Y-52121D01*
X60326Y-48073D01*
X60245Y-48019D01*
X60150Y-48000D01*
X59230Y-48000D01*
X59267Y-47962D01*
X59324Y-47824D01*
X59325Y-47675D01*
X59268Y-47537D01*
X59162Y-47432D01*
X59024Y-47375D01*
X58999Y-47375D01*
X58149Y-46524D01*
X58224Y-46525D01*
X58362Y-46468D01*
X58467Y-46362D01*
X58524Y-46224D01*
X58525Y-46075D01*
X58510Y-46041D01*
X58537Y-46067D01*
X58675Y-46124D01*
X58824Y-46125D01*
X58962Y-46068D01*
X59050Y-45980D01*
X59087Y-46017D01*
X59225Y-46074D01*
X59374Y-46075D01*
X59512Y-46018D01*
X59617Y-45912D01*
X59674Y-45774D01*
X59675Y-45625D01*
X59618Y-45487D01*
X59550Y-45419D01*
X59550Y-44450D01*
X59549Y-44449D01*
X59550Y-44449D01*
X59546Y-44430D01*
X59530Y-44354D01*
X59530Y-44354D01*
X59476Y-44273D01*
X59476Y-44273D01*
X58874Y-43671D01*
X58875Y-43575D01*
X58818Y-43437D01*
X58712Y-43332D01*
X58574Y-43275D01*
X58425Y-43274D01*
X58287Y-43331D01*
X58182Y-43437D01*
X58170Y-43466D01*
X57976Y-43273D01*
X57895Y-43219D01*
X57800Y-43200D01*
X55980Y-43200D01*
X55912Y-43132D01*
X55774Y-43075D01*
X55625Y-43074D01*
X55487Y-43131D01*
X55382Y-43237D01*
X55325Y-43375D01*
X55324Y-43524D01*
X55381Y-43662D01*
X55487Y-43767D01*
X55625Y-43824D01*
X55774Y-43825D01*
X55912Y-43768D01*
X55980Y-43700D01*
X57696Y-43700D01*
X58221Y-44225D01*
X58075Y-44224D01*
X57937Y-44281D01*
X57832Y-44387D01*
X57775Y-44525D01*
X57774Y-44674D01*
X57831Y-44812D01*
X57900Y-44880D01*
X57900Y-45150D01*
X57900Y-45869D01*
X57832Y-45937D01*
X57775Y-46075D01*
X57774Y-46224D01*
X57826Y-46350D01*
X57483Y-46350D01*
X57483Y-44406D01*
X57445Y-44314D01*
X57375Y-44243D01*
X57295Y-44163D01*
X57206Y-44163D01*
X57136Y-44234D01*
X57136Y-44093D01*
X57136Y-44004D01*
X57056Y-43924D01*
X56985Y-43854D01*
X56893Y-43816D01*
X56794Y-43816D01*
X56702Y-43854D01*
X56623Y-43934D01*
X56623Y-44022D01*
X56915Y-44314D01*
X57136Y-44093D01*
X57136Y-44234D01*
X56985Y-44384D01*
X57277Y-44676D01*
X57365Y-44676D01*
X57445Y-44597D01*
X57483Y-44505D01*
X57483Y-44406D01*
X57483Y-46350D01*
X57324Y-46350D01*
X57062Y-46088D01*
X57112Y-46068D01*
X57217Y-45962D01*
X57274Y-45824D01*
X57275Y-45675D01*
X57218Y-45537D01*
X57112Y-45432D01*
X56974Y-45375D01*
X56878Y-45374D01*
X56737Y-45234D01*
X56872Y-45099D01*
X56902Y-45025D01*
X56903Y-44946D01*
X56899Y-44937D01*
X56936Y-44953D01*
X57035Y-44952D01*
X57127Y-44914D01*
X57206Y-44835D01*
X57206Y-44747D01*
X56915Y-44455D01*
X56909Y-44461D01*
X56838Y-44390D01*
X56844Y-44384D01*
X56552Y-44093D01*
X56464Y-44093D01*
X56385Y-44172D01*
X56347Y-44264D01*
X56346Y-44363D01*
X56362Y-44400D01*
X56354Y-44397D01*
X56274Y-44396D01*
X56200Y-44427D01*
X56144Y-44483D01*
X56140Y-44487D01*
X55676Y-44023D01*
X55595Y-43969D01*
X55500Y-43950D01*
X54830Y-43950D01*
X54762Y-43882D01*
X54624Y-43825D01*
X54475Y-43824D01*
X54350Y-43876D01*
X54350Y-43553D01*
X55476Y-42426D01*
X55476Y-42426D01*
X55476Y-42426D01*
X55530Y-42345D01*
X55530Y-42345D01*
X55546Y-42269D01*
X55550Y-42250D01*
X55549Y-42250D01*
X55550Y-42250D01*
X55550Y-41800D01*
X55969Y-41800D01*
X56037Y-41867D01*
X56175Y-41924D01*
X56324Y-41925D01*
X56462Y-41868D01*
X56550Y-41780D01*
X56637Y-41867D01*
X56775Y-41924D01*
X56924Y-41925D01*
X57062Y-41868D01*
X57130Y-41800D01*
X57296Y-41800D01*
X59375Y-43878D01*
X59374Y-43974D01*
X59431Y-44112D01*
X59537Y-44217D01*
X59675Y-44274D01*
X59824Y-44275D01*
X59950Y-44223D01*
X59950Y-44619D01*
X59882Y-44687D01*
X59825Y-44825D01*
X59824Y-44974D01*
X59881Y-45112D01*
X59987Y-45217D01*
X60125Y-45274D01*
X60274Y-45275D01*
X60412Y-45218D01*
X60517Y-45112D01*
X60574Y-44974D01*
X60575Y-44825D01*
X60518Y-44687D01*
X60450Y-44619D01*
X60450Y-41950D01*
X60430Y-41854D01*
X60376Y-41773D01*
X57876Y-39273D01*
X57795Y-39219D01*
X57700Y-39200D01*
X56622Y-39200D01*
X56674Y-39074D01*
X56675Y-38925D01*
X56618Y-38787D01*
X56512Y-38682D01*
X56374Y-38625D01*
X56278Y-38624D01*
X56220Y-38566D01*
X56233Y-38534D01*
X56233Y-38454D01*
X56203Y-38381D01*
X56146Y-38325D01*
X55899Y-38077D01*
X55825Y-38047D01*
X55746Y-38046D01*
X55737Y-38050D01*
X55753Y-38013D01*
X55752Y-37914D01*
X55714Y-37822D01*
X55635Y-37743D01*
X55547Y-37743D01*
X55476Y-37813D01*
X55476Y-37672D01*
X55476Y-37584D01*
X55397Y-37504D01*
X55305Y-37466D01*
X55206Y-37466D01*
X55114Y-37504D01*
X55043Y-37574D01*
X54963Y-37654D01*
X54963Y-37743D01*
X55184Y-37964D01*
X55476Y-37672D01*
X55476Y-37813D01*
X55255Y-38034D01*
X55261Y-38040D01*
X55190Y-38111D01*
X55184Y-38105D01*
X55114Y-38176D01*
X55114Y-38034D01*
X54893Y-37813D01*
X54804Y-37813D01*
X54724Y-37893D01*
X54654Y-37964D01*
X54616Y-38056D01*
X54616Y-38155D01*
X54654Y-38247D01*
X54734Y-38326D01*
X54822Y-38326D01*
X55114Y-38034D01*
X55114Y-38176D01*
X54893Y-38397D01*
X54893Y-38485D01*
X54972Y-38564D01*
X55064Y-38602D01*
X55163Y-38603D01*
X55052Y-38725D01*
X54975Y-38724D01*
X54837Y-38781D01*
X54732Y-38887D01*
X54675Y-39025D01*
X54674Y-39174D01*
X54731Y-39312D01*
X54837Y-39417D01*
X54975Y-39474D01*
X55124Y-39475D01*
X55262Y-39418D01*
X55367Y-39312D01*
X55424Y-39174D01*
X55425Y-39058D01*
X55478Y-38999D01*
X55531Y-39052D01*
X55604Y-39083D01*
X55684Y-39083D01*
X55757Y-39053D01*
X55813Y-38996D01*
X55878Y-38932D01*
X55925Y-38978D01*
X55924Y-39074D01*
X55925Y-39075D01*
X55787Y-39131D01*
X55682Y-39237D01*
X55625Y-39375D01*
X55625Y-39445D01*
X55574Y-39425D01*
X55425Y-39424D01*
X55287Y-39481D01*
X55182Y-39587D01*
X55125Y-39725D01*
X55124Y-39874D01*
X55181Y-40012D01*
X55287Y-40117D01*
X55425Y-40174D01*
X55574Y-40175D01*
X55712Y-40118D01*
X55780Y-40050D01*
X57046Y-40050D01*
X59175Y-42178D01*
X59174Y-42221D01*
X57826Y-40873D01*
X57745Y-40819D01*
X57650Y-40800D01*
X56130Y-40800D01*
X56062Y-40732D01*
X55924Y-40675D01*
X55775Y-40674D01*
X55637Y-40731D01*
X55532Y-40837D01*
X55475Y-40975D01*
X55474Y-41124D01*
X55531Y-41262D01*
X55569Y-41300D01*
X55553Y-41300D01*
X54450Y-40196D01*
X54450Y-38130D01*
X54517Y-38062D01*
X54574Y-37924D01*
X54575Y-37775D01*
X54518Y-37637D01*
X54412Y-37532D01*
X54274Y-37475D01*
X54125Y-37474D01*
X54075Y-37495D01*
X54075Y-37475D01*
X54018Y-37337D01*
X53912Y-37232D01*
X53774Y-37175D01*
X53625Y-37174D01*
X53524Y-37216D01*
X53525Y-37075D01*
X53468Y-36937D01*
X53362Y-36832D01*
X53224Y-36775D01*
X53128Y-36774D01*
X52026Y-35673D01*
X51945Y-35619D01*
X51850Y-35600D01*
X51630Y-35600D01*
X51562Y-35532D01*
X51424Y-35475D01*
X51275Y-35474D01*
X51137Y-35531D01*
X51032Y-35637D01*
X50975Y-35775D01*
X50974Y-35924D01*
X51031Y-36062D01*
X51137Y-36167D01*
X51275Y-36224D01*
X51424Y-36225D01*
X51562Y-36168D01*
X51630Y-36100D01*
X51746Y-36100D01*
X52775Y-37128D01*
X52774Y-37224D01*
X52831Y-37362D01*
X52937Y-37467D01*
X53018Y-37501D01*
X52932Y-37587D01*
X52875Y-37725D01*
X52874Y-37874D01*
X52931Y-38012D01*
X53000Y-38080D01*
X53000Y-40150D01*
X53019Y-40245D01*
X53073Y-40326D01*
X53673Y-40926D01*
X53673Y-40926D01*
X54650Y-41903D01*
X54650Y-42046D01*
X53575Y-43121D01*
X53575Y-40975D01*
X53518Y-40837D01*
X53412Y-40732D01*
X53274Y-40675D01*
X53125Y-40674D01*
X53082Y-40692D01*
X52162Y-40168D01*
X52217Y-40112D01*
X52274Y-39974D01*
X52275Y-39825D01*
X52218Y-39687D01*
X52112Y-39582D01*
X52075Y-39566D01*
X52075Y-36575D01*
X52018Y-36437D01*
X51912Y-36332D01*
X51774Y-36275D01*
X51625Y-36274D01*
X51487Y-36331D01*
X51382Y-36437D01*
X51325Y-36575D01*
X51324Y-36671D01*
X50928Y-37067D01*
X50757Y-36897D01*
X50684Y-36866D01*
X50604Y-36866D01*
X50531Y-36896D01*
X50475Y-36953D01*
X50227Y-37200D01*
X50197Y-37274D01*
X50196Y-37353D01*
X50200Y-37362D01*
X50163Y-37346D01*
X50064Y-37347D01*
X49972Y-37385D01*
X49893Y-37464D01*
X49893Y-37552D01*
X50184Y-37844D01*
X50190Y-37838D01*
X50261Y-37909D01*
X50255Y-37915D01*
X50547Y-38206D01*
X50635Y-38206D01*
X50714Y-38127D01*
X50752Y-38035D01*
X50753Y-37936D01*
X50737Y-37899D01*
X50745Y-37902D01*
X50825Y-37903D01*
X50899Y-37872D01*
X50925Y-37846D01*
X50924Y-37924D01*
X50981Y-38062D01*
X51087Y-38167D01*
X51225Y-38224D01*
X51374Y-38225D01*
X51512Y-38168D01*
X51617Y-38062D01*
X51674Y-37924D01*
X51675Y-37775D01*
X51618Y-37637D01*
X51512Y-37532D01*
X51374Y-37475D01*
X51278Y-37474D01*
X51253Y-37449D01*
X51678Y-37024D01*
X51774Y-37025D01*
X51912Y-36968D01*
X52017Y-36862D01*
X52074Y-36724D01*
X52075Y-36575D01*
X52075Y-39566D01*
X51974Y-39525D01*
X51825Y-39524D01*
X51687Y-39581D01*
X51686Y-39583D01*
X51226Y-39123D01*
X51145Y-39069D01*
X51050Y-39050D01*
X50476Y-39050D01*
X50476Y-38365D01*
X50476Y-38277D01*
X50184Y-37985D01*
X50114Y-38056D01*
X50114Y-37915D01*
X49822Y-37623D01*
X49734Y-37623D01*
X49654Y-37702D01*
X49616Y-37794D01*
X49616Y-37893D01*
X49654Y-37985D01*
X49724Y-38056D01*
X49804Y-38136D01*
X49893Y-38136D01*
X50114Y-37915D01*
X50114Y-38056D01*
X49963Y-38206D01*
X49963Y-38295D01*
X50043Y-38375D01*
X50114Y-38445D01*
X50206Y-38483D01*
X50305Y-38483D01*
X50397Y-38445D01*
X50476Y-38365D01*
X50476Y-39050D01*
X49400Y-39050D01*
X48930Y-39050D01*
X48967Y-39012D01*
X49024Y-38874D01*
X49025Y-38725D01*
X48968Y-38587D01*
X48862Y-38482D01*
X48724Y-38425D01*
X48575Y-38424D01*
X48437Y-38481D01*
X48369Y-38550D01*
X44880Y-38550D01*
X44862Y-38532D01*
X44724Y-38475D01*
X44575Y-38474D01*
X44437Y-38531D01*
X44332Y-38637D01*
X44275Y-38775D01*
X44274Y-38924D01*
X44331Y-39062D01*
X44437Y-39167D01*
X44575Y-39224D01*
X44724Y-39225D01*
X44862Y-39168D01*
X44967Y-39062D01*
X44972Y-39050D01*
X45500Y-39050D01*
X45404Y-39069D01*
X45323Y-39123D01*
X38346Y-46100D01*
X37750Y-46100D01*
X37845Y-46080D01*
X37926Y-46026D01*
X39276Y-44676D01*
X39330Y-44595D01*
X39330Y-44595D01*
X39350Y-44500D01*
X39350Y-39703D01*
X41353Y-37700D01*
X43306Y-37700D01*
X43275Y-37775D01*
X43274Y-37924D01*
X43331Y-38062D01*
X43437Y-38167D01*
X43575Y-38224D01*
X43724Y-38225D01*
X43862Y-38168D01*
X43930Y-38100D01*
X46919Y-38100D01*
X46987Y-38167D01*
X47125Y-38224D01*
X47274Y-38225D01*
X47412Y-38168D01*
X47517Y-38062D01*
X47574Y-37924D01*
X47575Y-37775D01*
X47518Y-37637D01*
X47412Y-37532D01*
X47274Y-37475D01*
X47174Y-37474D01*
X47175Y-37375D01*
X47118Y-37237D01*
X47012Y-37132D01*
X46874Y-37075D01*
X46725Y-37074D01*
X46587Y-37131D01*
X46519Y-37200D01*
X45834Y-37200D01*
X45912Y-37168D01*
X46017Y-37062D01*
X46074Y-36924D01*
X46075Y-36775D01*
X46018Y-36637D01*
X45912Y-36532D01*
X45774Y-36475D01*
X45683Y-36474D01*
X45724Y-36374D01*
X45725Y-36225D01*
X45668Y-36087D01*
X45562Y-35982D01*
X45424Y-35925D01*
X45275Y-35924D01*
X45137Y-35981D01*
X45032Y-36087D01*
X45027Y-36100D01*
X44480Y-36100D01*
X44517Y-36062D01*
X44574Y-35924D01*
X44575Y-35775D01*
X44518Y-35637D01*
X44412Y-35532D01*
X44274Y-35475D01*
X44125Y-35474D01*
X43987Y-35531D01*
X43919Y-35600D01*
X43075Y-35600D01*
X43075Y-34775D01*
X43018Y-34637D01*
X42912Y-34532D01*
X42774Y-34475D01*
X42625Y-34474D01*
X42487Y-34531D01*
X42419Y-34600D01*
X41525Y-34600D01*
X41525Y-33775D01*
X41468Y-33637D01*
X41362Y-33532D01*
X41224Y-33475D01*
X41075Y-33474D01*
X40937Y-33531D01*
X40869Y-33600D01*
X40075Y-33600D01*
X40075Y-32825D01*
X40018Y-32687D01*
X39912Y-32582D01*
X39774Y-32525D01*
X39625Y-32524D01*
X39487Y-32581D01*
X39419Y-32650D01*
X38600Y-32650D01*
X38250Y-32650D01*
X38250Y-29872D01*
X38075Y-29449D01*
X37752Y-29125D01*
X37329Y-28950D01*
X36872Y-28949D01*
X36449Y-29124D01*
X36125Y-29447D01*
X35950Y-29870D01*
X35949Y-30327D01*
X36124Y-30750D01*
X36447Y-31074D01*
X36870Y-31249D01*
X37327Y-31250D01*
X37750Y-31075D01*
X38074Y-30752D01*
X38249Y-30329D01*
X38250Y-29872D01*
X38250Y-32650D01*
X37600Y-32650D01*
X37600Y-31750D01*
X37524Y-31567D01*
X37383Y-31426D01*
X37199Y-31350D01*
X37000Y-31349D01*
X36817Y-31425D01*
X36676Y-31566D01*
X36600Y-31750D01*
X36599Y-31949D01*
X36675Y-32132D01*
X36816Y-32273D01*
X37000Y-32349D01*
X37199Y-32350D01*
X37382Y-32274D01*
X37523Y-32133D01*
X37599Y-31949D01*
X37600Y-31750D01*
X37600Y-32650D01*
X37558Y-32650D01*
X37524Y-32567D01*
X37383Y-32426D01*
X37199Y-32350D01*
X37000Y-32349D01*
X36817Y-32425D01*
X36676Y-32566D01*
X36600Y-32750D01*
X36599Y-32949D01*
X36675Y-33132D01*
X36816Y-33273D01*
X37000Y-33349D01*
X37199Y-33350D01*
X37382Y-33274D01*
X37507Y-33150D01*
X38600Y-33150D01*
X39419Y-33150D01*
X39487Y-33217D01*
X39625Y-33274D01*
X39774Y-33275D01*
X39912Y-33218D01*
X40017Y-33112D01*
X40074Y-32974D01*
X40075Y-32825D01*
X40075Y-33600D01*
X39650Y-33600D01*
X37537Y-33600D01*
X37524Y-33567D01*
X37383Y-33426D01*
X37199Y-33350D01*
X37000Y-33349D01*
X36817Y-33425D01*
X36676Y-33566D01*
X36600Y-33750D01*
X36599Y-33949D01*
X36675Y-34132D01*
X36816Y-34273D01*
X37000Y-34349D01*
X37199Y-34350D01*
X37382Y-34274D01*
X37523Y-34133D01*
X37537Y-34100D01*
X39650Y-34100D01*
X40869Y-34100D01*
X40937Y-34167D01*
X41075Y-34224D01*
X41224Y-34225D01*
X41362Y-34168D01*
X41467Y-34062D01*
X41524Y-33924D01*
X41525Y-33775D01*
X41525Y-34600D01*
X40650Y-34600D01*
X37537Y-34600D01*
X37524Y-34567D01*
X37383Y-34426D01*
X37199Y-34350D01*
X37000Y-34349D01*
X36817Y-34425D01*
X36676Y-34566D01*
X36600Y-34750D01*
X36599Y-34949D01*
X36675Y-35132D01*
X36816Y-35273D01*
X37000Y-35349D01*
X37199Y-35350D01*
X37382Y-35274D01*
X37523Y-35133D01*
X37537Y-35100D01*
X40650Y-35100D01*
X42419Y-35100D01*
X42487Y-35167D01*
X42625Y-35224D01*
X42774Y-35225D01*
X42912Y-35168D01*
X43017Y-35062D01*
X43074Y-34924D01*
X43075Y-34775D01*
X43075Y-35600D01*
X41650Y-35600D01*
X37537Y-35600D01*
X37524Y-35567D01*
X37383Y-35426D01*
X37199Y-35350D01*
X37000Y-35349D01*
X36817Y-35425D01*
X36676Y-35566D01*
X36600Y-35750D01*
X36599Y-35949D01*
X36675Y-36132D01*
X36816Y-36273D01*
X37000Y-36349D01*
X37199Y-36350D01*
X37382Y-36274D01*
X37523Y-36133D01*
X37537Y-36100D01*
X41249Y-36100D01*
X41230Y-36103D01*
X41154Y-36119D01*
X41073Y-36173D01*
X41073Y-36173D01*
X37823Y-39423D01*
X37769Y-39504D01*
X37750Y-39600D01*
X37750Y-44446D01*
X37600Y-44596D01*
X37600Y-43750D01*
X37600Y-42750D01*
X37600Y-41750D01*
X37600Y-40750D01*
X37600Y-39750D01*
X37600Y-38750D01*
X37600Y-37750D01*
X37600Y-36750D01*
X37524Y-36567D01*
X37383Y-36426D01*
X37199Y-36350D01*
X37000Y-36349D01*
X36817Y-36425D01*
X36676Y-36566D01*
X36600Y-36750D01*
X36599Y-36949D01*
X36675Y-37132D01*
X36816Y-37273D01*
X37000Y-37349D01*
X37199Y-37350D01*
X37382Y-37274D01*
X37523Y-37133D01*
X37599Y-36949D01*
X37600Y-36750D01*
X37600Y-37750D01*
X37524Y-37567D01*
X37383Y-37426D01*
X37199Y-37350D01*
X37000Y-37349D01*
X36817Y-37425D01*
X36676Y-37566D01*
X36600Y-37750D01*
X36599Y-37949D01*
X36675Y-38132D01*
X36816Y-38273D01*
X37000Y-38349D01*
X37199Y-38350D01*
X37382Y-38274D01*
X37523Y-38133D01*
X37599Y-37949D01*
X37600Y-37750D01*
X37600Y-38750D01*
X37524Y-38567D01*
X37383Y-38426D01*
X37199Y-38350D01*
X37000Y-38349D01*
X36817Y-38425D01*
X36676Y-38566D01*
X36600Y-38750D01*
X36599Y-38949D01*
X36675Y-39132D01*
X36816Y-39273D01*
X37000Y-39349D01*
X37199Y-39350D01*
X37382Y-39274D01*
X37523Y-39133D01*
X37599Y-38949D01*
X37600Y-38750D01*
X37600Y-39750D01*
X37524Y-39567D01*
X37383Y-39426D01*
X37199Y-39350D01*
X37000Y-39349D01*
X36817Y-39425D01*
X36676Y-39566D01*
X36600Y-39750D01*
X36599Y-39949D01*
X36675Y-40132D01*
X36816Y-40273D01*
X37000Y-40349D01*
X37199Y-40350D01*
X37382Y-40274D01*
X37523Y-40133D01*
X37599Y-39949D01*
X37600Y-39750D01*
X37600Y-40750D01*
X37524Y-40567D01*
X37383Y-40426D01*
X37199Y-40350D01*
X37000Y-40349D01*
X36817Y-40425D01*
X36676Y-40566D01*
X36600Y-40750D01*
X36599Y-40949D01*
X36675Y-41132D01*
X36816Y-41273D01*
X37000Y-41349D01*
X37199Y-41350D01*
X37382Y-41274D01*
X37523Y-41133D01*
X37599Y-40949D01*
X37600Y-40750D01*
X37600Y-41750D01*
X37524Y-41567D01*
X37383Y-41426D01*
X37199Y-41350D01*
X37000Y-41349D01*
X36817Y-41425D01*
X36676Y-41566D01*
X36600Y-41750D01*
X36599Y-41949D01*
X36675Y-42132D01*
X36816Y-42273D01*
X37000Y-42349D01*
X37199Y-42350D01*
X37382Y-42274D01*
X37523Y-42133D01*
X37599Y-41949D01*
X37600Y-41750D01*
X37600Y-42750D01*
X37524Y-42567D01*
X37383Y-42426D01*
X37199Y-42350D01*
X37000Y-42349D01*
X36817Y-42425D01*
X36676Y-42566D01*
X36600Y-42750D01*
X36599Y-42949D01*
X36675Y-43132D01*
X36816Y-43273D01*
X37000Y-43349D01*
X37199Y-43350D01*
X37382Y-43274D01*
X37523Y-43133D01*
X37599Y-42949D01*
X37600Y-42750D01*
X37600Y-43750D01*
X37524Y-43567D01*
X37383Y-43426D01*
X37199Y-43350D01*
X37000Y-43349D01*
X36817Y-43425D01*
X36676Y-43566D01*
X36600Y-43750D01*
X36599Y-43949D01*
X36675Y-44132D01*
X36816Y-44273D01*
X37000Y-44349D01*
X37199Y-44350D01*
X37382Y-44274D01*
X37523Y-44133D01*
X37599Y-43949D01*
X37600Y-43750D01*
X37600Y-44596D01*
X37596Y-44600D01*
X37537Y-44600D01*
X37524Y-44567D01*
X37383Y-44426D01*
X37199Y-44350D01*
X37000Y-44349D01*
X36817Y-44425D01*
X36676Y-44566D01*
X36600Y-44750D01*
X36599Y-44949D01*
X36675Y-45132D01*
X36816Y-45273D01*
X37000Y-45349D01*
X37199Y-45350D01*
X37382Y-45274D01*
X37523Y-45133D01*
X37537Y-45100D01*
X37700Y-45100D01*
X37795Y-45080D01*
X37876Y-45026D01*
X38176Y-44726D01*
X38176Y-44726D01*
X38176Y-44726D01*
X38230Y-44645D01*
X38230Y-44645D01*
X38246Y-44569D01*
X38250Y-44550D01*
X38249Y-44550D01*
X38250Y-44550D01*
X38250Y-39703D01*
X41353Y-36600D01*
X42369Y-36600D01*
X42332Y-36637D01*
X42275Y-36775D01*
X42274Y-36924D01*
X42331Y-37062D01*
X42437Y-37167D01*
X42515Y-37200D01*
X41250Y-37200D01*
X41154Y-37219D01*
X41073Y-37273D01*
X38923Y-39423D01*
X38869Y-39504D01*
X38850Y-39600D01*
X38850Y-44396D01*
X37646Y-45600D01*
X37537Y-45600D01*
X37524Y-45567D01*
X37383Y-45426D01*
X37199Y-45350D01*
X37000Y-45349D01*
X36817Y-45425D01*
X36676Y-45566D01*
X36600Y-45750D01*
X36599Y-45949D01*
X36675Y-46132D01*
X36678Y-46135D01*
X36623Y-46173D01*
X36623Y-46173D01*
X36223Y-46573D01*
X36169Y-46654D01*
X36150Y-46750D01*
X36150Y-48000D01*
X36169Y-48095D01*
X36223Y-48176D01*
X36657Y-48611D01*
X36600Y-48750D01*
X36599Y-48949D01*
X36675Y-49132D01*
X36816Y-49273D01*
X37000Y-49349D01*
X37199Y-49350D01*
X37382Y-49274D01*
X37523Y-49133D01*
X37599Y-48949D01*
X37600Y-48750D01*
X37524Y-48567D01*
X37383Y-48426D01*
X37199Y-48350D01*
X37103Y-48350D01*
X37103Y-48350D01*
X37199Y-48350D01*
X37382Y-48274D01*
X37523Y-48133D01*
X37599Y-47949D01*
X37600Y-47750D01*
X37524Y-47567D01*
X37383Y-47426D01*
X37199Y-47350D01*
X37000Y-47349D01*
X36817Y-47425D01*
X36676Y-47566D01*
X36650Y-47629D01*
X36650Y-47070D01*
X36675Y-47132D01*
X36816Y-47273D01*
X37000Y-47349D01*
X37199Y-47350D01*
X37382Y-47274D01*
X37523Y-47133D01*
X37537Y-47100D01*
X39850Y-47100D01*
X39945Y-47080D01*
X40026Y-47026D01*
X45553Y-41500D01*
X47515Y-41500D01*
X47437Y-41531D01*
X47332Y-41637D01*
X47275Y-41775D01*
X47274Y-41924D01*
X47331Y-42062D01*
X47437Y-42167D01*
X47575Y-42224D01*
X47724Y-42225D01*
X47862Y-42168D01*
X47930Y-42100D01*
X51719Y-42100D01*
X51769Y-42150D01*
X48950Y-42150D01*
X48949Y-42150D01*
X48930Y-42153D01*
X48854Y-42169D01*
X48773Y-42223D01*
X48773Y-42223D01*
X48571Y-42425D01*
X48475Y-42424D01*
X48337Y-42481D01*
X48232Y-42587D01*
X48175Y-42725D01*
X48174Y-42874D01*
X48231Y-43012D01*
X48337Y-43117D01*
X48475Y-43174D01*
X48624Y-43175D01*
X48762Y-43118D01*
X48867Y-43012D01*
X48924Y-42874D01*
X48925Y-42778D01*
X49053Y-42650D01*
X51769Y-42650D01*
X51837Y-42717D01*
X51975Y-42774D01*
X52124Y-42775D01*
X52262Y-42718D01*
X52367Y-42612D01*
X52424Y-42474D01*
X52425Y-42325D01*
X52368Y-42187D01*
X52280Y-42099D01*
X52317Y-42062D01*
X52374Y-41924D01*
X52375Y-41775D01*
X52354Y-41724D01*
X52474Y-41725D01*
X52612Y-41668D01*
X52717Y-41562D01*
X52774Y-41424D01*
X52775Y-41275D01*
X52718Y-41137D01*
X52612Y-41032D01*
X52474Y-40975D01*
X52325Y-40974D01*
X52286Y-40991D01*
X51778Y-40685D01*
X51761Y-40679D01*
X51745Y-40669D01*
X51715Y-40663D01*
X51686Y-40652D01*
X51668Y-40653D01*
X51650Y-40650D01*
X51522Y-40650D01*
X51574Y-40524D01*
X51575Y-40408D01*
X52824Y-41121D01*
X52824Y-41124D01*
X52881Y-41262D01*
X52987Y-41367D01*
X53125Y-41424D01*
X53274Y-41425D01*
X53412Y-41368D01*
X53517Y-41262D01*
X53574Y-41124D01*
X53575Y-40975D01*
X53575Y-43121D01*
X53573Y-43123D01*
X53519Y-43204D01*
X53500Y-43300D01*
X53500Y-45965D01*
X53468Y-45887D01*
X53362Y-45782D01*
X53224Y-45725D01*
X53075Y-45724D01*
X52937Y-45781D01*
X52900Y-45819D01*
X52862Y-45782D01*
X52724Y-45725D01*
X52575Y-45724D01*
X52437Y-45781D01*
X52374Y-45844D01*
X52312Y-45782D01*
X52174Y-45725D01*
X52025Y-45724D01*
X51925Y-45766D01*
X51925Y-45275D01*
X51868Y-45137D01*
X51762Y-45032D01*
X51624Y-44975D01*
X51475Y-44974D01*
X51337Y-45031D01*
X51232Y-45137D01*
X51175Y-45275D01*
X51174Y-45367D01*
X51125Y-45347D01*
X51046Y-45346D01*
X51037Y-45350D01*
X51053Y-45313D01*
X51052Y-45214D01*
X51014Y-45122D01*
X50935Y-45043D01*
X50847Y-45043D01*
X50776Y-45113D01*
X50776Y-44972D01*
X50776Y-44884D01*
X50697Y-44804D01*
X50605Y-44766D01*
X50506Y-44766D01*
X50414Y-44804D01*
X50343Y-44874D01*
X50325Y-44893D01*
X50325Y-43225D01*
X50268Y-43087D01*
X50162Y-42982D01*
X50024Y-42925D01*
X49875Y-42924D01*
X49737Y-42981D01*
X49632Y-43087D01*
X49575Y-43225D01*
X49574Y-43321D01*
X49384Y-43512D01*
X49218Y-43347D01*
X49145Y-43316D01*
X49065Y-43316D01*
X48992Y-43346D01*
X48936Y-43403D01*
X48754Y-43584D01*
X48315Y-43584D01*
X48219Y-43603D01*
X48138Y-43658D01*
X47421Y-44375D01*
X47325Y-44374D01*
X47187Y-44431D01*
X47082Y-44537D01*
X47025Y-44675D01*
X47024Y-44824D01*
X47081Y-44962D01*
X47187Y-45067D01*
X47325Y-45124D01*
X47474Y-45125D01*
X47612Y-45068D01*
X47717Y-44962D01*
X47774Y-44824D01*
X47775Y-44728D01*
X48418Y-44084D01*
X48613Y-44084D01*
X48850Y-44322D01*
X48924Y-44352D01*
X49003Y-44353D01*
X49012Y-44349D01*
X48996Y-44386D01*
X48997Y-44485D01*
X49035Y-44577D01*
X49114Y-44656D01*
X49202Y-44656D01*
X49494Y-44365D01*
X49488Y-44359D01*
X49559Y-44288D01*
X49565Y-44294D01*
X49856Y-44002D01*
X49856Y-43914D01*
X49777Y-43835D01*
X49771Y-43832D01*
X49928Y-43674D01*
X50024Y-43675D01*
X50162Y-43618D01*
X50267Y-43512D01*
X50324Y-43374D01*
X50325Y-43225D01*
X50325Y-44893D01*
X50263Y-44954D01*
X50263Y-45043D01*
X50484Y-45264D01*
X50776Y-44972D01*
X50776Y-45113D01*
X50555Y-45334D01*
X50561Y-45340D01*
X50490Y-45411D01*
X50484Y-45405D01*
X50414Y-45476D01*
X50414Y-45334D01*
X50193Y-45113D01*
X50133Y-45113D01*
X50133Y-44343D01*
X50133Y-44244D01*
X50095Y-44152D01*
X50015Y-44073D01*
X49927Y-44073D01*
X49635Y-44365D01*
X49856Y-44586D01*
X49945Y-44586D01*
X50025Y-44506D01*
X50095Y-44435D01*
X50133Y-44343D01*
X50133Y-45113D01*
X50104Y-45113D01*
X50024Y-45193D01*
X49954Y-45264D01*
X49916Y-45356D01*
X49916Y-45455D01*
X49954Y-45547D01*
X50034Y-45626D01*
X50122Y-45626D01*
X50414Y-45334D01*
X50414Y-45476D01*
X50193Y-45697D01*
X50193Y-45785D01*
X50272Y-45864D01*
X50364Y-45902D01*
X50463Y-45903D01*
X50500Y-45887D01*
X50497Y-45895D01*
X50496Y-45975D01*
X50527Y-46049D01*
X50583Y-46105D01*
X50831Y-46352D01*
X50904Y-46383D01*
X50984Y-46383D01*
X51057Y-46353D01*
X51113Y-46296D01*
X51502Y-45907D01*
X51533Y-45834D01*
X51533Y-45754D01*
X51523Y-45730D01*
X51528Y-45724D01*
X51624Y-45725D01*
X51762Y-45668D01*
X51867Y-45562D01*
X51924Y-45424D01*
X51925Y-45275D01*
X51925Y-45766D01*
X51887Y-45781D01*
X51782Y-45887D01*
X51725Y-46025D01*
X51724Y-46174D01*
X51781Y-46312D01*
X51850Y-46380D01*
X51850Y-47450D01*
X51850Y-47850D01*
X51869Y-47945D01*
X51923Y-48026D01*
X52725Y-48828D01*
X52724Y-48924D01*
X52781Y-49062D01*
X52887Y-49167D01*
X53025Y-49224D01*
X53174Y-49225D01*
X53312Y-49168D01*
X53417Y-49062D01*
X53474Y-48924D01*
X53475Y-48775D01*
X53418Y-48637D01*
X53330Y-48549D01*
X53417Y-48462D01*
X53474Y-48324D01*
X53475Y-48175D01*
X53424Y-48054D01*
X53500Y-48023D01*
X53500Y-53419D01*
X53432Y-53487D01*
X53375Y-53625D01*
X53374Y-53774D01*
X53408Y-53854D01*
X53125Y-53571D01*
X53125Y-49875D01*
X53068Y-49737D01*
X52962Y-49632D01*
X52824Y-49575D01*
X52675Y-49574D01*
X52537Y-49631D01*
X52432Y-49737D01*
X52375Y-49875D01*
X52374Y-50024D01*
X52431Y-50162D01*
X52433Y-50163D01*
X52023Y-50573D01*
X52023Y-50573D01*
X51746Y-50850D01*
X50625Y-50850D01*
X50625Y-47375D01*
X50568Y-47237D01*
X50462Y-47132D01*
X50324Y-47075D01*
X50175Y-47074D01*
X50037Y-47131D01*
X49969Y-47200D01*
X49786Y-47200D01*
X49786Y-44745D01*
X49786Y-44656D01*
X49565Y-44435D01*
X49273Y-44727D01*
X49273Y-44815D01*
X49352Y-44895D01*
X49444Y-44933D01*
X49543Y-44933D01*
X49635Y-44895D01*
X49706Y-44825D01*
X49786Y-44745D01*
X49786Y-47200D01*
X47400Y-47200D01*
X47304Y-47219D01*
X47223Y-47273D01*
X44521Y-49975D01*
X44425Y-49974D01*
X44287Y-50031D01*
X44182Y-50137D01*
X44125Y-50275D01*
X44124Y-50424D01*
X44181Y-50562D01*
X44287Y-50667D01*
X44365Y-50700D01*
X40630Y-50700D01*
X40562Y-50632D01*
X40424Y-50575D01*
X40275Y-50574D01*
X40137Y-50631D01*
X40032Y-50737D01*
X39975Y-50875D01*
X39974Y-51024D01*
X40031Y-51162D01*
X40137Y-51267D01*
X40275Y-51324D01*
X40424Y-51325D01*
X40562Y-51268D01*
X40630Y-51200D01*
X44600Y-51200D01*
X44695Y-51180D01*
X44776Y-51126D01*
X47253Y-48650D01*
X49019Y-48650D01*
X49087Y-48717D01*
X49225Y-48774D01*
X49374Y-48775D01*
X49512Y-48718D01*
X49617Y-48612D01*
X49674Y-48474D01*
X49675Y-48325D01*
X49618Y-48187D01*
X49512Y-48082D01*
X49374Y-48025D01*
X49225Y-48024D01*
X49087Y-48081D01*
X49019Y-48150D01*
X47150Y-48150D01*
X47054Y-48169D01*
X46994Y-48208D01*
X47503Y-47700D01*
X49969Y-47700D01*
X50037Y-47767D01*
X50175Y-47824D01*
X50324Y-47825D01*
X50462Y-47768D01*
X50567Y-47662D01*
X50624Y-47524D01*
X50625Y-47375D01*
X50625Y-50850D01*
X47250Y-50850D01*
X47154Y-50869D01*
X47073Y-50923D01*
X46246Y-51750D01*
X40730Y-51750D01*
X40662Y-51682D01*
X40524Y-51625D01*
X40375Y-51624D01*
X40237Y-51681D01*
X40132Y-51787D01*
X40075Y-51925D01*
X40074Y-52074D01*
X40131Y-52212D01*
X40237Y-52317D01*
X40375Y-52374D01*
X40524Y-52375D01*
X40662Y-52318D01*
X40730Y-52250D01*
X46350Y-52250D01*
X46445Y-52230D01*
X46526Y-52176D01*
X47353Y-51350D01*
X51850Y-51350D01*
X51945Y-51330D01*
X52026Y-51276D01*
X52376Y-50926D01*
X52376Y-50926D01*
X52376Y-50926D01*
X52876Y-50426D01*
X52930Y-50345D01*
X52944Y-50275D01*
X52962Y-50268D01*
X53067Y-50162D01*
X53124Y-50024D01*
X53125Y-49875D01*
X53125Y-53571D01*
X51026Y-51473D01*
X50945Y-51419D01*
X50850Y-51400D01*
X47450Y-51400D01*
X47354Y-51419D01*
X47273Y-51473D01*
X46396Y-52350D01*
X42100Y-52350D01*
X42004Y-52369D01*
X41971Y-52390D01*
X41923Y-52423D01*
X41923Y-52423D01*
X39273Y-55073D01*
X39219Y-55154D01*
X39200Y-55250D01*
X39200Y-55646D01*
X38250Y-56596D01*
X38250Y-52372D01*
X38075Y-51949D01*
X37752Y-51625D01*
X37650Y-51583D01*
X37650Y-51199D01*
X37650Y-50500D01*
X37612Y-50408D01*
X37541Y-50338D01*
X37449Y-50300D01*
X37350Y-50299D01*
X37320Y-50299D01*
X37382Y-50274D01*
X37523Y-50133D01*
X37599Y-49949D01*
X37600Y-49750D01*
X37524Y-49567D01*
X37383Y-49426D01*
X37199Y-49350D01*
X37000Y-49349D01*
X36817Y-49425D01*
X36676Y-49566D01*
X36600Y-49750D01*
X36599Y-49949D01*
X36675Y-50132D01*
X36816Y-50273D01*
X36879Y-50299D01*
X36849Y-50299D01*
X36750Y-50300D01*
X36658Y-50338D01*
X36587Y-50408D01*
X36549Y-50500D01*
X36550Y-50737D01*
X36612Y-50800D01*
X37050Y-50800D01*
X37050Y-50792D01*
X37150Y-50792D01*
X37150Y-50800D01*
X37587Y-50800D01*
X37650Y-50737D01*
X37650Y-50500D01*
X37650Y-51199D01*
X37650Y-50962D01*
X37587Y-50900D01*
X37150Y-50900D01*
X37150Y-51337D01*
X37212Y-51400D01*
X37350Y-51400D01*
X37449Y-51399D01*
X37541Y-51361D01*
X37612Y-51291D01*
X37650Y-51199D01*
X37650Y-51583D01*
X37329Y-51450D01*
X37050Y-51449D01*
X37050Y-51337D01*
X37050Y-50900D01*
X36612Y-50900D01*
X36550Y-50962D01*
X36549Y-51199D01*
X36587Y-51291D01*
X36658Y-51361D01*
X36750Y-51399D01*
X36849Y-51400D01*
X36987Y-51400D01*
X37050Y-51337D01*
X37050Y-51449D01*
X36872Y-51449D01*
X36449Y-51624D01*
X36125Y-51947D01*
X35950Y-52370D01*
X35949Y-52827D01*
X36124Y-53250D01*
X36447Y-53574D01*
X36870Y-53749D01*
X37327Y-53750D01*
X37750Y-53575D01*
X38074Y-53252D01*
X38249Y-52829D01*
X38250Y-52372D01*
X38250Y-56596D01*
X37566Y-57279D01*
X37599Y-57199D01*
X37600Y-57000D01*
X37600Y-56000D01*
X37600Y-55000D01*
X37524Y-54817D01*
X37383Y-54676D01*
X37199Y-54600D01*
X37000Y-54599D01*
X36817Y-54675D01*
X36676Y-54816D01*
X36600Y-55000D01*
X36599Y-55199D01*
X36675Y-55382D01*
X36816Y-55523D01*
X37000Y-55599D01*
X37199Y-55600D01*
X37382Y-55524D01*
X37523Y-55383D01*
X37599Y-55199D01*
X37600Y-55000D01*
X37600Y-56000D01*
X37524Y-55817D01*
X37383Y-55676D01*
X37199Y-55600D01*
X37000Y-55599D01*
X36817Y-55675D01*
X36676Y-55816D01*
X36600Y-56000D01*
X36599Y-56199D01*
X36675Y-56382D01*
X36816Y-56523D01*
X37000Y-56599D01*
X37199Y-56600D01*
X37382Y-56524D01*
X37523Y-56383D01*
X37599Y-56199D01*
X37600Y-56000D01*
X37600Y-57000D01*
X37524Y-56817D01*
X37383Y-56676D01*
X37199Y-56600D01*
X37000Y-56599D01*
X36817Y-56675D01*
X36676Y-56816D01*
X36600Y-57000D01*
X36599Y-57199D01*
X36675Y-57382D01*
X36816Y-57523D01*
X37000Y-57599D01*
X37199Y-57600D01*
X37279Y-57566D01*
X37232Y-57613D01*
X37199Y-57600D01*
X37000Y-57599D01*
X36817Y-57675D01*
X36676Y-57816D01*
X36600Y-58000D01*
X36599Y-58199D01*
X36675Y-58382D01*
X36816Y-58523D01*
X37000Y-58599D01*
X37199Y-58600D01*
X37382Y-58524D01*
X37523Y-58383D01*
X37599Y-58199D01*
X37600Y-58000D01*
X37586Y-57967D01*
X39626Y-55926D01*
X39626Y-55926D01*
X39626Y-55926D01*
X39680Y-55845D01*
X39680Y-55845D01*
X39696Y-55769D01*
X39700Y-55750D01*
X39699Y-55750D01*
X39700Y-55750D01*
X39700Y-55353D01*
X42203Y-52850D01*
X43377Y-52850D01*
X43325Y-52975D01*
X43324Y-53124D01*
X43381Y-53262D01*
X43487Y-53367D01*
X43625Y-53424D01*
X43774Y-53425D01*
X43912Y-53368D01*
X43980Y-53300D01*
X50096Y-53300D01*
X52375Y-55578D01*
X52374Y-55674D01*
X52431Y-55812D01*
X52537Y-55917D01*
X52675Y-55974D01*
X52824Y-55975D01*
X52962Y-55918D01*
X53067Y-55812D01*
X53124Y-55674D01*
X53125Y-55525D01*
X53068Y-55387D01*
X52962Y-55282D01*
X52824Y-55225D01*
X52728Y-55224D01*
X50376Y-52873D01*
X50295Y-52819D01*
X50200Y-52800D01*
X46642Y-52800D01*
X46676Y-52776D01*
X47553Y-51900D01*
X49522Y-51900D01*
X49475Y-52015D01*
X49474Y-52184D01*
X49539Y-52340D01*
X49658Y-52460D01*
X49815Y-52524D01*
X49984Y-52525D01*
X50140Y-52460D01*
X50150Y-52450D01*
X50505Y-52450D01*
X53452Y-55397D01*
X57004Y-58949D01*
X57004Y-59048D01*
X57079Y-59230D01*
X57219Y-59369D01*
X57401Y-59445D01*
X57598Y-59445D01*
X57780Y-59370D01*
X57919Y-59230D01*
X57995Y-59048D01*
X57995Y-58851D01*
X57920Y-58669D01*
X57780Y-58530D01*
X57598Y-58454D01*
X57499Y-58454D01*
X54280Y-55235D01*
X54375Y-55274D01*
X54524Y-55275D01*
X54662Y-55218D01*
X54730Y-55150D01*
X56069Y-55150D01*
X56087Y-55167D01*
X56225Y-55224D01*
X56374Y-55225D01*
X56512Y-55168D01*
X56617Y-55062D01*
X56674Y-54924D01*
X56675Y-54775D01*
X56618Y-54637D01*
X56512Y-54532D01*
X56377Y-54476D01*
X57228Y-53624D01*
X57324Y-53625D01*
X57462Y-53568D01*
X57567Y-53462D01*
X57624Y-53324D01*
X57625Y-53175D01*
X57568Y-53037D01*
X57462Y-52932D01*
X57324Y-52875D01*
X57175Y-52874D01*
X57037Y-52931D01*
X56932Y-53037D01*
X56875Y-53175D01*
X56874Y-53271D01*
X56096Y-54050D01*
X53884Y-54050D01*
X53962Y-54018D01*
X54067Y-53912D01*
X54124Y-53774D01*
X54125Y-53625D01*
X54068Y-53487D01*
X54000Y-53419D01*
X54000Y-52193D01*
X54075Y-52224D01*
X54144Y-52224D01*
X54132Y-52237D01*
X54075Y-52375D01*
X54074Y-52524D01*
X54131Y-52662D01*
X54237Y-52767D01*
X54375Y-52824D01*
X54524Y-52825D01*
X54662Y-52768D01*
X54767Y-52662D01*
X54824Y-52524D01*
X54825Y-52428D01*
X56003Y-51250D01*
X60969Y-51250D01*
X61037Y-51317D01*
X61175Y-51374D01*
X61324Y-51375D01*
X61462Y-51318D01*
X61567Y-51212D01*
X61624Y-51074D01*
X61625Y-50928D01*
X63272Y-52575D01*
X63167Y-52581D01*
X63027Y-52639D01*
X63002Y-52732D01*
X63300Y-53029D01*
X63305Y-53023D01*
X63376Y-53094D01*
X63370Y-53100D01*
X63667Y-53397D01*
X63760Y-53372D01*
X63829Y-53175D01*
X63827Y-53131D01*
X65100Y-54403D01*
X65100Y-55250D01*
X65119Y-55345D01*
X65173Y-55426D01*
X65573Y-55826D01*
X65573Y-55826D01*
X65654Y-55880D01*
X65654Y-55880D01*
X65730Y-55896D01*
X65749Y-55900D01*
X65749Y-55899D01*
X65750Y-55900D01*
X66450Y-55900D01*
X66545Y-55880D01*
X66626Y-55826D01*
X67017Y-55436D01*
X67050Y-55449D01*
X67249Y-55450D01*
X67432Y-55374D01*
X67573Y-55233D01*
X67620Y-55121D01*
X67668Y-55237D01*
X67764Y-55265D01*
X68079Y-54950D01*
X68079Y-55091D01*
X67834Y-55335D01*
X67862Y-55431D01*
X68068Y-55504D01*
X68286Y-55493D01*
X68437Y-55431D01*
X68465Y-55335D01*
X68465Y-62200D01*
X66550Y-62200D01*
X66550Y-59300D01*
X66550Y-58799D01*
X66549Y-58700D01*
X66511Y-58608D01*
X66441Y-58537D01*
X66349Y-58499D01*
X66112Y-58500D01*
X66050Y-58562D01*
X66050Y-59000D01*
X66487Y-59000D01*
X66550Y-58937D01*
X66550Y-58799D01*
X66550Y-59300D01*
X66550Y-59162D01*
X66487Y-59100D01*
X66050Y-59100D01*
X66050Y-59107D01*
X65950Y-59107D01*
X65950Y-59100D01*
X65942Y-59100D01*
X65942Y-59000D01*
X65950Y-59000D01*
X65950Y-58562D01*
X65887Y-58500D01*
X65650Y-58499D01*
X65558Y-58537D01*
X65488Y-58608D01*
X65450Y-58700D01*
X65449Y-58799D01*
X65449Y-58829D01*
X65424Y-58767D01*
X65283Y-58626D01*
X65099Y-58550D01*
X64900Y-58549D01*
X64717Y-58625D01*
X64576Y-58766D01*
X64500Y-58950D01*
X64500Y-58951D01*
X64500Y-58950D01*
X64424Y-58767D01*
X64283Y-58626D01*
X64099Y-58550D01*
X63900Y-58549D01*
X63829Y-58579D01*
X63829Y-56175D01*
X63818Y-55967D01*
X63760Y-55827D01*
X63667Y-55802D01*
X63597Y-55873D01*
X63597Y-55732D01*
X63597Y-53467D01*
X63300Y-53170D01*
X63229Y-53241D01*
X63229Y-53100D01*
X62932Y-52802D01*
X62839Y-52827D01*
X62770Y-53024D01*
X62781Y-53232D01*
X62839Y-53372D01*
X62932Y-53397D01*
X63229Y-53100D01*
X63229Y-53241D01*
X63002Y-53467D01*
X63027Y-53560D01*
X63224Y-53629D01*
X63432Y-53618D01*
X63572Y-53560D01*
X63597Y-53467D01*
X63597Y-55732D01*
X63572Y-55639D01*
X63375Y-55570D01*
X63167Y-55581D01*
X63027Y-55639D01*
X63002Y-55732D01*
X63300Y-56029D01*
X63597Y-55732D01*
X63597Y-55873D01*
X63370Y-56100D01*
X63667Y-56397D01*
X63760Y-56372D01*
X63829Y-56175D01*
X63829Y-58579D01*
X63717Y-58625D01*
X63642Y-58700D01*
X63597Y-58700D01*
X63597Y-56467D01*
X63300Y-56170D01*
X63229Y-56241D01*
X63229Y-56100D01*
X62932Y-55802D01*
X62839Y-55827D01*
X62770Y-56024D01*
X62781Y-56232D01*
X62839Y-56372D01*
X62932Y-56397D01*
X63229Y-56100D01*
X63229Y-56241D01*
X63002Y-56467D01*
X63027Y-56560D01*
X63224Y-56629D01*
X63432Y-56618D01*
X63572Y-56560D01*
X63597Y-56467D01*
X63597Y-58700D01*
X63450Y-58700D01*
X63450Y-57700D01*
X63423Y-57566D01*
X63347Y-57452D01*
X62892Y-56997D01*
X62868Y-56937D01*
X62762Y-56832D01*
X62624Y-56775D01*
X62475Y-56774D01*
X62337Y-56831D01*
X62232Y-56937D01*
X62175Y-57075D01*
X62174Y-57224D01*
X62231Y-57362D01*
X62337Y-57467D01*
X62397Y-57492D01*
X62750Y-57844D01*
X62750Y-59155D01*
X62255Y-59650D01*
X61775Y-59650D01*
X61775Y-56005D01*
X61775Y-53005D01*
X61702Y-52831D01*
X61569Y-52697D01*
X61394Y-52625D01*
X61205Y-52624D01*
X61031Y-52697D01*
X60897Y-52830D01*
X60825Y-53005D01*
X60824Y-53194D01*
X60897Y-53368D01*
X61030Y-53502D01*
X61205Y-53574D01*
X61394Y-53575D01*
X61568Y-53502D01*
X61702Y-53369D01*
X61774Y-53194D01*
X61775Y-53005D01*
X61775Y-56005D01*
X61702Y-55831D01*
X61569Y-55697D01*
X61394Y-55625D01*
X61205Y-55624D01*
X61031Y-55697D01*
X60897Y-55830D01*
X60825Y-56005D01*
X60824Y-56194D01*
X60897Y-56368D01*
X61030Y-56502D01*
X61205Y-56574D01*
X61394Y-56575D01*
X61568Y-56502D01*
X61702Y-56369D01*
X61774Y-56194D01*
X61775Y-56005D01*
X61775Y-59650D01*
X60018Y-59650D01*
X60018Y-59030D01*
X60007Y-58813D01*
X59945Y-58664D01*
X59850Y-58638D01*
X59780Y-58708D01*
X59780Y-58567D01*
X59753Y-58472D01*
X59549Y-58399D01*
X59332Y-58410D01*
X59183Y-58472D01*
X59156Y-58567D01*
X59468Y-58879D01*
X59780Y-58567D01*
X59780Y-58708D01*
X59539Y-58950D01*
X59850Y-59261D01*
X59945Y-59235D01*
X60018Y-59030D01*
X60018Y-59650D01*
X59780Y-59650D01*
X59780Y-59332D01*
X59468Y-59020D01*
X59397Y-59091D01*
X59397Y-58950D01*
X59086Y-58638D01*
X58991Y-58664D01*
X58918Y-58869D01*
X58929Y-59086D01*
X58991Y-59235D01*
X59086Y-59261D01*
X59397Y-58950D01*
X59397Y-59091D01*
X59156Y-59332D01*
X59183Y-59427D01*
X59387Y-59500D01*
X59604Y-59489D01*
X59753Y-59427D01*
X59780Y-59332D01*
X59780Y-59650D01*
X56300Y-59650D01*
X56194Y-59650D01*
X55881Y-59336D01*
X55881Y-59300D01*
X55951Y-59230D01*
X56026Y-59048D01*
X56026Y-58851D01*
X55951Y-58669D01*
X55812Y-58530D01*
X55630Y-58454D01*
X55433Y-58454D01*
X55251Y-58529D01*
X55111Y-58669D01*
X55036Y-58851D01*
X55036Y-59048D01*
X55111Y-59230D01*
X55181Y-59300D01*
X55181Y-59481D01*
X55208Y-59615D01*
X55284Y-59728D01*
X55802Y-60247D01*
X55916Y-60323D01*
X56050Y-60350D01*
X56300Y-60350D01*
X62400Y-60350D01*
X62533Y-60323D01*
X62533Y-60323D01*
X62647Y-60247D01*
X63347Y-59547D01*
X63347Y-59547D01*
X63347Y-59547D01*
X63494Y-59400D01*
X63642Y-59400D01*
X63716Y-59473D01*
X63900Y-59549D01*
X64099Y-59550D01*
X64282Y-59474D01*
X64423Y-59333D01*
X64499Y-59149D01*
X64500Y-58950D01*
X64500Y-58951D01*
X64499Y-59149D01*
X64575Y-59332D01*
X64716Y-59473D01*
X64900Y-59549D01*
X65099Y-59550D01*
X65282Y-59474D01*
X65423Y-59333D01*
X65449Y-59270D01*
X65449Y-59300D01*
X65450Y-59399D01*
X65488Y-59491D01*
X65558Y-59562D01*
X65650Y-59600D01*
X65779Y-59600D01*
X65717Y-59625D01*
X65576Y-59766D01*
X65500Y-59950D01*
X65500Y-59951D01*
X65500Y-59950D01*
X65424Y-59767D01*
X65283Y-59626D01*
X65099Y-59550D01*
X64900Y-59549D01*
X64717Y-59625D01*
X64576Y-59766D01*
X64500Y-59950D01*
X64500Y-59951D01*
X64500Y-59950D01*
X64424Y-59767D01*
X64283Y-59626D01*
X64099Y-59550D01*
X63900Y-59549D01*
X63717Y-59625D01*
X63576Y-59766D01*
X63500Y-59950D01*
X63499Y-60149D01*
X63575Y-60332D01*
X63716Y-60473D01*
X63900Y-60549D01*
X64099Y-60550D01*
X64282Y-60474D01*
X64423Y-60333D01*
X64499Y-60149D01*
X64500Y-59950D01*
X64500Y-59951D01*
X64499Y-60149D01*
X64575Y-60332D01*
X64716Y-60473D01*
X64900Y-60549D01*
X65099Y-60550D01*
X65282Y-60474D01*
X65423Y-60333D01*
X65499Y-60149D01*
X65500Y-59950D01*
X65500Y-59951D01*
X65499Y-60149D01*
X65575Y-60332D01*
X65716Y-60473D01*
X65900Y-60549D01*
X66099Y-60550D01*
X66282Y-60474D01*
X66423Y-60333D01*
X66499Y-60149D01*
X66500Y-59950D01*
X66424Y-59767D01*
X66283Y-59626D01*
X66220Y-59600D01*
X66349Y-59600D01*
X66441Y-59562D01*
X66511Y-59491D01*
X66549Y-59399D01*
X66550Y-59300D01*
X66550Y-62200D01*
X43700Y-62200D01*
X43700Y-58000D01*
X43700Y-57000D01*
X43700Y-56000D01*
X43700Y-55000D01*
X43624Y-54817D01*
X43483Y-54676D01*
X43299Y-54600D01*
X43100Y-54599D01*
X42917Y-54675D01*
X42776Y-54816D01*
X42750Y-54879D01*
X42750Y-54750D01*
X42712Y-54658D01*
X42641Y-54588D01*
X42549Y-54550D01*
X42450Y-54549D01*
X42312Y-54550D01*
X42250Y-54612D01*
X42250Y-55050D01*
X42257Y-55050D01*
X42257Y-55150D01*
X42250Y-55150D01*
X42250Y-55157D01*
X42150Y-55157D01*
X42150Y-55150D01*
X42150Y-55050D01*
X42150Y-54612D01*
X42087Y-54550D01*
X41949Y-54549D01*
X41850Y-54550D01*
X41758Y-54588D01*
X41687Y-54658D01*
X41649Y-54750D01*
X41650Y-54987D01*
X41712Y-55050D01*
X42150Y-55050D01*
X42150Y-55150D01*
X41712Y-55150D01*
X41650Y-55212D01*
X41649Y-55449D01*
X41687Y-55541D01*
X41758Y-55611D01*
X41850Y-55649D01*
X41949Y-55650D01*
X41979Y-55650D01*
X41917Y-55675D01*
X41776Y-55816D01*
X41700Y-56000D01*
X41699Y-56199D01*
X41775Y-56382D01*
X41916Y-56523D01*
X42100Y-56599D01*
X42299Y-56600D01*
X42482Y-56524D01*
X42623Y-56383D01*
X42699Y-56199D01*
X42700Y-56000D01*
X42624Y-55817D01*
X42483Y-55676D01*
X42420Y-55650D01*
X42450Y-55650D01*
X42549Y-55649D01*
X42641Y-55611D01*
X42712Y-55541D01*
X42750Y-55449D01*
X42750Y-55320D01*
X42775Y-55382D01*
X42916Y-55523D01*
X43100Y-55599D01*
X43299Y-55600D01*
X43482Y-55524D01*
X43623Y-55383D01*
X43699Y-55199D01*
X43700Y-55000D01*
X43700Y-56000D01*
X43624Y-55817D01*
X43483Y-55676D01*
X43299Y-55600D01*
X43100Y-55599D01*
X42917Y-55675D01*
X42776Y-55816D01*
X42700Y-56000D01*
X42699Y-56199D01*
X42775Y-56382D01*
X42916Y-56523D01*
X43100Y-56599D01*
X43299Y-56600D01*
X43482Y-56524D01*
X43623Y-56383D01*
X43699Y-56199D01*
X43700Y-56000D01*
X43700Y-57000D01*
X43624Y-56817D01*
X43483Y-56676D01*
X43299Y-56600D01*
X43100Y-56599D01*
X42917Y-56675D01*
X42776Y-56816D01*
X42700Y-57000D01*
X42700Y-57001D01*
X42700Y-57000D01*
X42624Y-56817D01*
X42483Y-56676D01*
X42299Y-56600D01*
X42100Y-56599D01*
X41917Y-56675D01*
X41776Y-56816D01*
X41700Y-57000D01*
X41699Y-57199D01*
X41775Y-57382D01*
X41916Y-57523D01*
X42100Y-57599D01*
X42299Y-57600D01*
X42482Y-57524D01*
X42623Y-57383D01*
X42699Y-57199D01*
X42700Y-57000D01*
X42700Y-57001D01*
X42699Y-57199D01*
X42775Y-57382D01*
X42916Y-57523D01*
X43100Y-57599D01*
X43299Y-57600D01*
X43482Y-57524D01*
X43623Y-57383D01*
X43699Y-57199D01*
X43700Y-57000D01*
X43700Y-58000D01*
X43624Y-57817D01*
X43483Y-57676D01*
X43299Y-57600D01*
X43100Y-57599D01*
X42917Y-57675D01*
X42776Y-57816D01*
X42700Y-58000D01*
X42700Y-58001D01*
X42700Y-58000D01*
X42624Y-57817D01*
X42483Y-57676D01*
X42299Y-57600D01*
X42100Y-57599D01*
X41917Y-57675D01*
X41776Y-57816D01*
X41700Y-58000D01*
X41699Y-58199D01*
X41775Y-58382D01*
X41916Y-58523D01*
X42100Y-58599D01*
X42299Y-58600D01*
X42482Y-58524D01*
X42623Y-58383D01*
X42699Y-58199D01*
X42700Y-58000D01*
X42700Y-58001D01*
X42699Y-58199D01*
X42775Y-58382D01*
X42916Y-58523D01*
X43100Y-58599D01*
X43299Y-58600D01*
X43482Y-58524D01*
X43623Y-58383D01*
X43699Y-58199D01*
X43700Y-58000D01*
X43700Y-62200D01*
X37600Y-62200D01*
X37600Y-59000D01*
X37524Y-58817D01*
X37383Y-58676D01*
X37199Y-58600D01*
X37000Y-58599D01*
X36817Y-58675D01*
X36676Y-58816D01*
X36600Y-59000D01*
X36599Y-59199D01*
X36675Y-59382D01*
X36816Y-59523D01*
X37000Y-59599D01*
X37060Y-59599D01*
X36760Y-59599D01*
X36686Y-59630D01*
X36630Y-59686D01*
X36600Y-59760D01*
X36599Y-59839D01*
X36599Y-60439D01*
X36630Y-60513D01*
X36686Y-60569D01*
X36760Y-60599D01*
X36839Y-60600D01*
X37439Y-60600D01*
X37513Y-60569D01*
X37569Y-60513D01*
X37599Y-60439D01*
X37600Y-60360D01*
X37600Y-59760D01*
X37569Y-59686D01*
X37513Y-59630D01*
X37439Y-59600D01*
X37360Y-59599D01*
X37199Y-59599D01*
X37382Y-59524D01*
X37523Y-59383D01*
X37599Y-59199D01*
X37600Y-59000D01*
X37600Y-62200D01*
X35650Y-62200D01*
X35650Y-28450D01*
X68800Y-28450D01*
X68800Y-62200D01*
M02*
