G04 (created by PCBNEW (2013-may-18)-stable) date Thu 11 Jun 2015 01:15:37 PM EDT*
%MOIN*%
G04 Gerber Fmt 3.4, Leading zero omitted, Abs format*
%FSLAX34Y34*%
G01*
G70*
G90*
G04 APERTURE LIST*
%ADD10C,0.00590551*%
%ADD11C,0.0039*%
%ADD12C,0.0043*%
G04 APERTURE END LIST*
G54D10*
G54D11*
X55747Y-38971D02*
G75*
G03X55747Y-38971I-49J0D01*
G74*
G01*
X55379Y-38653D02*
X55662Y-38936D01*
X55662Y-38936D02*
X56086Y-38512D01*
X56086Y-38512D02*
X55803Y-38229D01*
X55520Y-37946D02*
X55237Y-37663D01*
X55237Y-37663D02*
X54813Y-38087D01*
X54813Y-38087D02*
X55096Y-38370D01*
X49828Y-37897D02*
G75*
G03X49828Y-37897I-49J0D01*
G74*
G01*
X50096Y-37579D02*
X49813Y-37862D01*
X49813Y-37862D02*
X50237Y-38286D01*
X50237Y-38286D02*
X50520Y-38003D01*
X50803Y-37720D02*
X51086Y-37437D01*
X51086Y-37437D02*
X50662Y-37013D01*
X50662Y-37013D02*
X50379Y-37296D01*
X49597Y-44771D02*
G75*
G03X49597Y-44771I-49J0D01*
G74*
G01*
X49229Y-44453D02*
X49512Y-44736D01*
X49512Y-44736D02*
X49936Y-44312D01*
X49936Y-44312D02*
X49653Y-44029D01*
X49370Y-43746D02*
X49087Y-43463D01*
X49087Y-43463D02*
X48663Y-43887D01*
X48663Y-43887D02*
X48946Y-44170D01*
X57371Y-44402D02*
G75*
G03X57371Y-44402I-49J0D01*
G74*
G01*
X57003Y-44720D02*
X57286Y-44437D01*
X57286Y-44437D02*
X56862Y-44013D01*
X56862Y-44013D02*
X56579Y-44296D01*
X56296Y-44579D02*
X56013Y-44862D01*
X56013Y-44862D02*
X56437Y-45286D01*
X56437Y-45286D02*
X56720Y-45003D01*
X51047Y-46271D02*
G75*
G03X51047Y-46271I-49J0D01*
G74*
G01*
X50679Y-45953D02*
X50962Y-46236D01*
X50962Y-46236D02*
X51386Y-45812D01*
X51386Y-45812D02*
X51103Y-45529D01*
X50820Y-45246D02*
X50537Y-44963D01*
X50537Y-44963D02*
X50113Y-45387D01*
X50113Y-45387D02*
X50396Y-45670D01*
G54D12*
X55830Y-37966D02*
X55830Y-37979D01*
X55843Y-38006D01*
X55856Y-38019D01*
X55883Y-38032D01*
X55909Y-38032D01*
X55929Y-38026D01*
X55962Y-38006D01*
X55982Y-37986D01*
X56002Y-37953D01*
X56009Y-37933D01*
X56009Y-37906D01*
X55995Y-37880D01*
X55982Y-37866D01*
X55956Y-37853D01*
X55942Y-37853D01*
X55909Y-37793D02*
X55816Y-37701D01*
X55737Y-37900D01*
X55209Y-38971D02*
X55288Y-39051D01*
X55249Y-39011D02*
X55388Y-38872D01*
X55381Y-38905D01*
X55381Y-38932D01*
X55388Y-38952D01*
X55262Y-38746D02*
X55249Y-38733D01*
X55229Y-38726D01*
X55215Y-38726D01*
X55195Y-38733D01*
X55162Y-38753D01*
X55129Y-38786D01*
X55109Y-38819D01*
X55103Y-38839D01*
X55103Y-38852D01*
X55109Y-38872D01*
X55122Y-38885D01*
X55142Y-38892D01*
X55156Y-38892D01*
X55176Y-38885D01*
X55209Y-38865D01*
X55242Y-38832D01*
X55262Y-38799D01*
X55268Y-38779D01*
X55268Y-38766D01*
X55262Y-38746D01*
X55129Y-38613D02*
X55116Y-38600D01*
X55096Y-38593D01*
X55083Y-38593D01*
X55063Y-38600D01*
X55030Y-38620D01*
X54996Y-38653D01*
X54977Y-38686D01*
X54970Y-38706D01*
X54970Y-38719D01*
X54977Y-38739D01*
X54990Y-38753D01*
X55010Y-38759D01*
X55023Y-38759D01*
X55043Y-38753D01*
X55076Y-38733D01*
X55109Y-38700D01*
X55129Y-38666D01*
X55136Y-38646D01*
X55136Y-38633D01*
X55129Y-38613D01*
X54977Y-38554D02*
X54884Y-38646D01*
X54963Y-38567D02*
X54963Y-38554D01*
X54957Y-38534D01*
X54937Y-38514D01*
X54917Y-38507D01*
X54897Y-38514D01*
X54824Y-38587D01*
X54784Y-38401D02*
X54831Y-38447D01*
X54758Y-38520D02*
X54897Y-38381D01*
X54831Y-38315D01*
X50604Y-37758D02*
X50617Y-37758D01*
X50644Y-37745D01*
X50657Y-37731D01*
X50671Y-37705D01*
X50671Y-37678D01*
X50664Y-37658D01*
X50644Y-37625D01*
X50624Y-37605D01*
X50591Y-37585D01*
X50571Y-37579D01*
X50545Y-37579D01*
X50518Y-37592D01*
X50505Y-37605D01*
X50491Y-37632D01*
X50491Y-37645D01*
X50405Y-37798D02*
X50498Y-37890D01*
X50385Y-37711D02*
X50518Y-37778D01*
X50432Y-37864D01*
X50615Y-37384D02*
X50695Y-37305D01*
X50655Y-37344D02*
X50516Y-37205D01*
X50549Y-37212D01*
X50576Y-37212D01*
X50596Y-37205D01*
X50390Y-37331D02*
X50377Y-37344D01*
X50370Y-37364D01*
X50370Y-37378D01*
X50377Y-37398D01*
X50397Y-37431D01*
X50430Y-37464D01*
X50463Y-37484D01*
X50483Y-37490D01*
X50496Y-37490D01*
X50516Y-37484D01*
X50529Y-37470D01*
X50536Y-37451D01*
X50536Y-37437D01*
X50529Y-37417D01*
X50509Y-37384D01*
X50476Y-37351D01*
X50443Y-37331D01*
X50423Y-37325D01*
X50410Y-37325D01*
X50390Y-37331D01*
X50257Y-37464D02*
X50244Y-37477D01*
X50237Y-37497D01*
X50237Y-37510D01*
X50244Y-37530D01*
X50264Y-37563D01*
X50297Y-37597D01*
X50330Y-37616D01*
X50350Y-37623D01*
X50363Y-37623D01*
X50383Y-37616D01*
X50397Y-37603D01*
X50403Y-37583D01*
X50403Y-37570D01*
X50397Y-37550D01*
X50377Y-37517D01*
X50343Y-37484D01*
X50310Y-37464D01*
X50290Y-37457D01*
X50277Y-37457D01*
X50257Y-37464D01*
X50198Y-37616D02*
X50290Y-37709D01*
X50211Y-37630D02*
X50198Y-37630D01*
X50178Y-37636D01*
X50158Y-37656D01*
X50151Y-37676D01*
X50158Y-37696D01*
X50231Y-37769D01*
X50045Y-37809D02*
X50091Y-37762D01*
X50164Y-37835D02*
X50025Y-37696D01*
X49959Y-37762D01*
X49368Y-44077D02*
X49368Y-44091D01*
X49381Y-44117D01*
X49395Y-44131D01*
X49421Y-44144D01*
X49448Y-44144D01*
X49467Y-44137D01*
X49501Y-44117D01*
X49521Y-44097D01*
X49540Y-44064D01*
X49547Y-44044D01*
X49547Y-44018D01*
X49534Y-43991D01*
X49521Y-43978D01*
X49494Y-43965D01*
X49481Y-43965D01*
X49368Y-43825D02*
X49434Y-43892D01*
X49375Y-43965D01*
X49375Y-43951D01*
X49368Y-43932D01*
X49335Y-43898D01*
X49315Y-43892D01*
X49302Y-43892D01*
X49282Y-43898D01*
X49249Y-43932D01*
X49242Y-43951D01*
X49242Y-43965D01*
X49249Y-43985D01*
X49282Y-44018D01*
X49302Y-44024D01*
X49315Y-44024D01*
X49353Y-44478D02*
X49432Y-44557D01*
X49392Y-44517D02*
X49532Y-44378D01*
X49525Y-44411D01*
X49525Y-44438D01*
X49532Y-44458D01*
X49406Y-44252D02*
X49392Y-44239D01*
X49373Y-44232D01*
X49359Y-44232D01*
X49339Y-44239D01*
X49306Y-44259D01*
X49273Y-44292D01*
X49253Y-44325D01*
X49247Y-44345D01*
X49247Y-44358D01*
X49253Y-44378D01*
X49266Y-44391D01*
X49286Y-44398D01*
X49300Y-44398D01*
X49319Y-44391D01*
X49353Y-44371D01*
X49386Y-44338D01*
X49406Y-44305D01*
X49412Y-44285D01*
X49412Y-44272D01*
X49406Y-44252D01*
X49273Y-44119D02*
X49260Y-44106D01*
X49240Y-44099D01*
X49227Y-44099D01*
X49207Y-44106D01*
X49174Y-44126D01*
X49140Y-44159D01*
X49120Y-44192D01*
X49114Y-44212D01*
X49114Y-44225D01*
X49120Y-44245D01*
X49134Y-44259D01*
X49154Y-44265D01*
X49167Y-44265D01*
X49187Y-44259D01*
X49220Y-44239D01*
X49253Y-44206D01*
X49273Y-44172D01*
X49280Y-44152D01*
X49280Y-44139D01*
X49273Y-44119D01*
X49120Y-44060D02*
X49028Y-44152D01*
X49107Y-44073D02*
X49107Y-44060D01*
X49101Y-44040D01*
X49081Y-44020D01*
X49061Y-44013D01*
X49041Y-44020D01*
X48968Y-44093D01*
X48928Y-43907D02*
X48975Y-43953D01*
X48902Y-44026D02*
X49041Y-43887D01*
X48975Y-43821D01*
X56627Y-44581D02*
X56641Y-44581D01*
X56667Y-44568D01*
X56681Y-44554D01*
X56694Y-44528D01*
X56694Y-44501D01*
X56687Y-44482D01*
X56667Y-44448D01*
X56647Y-44428D01*
X56614Y-44409D01*
X56594Y-44402D01*
X56568Y-44402D01*
X56541Y-44415D01*
X56528Y-44428D01*
X56515Y-44455D01*
X56515Y-44468D01*
X56382Y-44574D02*
X56409Y-44548D01*
X56428Y-44541D01*
X56442Y-44541D01*
X56475Y-44548D01*
X56508Y-44568D01*
X56561Y-44621D01*
X56568Y-44641D01*
X56568Y-44654D01*
X56561Y-44674D01*
X56535Y-44700D01*
X56515Y-44707D01*
X56501Y-44707D01*
X56482Y-44700D01*
X56448Y-44667D01*
X56442Y-44647D01*
X56442Y-44634D01*
X56448Y-44614D01*
X56475Y-44588D01*
X56495Y-44581D01*
X56508Y-44581D01*
X56528Y-44588D01*
X57028Y-44596D02*
X57107Y-44517D01*
X57067Y-44557D02*
X56928Y-44417D01*
X56961Y-44424D01*
X56988Y-44424D01*
X57008Y-44417D01*
X56802Y-44543D02*
X56789Y-44557D01*
X56782Y-44576D01*
X56782Y-44590D01*
X56789Y-44610D01*
X56809Y-44643D01*
X56842Y-44676D01*
X56875Y-44696D01*
X56895Y-44702D01*
X56908Y-44702D01*
X56928Y-44696D01*
X56941Y-44683D01*
X56948Y-44663D01*
X56948Y-44649D01*
X56941Y-44630D01*
X56921Y-44596D01*
X56888Y-44563D01*
X56855Y-44543D01*
X56835Y-44537D01*
X56822Y-44537D01*
X56802Y-44543D01*
X56669Y-44676D02*
X56656Y-44689D01*
X56649Y-44709D01*
X56649Y-44722D01*
X56656Y-44742D01*
X56676Y-44775D01*
X56709Y-44809D01*
X56742Y-44829D01*
X56762Y-44835D01*
X56775Y-44835D01*
X56795Y-44829D01*
X56809Y-44815D01*
X56815Y-44795D01*
X56815Y-44782D01*
X56809Y-44762D01*
X56789Y-44729D01*
X56756Y-44696D01*
X56722Y-44676D01*
X56702Y-44669D01*
X56689Y-44669D01*
X56669Y-44676D01*
X56610Y-44829D02*
X56702Y-44921D01*
X56623Y-44842D02*
X56610Y-44842D01*
X56590Y-44848D01*
X56570Y-44868D01*
X56563Y-44888D01*
X56570Y-44908D01*
X56643Y-44981D01*
X56457Y-45021D02*
X56503Y-44974D01*
X56576Y-45047D02*
X56437Y-44908D01*
X56371Y-44974D01*
X50818Y-45577D02*
X50818Y-45591D01*
X50831Y-45617D01*
X50845Y-45631D01*
X50871Y-45644D01*
X50898Y-45644D01*
X50917Y-45637D01*
X50951Y-45617D01*
X50971Y-45597D01*
X50990Y-45564D01*
X50997Y-45544D01*
X50997Y-45518D01*
X50984Y-45491D01*
X50971Y-45478D01*
X50944Y-45465D01*
X50931Y-45465D01*
X50898Y-45405D02*
X50811Y-45319D01*
X50805Y-45418D01*
X50785Y-45398D01*
X50765Y-45392D01*
X50752Y-45392D01*
X50732Y-45398D01*
X50699Y-45432D01*
X50692Y-45451D01*
X50692Y-45465D01*
X50699Y-45485D01*
X50738Y-45524D01*
X50758Y-45531D01*
X50772Y-45531D01*
X50803Y-45978D02*
X50882Y-46057D01*
X50842Y-46017D02*
X50982Y-45878D01*
X50975Y-45911D01*
X50975Y-45938D01*
X50982Y-45958D01*
X50856Y-45752D02*
X50842Y-45739D01*
X50823Y-45732D01*
X50809Y-45732D01*
X50789Y-45739D01*
X50756Y-45759D01*
X50723Y-45792D01*
X50703Y-45825D01*
X50697Y-45845D01*
X50697Y-45858D01*
X50703Y-45878D01*
X50716Y-45891D01*
X50736Y-45898D01*
X50750Y-45898D01*
X50769Y-45891D01*
X50803Y-45871D01*
X50836Y-45838D01*
X50856Y-45805D01*
X50862Y-45785D01*
X50862Y-45772D01*
X50856Y-45752D01*
X50723Y-45619D02*
X50710Y-45606D01*
X50690Y-45599D01*
X50677Y-45599D01*
X50657Y-45606D01*
X50624Y-45626D01*
X50590Y-45659D01*
X50570Y-45692D01*
X50564Y-45712D01*
X50564Y-45725D01*
X50570Y-45745D01*
X50584Y-45759D01*
X50604Y-45765D01*
X50617Y-45765D01*
X50637Y-45759D01*
X50670Y-45739D01*
X50703Y-45706D01*
X50723Y-45672D01*
X50730Y-45652D01*
X50730Y-45639D01*
X50723Y-45619D01*
X50570Y-45560D02*
X50478Y-45652D01*
X50557Y-45573D02*
X50557Y-45560D01*
X50551Y-45540D01*
X50531Y-45520D01*
X50511Y-45513D01*
X50491Y-45520D01*
X50418Y-45593D01*
X50378Y-45407D02*
X50425Y-45453D01*
X50352Y-45526D02*
X50491Y-45387D01*
X50425Y-45321D01*
M02*
